<svg id="Layer_1" data-name="Layer 1" xmlns="http://www.w3.org/2000/svg" viewBox="0 0 829 829"><defs><style>.cls-1{fill:#646469;}.cls-2{fill:#f0f0f0;}.cls-3,.cls-5{fill:#f05023;}.cls-4,.cls-6,.cls-7,.cls-8{fill:none;}.cls-5,.cls-6{stroke:#f05023;}.cls-5,.cls-6,.cls-7,.cls-8{stroke-miterlimit:10;}.cls-5{stroke-width:2px;}.cls-6,.cls-7{stroke-width:3px;}.cls-7,.cls-8{stroke:#f0f0f0;}.cls-8{stroke-width:5px;}</style></defs><title>miutrgv_default</title><rect class="cls-1" width="829" height="829"/><rect class="cls-1" x="140.954" y="499.976" width="6.254" height="2.085"/><path class="cls-2" d="M433.107,680.563c0-6.948.112-14.738.289-19.341h-.281c-1.914,8.308-5.986,21.875-9.891,34.616h-7.5c-2.97-11.14-7.181-26.594-8.967-34.727h-.274c.348,4.777.517,13.158.517,20.141v14.586h-8.025V655.116h13.1c3.175,10.64,6.734,23.987,7.958,30.058h.066c1-5.353,5.47-19.624,8.867-30.058H441.6v40.722h-8.494Z" transform="translate(-266.656 -268.375)"/><path class="cls-2" d="M474.906,687.939a68.808,68.808,0,0,0,.414,7.9h-8.087a12.508,12.508,0,0,1-.428-2.988c-1.108,1.718-3.187,3.7-8.6,3.7-7.372,0-10.481-4.846-10.481-9.588,0-6.965,5.593-10.178,14.557-10.178h4.363v-1.869c0-2.173-.782-4.311-4.708-4.311-3.573,0-4.356,1.519-4.745,3.732h-8.05c.459-5.432,3.819-9.829,13.114-9.777,8.19.052,12.646,3.252,12.646,10.529Zm-8.25-6.019h-3.448c-5.1,0-6.993,1.557-6.993,4.506,0,2.213,1.358,4.076,4.4,4.076,5.379,0,6.04-3.739,6.04-7.778Z" transform="translate(-266.656 -268.375)"/><path class="cls-2" d="M509.273,685.959c-1.054,5.1-4.636,10.588-13.747,10.588-9.515,0-14.408-6.585-14.408-15.773,0-9.028,5.507-16.218,14.815-16.218,10.309,0,13.172,7.4,13.34,10.855h-8.264c-.522-2.49-1.935-4.231-5.239-4.231-3.87,0-6.062,3.392-6.062,9.32,0,6.509,2.32,9.475,6.026,9.475,2.908,0,4.467-1.717,5.223-4.016Z" transform="translate(-266.656 -268.375)"/><path class="cls-2" d="M523.342,652.722v16.153c1.342-1.98,3.82-4.319,8.758-4.319,5.7,0,10.242,3.375,10.242,11.667v19.615h-8.413V677.49c0-3.976-1.41-6.088-4.961-6.088-4.7,0-5.626,3.5-5.626,8.217v16.219h-8.465V652.722Z" transform="translate(-266.656 -268.375)"/><path class="cls-2" d="M550.375,652.722h8.464v7.549h-8.464Zm0,12.543h8.464v30.573h-8.464Z" transform="translate(-266.656 -268.375)"/><path class="cls-2" d="M566.905,672.967c0-2.6,0-5.443-.059-7.7h8.2a36.173,36.173,0,0,1,.327,3.9c1.039-1.921,3.513-4.6,8.869-4.6,6.14,0,10.131,4.15,10.131,11.833v19.449h-8.465V677.329c0-3.437-1.146-5.927-4.881-5.927-3.6,0-5.654,2-5.654,7.4v17.038h-8.466Z" transform="translate(-266.656 -268.375)"/><path class="cls-2" d="M609.025,682.362c.007,3.824,1.922,7.562,6.137,7.562,3.524,0,4.53-1.415,5.334-3.266h8.472c-1.085,3.743-4.423,9.889-14.029,9.889-10.069,0-14.439-7.529-14.439-15.551,0-9.591,4.922-16.44,14.742-16.44,10.5,0,14.071,7.6,14.071,15.228a18.806,18.806,0,0,1-.111,2.578Zm11.808-5.2c-.059-3.559-1.48-6.555-5.605-6.555-4.056,0-5.688,2.8-6.026,6.555Z" transform="translate(-266.656 -268.375)"/><path class="cls-2" d="M659.516,655.116v40.722H650.71V655.116Z" transform="translate(-266.656 -268.375)"/><path class="cls-2" d="M667.728,672.967c0-2.6,0-5.443-.059-7.7h8.2a35.929,35.929,0,0,1,.326,3.9c1.04-1.921,3.514-4.6,8.87-4.6,6.141,0,10.131,4.15,10.131,11.833v19.449h-8.465V677.329c0-3.437-1.146-5.927-4.88-5.927-3.6,0-5.656,2-5.656,7.4v17.038h-8.464Z" transform="translate(-266.656 -268.375)"/><path class="cls-2" d="M699.55,665.265h4.714v-8.278h8.465v8.278h5.989v6.364h-5.989v15.089c0,2.319.709,3.221,3.232,3.221a15.645,15.645,0,0,0,1.927-.093v5.822a19.243,19.243,0,0,1-5.69.584c-5.965,0-7.934-3.19-7.934-8.539V671.629H699.55Z" transform="translate(-266.656 -268.375)"/><path class="cls-2" d="M730.521,682.362c.006,3.824,1.922,7.562,6.136,7.562,3.525,0,4.531-1.415,5.334-3.266h8.472c-1.084,3.743-4.423,9.889-14.027,9.889-10.071,0-14.44-7.529-14.44-15.551,0-9.591,4.922-16.44,14.741-16.44,10.5,0,14.072,7.6,14.072,15.228a18.64,18.64,0,0,1-.112,2.578Zm11.808-5.2c-.059-3.559-1.481-6.555-5.6-6.555-4.056,0-5.689,2.8-6.027,6.555Z" transform="translate(-266.656 -268.375)"/><path class="cls-2" d="M756.982,695.838V652.722h8.465v43.116Z" transform="translate(-266.656 -268.375)"/><path class="cls-2" d="M773.462,695.838V652.722h8.465v43.116Z" transform="translate(-266.656 -268.375)"/><path class="cls-2" d="M789.939,652.722H798.4v7.549h-8.465Zm0,12.543H798.4v30.573h-8.465Z" transform="translate(-266.656 -268.375)"/><path class="cls-2" d="M834.235,692.114c0,9.815-3.622,16.025-15.2,16.025-11.162,0-13.363-6.237-13.656-9.686H814c.6,2.1,2.142,3.529,5.407,3.529,5.494,0,6.529-3.349,6.529-9.343V691.18c-1.594,2.643-4.126,4.3-8.616,4.3-8.054,0-12.643-6.6-12.643-14.819,0-9.559,5.722-16.1,13.368-16.1,5.245,0,7.429,2.471,7.891,3.9.059-.829.274-2.688.333-3.189H834.3c-.052,2.727-.066,5.834-.066,8.773Zm-20.86-11.837c0,5.262,2.63,8.366,6.376,8.366,5.1,0,6.456-3.5,6.456-8.63s-.906-8.677-6.278-8.677C816.256,671.336,813.375,674.168,813.375,680.277Z" transform="translate(-266.656 -268.375)"/><path class="cls-2" d="M849.122,682.362c.007,3.824,1.923,7.562,6.137,7.562,3.524,0,4.53-1.415,5.334-3.266h8.471c-1.084,3.743-4.422,9.889-14.027,9.889-10.07,0-14.439-7.529-14.439-15.551,0-9.591,4.922-16.44,14.741-16.44,10.5,0,14.071,7.6,14.071,15.228a18.806,18.806,0,0,1-.111,2.578Zm11.809-5.2c-.06-3.559-1.482-6.555-5.606-6.555-4.055,0-5.688,2.8-6.026,6.555Z" transform="translate(-266.656 -268.375)"/><path class="cls-2" d="M875.812,672.967c0-2.6,0-5.443-.059-7.7h8.2a35.929,35.929,0,0,1,.326,3.9c1.04-1.921,3.514-4.6,8.87-4.6,6.141,0,10.131,4.15,10.131,11.833v19.449h-8.465V677.329c0-3.437-1.146-5.927-4.88-5.927-3.6,0-5.656,2-5.656,7.4v17.038h-8.464Z" transform="translate(-266.656 -268.375)"/><path class="cls-2" d="M937.667,685.959c-1.053,5.1-4.635,10.588-13.746,10.588-9.516,0-14.408-6.585-14.408-15.773,0-9.028,5.508-16.218,14.814-16.218,10.31,0,13.173,7.4,13.34,10.855H929.4c-.522-2.49-1.934-4.231-5.239-4.231-3.869,0-6.061,3.392-6.061,9.32,0,6.509,2.32,9.475,6.026,9.475,2.907,0,4.467-1.717,5.223-4.016Z" transform="translate(-266.656 -268.375)"/><path class="cls-2" d="M950.477,682.362c.006,3.824,1.922,7.562,6.136,7.562,3.525,0,4.531-1.415,5.334-3.266h8.472c-1.084,3.743-4.423,9.889-14.027,9.889-10.071,0-14.44-7.529-14.44-15.551,0-9.591,4.922-16.44,14.741-16.44,10.5,0,14.071,7.6,14.071,15.228a18.806,18.806,0,0,1-.111,2.578Zm11.808-5.2c-.059-3.559-1.481-6.555-5.605-6.555-4.056,0-5.689,2.8-6.027,6.555Z" transform="translate(-266.656 -268.375)"/><path class="cls-3" d="M298.853,724.338H290.37v-4.947h22.977v4.947H304.9v22.973h-6.042Z" transform="translate(-266.656 -268.375)"/><path class="cls-3" d="M322.54,717.749v11.074a6.725,6.725,0,0,1,6-2.96c3.91,0,7.023,2.313,7.023,8v13.45H329.8V734.73c0-2.726-.967-4.173-3.4-4.173-3.224,0-3.857,2.4-3.857,5.632v11.122h-5.8V717.749Z" transform="translate(-266.656 -268.375)"/><path class="cls-3" d="M345.694,738.07c0,2.622,1.318,5.184,4.207,5.184,2.417,0,3.107-.969,3.658-2.237h5.808c-.743,2.565-3.033,6.779-9.617,6.779-6.9,0-9.9-5.162-9.9-10.662,0-6.575,3.374-11.271,10.107-11.271,7.2,0,9.647,5.207,9.647,10.44a12.728,12.728,0,0,1-.077,1.767Zm8.1-3.564c-.04-2.441-1.015-4.494-3.843-4.494-2.781,0-3.9,1.918-4.132,4.494Z" transform="translate(-266.656 -268.375)"/><path class="cls-3" d="M379.951,719.391v16.634c0,5.359,2.755,6.946,5.765,6.946,3.455,0,5.623-1.877,5.623-6.946V719.391h6.042v16.336c0,9.545-5.589,11.978-11.746,11.978-6.3,0-11.731-2.538-11.731-11.863V719.391Z" transform="translate(-266.656 -268.375)"/><path class="cls-3" d="M402.515,731.629c0-1.781,0-3.732-.041-5.28H408.1a24.734,24.734,0,0,1,.223,2.671c.713-1.317,2.409-3.157,6.081-3.157,4.21,0,6.946,2.844,6.946,8.112v13.336h-5.8V734.62c0-2.356-.786-4.063-3.347-4.063-2.466,0-3.877,1.371-3.877,5.072v11.682h-5.8Z" transform="translate(-266.656 -268.375)"/><path class="cls-3" d="M426.78,717.749h5.8v5.176h-5.8Zm0,8.6h5.8v20.962h-5.8Z" transform="translate(-266.656 -268.375)"/><path class="cls-3" d="M442.094,726.349c2,7.1,3.659,13.309,4.072,15.83h.04c.588-3.459,2.642-9.779,4.467-15.83h5.783l-7.405,20.962h-6.1l-7.1-20.962Z" transform="translate(-266.656 -268.375)"/><path class="cls-3" d="M463.878,738.07c0,2.622,1.318,5.184,4.207,5.184,2.417,0,3.107-.969,3.658-2.237h5.808c-.743,2.565-3.032,6.779-9.617,6.779-6.905,0-9.9-5.162-9.9-10.662,0-6.575,3.374-11.271,10.107-11.271,7.2,0,9.647,5.207,9.647,10.44a12.728,12.728,0,0,1-.077,1.767Zm8.1-3.564c-.04-2.441-1.015-4.494-3.843-4.494-2.781,0-3.9,1.918-4.131,4.494Z" transform="translate(-266.656 -268.375)"/><path class="cls-3" d="M482.145,732.035c0-2.084,0-3.933-.041-5.686H487.8c.077.469.153,2.549.153,3.68.925-2.4,3.16-4.147,6.725-4.166V731.4c-4.212-.108-6.725,1.026-6.725,6.772v9.139h-5.8Z" transform="translate(-266.656 -268.375)"/><path class="cls-3" d="M502.664,741.008c.439,1.67,1.8,2.607,3.968,2.607,2.142,0,2.923-.768,2.923-2.038,0-1.346-.9-1.874-3.9-2.61-6.828-1.684-7.945-3.8-7.945-6.756,0-3.079,2.176-6.348,8.5-6.348,6.358,0,8.509,3.471,8.691,6.311h-5.519c-.186-.774-.7-2.238-3.432-2.238-1.919,0-2.539.85-2.539,1.793,0,1.042.651,1.546,4.054,2.339,6.994,1.627,7.983,4.025,7.983,7.1,0,3.471-2.64,6.63-9.031,6.63-6.364,0-8.991-3.071-9.451-6.788Z" transform="translate(-266.656 -268.375)"/><path class="cls-3" d="M519.568,717.749h5.8v5.176h-5.8Zm0,8.6h5.8v20.962h-5.8Z" transform="translate(-266.656 -268.375)"/><path class="cls-3" d="M528.869,726.349H532.1v-5.676h5.8v5.676h4.106v4.363H537.9v10.345c0,1.59.486,2.209,2.216,2.209a10.478,10.478,0,0,0,1.321-.065v3.992a13.177,13.177,0,0,1-3.9.4c-4.09,0-5.44-2.188-5.44-5.856V730.712h-3.232Z" transform="translate(-266.656 -268.375)"/><path class="cls-3" d="M550.363,726.349c2.165,7.233,4.054,13.686,4.386,15.624h.041c.453-2.114,1.681-6.811,4.183-15.624h5.777l-7.042,21.565c-2,6.029-3.676,7.829-8.711,7.829-.515,0-1.714-.04-2.718-.157v-4.663a14.977,14.977,0,0,0,1.5.086c2.132,0,3.206-.74,3.991-3.058l-7.628-21.6Z" transform="translate(-266.656 -268.375)"/><path class="cls-3" d="M597.432,736.789c0,6.342-3.8,11.007-10.435,11.007-6.5,0-10.295-4.638-10.295-10.9,0-6.468,3.912-11.037,10.569-11.037C593.441,725.863,597.432,730.217,597.432,736.789Zm-14.841.04c0,4.035,1.737,6.425,4.532,6.425,2.841,0,4.419-2.392,4.419-6.389,0-4.386-1.609-6.461-4.5-6.461C584.351,730.4,582.591,732.4,582.591,736.829Z" transform="translate(-266.656 -268.375)"/><path class="cls-3" d="M602.52,747.311v-16.6h-3.055v-4.363h3.055v-1.841c0-4.329,2.148-7.164,6.684-7.164a11.982,11.982,0,0,1,2.7.248v4.582a7.523,7.523,0,0,0-1.224-.1c-1.712,0-2.353.631-2.353,2.871v1.4h3.665v4.363h-3.665v16.6Z" transform="translate(-266.656 -268.375)"/><path class="cls-3" d="M630.681,724.338H622.2v-4.947h22.976v4.947h-8.451v22.973h-6.042Z" transform="translate(-266.656 -268.375)"/><path class="cls-3" d="M649.5,738.07c0,2.622,1.318,5.184,4.208,5.184,2.416,0,3.106-.969,3.657-2.237h5.808c-.743,2.565-3.032,6.779-9.617,6.779-6.905,0-9.9-5.162-9.9-10.662,0-6.575,3.374-11.271,10.107-11.271,7.2,0,9.646,5.207,9.646,10.44a12.894,12.894,0,0,1-.076,1.767Zm8.1-3.564c-.04-2.441-1.015-4.494-3.843-4.494-2.781,0-3.9,1.918-4.131,4.494Z" transform="translate(-266.656 -268.375)"/><path class="cls-3" d="M671.381,726.349c2.184,3.947,3.072,5.5,3.7,6.569h.04c.723-1.27,2-3.58,3.7-6.569h6.444l-6.8,9.978,6.775,10.984h-6.565c-1.882-3.549-3.061-5.843-3.676-7.047h-.041c-.556,1.1-1.986,3.822-3.7,7.047h-6.342l6.491-10.215-6.452-10.747Z" transform="translate(-266.656 -268.375)"/><path class="cls-3" d="M705.721,741.9a47.339,47.339,0,0,0,.283,5.416h-5.545a8.593,8.593,0,0,1-.293-2.049c-.76,1.177-2.185,2.534-5.893,2.534-5.054,0-7.185-3.322-7.185-6.573,0-4.776,3.834-6.979,9.979-6.979h2.993v-1.281c0-1.49-.537-2.955-3.228-2.955-2.451,0-2.987,1.041-3.254,2.558H688.06c.314-3.724,2.618-6.739,8.991-6.7,5.614.035,8.67,2.229,8.67,7.218Zm-5.657-4.127H697.7c-3.5,0-4.794,1.067-4.794,3.088a2.691,2.691,0,0,0,3.018,2.795c3.687,0,4.141-2.563,4.141-5.333Z" transform="translate(-266.656 -268.375)"/><path class="cls-3" d="M715.174,741.008c.438,1.67,1.8,2.607,3.968,2.607,2.142,0,2.923-.768,2.923-2.038,0-1.346-.9-1.874-3.9-2.61-6.829-1.684-7.946-3.8-7.946-6.756,0-3.079,2.177-6.348,8.5-6.348,6.358,0,8.51,3.471,8.691,6.311h-5.518c-.187-.774-.7-2.238-3.432-2.238-1.919,0-2.54.85-2.54,1.793,0,1.042.651,1.546,4.055,2.339,6.993,1.627,7.983,4.025,7.983,7.1,0,3.471-2.641,6.63-9.032,6.63-6.363,0-8.99-3.071-9.45-6.788Z" transform="translate(-266.656 -268.375)"/><path class="cls-3" d="M748.781,736.135v11.176h-5.9v-27.92h12.267c6.088,0,9.366,3.352,9.366,7.664a6.683,6.683,0,0,1-4.058,6.606c1.383.511,3.47,1.95,3.47,6.948v1.378a22.281,22.281,0,0,0,.4,5.324h-5.721c-.491-1.215-.583-3.305-.583-6.27v-.408c0-3.053-.77-4.5-5.27-4.5Zm0-4.8h5.062c3.305,0,4.58-1.258,4.58-3.592,0-2.271-1.485-3.543-4.437-3.543h-5.205Z" transform="translate(-266.656 -268.375)"/><path class="cls-3" d="M769.1,717.749h5.8v5.176h-5.8Zm0,8.6h5.8v20.962h-5.8Z" transform="translate(-266.656 -268.375)"/><path class="cls-3" d="M799.9,736.789c0,6.342-3.8,11.007-10.435,11.007-6.5,0-10.295-4.638-10.295-10.9,0-6.468,3.912-11.037,10.568-11.037C795.906,725.863,799.9,730.217,799.9,736.789Zm-14.84.04c0,4.035,1.736,6.425,4.531,6.425,2.841,0,4.42-2.392,4.42-6.389,0-4.386-1.61-6.461-4.5-6.461C786.815,730.4,785.057,732.4,785.057,736.829Z" transform="translate(-266.656 -268.375)"/><path class="cls-4" d="M839.265,747.311H834.84a15.48,15.48,0,0,1-.461-2.754c-1.548,2.087-4.275,3.22-8.154,3.22-8.105,0-12.632-6.125-12.632-14.077,0-8.392,4.882-14.715,13.683-14.715,7.184,0,11.412,4.055,12.089,8.816h-6.037c-.573-1.87-2.048-4.082-6.133-4.082-5.732,0-7.368,4.795-7.368,9.717,0,4.8,1.87,9.535,7.4,9.535,5.163,0,6.113-3.582,6.113-6.08v-.253h-6.122v-4.949h12.042Z" transform="translate(-266.656 -268.375)"/><path class="cls-3" d="M844.791,732.035c0-2.084-.005-3.933-.04-5.686h5.691c.077.469.153,2.549.153,3.68.925-2.4,3.16-4.147,6.725-4.166V731.4c-4.211-.108-6.725,1.026-6.725,6.772v9.139h-5.8Z" transform="translate(-266.656 -268.375)"/><path class="cls-3" d="M877.729,741.9a47.275,47.275,0,0,0,.284,5.416h-5.545a8.593,8.593,0,0,1-.293-2.049c-.76,1.177-2.185,2.534-5.893,2.534-5.054,0-7.185-3.322-7.185-6.573,0-4.776,3.834-6.979,9.979-6.979h2.992v-1.281c0-1.49-.536-2.955-3.228-2.955-2.45,0-2.986,1.041-3.253,2.558h-5.519c.315-3.724,2.619-6.739,8.991-6.7,5.615.035,8.67,2.229,8.67,7.218Zm-5.656-4.127h-2.365c-3.5,0-4.794,1.067-4.794,3.088a2.691,2.691,0,0,0,3.018,2.795c3.687,0,4.141-2.563,4.141-5.333Z" transform="translate(-266.656 -268.375)"/><path class="cls-3" d="M883.305,731.629c0-1.781,0-3.732-.041-5.28h5.621a24.991,24.991,0,0,1,.223,2.671c.713-1.317,2.409-3.157,6.081-3.157,4.21,0,6.946,2.844,6.946,8.112v13.336h-5.8V734.62c0-2.356-.785-4.063-3.346-4.063-2.465,0-3.877,1.371-3.877,5.072v11.682h-5.8Z" transform="translate(-266.656 -268.375)"/><path class="cls-3" d="M926.8,717.749v23.8c0,1.908,0,3.843.041,5.761h-5.58c-.117-.629-.229-1.713-.265-2.19-1.012,1.65-2.816,2.675-5.947,2.675-5.3,0-8.673-4.257-8.673-10.8,0-6.45,3.585-11.138,9.519-11.138,3.017,0,4.636,1.064,5.1,2V717.749Zm-14.463,19.1c0,4.087,1.592,6.3,4.432,6.3,3.992,0,4.451-3.329,4.451-6.34,0-3.584-.507-6.3-4.3-6.3C913.875,730.512,912.339,732.891,912.339,736.849Z" transform="translate(-266.656 -268.375)"/><path class="cls-3" d="M936.853,738.07c0,2.622,1.317,5.184,4.207,5.184,2.417,0,3.106-.969,3.657-2.237h5.808c-.743,2.565-3.032,6.779-9.618,6.779-6.9,0-9.9-5.162-9.9-10.662,0-6.575,3.375-11.271,10.107-11.271,7.2,0,9.647,5.207,9.647,10.44a12.894,12.894,0,0,1-.076,1.767Zm8.1-3.564c-.04-2.441-1.015-4.494-3.843-4.494-2.781,0-3.9,1.918-4.131,4.494Z" transform="translate(-266.656 -268.375)"/><path class="cls-3" d="M971.993,747.311l-9.851-27.92h6.484l4.152,12.9c1.259,3.9,2.221,7.213,2.865,10.065h.081c.571-2.605,1.659-6.017,2.989-9.975l4.355-12.986h6.159l-10.114,27.92Z" transform="translate(-266.656 -268.375)"/><path class="cls-3" d="M1006.971,741.9a47.339,47.339,0,0,0,.283,5.416h-5.545a8.593,8.593,0,0,1-.293-2.049c-.76,1.177-2.185,2.534-5.893,2.534-5.054,0-7.185-3.322-7.185-6.573,0-4.776,3.834-6.979,9.979-6.979h2.993v-1.281c0-1.49-.537-2.955-3.228-2.955-2.451,0-2.987,1.041-3.254,2.558H989.31c.314-3.724,2.618-6.739,8.991-6.7,5.614.035,8.67,2.229,8.67,7.218Zm-5.657-4.127h-2.365c-3.5,0-4.794,1.067-4.794,3.088a2.691,2.691,0,0,0,3.018,2.795c3.687,0,4.141-2.563,4.141-5.333Z" transform="translate(-266.656 -268.375)"/><path class="cls-3" d="M1012.511,747.311V717.749h5.8v29.562Z" transform="translate(-266.656 -268.375)"/><path class="cls-3" d="M1023.81,747.311V717.749h5.8v29.562Z" transform="translate(-266.656 -268.375)"/><path class="cls-3" d="M1039.726,738.07c0,2.622,1.317,5.184,4.207,5.184,2.417,0,3.106-.969,3.657-2.237h5.808c-.743,2.565-3.032,6.779-9.618,6.779-6.9,0-9.9-5.162-9.9-10.662,0-6.575,3.375-11.271,10.107-11.271,7.2,0,9.647,5.207,9.647,10.44a12.894,12.894,0,0,1-.076,1.767Zm8.095-3.564c-.04-2.441-1.015-4.494-3.842-4.494-2.782,0-3.9,1.918-4.132,4.494Z" transform="translate(-266.656 -268.375)"/><path class="cls-3" d="M1061.775,726.349c2.165,7.233,4.054,13.686,4.386,15.624h.04c.454-2.114,1.682-6.811,4.184-15.624h5.778l-7.043,21.565c-2,6.029-3.676,7.829-8.711,7.829-.514,0-1.714-.04-2.719-.157v-4.663a15.016,15.016,0,0,0,1.5.086c2.131,0,3.2-.74,3.992-3.058l-7.629-21.6Z" transform="translate(-266.656 -268.375)"/><rect class="cls-3" x="488.923" y="475.602" width="10.126" height="3.375"/><path class="cls-5" d="M832.314,723.787v4.067h3.7V721.2a23.724,23.724,0,0,0-3.142-.925,20.845,20.845,0,0,0-5.36-.554,15.308,15.308,0,0,0-9.242,3.142,12.945,12.945,0,0,0-2.958,3.327,13.653,13.653,0,0,0-1.663,7.948,14.056,14.056,0,0,0,1.479,6.285,12.13,12.13,0,0,0,3.511,4.251c2.674,2,5.47,2.221,7.764,2.4a21.987,21.987,0,0,0,9.242-1.294v-8.318h2.772v-3.142H828.8v3.142h2.957v5.915c-4.277,1.177-8.626.345-11.09-2.4-2.02-2.252-2.28-5.241-2.4-6.654a11.832,11.832,0,0,1,.924-6.1,8.567,8.567,0,0,1,2.588-3.511,9.334,9.334,0,0,1,5.73-1.664A13.277,13.277,0,0,1,832.314,723.787Z" transform="translate(-266.656 -268.375)"/><path class="cls-6" d="M676.942,500.576V618.753a17.814,17.814,0,0,1-14.079,4.432c-.818-.111-8.293-1.245-12.2-7.977a20.616,20.616,0,0,1-13.454-3.841,18.392,18.392,0,0,1-7.2-11.522,19.805,19.805,0,0,1-7.2-10.341,18.6,18.6,0,0,1,.313-10.931,15.529,15.529,0,0,1,0-19.5,12.341,12.341,0,0,1-1.565-10.341,12.479,12.479,0,0,1,4.693-6.2,13.394,13.394,0,0,1,1.565-10.34,13.717,13.717,0,0,1,4.693-4.432,14.189,14.189,0,0,1,2.19-7.977,15.746,15.746,0,0,1,7.822-6.2c4.022-7.651,7.205-9.394,9.073-10.341,1.907-.966,3.358-.557,8.448-2.068,4.081-1.211,4.548-1.72,6.57-2.068A18.3,18.3,0,0,1,676.942,500.576Z" transform="translate(-266.656 -268.375)"/><path class="cls-6" d="M650.384,615.054a13.625,13.625,0,0,1,0-9.025,13.358,13.358,0,0,1,3.949-5.641" transform="translate(-266.656 -268.375)"/><path class="cls-6" d="M623.307,578.388a18.843,18.843,0,0,1,11.846-9.026" transform="translate(-266.656 -268.375)"/><path class="cls-6" d="M625.563,542.849a12.847,12.847,0,0,1,13.539-1.692" transform="translate(-266.656 -268.375)"/><path class="cls-6" d="M639.666,515a14.195,14.195,0,0,1,16.359,1.692" transform="translate(-266.656 -268.375)"/><path class="cls-6" d="M639.1,591.362A26.247,26.247,0,0,1,662.794,575" transform="translate(-266.656 -268.375)"/><path class="cls-6" d="M650.355,578.478a16.2,16.2,0,0,1-2.227-9.68,15.862,15.862,0,0,1,2.256-6.769" transform="translate(-266.656 -268.375)"/><path class="cls-6" d="M676.9,550.747a25.883,25.883,0,0,0-11.846-10.718,22.793,22.793,0,0,0-3.385-1.128" transform="translate(-266.656 -268.375)"/><path class="cls-6" d="M647.563,537.772a12.767,12.767,0,0,0-8.461,4.513c-3.926,4.849-2.419,10.693-2.256,11.282" transform="translate(-266.656 -268.375)"/><circle class="cls-5" cx="370.189" cy="284.91" r="0.564"/><circle class="cls-5" cx="395.34" cy="270.592" r="0.564"/><circle class="cls-5" cx="395.904" cy="306.694" r="0.564"/><path class="cls-5" d="M649.868,562.1a.564.564,0,1,0,.564-.564A.564.564,0,0,0,649.868,562.1Z" transform="translate(-266.656 -268.375)"/><circle class="cls-5" cx="387.724" cy="332.079" r="0.564"/><circle class="cls-5" cx="372.494" cy="323.053" r="0.564"/><circle class="cls-5" cx="368.263" cy="301.053" r="0.564"/><circle class="cls-5" cx="389.135" cy="248.074" r="0.564"/><circle class="cls-5" cx="380.673" cy="269.464" r="0.564"/><path class="cls-6" d="M676.9,526.49a11.357,11.357,0,0,1-12.411-3.948" transform="translate(-266.656 -268.375)"/><circle class="cls-5" cx="397.776" cy="254.185" r="0.564"/><path class="cls-6" d="M677.837,588.167a11.356,11.356,0,0,0-12.41,3.948" transform="translate(-266.656 -268.375)"/><circle class="cls-5" cx="398.717" cy="323.722" r="0.564"/><polyline class="cls-7" points="443.364 332.577 447.312 347.243 434.902 355.141 420.8 350.628 420.8 232.731 430.389 230.474 446.748 234.423 455.774 244.577 442.235 248.526"/><polyline class="cls-7" points="455.774 346.679 469.312 332.577 476.082 310.013 463.107 301.551"/><polyline class="cls-7" points="478.338 300.987 478.338 281.244 467.62 271.654 458.594 272.782 450.133 269.962"/><polyline class="cls-7" points="421.061 282.372 427.005 271.654 436.03 271.09"/><polyline class="cls-7" points="421.061 319.838 430.953 319.603 432.646 324.115"/><polyline class="cls-7" points="420.8 258.68 429.261 258.68 433.21 254.731"/><line class="cls-7" x1="458.594" y1="272.782" x2="461.415" y2="285.756"/><path class="cls-7" d="M701.558,575.567c.565,0,12.411,1.128,12.411,1.128l11.282,15.231" transform="translate(-266.656 -268.375)"/><polyline class="cls-7" points="447.312 308.32 450.133 301.551 447.312 294.218"/><path class="cls-7" d="M728.635,518.593c.564,0,10.154,9.026,10.154,9.026l2.257,8.461" transform="translate(-266.656 -268.375)"/><circle class="cls-8" cx="432.646" cy="254.731" r="1.128"/><circle class="cls-8" cx="436.03" cy="271.09" r="1.128"/><circle class="cls-8" cx="443.364" cy="332.577" r="1.128"/><circle class="cls-8" cx="433.49" cy="325.803" r="1.128"/><circle class="cls-8" cx="442.8" cy="248.526" r="1.128"/><circle class="cls-8" cx="450.133" cy="269.962" r="1.128"/><circle class="cls-8" cx="447.312" cy="294.218" r="1.128"/><circle class="cls-8" cx="434.902" cy="307.192" r="1.128"/><circle class="cls-8" cx="461.415" cy="285.756" r="1.128"/><circle class="cls-8" cx="463.107" cy="301.551" r="1.128"/><circle class="cls-8" cx="456.902" cy="345.551" r="1.128"/><circle class="cls-8" cx="458.594" cy="323.551" r="1.128"/><circle class="cls-8" cx="474.389" cy="266.577" r="1.128"/><circle class="cls-8" cx="478.338" cy="299.295" r="1.128"/><circle class="cls-8" cx="462.543" cy="250.782" r="1.128"/><rect class="cls-3" x="29.957" y="475.602" width="10.126" height="3.375"/><rect class="cls-3" x="47.673" y="475.602" width="10.126" height="3.375"/><rect class="cls-3" x="60.752" y="475.602" width="10.126" height="3.375"/><rect class="cls-3" x="105.447" y="450.813" width="10.126" height="3.375"/><rect class="cls-3" x="122.723" y="450.813" width="10.126" height="3.375"/><rect class="cls-3" x="361.51" y="475.602" width="10.126" height="3.375"/><rect class="cls-3" x="333.808" y="475.602" width="10.126" height="3.375"/><rect class="cls-3" x="213.285" y="475.602" width="10.126" height="3.375"/><rect class="cls-3" x="250.442" y="475.602" width="10.126" height="3.375"/><rect class="cls-3" x="147.128" y="475.602" width="10.126" height="3.375"/><rect class="cls-3" x="133.712" y="475.602" width="10.126" height="3.375"/><rect class="cls-3" x="158.205" y="475.602" width="10.126" height="3.375"/><rect class="cls-3" x="288.185" y="721.712" width="7.805" height="3.375" transform="translate(-697.968 747.113) rotate(-90)"/><rect class="cls-3" x="307.719" y="721.755" width="7.805" height="3.375" transform="translate(-678.477 766.689) rotate(-90)"/><rect class="cls-3" x="619.809" y="721.712" width="7.805" height="3.375" transform="translate(-366.345 1078.736) rotate(-90)"/><rect class="cls-3" x="639.469" y="721.712" width="7.805" height="3.375" transform="translate(-346.685 1098.396) rotate(-90)"/><rect class="cls-3" x="47.673" y="449.308" width="7.966" height="3.375"/><rect class="cls-3" x="133.712" y="457.928" width="7.15" height="3.375"/><rect class="cls-3" x="213.285" y="457.915" width="6.894" height="3.375"/><rect class="cls-3" x="250.159" y="457.915" width="7.991" height="3.375"/><rect class="cls-3" x="157.879" y="457.915" width="7.991" height="3.375"/><rect class="cls-3" x="167.864" y="457.915" width="10.126" height="3.375"/><rect class="cls-3" x="180.521" y="457.915" width="10.126" height="3.375"/><rect class="cls-3" x="397.99" y="475.559" width="10.126" height="3.375"/><rect class="cls-3" x="408.96" y="475.559" width="10.126" height="3.375"/><rect class="cls-3" x="397.147" y="457.915" width="10.126" height="3.375"/><rect class="cls-3" x="408.96" y="457.915" width="10.126" height="3.375"/><rect class="cls-3" x="434.22" y="475.602" width="6.75" height="3.375"/><rect class="cls-3" x="473.878" y="475.602" width="10.126" height="3.375"/><rect class="cls-3" x="499.614" y="475.602" width="10.126" height="3.375"/><rect class="cls-3" x="499.614" y="457.957" width="8.016" height="3.375"/><rect class="cls-3" x="473.034" y="450.987" width="10.126" height="3.375"/><rect class="cls-3" x="575.977" y="475.602" width="10.126" height="3.375"/><rect class="cls-3" x="614.791" y="475.602" width="10.126" height="3.375"/><rect class="cls-3" x="628.292" y="475.602" width="10.126" height="3.375"/><rect class="cls-3" x="614.791" y="457.957" width="7.594" height="3.375"/><rect class="cls-3" x="606.353" y="475.602" width="6.75" height="3.375"/><rect class="cls-3" x="655.293" y="475.602" width="7.594" height="3.375"/><rect class="cls-3" x="651.918" y="449.35" width="7.594" height="3.375"/><rect class="cls-3" x="694.53" y="450.954" width="10.126" height="3.375"/><rect class="cls-3" x="713.515" y="450.954" width="10.126" height="3.375"/><rect class="cls-3" x="736.297" y="475.602" width="6.075" height="3.375"/><rect class="cls-3" x="786.925" y="457.788" width="10.126" height="3.375"/><rect class="cls-3" x="800.426" y="457.788" width="10.126" height="3.375"/><rect class="cls-3" x="754.861" y="475.602" width="10.126" height="3.375"/><rect class="cls-3" x="743.892" y="449.308" width="7.594" height="3.375"/><rect class="cls-3" x="754.861" y="449.308" width="7.594" height="3.375"/><rect class="cls-3" x="575.977" y="457.957" width="7.594" height="3.375"/><rect class="cls-2" x="128.514" y="422.476" width="15.188" height="5.063"/><rect class="cls-2" x="162.687" y="422.476" width="15.188" height="5.063"/><rect class="cls-2" x="244.366" y="422.476" width="15.188" height="5.063"/><rect class="cls-2" x="263.352" y="422.476" width="15.188" height="5.063"/><rect class="cls-2" x="280.649" y="422.476" width="15.188" height="5.063"/><rect class="cls-2" x="315.245" y="422.476" width="15.188" height="5.063"/><rect class="cls-2" x="296.681" y="422.476" width="15.188" height="5.063"/><rect class="cls-2" x="624.917" y="422.476" width="15.188" height="5.063"/><rect class="cls-2" x="605.51" y="422.476" width="15.188" height="5.063"/><rect class="cls-2" x="603.822" y="396.824" width="11.813" height="5.063"/><rect class="cls-2" x="520.286" y="422.476" width="15.188" height="5.063"/><rect class="cls-2" x="520.033" y="396.824" width="11.813" height="5.063"/><rect class="cls-2" x="486.535" y="422.476" width="15.188" height="5.063"/><rect class="cls-2" x="503.579" y="422.476" width="15.188" height="5.063"/><rect class="cls-2" x="486.619" y="384.336" width="11.729" height="5.063"/><rect class="cls-2" x="503.242" y="384.336" width="11.138" height="5.063"/><rect class="cls-2" x="397.937" y="422.476" width="15.188" height="5.063"/><rect class="cls-2" x="416.5" y="422.476" width="15.188" height="5.063"/><rect class="cls-2" x="397.937" y="396.824" width="10.969" height="5.063"/><rect class="cls-2" x="380.217" y="422.476" width="15.188" height="5.063"/><rect class="cls-2" x="380.217" y="386.783" width="15.188" height="5.063"/><rect class="cls-2" x="279.806" y="396.909" width="11.813" height="5.063"/><rect class="cls-2" x="295.838" y="396.824" width="10.969" height="5.063"/><rect class="cls-2" x="244.366" y="384.336" width="10.969" height="5.063"/><rect class="cls-2" x="200.489" y="422.476" width="10.969" height="5.063"/><rect class="cls-2" x="128.767" y="386.783" width="15.188" height="5.063"/><rect class="cls-2" x="163.362" y="386.783" width="15.188" height="5.063"/><rect class="cls-3" x="743.892" y="475.803" width="10.126" height="3.375"/></svg>