<svg id="Layer_1" data-name="Layer 1" xmlns="http://www.w3.org/2000/svg" viewBox="0 0 277 277"><defs><style>.cls-1,.cls-4{fill:gray;}.cls-2{fill:#e6e6e6;}.cls-3{fill:none;}.cls-3,.cls-4{stroke:gray;stroke-miterlimit:10;}</style></defs><title>person</title><rect class="cls-1" width="277" height="277"/><path class="cls-1" d="M716,350" transform="translate(-357 -179)"/><circle class="cls-2" cx="138.5" cy="98.5" r="46.5"/><path class="cls-2" d="M396,441H597c0-9.17-1.26-84.21-50-110a71.94,71.94,0,0,0-20-7,67.78,67.78,0,0,1-64,0,57,57,0,0,0-15,4C399.5,348.43,396.26,431.34,396,441Z" transform="translate(-357 -179)"/><polyline class="cls-3" points="106 145 138 225 170 145"/><path class="cls-3" d="M471.39,345A44.41,44.41,0,0,1,495,332,44.41,44.41,0,0,1,518.61,345" transform="translate(-357 -179)"/><path class="cls-4" d="M504.6,335.71l-9.1,8.79-11-9a26.68,26.68,0,0,1,11-3Z" transform="translate(-357 -179)"/><polygon class="cls-4" points="148.69 198.27 138.5 165.5 127.04 197.6 138.5 224.5 148.69 198.27"/></svg>