<svg id="Layer_2" data-name="Layer 2" xmlns="http://www.w3.org/2000/svg" viewBox="0 0 688.61 443.91"><defs><style>.cls-1,.cls-2,.cls-3,.cls-8{fill:none;}.cls-1,.cls-2,.cls-3,.cls-4,.cls-5{stroke:#f05023;}.cls-1,.cls-10,.cls-2,.cls-3,.cls-4,.cls-5,.cls-6,.cls-7,.cls-8,.cls-9{stroke-miterlimit:10;}.cls-1{stroke-width:8px;}.cls-2,.cls-8{stroke-width:5px;}.cls-3,.cls-9{stroke-width:4px;}.cls-4,.cls-5{fill:#1a1a1a;}.cls-4,.cls-6{stroke-width:3px;}.cls-5{stroke-width:2px;}.cls-10,.cls-12,.cls-6,.cls-7,.cls-9{fill:#646469;}.cls-10,.cls-6,.cls-7,.cls-8,.cls-9{stroke:#646469;}.cls-10{stroke-width:1.2px;}.cls-11{fill:#f05023;}.cls-13{fill:#666;}</style></defs><title>miutrgv</title><path class="cls-1" d="M214.5,121.14V330.63c-1,1-10.69,9.78-25,7.86-1.45-.2-14.7-2.21-21.63-14.14a36.61,36.61,0,0,1-23.85-6.81,32.6,32.6,0,0,1-12.76-20.43,35.1,35.1,0,0,1-12.75-18.33,33,33,0,0,1,.55-19.38,27.53,27.53,0,0,1,0-34.56c-.8-1.21-5.81-9-2.77-18.33a22.06,22.06,0,0,1,8.32-11,23.75,23.75,0,0,1,2.77-18.33,24.38,24.38,0,0,1,8.32-7.86,25.13,25.13,0,0,1,3.88-14.14,28,28,0,0,1,13.87-11c7.13-13.56,12.77-16.65,16.08-18.33s6-1,15-3.67c7.23-2.14,8.06-3.05,11.65-3.66C200.34,117.8,206.42,117.78,214.5,121.14Z" transform="translate(-109 -114.13)"/><path class="cls-2" d="M132,297l7-22c1.42.36,29,7.21,33-1,.65-1.34,1.1-4-2-9" transform="translate(-109 -114.13)"/><path class="cls-2" d="M131,239a37.44,37.44,0,0,0-1,14.14c1.48,12.14,8.64,20.43,12,23.86" transform="translate(-109 -114.13)"/><path class="cls-2" d="M163.75,277.76c-.07,12.86,9.11,21.66,17.25,21.24,7.94-.41,12.74-9.49,13-10" transform="translate(-109 -114.13)"/><path class="cls-2" d="M124.35,194.17c6.3,4.05,9.75,3.67,11.65,2.83,7.73-3.41,2.25-19.78,12-27,5.83-4.31,11.29-1.06,17-7,3.37-3.51,5.68-9,4-11-2.44-2.85-12.81,2.23-18,5" transform="translate(-109 -114.13)"/><path class="cls-2" d="M184,271c4.48,3,10.45,6.22,14,4,1.48-.93,1.69-2.26,3-4,1.83-2.42,5.46-5.2,13.5-6" transform="translate(-109 -114.13)"/><path class="cls-2" d="M144,293c1.57,2.21,14.74,20.15,38,21,17.36.64,29.38-8.64,32.5-11.21" transform="translate(-109 -114.13)"/><path class="cls-2" d="M160,233a89.35,89.35,0,0,1,6,10c3.51,6.82,4.28,10.5,7,11s3.9-2.6,8-4c4.59-1.57,9.4.11,13,2" transform="translate(-109 -114.13)"/><path class="cls-2" d="M120,225.84c1.65-2,4-4.74,7-8,6.83-7.54,8.3-8.38,9-8s.47,1.74,0,6-.8,7.77-1,10" transform="translate(-109 -114.13)"/><path class="cls-2" d="M186,137a25.74,25.74,0,0,1,28.5,9.74" transform="translate(-109 -114.13)"/><path class="cls-2" d="M181,220c2.88,7.84,6.39,10.23,9,11,4.33,1.28,7.28-1.58,13-1,5.17.53,9.09,3.51,11.5,5.81" transform="translate(-109 -114.13)"/><path class="cls-3" d="M151,254c-2.32-4-8.5-15.92-6-31a44.75,44.75,0,0,1,6-16" transform="translate(-109 -114.13)"/><path class="cls-2" d="M151,188c-1,1.8-4,8-2,15,2.59,8.93,12.12,14.82,15,13s-2.5-9.58,0-21a33.33,33.33,0,0,1,7-14" transform="translate(-109 -114.13)"/><path class="cls-2" d="M214.5,172.5A18,18,0,0,0,207,171c-4.17.1-6,1.71-9,1-1.6-.38-3.81-1.5-6-5" transform="translate(-109 -114.13)"/><path class="cls-2" d="M179,198c9.48-6.62,11.33-11.56,11-15-.66-6.91-10.25-9.17-12-18-1-5,1-9.68,3-13" transform="translate(-109 -114.13)"/><path class="cls-2" d="M154,145.53a48.57,48.57,0,0,1,19-4.23c4.18,11.28,8.19,13.73,11,14,5.7.54,10.22-7.56,14-6,2.38,1,2.89,5.16,3,8" transform="translate(-109 -114.13)"/><path class="cls-2" d="M215,211.67c-3.8-4.69-7.34-6.2-10-6.67s-4.48.18-6-1c-2.51-1.94-1.95-6.9-1-11" transform="translate(-109 -114.13)"/><circle class="cls-4" cx="72" cy="105.87" r="1"/><circle class="cls-4" cx="89" cy="78.87" r="1"/><circle class="cls-4" cx="70" cy="83.87" r="1"/><circle class="cls-4" cx="83" cy="52.87" r="1"/><circle class="cls-4" cx="92" cy="42.87" r="1"/><circle class="cls-4" cx="77" cy="22.87" r="1"/><circle class="cls-4" cx="42" cy="42.87" r="1"/><circle class="cls-4" cx="62" cy="66.87" r="1"/><circle class="cls-4" cx="42" cy="73.87" r="1"/><circle class="cls-4" cx="51" cy="118.87" r="1"/><circle class="cls-4" cx="85" cy="137.87" r="1"/><circle class="cls-4" cx="75" cy="156.87" r="1"/><circle class="cls-4" cx="61" cy="150.87" r="1"/><circle class="cls-4" cx="85" cy="174.87" r="1"/><circle class="cls-4" cx="35" cy="178.87" r="1"/><circle class="cls-5" cx="42" cy="139.87" r="1"/><circle class="cls-4" cx="26" cy="111.87" r="1"/><circle class="cls-4" cx="21" cy="124.87" r="1"/><path class="cls-6" d="M225,122" transform="translate(-109 -114.13)"/><ellipse class="cls-7" cx="118.96" cy="57.87" rx="4.95" ry="5.05"/><ellipse class="cls-7" cx="118.96" cy="95.21" rx="4.95" ry="5.05"/><ellipse class="cls-7" cx="118.96" cy="190.07" rx="4.95" ry="5.05"/><ellipse class="cls-7" cx="118.96" cy="121.45" rx="4.95" ry="5.05"/><ellipse class="cls-7" cx="118.96" cy="217.32" rx="4.95" ry="5.05"/><ellipse class="cls-7" cx="118.96" cy="7.41" rx="4.95" ry="5.05"/><ellipse class="cls-7" cx="118.96" cy="152.73" rx="4.95" ry="5.05"/><ellipse class="cls-7" cx="118.96" cy="31.63" rx="4.95" ry="5.05"/><ellipse class="cls-7" cx="146.68" cy="113.88" rx="4.95" ry="5.05"/><ellipse class="cls-7" cx="181.38" cy="28.61" rx="4.95" ry="5.05"/><ellipse class="cls-7" cx="209.1" cy="85.12" rx="4.95" ry="5.05"/><ellipse class="cls-7" cx="211.04" cy="112.37" rx="4.95" ry="5.05"/><ellipse class="cls-7" cx="199.16" cy="184.02" rx="4.95" ry="5.05"/><ellipse class="cls-7" cx="146.61" cy="83.1" rx="4.95" ry="5.05"/><ellipse class="cls-7" cx="160.54" cy="151.73" rx="4.95" ry="5.05"/><ellipse class="cls-7" cx="180.39" cy="58.88" rx="4.95" ry="5.05"/><ellipse class="cls-7" cx="200.15" cy="137.6" rx="4.95" ry="5.05"/><ellipse class="cls-7" cx="166.49" cy="101.27" rx="4.95" ry="5.05"/><ellipse class="cls-7" cx="139.75" cy="136.59" rx="4.95" ry="5.05"/><ellipse class="cls-7" cx="140.74" cy="177.96" rx="4.95" ry="5.05"/><polyline class="cls-8" points="119.46 29.12 119.46 6.92 160.5 6.92 180 26.34"/><polyline class="cls-8" points="209.59 85.63 181.87 78.56 180.88 59.39"/><polyline class="cls-8" points="197.67 183.51 190.74 162.32 200.64 138.1"/><ellipse class="cls-7" cx="155.61" cy="46.77" rx="4.95" ry="5.05"/><polyline class="cls-8" points="161.04 150.21 166.98 164.34 190.74 162.32"/><polyline class="cls-8" points="141.24 178.47 160.05 184.52 166.98 164.34"/><polyline class="cls-8" points="119.46 121.95 119.46 153.24 131.34 163.33 144.21 159.29"/><ellipse class="cls-7" cx="180.35" cy="138.61" rx="4.95" ry="5.05"/><path class="cls-7" d="M248.75,251.73" transform="translate(-109 -114.13)"/><polyline class="cls-8" points="180.35 138.61 188.27 112.37 211.04 112.37"/><ellipse class="cls-7" cx="144.7" cy="22.55" rx="4.95" ry="5.05"/><polyline class="cls-8" points="118.96 31.63 128.86 22.55 144.7 22.55"/><polyline class="cls-8" points="118.96 121.45 136.78 121.45 146.68 114.39"/><ellipse class="cls-7" cx="179.36" cy="180.99" rx="4.95" ry="5.05"/><polyline class="cls-8" points="119.95 190.07 147.67 201.18 170.44 195.12 179.36 180.99"/><ellipse class="cls-7" cx="144.7" cy="158.79" rx="4.95" ry="5.05"/><ellipse class="cls-7" cx="167.48" cy="119.43" rx="4.95" ry="5.05"/><polyline class="cls-8" points="139.75 136.59 162.53 136.59 167.47 120.44"/><ellipse class="cls-7" cx="202.17" cy="59.89" rx="4.95" ry="5.05"/><path class="cls-7" d="M320,226.5" transform="translate(-109 -114.13)"/><path class="cls-7" d="M320,226.5" transform="translate(-109 -114.13)"/><polyline class="cls-8" points="119.46 190.58 119.46 217.83 165.99 215.81 199.65 184.52 215.99 146.68 211.04 112.37"/><polyline class="cls-8" points="118.5 57.87 118.5 95.21 134.5 95.21 146.5 83.1"/><polyline class="cls-8" points="155.5 46.77 162.5 27.6 182.5 28.61 202 60.4"/><ellipse class="cls-7" cx="158.5" cy="64.94" rx="5" ry="5.05"/><polyline class="cls-8" points="166.5 101.27 166.5 76.04 159.5 65.95"/><line class="cls-9" x1="202.5" y1="59.89" x2="209.5" y2="85.12"/><ellipse class="cls-7" cx="137.5" cy="39.71" rx="5" ry="5.05"/><polyline class="cls-8" points="118.5 57.87 134.5 57.87 137.5 39.71"/><path class="cls-10" d="M1216.5,356.5" transform="translate(-109 -114.13)"/><path class="cls-11" d="M112.5,381.5h53v17h-14v26c0,8.67.22,17.34,0,26-.23,9.33.13,18.67,0,28a31.56,31.56,0,0,0,2,13,23.94,23.94,0,0,0,7,10c3.61,3,7.15,3.95,11,5A45.31,45.31,0,0,0,186,508c12.86.29,20.18-3.54,24.5-7.5,8.74-8,8.95-24.78,9-58,0-11.22,0-26.21,0-44h-16v-17h165v38h-20v-21h-33l-1,109h17v17h-55v-17h15v-109h-49v24c0,8.33,0,16.67,0,25,.06,32.35.43,37.89-3,47a49.42,49.42,0,0,1-9,16c-14.92,17.09-39.22,16.33-45,16a80.35,80.35,0,0,1-16,0c-4.86-.48-11.5-1.14-18-4-11.45-5-17.71-14.81-20-19-2.93-5.36-3.83-9.75-4-46,0-10.46,0-18.52,0-32,0-11.4,0-20.77,0-27h-15Z" transform="translate(-109 -114.13)"/><path class="cls-12" d="M591,401v22h20V387a127.24,127.24,0,0,0-17-5,112.63,112.63,0,0,0-29-3c-8.08.31-30.28,1.17-50,17a70.1,70.1,0,0,0-16,18c-10,16.77-9.37,33.4-9,43,.31,8.06.92,20.31,8,34a65.65,65.65,0,0,0,19,23c14.46,10.82,29.59,12,42,13a119,119,0,0,0,50-7V475h15V458H572v17h16v32c-23.14,6.37-46.67,1.86-60-13-10.93-12.18-12.33-28.36-13-36-.51-5.83-1.48-18.77,5-33,2.22-4.87,5.77-12.68,14-19,10.84-8.32,22.85-8.73,31-9A72.07,72.07,0,0,1,591,401Z" transform="translate(-109 -114.13)"/><path class="cls-12" d="M622,382h52v16H660l38,107q18.5-53.5,37-107H718V382h52v16H757L708,524H684L634,398H622Z" transform="translate(-109 -114.13)"/><path class="cls-12" d="M648,514a139.44,139.44,0,0,1-58,24c-12.82,2.09-47,7.66-78-11-2.27-1.37-23.56-14.43-35-33-3.54-5.75-7.67-11.13-11-17-3.72-6.56-6.1-11.78-12-16a28.82,28.82,0,0,0-8-4c20-2.28,34.76-19.62,34-39-.72-18.32-15.17-33.88-34-36H373v16h15V508H373v17h54V508H410V464h17a27.68,27.68,0,0,1,7,5c2.08,2.06,3.29,3.93,7,11,5,9.54,5.35,10.93,8,15a94.82,94.82,0,0,0,6,8c5.73,7.17,11,12.9,13,15,29.61,30.75,66,38,66,38a120.88,120.88,0,0,0,26,2c39.4-.93,72.19-18.52,93-33ZM417.7,446.42h-7.05V398.18h22.14a23.32,23.32,0,0,1,6,1c1.2.36,2.23.79,2.77,1,1,.4,1.76.76,2.26,1,0,0,1.15.54,2,1a21.74,21.74,0,0,1,9.05,12.06,28.58,28.58,0,0,1-1,18.09A22.65,22.65,0,0,1,451,437a22.38,22.38,0,0,1-12,8,32.91,32.91,0,0,1-5,1,89.73,89.73,0,0,1-11.27.42Z" transform="translate(-109 -114.13)"/><path class="cls-13" d="M410,399" transform="translate(-109 -114.13)"/><path class="cls-12" d="M796,240c-4.67-22.72-19.89-35.71-24-39-18.42-14.75-38.64-14.93-47-15-7.81-.07-31.28.07-52,17-22,18-31.69,47.37-27,74,1.3,7.36,6.44,30.13,27,46,17.37,13.41,36.09,14.45,46,15a98.29,98.29,0,0,0,42-7V317a93.94,93.94,0,0,1-34,7c-10.74.16-25.88.39-40-9-20.14-13.4-24.15-37-25-44-.28-2.31-3.92-37.11,22-58,13.93-11.22,29.11-12.56,35-13,5.31-.4,30.86-2.3,48,16a50.92,50.92,0,0,1,11,19c7.93,22.68.48,45.95-8,52-1.58,1.13-5.56,4-10,3a9.39,9.39,0,0,1-4-2c-3-2.5-4.54-7.06-4-22,.07-1.91.38-5.94,1-14,.93-12.14,1.49-17.56,2-22,.39-3.36.75-6.13,1-8H740q-.5,5.5-1,11a19.91,19.91,0,0,0-9-10,21.53,21.53,0,0,0-8-2,29.73,29.73,0,0,0-11,1,31.15,31.15,0,0,0-10,5,37,37,0,0,0-8,8,48.42,48.42,0,0,0-7,13,53.77,53.77,0,0,0-3,18c-.19,8.31-.32,14.29,3,21,1.3,2.62,5.65,11.41,16,15,11.06,3.84,20.53-1.19,22-2a28.22,28.22,0,0,0,13-16c-.06,1.69-.14,8.67,5,14a19,19,0,0,0,9,5c7.47,2.12,13.94,0,17-1,12.1-4.08,18.77-13.69,21-17C801.45,266.53,797.05,245.12,796,240Zm-65,40a21.35,21.35,0,0,1-6,7,16.43,16.43,0,0,1-11,3,15.8,15.8,0,0,1-9-4,15.52,15.52,0,0,1-4-6c-.78-2.14-.86-4-1-7-.06-1.34,0-1.88,0-5,0-2.56,0-4.64,0-6a45.63,45.63,0,0,1,4-14c1.62-3.44,3-6.32,6-9,1.48-1.32,6.75-6,14-5,.42.06,7.52,1.13,11,7,1.27,2.14,1.56,4.09,2,7a37.1,37.1,0,0,1,0,11c-.34,2.46-.71,4.51-1,6a50.87,50.87,0,0,1-3,11A28.75,28.75,0,0,1,731,280Z" transform="translate(-109 -114.13)"/><rect class="cls-11" x="477" y="50.87" width="26" height="156"/><polygon class="cls-11" points="412 206.87 438 206.87 438 50.87 403 50.87 355 171.87 307 50.87 271 50.87 271 206.87 295 206.87 295 75.87 345 206.87 363 206.87 414 75.87 412 206.87"/></svg>