<svg xmlns="http://www.w3.org/2000/svg" viewBox="0 0 683.716 429.931"><defs><style>.cls-1,.cls-2,.cls-7{fill:#646469;}.cls-1,.cls-6,.cls-7{stroke:#646469;}.cls-1,.cls-4,.cls-5,.cls-6,.cls-7{stroke-miterlimit:10;}.cls-1{stroke-width:1.2px;}.cls-3,.cls-5{fill:#f05023;}.cls-4,.cls-6{fill:none;}.cls-4,.cls-5{stroke:#f05023;}.cls-4,.cls-5,.cls-6,.cls-7{stroke-width:7px;}</style></defs><title>miutrgv_aboutus</title><g id="Layer_2" data-name="Layer 2"><path class="cls-1" d="M1216.5,356.5" transform="translate(-113.897 -93.018)"/><path class="cls-2" d="M796,240c-4.667-22.722-19.889-35.708-24-39-18.419-14.748-38.641-14.926-47-15-7.806-.069-31.282.073-52,17-22.008,17.981-31.689,47.373-27,74,1.3,7.365,6.442,30.128,27,46,17.367,13.409,36.085,14.449,46,15a98.316,98.316,0,0,0,42-7V317a93.816,93.816,0,0,1-34,7c-10.745.164-25.881.394-40-9-20.141-13.4-24.155-37.035-25-44-.281-2.313-3.923-37.113,22-58,13.93-11.223,29.113-12.562,35-13,5.309-.4,30.856-2.3,48,16a50.874,50.874,0,0,1,11,19c7.928,22.681.475,45.952-8,52-1.583,1.13-5.556,3.965-10,3a9.356,9.356,0,0,1-4-2c-3-2.5-4.542-7.059-4-22,.069-1.914.38-5.943,1-14,.935-12.137,1.488-17.563,2-22,.387-3.359.748-6.128,1-8H740q-.5,5.5-1,11a19.9,19.9,0,0,0-9-10,21.5,21.5,0,0,0-8-2,29.734,29.734,0,0,0-11,1,30.977,30.977,0,0,0-10,5,36.735,36.735,0,0,0-8,8,48.274,48.274,0,0,0-7,13,53.786,53.786,0,0,0-3,18c-.186,8.314-.324,14.29,3,21,1.3,2.618,5.65,11.406,16,15,11.062,3.841,20.527-1.186,22-2a28.245,28.245,0,0,0,13-16c-.064,1.686-.141,8.673,5,14a19.007,19.007,0,0,0,9,5c7.466,2.12,13.943.031,17-1,12.1-4.081,18.77-13.691,21-17C801.449,266.53,797.053,245.125,796,240Zm-65,40a21.384,21.384,0,0,1-6,7,16.458,16.458,0,0,1-11,3,15.764,15.764,0,0,1-9-4,15.505,15.505,0,0,1-4-6c-.778-2.142-.858-4-1-7-.063-1.344-.023-1.878,0-5,.019-2.562.01-4.644,0-6a45.564,45.564,0,0,1,4-14c1.621-3.441,2.976-6.317,6-9,1.485-1.317,6.75-5.988,14-5,.421.057,7.524,1.135,11,7,1.269,2.141,1.562,4.088,2,7a37.033,37.033,0,0,1,0,11c-.343,2.462-.71,4.508-1,6a51.282,51.282,0,0,1-3,11A29.158,29.158,0,0,1,731,280Z" transform="translate(-113.897 -93.018)"/><rect class="cls-3" x="470.035" y="76.284" width="25.409" height="145.396"/><polygon class="cls-3" points="406.512 221.68 431.922 221.68 431.922 76.284 397.717 76.284 350.808 189.059 303.899 76.284 268.717 76.284 268.717 221.68 292.172 221.68 292.172 99.584 341.035 221.68 358.626 221.68 408.467 99.584 406.512 221.68"/><path class="cls-4" d="M218.9,99.678v209.5c-1.036.979-10.691,9.781-24.959,7.856-1.451-.195-14.7-2.207-21.631-14.141a36.553,36.553,0,0,1-23.85-6.808A32.607,32.607,0,0,1,135.7,275.654a35.107,35.107,0,0,1-12.757-18.331,32.989,32.989,0,0,1,.555-19.378,27.532,27.532,0,0,1,0-34.567c-.806-1.208-5.816-9.009-2.773-18.331a22.118,22.118,0,0,1,8.319-11,23.748,23.748,0,0,1,2.773-18.331,24.336,24.336,0,0,1,8.32-7.856,25.16,25.16,0,0,1,3.883-14.141,27.922,27.922,0,0,1,13.866-11c7.13-13.562,12.772-16.653,16.084-18.331,3.381-1.712,5.953-.987,14.976-3.666,7.235-2.148,8.063-3.05,11.647-3.666C204.741,96.346,210.82,96.319,218.9,99.678Z" transform="translate(-113.897 -93.018)"/><path class="cls-4" d="M171.816,302.616a24.158,24.158,0,0,1,0-16,23.711,23.711,0,0,1,7-10" transform="translate(-113.897 -93.018)"/><path class="cls-4" d="M123.816,237.616a33.4,33.4,0,0,1,21-16" transform="translate(-113.897 -93.018)"/><path class="cls-4" d="M127.816,174.616a22.769,22.769,0,0,1,24-3" transform="translate(-113.897 -93.018)"/><path class="cls-4" d="M152.816,125.244a25.168,25.168,0,0,1,29,3" transform="translate(-113.897 -93.018)"/><path class="cls-4" d="M151.816,260.616a46.526,46.526,0,0,1,42-29" transform="translate(-113.897 -93.018)"/><path class="cls-4" d="M171.765,237.776a28.723,28.723,0,0,1-3.949-17.16,28.158,28.158,0,0,1,4-12" transform="translate(-113.897 -93.018)"/><path class="cls-4" d="M218.816,188.616c-3.228-5.386-9.741-14.232-21-19a40.446,40.446,0,0,0-6-2" transform="translate(-113.897 -93.018)"/><path class="cls-4" d="M166.816,165.616a22.632,22.632,0,0,0-15,8c-6.959,8.6-4.289,18.955-4,20" transform="translate(-113.897 -93.018)"/><circle class="cls-5" cx="33.919" cy="100.098" r="0.1"/><circle class="cls-5" cx="78.504" cy="74.715" r="0.1"/><circle class="cls-5" cx="79.505" cy="138.715" r="0.1"/><path class="cls-5" d="M171.8,208.733a.1.1,0,1,0,.1-.1A.1.1,0,0,0,171.8,208.733Z" transform="translate(-113.897 -93.018)"/><circle class="cls-5" cx="65.004" cy="183.715" r="0.1"/><circle class="cls-5" cx="38.004" cy="167.715" r="0.1"/><circle class="cls-5" cx="30.505" cy="128.715" r="0.1"/><circle class="cls-5" cx="67.505" cy="34.798" r="0.1"/><circle class="cls-5" cx="52.504" cy="72.715" r="0.1"/><path class="cls-4" d="M218.816,145.616a20.129,20.129,0,0,1-22-7" transform="translate(-113.897 -93.018)"/><circle class="cls-5" cx="82.824" cy="45.63" r="0.1"/><path class="cls-4" d="M220.483,254.951a20.129,20.129,0,0,0-22,7" transform="translate(-113.897 -93.018)"/><circle class="cls-5" cx="84.491" cy="168.901" r="0.1"/><polyline class="cls-6" points="156.919 184.598 163.919 210.598 141.919 224.598 116.919 216.598 116.919 7.598 133.919 3.598 162.919 10.598 178.919 28.598 154.919 35.598"/><polyline class="cls-6" points="178.919 209.598 202.919 184.598 214.919 144.598 191.919 129.598"/><polyline class="cls-6" points="218.919 128.598 218.919 93.598 199.919 76.598 183.919 78.598 168.919 73.598"/><polyline class="cls-6" points="117.384 95.598 127.919 76.598 143.919 75.598"/><polyline class="cls-6" points="117.384 162.015 134.919 161.598 137.919 169.598"/><polyline class="cls-6" points="116.919 53.598 131.919 53.598 138.919 46.598"/><line class="cls-6" x1="183.919" y1="78.598" x2="188.919" y2="101.598"/><path class="cls-6" d="M255.816,232.616c1,0,22,2,22,2l20,27" transform="translate(-113.897 -93.018)"/><polyline class="cls-6" points="163.919 141.598 168.919 129.598 163.919 116.598"/><path class="cls-6" d="M303.816,131.616c1,0,18,16,18,16l4,15" transform="translate(-113.897 -93.018)"/><circle class="cls-7" cx="137.919" cy="46.598" r="2"/><circle class="cls-7" cx="143.919" cy="75.598" r="2"/><circle class="cls-7" cx="156.919" cy="184.598" r="2"/><circle class="cls-7" cx="137.919" cy="169.598" r="2"/><circle class="cls-7" cx="155.919" cy="35.598" r="2"/><circle class="cls-7" cx="168.919" cy="73.598" r="2"/><circle class="cls-7" cx="163.919" cy="116.598" r="2"/><circle class="cls-7" cx="141.919" cy="139.598" r="2"/><circle class="cls-7" cx="188.919" cy="101.598" r="2"/><circle class="cls-7" cx="191.919" cy="129.598" r="2"/><circle class="cls-7" cx="180.919" cy="207.598" r="2"/><circle class="cls-7" cx="183.919" cy="168.598" r="2"/><circle class="cls-7" cx="211.919" cy="67.598" r="2"/><circle class="cls-7" cx="218.919" cy="125.598" r="2"/><circle class="cls-7" cx="190.919" cy="39.598" r="2"/></g><g id="Layer_3" data-name="Layer 3"><rect class="cls-3" x="253.081" y="205.835" width="53.75" height="15.844"/><rect class="cls-3" x="392.831" y="205.835" width="53.75" height="15.844"/><rect class="cls-3" x="252.103" y="76.284" width="42.023" height="15.844"/><rect class="cls-3" x="406.512" y="76.284" width="40.068" height="15.844"/><rect class="cls-3" x="456.353" y="205.835" width="53.75" height="15.844"/><rect class="cls-3" x="456.353" y="76.284" width="53.75" height="15.844"/></g><g id="Layer_4" data-name="Layer 4"><path class="cls-3" d="M253.619,399.046c.262-1.959.573-3.912.9-5.862-.03-.562-.06-1.124-.11-1.686-.262-2.937-.615-5.864-.848-8.8H201.645v16.347H217.03c.026,17.1.017,31.515,0,42.309-.049,31.939-.25,48.066-8.654,55.771-4.154,3.808-11.195,7.494-23.559,7.212a43.474,43.474,0,0,1-13.943-1.443c-3.7-1.012-7.1-1.94-10.577-4.807a23.085,23.085,0,0,1-6.731-9.616,30.356,30.356,0,0,1-1.923-12.5c.128-8.973-.223-17.952,0-26.924.208-8.331,0-16.667,0-25v-25h13.462V382.7H114.142v16.347h14.423c.008,5.994.014,15,0,25.962-.015,12.965-.048,20.709,0,30.77.168,34.856,1.029,39.075,3.847,44.233,2.2,4.032,8.218,13.429,19.231,18.27,6.248,2.745,12.64,3.381,17.308,3.846a77.844,77.844,0,0,0,15.385,0c5.559.316,28.926,1.047,43.271-15.385a47.487,47.487,0,0,0,8.654-15.385c3.3-8.756,2.943-14.09,2.885-45.194-.015-8.013,0-16.027,0-24.04,0-3.991,0-19.154,0-23.077Z" transform="translate(-113.897 -93.018)"/><path class="cls-3" d="M292.692,382.7c-1.1,5.449-2.188,10.876-2.965,16.347h22.959V503.857H298.262V520.2h52.887V503.857H334.8l.961-104.811H367.5v20.193h19.232V382.7Z" transform="translate(-113.897 -93.018)"/><path class="cls-2" d="M602.879,401.45V422.6H622.11V387.987a123.164,123.164,0,0,0-16.347-4.807,108.41,108.41,0,0,0-27.885-2.885c-7.769.3-29.117,1.126-48.079,16.347a67.138,67.138,0,0,0-15.385,17.308c-9.631,16.127-9.012,32.119-8.654,41.348.3,7.753.884,19.527,7.692,32.693a63.148,63.148,0,0,0,18.27,22.116c13.908,10.4,28.456,11.556,40.386,12.5a114.4,114.4,0,0,0,48.079-6.731V472.606H634.61V456.259h-50v16.347h15.385v30.77c-22.252,6.125-44.877,1.794-57.7-12.5-10.5-11.716-11.86-27.266-12.5-34.617-.488-5.6-1.421-18.051,4.808-31.732,2.132-4.683,5.553-12.2,13.462-18.27,10.419-8,21.969-8.39,29.809-8.654A69.126,69.126,0,0,1,602.879,401.45Z" transform="translate(-113.897 -93.018)"/><path class="cls-2" d="M632.687,383.18h50v15.385H669.227l36.54,102.888,35.578-102.888H725V383.18h50v15.385H762.5L715.382,519.723H692.305L644.226,398.565H632.687Z" transform="translate(-113.897 -93.018)"/><path class="cls-2" d="M509.257,513.012a5.016,5.016,0,0,1-.61-4.165,85.869,85.869,0,0,1-15.388-17.971c-3.4-5.526-7.375-10.7-10.577-16.347-3.577-6.306-5.87-11.323-11.539-15.385a27.748,27.748,0,0,0-7.693-3.846c19.192-2.19,33.427-18.864,32.694-37.5-.693-17.615-14.584-32.579-32.694-34.616H393.256v15.385h14.423V504.338H393.256v16.346h51.925V504.338H428.834V462.029h16.347a26.472,26.472,0,0,1,6.731,4.807c2,1.981,3.159,3.782,6.731,10.578,4.821,9.172,5.141,10.506,7.692,14.423a90.343,90.343,0,0,0,5.77,7.693c5.514,6.891,10.551,12.4,12.5,14.423,1.254,1.3,2.524,2.546,3.8,3.762,7.3-.089,14.591-.269,21.887-.422A11.524,11.524,0,0,0,509.257,513.012Zm-52.538-69.253a31.248,31.248,0,0,1-4.807.961,85.555,85.555,0,0,1-10.84.409s0,0-4.839,0h-6.774v-46.4h18.387c2.864,0,2.9,0,2.9,0a22.928,22.928,0,0,1,5.807.966c1.151.349,2.146.755,2.665.967.945.385,1.693.738,2.174.966,0,0,1.1.521,1.935.967a20.94,20.94,0,0,1,8.71,11.6,27.512,27.512,0,0,1-.968,17.4,21.308,21.308,0,0,1-2.814,4.469,22.951,22.951,0,0,1-6.731,5.77A23.2,23.2,0,0,1,456.719,443.759Z" transform="translate(-113.897 -93.018)"/><path class="cls-2" d="M428.834,399.526" transform="translate(-113.897 -93.018)"/><rect class="cls-3" x="148.479" y="289.648" width="50.643" height="16.371"/><rect class="cls-3" x="125.186" y="289.697" width="16.42" height="16.294"/><rect class="cls-3" x="148.424" y="289.642" width="19.266" height="36.551"/><rect class="cls-2" x="350.831" y="411.296" width="51.964" height="16.294"/></g></svg>