<svg xmlns="http://www.w3.org/2000/svg" xmlns:xlink="http://www.w3.org/1999/xlink" viewBox="0 0 600 300"><defs><style>.cls-1{fill:#fff;}.cls-2{fill:#666;}.cls-3{fill:#93278f;}.cls-4{fill:#29abe2;}.cls-5{fill:#d9e021;}.cls-6{fill:#c1272d;}.cls-7{fill:none;stroke:#333;stroke-miterlimit:10;stroke-width:0.5px;}.cls-8{fill:#006837;}.cls-9{fill:url(#linear-gradient);}.cls-10{fill:url(#linear-gradient-2);}.cls-11{fill:url(#linear-gradient-3);}.cls-12{fill:url(#linear-gradient-4);}.cls-13{fill:url(#linear-gradient-5);}.cls-14{fill:#9e005d;}.cls-15{fill:url(#linear-gradient-6);}.cls-16{fill:url(#linear-gradient-7);}.cls-17{fill:url(#linear-gradient-8);}.cls-18{fill:url(#linear-gradient-9);}.cls-19{fill:url(#linear-gradient-10);}.cls-20{fill:#2e3192;}.cls-21{fill:url(#linear-gradient-11);}.cls-22{fill:url(#linear-gradient-12);}.cls-23{fill:url(#linear-gradient-13);}.cls-24{fill:url(#linear-gradient-14);}.cls-25{fill:url(#linear-gradient-15);}</style><linearGradient id="linear-gradient" x1="552.1" y1="369.77" x2="650.16" y2="369.77" gradientTransform="matrix(1.04, -0.37, 0.43, 1.22, -178.13, 134.21)" gradientUnits="userSpaceOnUse"><stop offset="0" stop-color="#fff"/><stop offset="0.33" stop-color="lime"/></linearGradient><linearGradient id="linear-gradient-2" x1="508.85" y1="375.92" x2="595.43" y2="375.92" gradientTransform="matrix(1.04, -0.37, 0.43, 1.22, -178.13, 134.21)" gradientUnits="userSpaceOnUse"><stop offset="0" stop-color="#fff"/><stop offset="0.28" stop-color="lime"/></linearGradient><linearGradient id="linear-gradient-3" x1="470.9" y1="379.82" x2="545.56" y2="379.82" xlink:href="#linear-gradient-2"/><linearGradient id="linear-gradient-4" x1="435.67" y1="382.52" x2="503.63" y2="382.52" xlink:href="#linear-gradient-2"/><linearGradient id="linear-gradient-5" x1="594.99" y1="361.8" x2="718.13" y2="361.8" gradientTransform="matrix(1.04, -0.37, 0.43, 1.22, -178.13, 134.21)" gradientUnits="userSpaceOnUse"><stop offset="0" stop-color="#fff"/><stop offset="0.37" stop-color="lime"/></linearGradient><linearGradient id="linear-gradient-6" x1="497.47" y1="354.06" x2="558.85" y2="354.06" gradientTransform="matrix(1.21, 0.31, -0.08, 1.04, -74.07, -173.01)" gradientUnits="userSpaceOnUse"><stop offset="0" stop-color="#fff"/><stop offset="0.17" stop-color="#c1272d"/></linearGradient><linearGradient id="linear-gradient-7" x1="491.91" y1="391.16" x2="545.88" y2="391.16" gradientTransform="matrix(1.21, 0.31, -0.08, 1.04, -74.07, -173.01)" gradientUnits="userSpaceOnUse"><stop offset="0" stop-color="#fff"/><stop offset="0.13" stop-color="#c1272d"/></linearGradient><linearGradient id="linear-gradient-8" x1="485.91" y1="423.99" x2="533.09" y2="423.99" xlink:href="#linear-gradient-7"/><linearGradient id="linear-gradient-9" x1="479.94" y1="452.48" x2="520.99" y2="452.48" xlink:href="#linear-gradient-7"/><linearGradient id="linear-gradient-10" x1="501.29" y1="311.22" x2="572.43" y2="311.22" gradientTransform="matrix(1.21, 0.31, -0.08, 1.04, -74.07, -173.01)" gradientUnits="userSpaceOnUse"><stop offset="0" stop-color="#fff"/><stop offset="0.2" stop-color="#c1272d"/></linearGradient><linearGradient id="linear-gradient-11" x1="513.74" y1="410.05" x2="587.87" y2="352.99" gradientTransform="matrix(1.12, 0.03, 0.03, 1.48, -48.22, -183.36)" gradientUnits="userSpaceOnUse"><stop offset="0" stop-color="blue"/><stop offset="0.84" stop-color="#fff"/></linearGradient><linearGradient id="linear-gradient-12" x1="461.06" y1="407.44" x2="531.28" y2="363.94" gradientTransform="matrix(1.12, 0.03, 0.03, 1.48, -48.22, -183.36)" gradientUnits="userSpaceOnUse"><stop offset="0.23" stop-color="blue"/><stop offset="0.77" stop-color="#fff"/></linearGradient><linearGradient id="linear-gradient-13" x1="420.68" y1="404.14" x2="484.7" y2="373.03" gradientTransform="matrix(1.12, 0.03, 0.03, 1.48, -48.22, -183.36)" gradientUnits="userSpaceOnUse"><stop offset="0.28" stop-color="blue"/><stop offset="1" stop-color="#fff"/></linearGradient><linearGradient id="linear-gradient-14" x1="385.29" y1="403.13" x2="444.1" y2="375.65" gradientTransform="matrix(1.12, 0.03, 0.03, 1.48, -48.22, -183.36)" gradientUnits="userSpaceOnUse"><stop offset="0.41" stop-color="blue"/><stop offset="1" stop-color="#fff"/></linearGradient><linearGradient id="linear-gradient-15" x1="553.39" y1="424.78" x2="646.43" y2="352.45" gradientTransform="matrix(1.12, 0.03, 0.03, 1.48, -48.22, -183.36)" gradientUnits="userSpaceOnUse"><stop offset="0" stop-color="blue"/><stop offset="0.85" stop-color="#fff"/></linearGradient></defs><title>biomark</title><g id="Layer_1" data-name="Layer 1"><rect class="cls-1" width="600" height="300"/></g><g id="Layer_6" data-name="Layer 6"><ellipse class="cls-2" cx="408.33" cy="219.59" rx="6.29" ry="5.29"/><ellipse class="cls-3" cx="416.19" cy="202.73" rx="5.9" ry="4.96"/><ellipse class="cls-2" cx="435.65" cy="209.84" rx="5.31" ry="4.47"/><ellipse class="cls-2" cx="445.48" cy="198.26" rx="4.52" ry="3.8"/><ellipse class="cls-4" cx="456.49" cy="205.54" rx="2.56" ry="2.15"/><ellipse class="cls-5" cx="456.09" cy="191.98" rx="2.95" ry="2.48"/><ellipse class="cls-3" cx="443.71" cy="187.51" rx="3.93" ry="3.31"/><ellipse class="cls-4" cx="411.28" cy="192.64" rx="2.16" ry="1.82"/><ellipse class="cls-6" cx="439.98" cy="224.06" rx="3.73" ry="3.14"/><line class="cls-7" x1="410.3" y1="214.57" x2="413.93" y2="207.31"/><line class="cls-7" x1="414.62" y1="197.94" x2="412.36" y2="194.21"/><line class="cls-7" x1="421.81" y1="204.25" x2="431" y2="207.69"/><line class="cls-7" x1="437.4" y1="214.05" x2="438.97" y2="221.04"/><line class="cls-7" x1="439.22" y1="206.53" x2="443.19" y2="201.54"/><line class="cls-7" x1="445.08" y1="194.47" x2="444.36" y2="190.77"/><line class="cls-7" x1="449.4" y1="196.37" x2="453.71" y2="193.44"/><line class="cls-7" x1="448.9" y1="200.74" x2="454.44" y2="204.25"/><ellipse class="cls-2" cx="167.33" cy="112.59" rx="6.29" ry="5.29"/><ellipse class="cls-3" cx="175.19" cy="95.73" rx="5.9" ry="4.96"/><ellipse class="cls-2" cx="194.65" cy="102.84" rx="5.31" ry="4.47"/><ellipse class="cls-2" cx="204.48" cy="91.26" rx="4.52" ry="3.8"/><ellipse class="cls-4" cx="215.49" cy="98.54" rx="2.56" ry="2.15"/><ellipse class="cls-5" cx="215.09" cy="84.98" rx="2.95" ry="2.48"/><ellipse class="cls-3" cx="202.71" cy="80.51" rx="3.93" ry="3.31"/><ellipse class="cls-4" cx="170.28" cy="85.64" rx="2.16" ry="1.82"/><ellipse class="cls-6" cx="198.98" cy="117.06" rx="3.73" ry="3.14"/><line class="cls-7" x1="169.3" y1="107.57" x2="172.93" y2="100.31"/><line class="cls-7" x1="173.62" y1="90.94" x2="171.36" y2="87.21"/><line class="cls-7" x1="180.81" y1="97.25" x2="190" y2="100.69"/><line class="cls-7" x1="196.4" y1="107.05" x2="197.97" y2="114.04"/><line class="cls-7" x1="198.22" y1="99.53" x2="202.19" y2="94.54"/><line class="cls-7" x1="204.08" y1="87.47" x2="203.36" y2="83.77"/><line class="cls-7" x1="208.4" y1="89.37" x2="212.71" y2="86.44"/><line class="cls-7" x1="207.9" y1="93.74" x2="213.44" y2="97.25"/><ellipse class="cls-2" cx="62.33" cy="232.59" rx="6.29" ry="5.29"/><ellipse class="cls-3" cx="70.19" cy="215.73" rx="5.9" ry="4.96"/><ellipse class="cls-2" cx="89.65" cy="222.84" rx="5.31" ry="4.47"/><ellipse class="cls-2" cx="99.48" cy="211.26" rx="4.52" ry="3.8"/><ellipse class="cls-4" cx="110.49" cy="218.54" rx="2.56" ry="2.15"/><ellipse class="cls-5" cx="110.09" cy="204.98" rx="2.95" ry="2.48"/><ellipse class="cls-3" cx="97.71" cy="200.51" rx="3.93" ry="3.31"/><ellipse class="cls-4" cx="65.28" cy="205.64" rx="2.16" ry="1.82"/><ellipse class="cls-6" cx="93.98" cy="237.06" rx="3.73" ry="3.14"/><line class="cls-7" x1="64.3" y1="227.57" x2="67.93" y2="220.31"/><line class="cls-7" x1="68.62" y1="210.94" x2="66.36" y2="207.21"/><line class="cls-7" x1="75.81" y1="217.25" x2="85" y2="220.69"/><line class="cls-7" x1="91.4" y1="227.05" x2="92.97" y2="234.04"/><line class="cls-7" x1="93.22" y1="219.53" x2="97.19" y2="214.54"/><line class="cls-7" x1="99.08" y1="207.47" x2="98.36" y2="203.77"/><line class="cls-7" x1="103.4" y1="209.37" x2="107.71" y2="206.44"/><line class="cls-7" x1="102.9" y1="213.74" x2="108.44" y2="217.25"/><ellipse class="cls-2" cx="289.33" cy="264.59" rx="6.29" ry="5.29"/><ellipse class="cls-3" cx="297.19" cy="247.73" rx="5.9" ry="4.96"/><ellipse class="cls-2" cx="316.65" cy="254.84" rx="5.31" ry="4.47"/><ellipse class="cls-2" cx="326.48" cy="243.26" rx="4.52" ry="3.8"/><ellipse class="cls-4" cx="337.49" cy="250.54" rx="2.56" ry="2.15"/><ellipse class="cls-5" cx="337.09" cy="236.98" rx="2.95" ry="2.48"/><ellipse class="cls-3" cx="324.71" cy="232.51" rx="3.93" ry="3.31"/><ellipse class="cls-4" cx="292.28" cy="237.64" rx="2.16" ry="1.82"/><ellipse class="cls-6" cx="320.98" cy="269.06" rx="3.73" ry="3.14"/><line class="cls-7" x1="291.3" y1="259.57" x2="294.93" y2="252.31"/><line class="cls-7" x1="295.62" y1="242.94" x2="293.36" y2="239.21"/><line class="cls-7" x1="302.81" y1="249.25" x2="312" y2="252.69"/><line class="cls-7" x1="318.4" y1="259.05" x2="319.97" y2="266.04"/><line class="cls-7" x1="320.22" y1="251.53" x2="324.19" y2="246.54"/><line class="cls-7" x1="326.08" y1="239.47" x2="325.36" y2="235.77"/><line class="cls-7" x1="330.4" y1="241.37" x2="334.71" y2="238.44"/><line class="cls-7" x1="329.9" y1="245.74" x2="335.44" y2="249.25"/><ellipse class="cls-2" cx="424.33" cy="60.59" rx="6.29" ry="5.29"/><ellipse class="cls-3" cx="432.19" cy="43.73" rx="5.9" ry="4.96"/><ellipse class="cls-2" cx="451.65" cy="50.84" rx="5.31" ry="4.47"/><ellipse class="cls-2" cx="461.48" cy="39.26" rx="4.52" ry="3.8"/><ellipse class="cls-4" cx="472.49" cy="46.54" rx="2.56" ry="2.15"/><ellipse class="cls-5" cx="472.09" cy="32.98" rx="2.95" ry="2.48"/><ellipse class="cls-3" cx="459.71" cy="28.51" rx="3.93" ry="3.31"/><ellipse class="cls-4" cx="427.28" cy="33.64" rx="2.16" ry="1.82"/><ellipse class="cls-6" cx="455.98" cy="65.06" rx="3.73" ry="3.14"/><line class="cls-7" x1="426.3" y1="55.57" x2="429.93" y2="48.31"/><line class="cls-7" x1="430.62" y1="38.94" x2="428.36" y2="35.21"/><line class="cls-7" x1="437.81" y1="45.25" x2="447" y2="48.69"/><line class="cls-7" x1="453.4" y1="55.05" x2="454.97" y2="62.04"/><line class="cls-7" x1="455.22" y1="47.53" x2="459.19" y2="42.54"/><line class="cls-7" x1="461.08" y1="35.47" x2="460.36" y2="31.77"/><line class="cls-7" x1="465.4" y1="37.37" x2="469.71" y2="34.44"/><line class="cls-7" x1="464.9" y1="41.74" x2="470.44" y2="45.25"/></g><g id="Layer_3" data-name="Layer 3"><path class="cls-8" d="M457.29,417.18c-.37.59-1.05,1.69-2,3.21-.5.82-.74,1.23-.52,1.44.44.43,2-.29,4.08-.2a7.58,7.58,0,0,1,2.24.46,9,9,0,0,1,4.15,2.9c2,2.31,3.49,5.66,3.5,6.9a.75.75,0,0,0,.2.56c.41.45,1.34.44,2.24.46,1.07,0,2.07.16,3.16.12a52.53,52.53,0,0,1,8.24.6c-2.19-12.55-9.89-20-18.86-18.75A18.89,18.89,0,0,0,457.29,417.18Z" transform="translate(-254.5 -244)"/><path class="cls-8" d="M493.65,396.79l-2.09,3.75c-.53.95-.79,1.44-.54,1.69.51.53,2.22-.28,4.53-.11a8.49,8.49,0,0,1,2.5.61,10.87,10.87,0,0,1,4.7,3.58c2.28,2.8,4,6.83,4.09,8.3a1.09,1.09,0,0,0,.24.67c.47.55,1.51.57,2.5.61,1.19.05,2.3.26,3.51.25a54.45,54.45,0,0,1,9.17,1c-2.83-15-11.6-24.09-21.52-22.84A19.16,19.16,0,0,0,493.65,396.79Z" transform="translate(-254.5 -244)"/><path class="cls-8" d="M533.72,373.05a16,16,0,0,0-1.24,2.41c-.26.64-.43,1.2-.52,1.5-.19.65-.2.78-.36,1.37-.48,1.73-.83,1.86-.62,2.08.62.65,2.65-.32,5.42-.07a9.69,9.69,0,0,1,3,.79,13.3,13.3,0,0,1,5.67,4.47c2.77,3.48,4.94,8.46,5,10.28a1.29,1.29,0,0,0,.3.82c.56.69,1.81.73,3,.79,1.42.08,2.76.35,4.21.36a64.09,64.09,0,0,1,11,1.32c-2.18-18.09-12.52-29.59-26.08-28.43A28.55,28.55,0,0,0,533.72,373.05Z" transform="translate(-254.5 -244)"/><path class="cls-8" d="M577.81,344.19a21.2,21.2,0,0,0-1.75,3.86c-.35,1.1-.14.81-.82,3.54-.41,1.68-.51,1.84-.3,2.05.81.85,3.5-.39,6.86-.05a10.81,10.81,0,0,1,3.38,1,15.59,15.59,0,0,1,6.43,5.27c3.16,4.06,5.67,9.87,5.78,12a1.62,1.62,0,0,0,.34,1c.65.8,2,.86,3.38.95,1.6.12,3.1.45,4.73.48a70.38,70.38,0,0,1,12.34,1.69c-1.29-19.89-12.48-33.42-29.67-33.3A40.57,40.57,0,0,0,577.81,344.19Z" transform="translate(-254.5 -244)"/><path class="cls-8" d="M624.3,311.35a10.64,10.64,0,0,0-3.06,4.53,5.24,5.24,0,0,0-.13,2.56,25.54,25.54,0,0,1-.49,3c-.37,1.62-.53,1.75-.33,2,.85,1,4.54-.5,9-.16a15.14,15.14,0,0,1,4.11.94,17.32,17.32,0,0,1,7.69,5.68c3.71,4.46,6.55,10.9,6.61,13.27a2,2,0,0,0,.38,1.06c.69,1,2.14,1.28,3.58,1.57,5.65,1.14,5.25,1.1,5.6,1.14a93,93,0,0,0,15.82,0c-.21-2.81-3.14-34.31-35.1-36.35A60.83,60.83,0,0,0,624.3,311.35Z" transform="translate(-254.5 -244)"/><path class="cls-8" d="M670.44,367.29a11.44,11.44,0,0,0,2-3.23A7.3,7.3,0,0,0,673,362a133.77,133.77,0,0,1-14.74.86c-4.08,0-7.71-.2-10.86-.5a9.81,9.81,0,0,1-2.32,5.19c-3,3.68-7.55,5.73-8.91,6.3,4.39-.45,9.3-1.12,14.65-2.08C658.13,370.46,664.74,368.87,670.44,367.29Z" transform="translate(-254.5 -244)"/><path class="cls-8" d="M617.42,386.86a3,3,0,0,1-.26,2.35,7.53,7.53,0,0,1-2.56,2.69,98.19,98.19,0,0,1-12.82,3.49,87,87,0,0,1-13,1.59,18.62,18.62,0,0,0,5.78-5.32,8.41,8.41,0,0,0,1.58-4.82,67.75,67.75,0,0,0,9.87.75A84.86,84.86,0,0,0,617.42,386.86Z" transform="translate(-254.5 -244)"/><path class="cls-9" d="M553.73,360.1l24.08-15.91c-1.76,3.44-3.55,8.41-2.21,13.34,3.47,12.79,25.18,15.2,36.2,16.34,22.82,2.35,45.17-2.86,58.32-6.78l-43.07,19.1a119.4,119.4,0,0,1-15.55,1.72,101.07,101.07,0,0,1-22.65-1.69c-9.37-1.79-29.49-5.63-34.16-19.16A18.46,18.46,0,0,1,553.73,360.1Z" transform="translate(-254.5 -244)"/><path class="cls-8" d="M566.94,408.53a7.25,7.25,0,0,1-1.25,2.32,12.18,12.18,0,0,1-2.63,2.46,76.37,76.37,0,0,1-12.12,2.8,65.87,65.87,0,0,1-8.48.67,20.38,20.38,0,0,0,5-4.47,11.85,11.85,0,0,0,1.93-3.45Z" transform="translate(-254.5 -244)"/><path class="cls-10" d="M511.87,386,534,373c-1.78,2.82-3.6,6.75-2.85,10.64,2,10.48,21.07,12.45,31.69,13.53,19.82,2,39.12-1.84,51.68-5.22l-39.78,16.67a112.22,112.22,0,0,1-32.25-.67c-8.66-1.54-26-4.61-29.86-15.94A15.37,15.37,0,0,1,511.87,386Z" transform="translate(-254.5 -244)"/><path class="cls-8" d="M521.93,427c-.31.35-.65.72-1,1.1s-1,1-1.54,1.44a83.36,83.36,0,0,1-11.57,2.6c-2.15.33-4.14.54-5.93.66a19.61,19.61,0,0,0,4.35-5.11c.18-.32.35-.64.49-.95Z" transform="translate(-254.5 -244)"/><path class="cls-11" d="M474.57,407.34l19.08-10.55c-1.57,2.26-3.18,5.37-2.69,8.47,1.32,8.46,17.28,10.32,26.9,11.43,8.51,1,24.06,1.68,45.56-3.46l-35.3,13.19a95.86,95.86,0,0,1-27.55-.57c-7.45-1.33-22.05-3.93-25.35-13.49A13.06,13.06,0,0,1,474.57,407.34Z" transform="translate(-254.5 -244)"/><path class="cls-8" d="M482.51,441.56c-11.39,13.58-22.5,19.49-30.66,22.36-19,6.68-37.12,2.19-50.58,9.86a21.38,21.38,0,0,0-5.69,4.53q-3.19,3.33-6.4,6.67c-1.05,1.33-2.33,3.39-1.21,4.81,2.08,2.64,11.16,1.59,17.55,0,10.42-2.55,16.72-7.22,21-6.83a2.44,2.44,0,0,1,2.48,2.87c-4.13,2-9.22,4.33-15.17,6.66-4.26,1.66-8.19,3-11.68,4.15a73.87,73.87,0,0,0-8.68,4.35c-9.5,5.61-13.09,11.1-14.29,13.23,1-2.16,3.07-5.83,8-10.37a73.46,73.46,0,0,1,11.59-8.51,122.62,122.62,0,0,0,20.56-7.94q1.95-1,3.69-1.95c-19,7.6-35,10.34-39.8,7.28a3.29,3.29,0,0,1-1.38-3.89q4-5.19,8-10.37a22.05,22.05,0,0,1,7.69-7.12c15-9,37.06-5.41,53.48-14a27.93,27.93,0,0,0,13.69-14.9Z" transform="translate(-254.5 -244)"/><path class="cls-12" d="M439.83,426.53l17.46-9.35c-1.47,1.94-3,4.6-2.64,7.2,1,7.11,15.34,8.29,24,9,7.65.63,21.66.84,41.18-4l-32.28,11.49a84,84,0,0,1-24.7.65c-6.28-.84-19.75-2.65-22.54-10.77A10.11,10.11,0,0,1,439.83,426.53Z" transform="translate(-254.5 -244)"/><path class="cls-8" d="M691.3,344.68c3.36-.81,15.72-4,25.67-11.84,10.59-8.32,14.22-18.55,9.33-26.15,1,.69,7.64,5.05,19.7,3,12.31-2.13,25.2-10.08,30.39-19.38.87,1.85,4.53,10.64-5.28,22.56-6.88,8.36-16.78,13.87-20.93,16a296.44,296.44,0,0,1-34.73,10.94C706.41,342,698.29,343.59,691.3,344.68Z" transform="translate(-254.5 -244)"/><path class="cls-13" d="M594.58,332l29.72-20.66c-2.29,4.37-4.67,10.8-2.67,17,5,15.47,32.76,17.29,44.17,17.93,30,1.68,58.56-8.06,72.16-13.41l-55.65,28c-21.22,3.22-36.58,1.81-45.17.46-11.51-1.8-36.21-5.67-41.58-21.25A20.35,20.35,0,0,1,594.58,332Z" transform="translate(-254.5 -244)"/></g><g id="Layer_4" data-name="Layer 4"><path class="cls-14" d="M474,456.1c.16.56.45,1.58.87,3,.22.76.34,1.14.62,1.21.57.13,1.08-1,2.46-1.69a5.37,5.37,0,0,1,1.73-.53,9.48,9.48,0,0,1,4.56.47,20.87,20.87,0,0,1,6.79,3.51,1.11,1.11,0,0,0,.5.31,2.34,2.34,0,0,0,1.72-.52c.69-.4,1.43-.67,2.1-1.11a31.36,31.36,0,0,1,5.63-2.69c-9.71-8-19.56-10.3-24.4-6A9.31,9.31,0,0,0,474,456.1Z" transform="translate(-254.5 -244)"/><path class="cls-14" d="M483.59,428.09c.21.63.61,1.79,1.16,3.41.29.87.45,1.3.78,1.39.67.17,1.22-1,2.8-1.79a6.18,6.18,0,0,1,2-.52,11.62,11.62,0,0,1,5.36.73c3.3,1.1,7.09,3.25,8.1,4.27a1.47,1.47,0,0,0,.59.37,2.73,2.73,0,0,0,2-.51c.79-.42,1.64-.69,2.4-1.16a34.78,34.78,0,0,1,6.46-2.78c-11.7-9.41-23.33-12.49-28.8-7.86A9.64,9.64,0,0,0,483.59,428.09Z" transform="translate(-254.5 -244)"/><path class="cls-14" d="M493.31,396.32a13.35,13.35,0,0,0,.81,2.16c.26.54.52,1,.66,1.24.31.52.4.62.68,1.1.84,1.38.7,1.61,1,1.69.83.22,1.48-1.23,3.4-2.1a7.18,7.18,0,0,1,2.42-.58,14.51,14.51,0,0,1,6.58,1c4.06,1.38,8.74,4.05,10,5.3a1.83,1.83,0,0,0,.73.46A3.34,3.34,0,0,0,522,406c1-.48,2-.8,2.91-1.34a41.22,41.22,0,0,1,7.85-3.22c-13.38-11.85-27.56-16-35.41-10.06A14.42,14.42,0,0,0,493.31,396.32Z" transform="translate(-254.5 -244)"/><path class="cls-14" d="M502.18,359.45a19.49,19.49,0,0,0,1.46,3.36c.49.9.44.62,1.82,2.79.85,1.34.89,1.48,1.16,1.55,1.08.28,2-1.59,4.33-2.63a8.06,8.06,0,0,1,2.78-.6c1-.11,3.41-.21,7.57,1.25,4.7,1.66,10.14,4.77,11.61,6.2a2.14,2.14,0,0,0,.85.54,3.78,3.78,0,0,0,2.78-.6c1.09-.53,2.27-.86,3.32-1.46a46.29,46.29,0,0,1,9-3.48c-14-13.44-30.08-18.68-40.92-12.1A21.44,21.44,0,0,0,502.18,359.45Z" transform="translate(-254.5 -244)"/><path class="cls-14" d="M510,318.88a8.19,8.19,0,0,0,1.06,4.33,6.6,6.6,0,0,0,1.61,1.84c.4.5,1,1.27,1.67,2.28.84,1.27.82,1.43,1.11,1.53,1.23.4,2.56-2.07,5.6-3.5a10.65,10.65,0,0,1,3.23-.9c1.2-.18,3.94-.45,8.65,1.07,5.31,1.72,11.38,5.15,13,6.79a2.67,2.67,0,0,0,1,.6,4.94,4.94,0,0,0,3.31-.25c4.34-1.34,4.06-1.22,4.31-1.32a53.41,53.41,0,0,0,10-6c-2-1.9-24.73-22.84-46.37-12.19A33.4,33.4,0,0,0,510,318.88Z" transform="translate(-254.5 -244)"/><path class="cls-14" d="M576.32,340.61a9.31,9.31,0,0,0-.84-3,8.07,8.07,0,0,0-1.05-1.63,74.32,74.32,0,0,1-8.78,6.17,72.79,72.79,0,0,1-7.23,3.76,9.3,9.3,0,0,1,2,4.51,13,13,0,0,1-1.48,7.77,104.75,104.75,0,0,0,7.93-7A108.38,108.38,0,0,0,576.32,340.61Z" transform="translate(-254.5 -244)"/><path class="cls-14" d="M555.62,374.35A3.72,3.72,0,0,1,557,376.1a4.86,4.86,0,0,1,.16,2.85,48.58,48.58,0,0,1-5.83,7.28,47,47,0,0,1-7.18,6,11.56,11.56,0,0,0,.14-5.92,8.8,8.8,0,0,0-2.19-4,42.68,42.68,0,0,0,6.76-3.2A47.58,47.58,0,0,0,555.62,374.35Z" transform="translate(-254.5 -244)"/><path class="cls-15" d="M497.43,379.69q2.38-10.12,4.75-20.24a21.85,21.85,0,0,0,7.44,10.17c10.68,7.64,26.07,1.13,33.82-2.24,16.06-7,26.79-19.07,32.55-26.79l-14.7,29.65a63.16,63.16,0,0,1-8.74,7.08,62,62,0,0,1-15.5,7.38c-7.14,2.29-22.46,7.21-34.39-.5A25.08,25.08,0,0,1,497.43,379.69Z" transform="translate(-254.5 -244)"/><path class="cls-14" d="M537.92,408.6a6.26,6.26,0,0,1,.74,2.1,7.44,7.44,0,0,1,0,2.72,38.14,38.14,0,0,1-5.84,6.54,37.24,37.24,0,0,1-4.94,3.68,12.49,12.49,0,0,0,.25-5,10.33,10.33,0,0,0-1.06-3.15Z" transform="translate(-254.5 -244)"/><path class="cls-16" d="M488,413.67q2.68-8.78,5.38-17.54a16.39,16.39,0,0,0,5.25,8.54c8.23,6.57,21.63.75,29.09-2.51,13.91-6.09,23.63-16.07,29.36-23.19L542.9,405.68A67,67,0,0,1,522,417.4c-6.52,2.2-19.54,6.58-29.53.13A20.57,20.57,0,0,1,488,413.67Z" transform="translate(-254.5 -244)"/><path class="cls-14" d="M521.53,438.51c0,.36.07.75.09,1.16,0,.57,0,1.11,0,1.59a42.24,42.24,0,0,1-5.62,6.2,41.28,41.28,0,0,1-3.33,2.7,14,14,0,0,0-.62-5.22c-.11-.3-.21-.58-.33-.85Z" transform="translate(-254.5 -244)"/><path class="cls-17" d="M478.47,442.68q2.55-7.31,5.12-14.59a12.62,12.62,0,0,0,3.9,6.94c6.45,5.42,17.81.69,24.66-2.16,6.06-2.52,16.4-7.91,26.65-19.65l-13.68,22.59a57.56,57.56,0,0,1-17.88,10c-5.61,1.88-16.6,5.58-25,.13A17.09,17.09,0,0,1,478.47,442.68Z" transform="translate(-254.5 -244)"/><path class="cls-14" d="M506.19,463.64c3.42,11.2,1.64,17.41-.71,21-5.45,8.42-18.24,9.46-20,17.31a8.24,8.24,0,0,0,.14,4.15q.62,2.83,1.25,5.67a5.31,5.31,0,0,0,2.72,3.36c2.95,1.24,7.05-1.4,9.36-3.79,3.77-3.91,3.86-8.27,6.38-8.94,1.34-.36,2.55.54,3.34,1.3a51.57,51.57,0,0,1-6.74,12.78,19.35,19.35,0,0,0-1.59,4.68,17.59,17.59,0,0,0,1.64,11.61,21.25,21.25,0,0,1-3-8.41,25.44,25.44,0,0,1,.22-8,30.79,30.79,0,0,0,5.4-9.57c.24-.7.44-1.39.61-2-4.79,9-11.44,14.25-16.11,13.31a5.92,5.92,0,0,1-3.46-2.2l-3-8.4a10.19,10.19,0,0,1-.88-6.25c1.73-9,16-11.52,18.67-20.62.77-2.58.92-6.67-3.12-12.55Z" transform="translate(-254.5 -244)"/><path class="cls-18" d="M469.12,469.25,474,456.1a10.22,10.22,0,0,0,3.1,6c5.34,4.6,15.24,0,21.2-2.76,5.28-2.45,14.32-7.59,23.5-18.37l-12.89,20.25a48.35,48.35,0,0,1-15.26,9.79c-4.54,1.78-14.29,5.61-21.45,1A13.58,13.58,0,0,1,469.12,469.25Z" transform="translate(-254.5 -244)"/><path class="cls-14" d="M575.09,317.21c1.28-1.41,5.83-6.75,6.39-14.16a18.13,18.13,0,0,0-10.66-18.17,15.22,15.22,0,0,0,12.07-3.69,18.34,18.34,0,0,0,4.38-20,21.88,21.88,0,0,1,10.65,14.91,28.89,28.89,0,0,1-1.43,15.34,102.45,102.45,0,0,1-11.67,16.14A97.47,97.47,0,0,1,575.09,317.21Z" transform="translate(-254.5 -244)"/><path class="cls-19" d="M504.77,344.58q2.58-12.85,5.18-25.7c1.44,3.92,4.19,9.33,9.6,12.94,13.39,9,32.26-.27,39.93-4.14,20.13-10.14,31.85-27.77,36.94-36.66q-8.4,20.31-16.81,40.61A85.92,85.92,0,0,1,551.22,349c-8.5,3.08-26.75,9.71-40.49.83A27.23,27.23,0,0,1,504.77,344.58Z" transform="translate(-254.5 -244)"/></g><g id="Layer_5" data-name="Layer 5"><path class="cls-20" d="M409.8,428.44l-3.06-2.16c-.77-.55-1.16-.84-1-1.12.23-.58,1.92-.55,3.75-1.47a7.48,7.48,0,0,0,1.84-1.34,9.12,9.12,0,0,0,2.57-4.37c.87-2.94.88-6.65.39-7.8a.86.86,0,0,1-.05-.6c.19-.58,1-1,1.84-1.33s1.8-1,2.79-1.4a50.07,50.07,0,0,0,7.18-3.91c3.05,12.5-.89,22.55-9.48,25A18.12,18.12,0,0,1,409.8,428.44Z" transform="translate(-254.5 -244)"/><path class="cls-20" d="M450.68,432.51l-3.38-2.61c-.86-.67-1.28-1-1.16-1.35.25-.69,2.11-.64,4.12-1.74a7.81,7.81,0,0,0,2-1.58,10.81,10.81,0,0,0,2.8-5.22c.94-3.51.92-7.95.37-9.33a1.07,1.07,0,0,1-.05-.72c.2-.69,1.13-1.13,2-1.58,1.05-.53,2-1.17,3.07-1.66a53,53,0,0,0,7.86-4.62c3.44,15-.81,27-10.24,29.86A18.16,18.16,0,0,1,450.68,432.51Z" transform="translate(-254.5 -244)"/><path class="cls-20" d="M496.24,438.18a16,16,0,0,1-2.09-1.73,15,15,0,0,1-1.06-1.17c-.44-.52-.49-.65-.88-1.12-1.11-1.41-1.49-1.38-1.38-1.67.29-.86,2.51-.79,4.9-2.14a9.46,9.46,0,0,0,2.38-2,13.39,13.39,0,0,0,3.32-6.44c1.1-4.34,1.07-9.83.41-11.55a1.37,1.37,0,0,1-.06-.88c.24-.86,1.34-1.4,2.38-1.95,1.25-.65,2.35-1.44,3.65-2a63,63,0,0,0,9.35-5.68c5.28,17.61.56,32.44-12.1,36.89A27.55,27.55,0,0,1,496.24,438.18Z" transform="translate(-254.5 -244)"/><path class="cls-20" d="M547.45,446.94a21.22,21.22,0,0,1-3.12-2.86c-.76-.87-.45-.69-2.15-2.93-1-1.4-1.19-1.5-1.09-1.78.39-1.11,3.3-1.07,6.19-2.74a10.78,10.78,0,0,0,2.66-2.26,15.78,15.78,0,0,0,3.68-7.49c1.22-5,1.16-11.43.42-13.42a1.62,1.62,0,0,1-.08-1c.27-1,1.5-1.63,2.66-2.26,1.39-.75,2.62-1.68,4.07-2.36a69.17,69.17,0,0,0,10.43-6.58c6.79,18.91,2.13,36-13.4,42.85A38.82,38.82,0,0,1,547.45,446.94Z" transform="translate(-254.5 -244)"/><path class="cls-20" d="M602.42,458.41a10.59,10.59,0,0,1-4.57-3,5.38,5.38,0,0,1-1.14-2.31,26.09,26.09,0,0,0-1.64-2.57c-1-1.34-1.18-1.4-1.09-1.71.35-1.31,4.28-1.38,8.13-3.5a14.66,14.66,0,0,0,3.33-2.54,17.49,17.49,0,0,0,4.65-8.37c1.56-5.63,1.54-12.75.65-15a2,2,0,0,1-.09-1.14c.23-1.2,1.42-2.05,2.6-2.91,4.62-3.35,4.28-3.15,4.58-3.33a90.79,90.79,0,0,1,14.24-6.41c.95,2.69,10.89,33-17.05,47.88A58.74,58.74,0,0,1,602.42,458.41Z" transform="translate(-254.5 -244)"/><path class="cls-20" d="M621.59,387.93a11.59,11.59,0,0,1,3.12,2.16,7.31,7.31,0,0,1,1.28,1.7A128.29,128.29,0,0,0,612.38,397c-3.67,1.66-6.86,3.32-9.58,4.87a9.84,9.84,0,0,0-4.16-3.85c-4.12-2.2-9.08-2.23-10.53-2.21,4.13-1.36,8.81-2.74,14-4C609.23,390,615.82,388.78,621.59,387.93Z" transform="translate(-254.5 -244)"/><path class="cls-20" d="M566,391.39a3.11,3.11,0,0,0-1.17-2.07,7.34,7.34,0,0,0-3.38-1.45,92.77,92.77,0,0,0-12.93,2,81.83,81.83,0,0,0-12.31,3.8,18.35,18.35,0,0,1,7.33,2.56,8.43,8.43,0,0,1,3.34,3.82,66,66,0,0,1,8.59-4.7A80.66,80.66,0,0,1,566,391.39Z" transform="translate(-254.5 -244)"/><path class="cls-21" d="M519.42,442l28,4.92c-3-2.47-6.55-6.33-7.32-11.44-2-13.23,16.59-24.29,26-29.82,19.6-11.45,41.79-15.71,55.2-17.44L575,388.1a111.58,111.58,0,0,0-14.69,4.73,98.07,98.07,0,0,0-19.7,10.76c-7.72,5.47-24.29,17.19-23.09,31.6A19.25,19.25,0,0,0,519.42,442Z" transform="translate(-254.5 -244)"/><path class="cls-20" d="M512,391.87a7.12,7.12,0,0,0-2.05-1.64,12.21,12.21,0,0,0-3.35-1.21,73.38,73.38,0,0,0-12,2.35,63.83,63.83,0,0,0-7.9,2.82,20.1,20.1,0,0,1,6.33,2.08,12,12,0,0,1,3.12,2.4Z" transform="translate(-254.5 -244)"/><path class="cls-22" d="M471.38,435.05l25.16,3.11c-2.73-1.89-5.94-4.79-6.82-8.69-2.37-10.51,14-20.07,23.11-25.39,17-9.9,35.94-14.2,48.6-16.18l-42.47.76a108.54,108.54,0,0,0-28.75,13.72c-7.18,4.95-21.52,14.82-20.51,26.88A15.71,15.71,0,0,0,471.38,435.05Z" transform="translate(-254.5 -244)"/><path class="cls-20" d="M464.08,393.14c-.42-.2-.87-.41-1.37-.61-.68-.28-1.34-.51-2-.7a81.87,81.87,0,0,0-11.45,2.29c-2.07.58-3.94,1.2-5.61,1.81a19.15,19.15,0,0,1,6,2.95c.3.23.57.46.82.69Z" transform="translate(-254.5 -244)"/><path class="cls-23" d="M429.3,430.52l21.38,2c-2.31-1.44-5-3.66-5.81-6.73-2.18-8.36,11.43-16.56,19.64-21.51,7.27-4.37,21-11.33,42.39-15.31l-37,2.15a93.12,93.12,0,0,0-24.57,11.72c-6.17,4.26-18.27,12.6-17.42,22.78A13.39,13.39,0,0,0,429.3,430.52Z" transform="translate(-254.5 -244)"/><path class="cls-20" d="M422.76,395.65c-13.32-8.1-23.75-9.19-30.9-8.63-16.66,1.32-28.75,12.66-41.57,10.86a15.78,15.78,0,0,1-5.87-2l-7.14-3.66c-1.26-.81-2.94-2.22-2.59-4,.65-3.26,7.86-5.88,13.23-7,8.74-1.75,15.12.09,18.18-1.94a2.7,2.7,0,0,0,.87-3.66,136.94,136.94,0,0,0-13.76-.17c-3.79.14-7.23.42-10.25.76a50.71,50.71,0,0,1-8.06-.6c-9.11-1.46-13.73-5.13-15.38-6.63a27.24,27.24,0,0,0,9.64,6.46,53,53,0,0,0,11.7,3.31,83.24,83.24,0,0,1,18.27-.75c1.21.09,2.37.2,3.46.34-16.94.45-30,4.27-32.54,9a3.93,3.93,0,0,0,.3,4.16L340,398a17,17,0,0,0,8.29,3.57c14.44,2.38,29.82-9.64,45.2-8.13A22.11,22.11,0,0,1,409,401.9Z" transform="translate(-254.5 -244)"/><path class="cls-24" d="M390.36,426.89l19.44,1.55c-2.09-1.19-4.53-3-5.24-5.59-1.95-7,10.49-13.9,18-18.07,6.63-3.7,19.15-9.59,38.66-13l-33.65,2.49a81.43,81.43,0,0,0-22.49,9.44c-5.31,3.33-16.71,10.48-16,19.12A10.27,10.27,0,0,0,390.36,426.89Z" transform="translate(-254.5 -244)"/><path class="cls-20" d="M649.35,399.75c2.61-.51,12.28-2.23,21.73.65,10.07,3.07,15.87,10.13,14.87,18,.48-.9,3.74-6.79,12.84-9.32,9.29-2.58,20.84-.62,27.44,5.14,0-1.81-.22-10.26-10.89-16.53-7.48-4.4-16.16-5.42-19.75-5.71a198,198,0,0,0-27.79,3.25A187.25,187.25,0,0,0,649.35,399.75Z" transform="translate(-254.5 -244)"/><path class="cls-25" d="M567.41,451.38l35,7c-3.81-3.11-8.52-8.09-9.22-14.67-1.72-16.32,22.58-29.3,32.59-34.53,26.28-13.73,55.92-16.35,70.3-16.94L634.83,389c-20.39,5.65-33.65,13.2-40.84,17.94-9.63,6.34-30.31,20-28.92,36.55A20.86,20.86,0,0,0,567.41,451.38Z" transform="translate(-254.5 -244)"/></g></svg>