<svg xmlns="http://www.w3.org/2000/svg" viewBox="0 0 600 300"><defs><style>.cls-1,.cls-3,.cls-7{fill:#fcda21;}.cls-10,.cls-2,.cls-4,.cls-6,.cls-8{fill:none;}.cls-2{stroke:#f2f2f2;}.cls-10,.cls-2,.cls-3,.cls-4,.cls-5,.cls-6,.cls-7,.cls-8,.cls-9{stroke-miterlimit:10;}.cls-2,.cls-7,.cls-8{stroke-width:3px;}.cls-10,.cls-3,.cls-4,.cls-5,.cls-6,.cls-7,.cls-8,.cls-9{stroke:#333;}.cls-3,.cls-4{stroke-width:0.5px;}.cls-5,.cls-9{fill:#333;}.cls-5,.cls-6{stroke-width:0.25px;}</style></defs><title>ehive</title><g id="Layer_1" data-name="Layer 1"><rect class="cls-1" width="600" height="300"/></g><g id="Layer_2" data-name="Layer 2"><polygon class="cls-2" points="427.73 78 411.48 48 427.73 18 460.23 18 476.48 48 460.23 78 427.73 78"/><polygon class="cls-2" points="427.03 137.5 410.78 107.5 427.03 77.5 459.53 77.5 475.78 107.5 459.53 137.5 427.03 137.5"/><polygon class="cls-2" points="427.03 197.5 410.78 167.5 427.03 137.5 459.53 137.5 475.78 167.5 459.53 197.5 427.03 197.5"/><polygon class="cls-2" points="427.03 257.5 410.78 227.5 427.03 197.5 459.53 197.5 475.78 227.5 459.53 257.5 427.03 257.5"/><polygon class="cls-2" points="378.38 106.72 362.13 76.72 378.38 46.72 410.88 46.72 427.13 76.72 410.88 106.72 378.38 106.72"/><polygon class="cls-2" points="377.67 166.22 361.42 136.22 377.67 106.22 410.17 106.22 426.42 136.22 410.17 166.22 377.67 166.22"/><polygon class="cls-2" points="377.67 226.22 361.42 196.22 377.67 166.22 410.17 166.22 426.42 196.22 410.17 226.22 377.67 226.22"/><polygon class="cls-2" points="377.67 286.22 361.42 256.22 377.67 226.22 410.17 226.22 426.42 256.22 410.17 286.22 377.67 286.22"/><polygon class="cls-2" points="329.38 76.72 313.13 46.72 329.38 16.72 361.88 16.72 378.13 46.72 361.88 76.72 329.38 76.72"/><polygon class="cls-2" points="328.67 136.22 312.42 106.22 328.67 76.22 361.17 76.22 377.42 106.22 361.17 136.22 328.67 136.22"/><polygon class="cls-2" points="328.67 196.22 312.42 166.22 328.67 136.22 361.17 136.22 377.42 166.22 361.17 196.22 328.67 196.22"/><polygon class="cls-2" points="328.67 256.22 312.42 226.22 328.67 196.22 361.17 196.22 377.42 226.22 361.17 256.22 328.67 256.22"/><polygon class="cls-2" points="280.4 106.72 264.15 76.72 280.4 46.72 312.9 46.72 329.15 76.72 312.9 106.72 280.4 106.72"/><polygon class="cls-2" points="279.69 166.22 263.44 136.22 279.69 106.22 312.19 106.22 328.44 136.22 312.19 166.22 279.69 166.22"/><polygon class="cls-2" points="279.69 226.22 263.44 196.22 279.69 166.22 312.19 166.22 328.44 196.22 312.19 226.22 279.69 226.22"/><polygon class="cls-2" points="279.69 286.22 263.44 256.22 279.69 226.22 312.19 226.22 328.44 256.22 312.19 286.22 279.69 286.22"/><polygon class="cls-2" points="231.7 76.72 215.45 46.72 231.7 16.72 264.2 16.72 280.45 46.72 264.2 76.72 231.7 76.72"/><polygon class="cls-2" points="230.99 136.22 214.74 106.22 230.99 76.22 263.49 76.22 279.74 106.22 263.49 136.22 230.99 136.22"/><polygon class="cls-2" points="230.99 196.22 214.74 166.22 230.99 136.22 263.49 136.22 279.74 166.22 263.49 196.22 230.99 196.22"/><polygon class="cls-2" points="230.99 256.22 214.74 226.22 230.99 196.22 263.49 196.22 279.74 226.22 263.49 256.22 230.99 256.22"/><polygon class="cls-2" points="182.7 106.72 166.45 76.72 182.7 46.72 215.2 46.72 231.45 76.72 215.2 106.72 182.7 106.72"/><polygon class="cls-2" points="181.99 166.22 165.74 136.22 181.99 106.22 214.49 106.22 230.74 136.22 214.49 166.22 181.99 166.22"/><polygon class="cls-2" points="181.99 226.22 165.74 196.22 181.99 166.22 214.49 166.22 230.74 196.22 214.49 226.22 181.99 226.22"/><polygon class="cls-2" points="181.99 286.22 165.74 256.22 181.99 226.22 214.49 226.22 230.74 256.22 214.49 286.22 181.99 286.22"/><polygon class="cls-2" points="133.7 76.72 117.45 46.72 133.7 16.72 166.2 16.72 182.45 46.72 166.2 76.72 133.7 76.72"/><polygon class="cls-2" points="132.99 136.22 116.74 106.22 132.99 76.22 165.49 76.22 181.74 106.22 165.49 136.22 132.99 136.22"/><polygon class="cls-2" points="132.99 196.22 116.74 166.22 132.99 136.22 165.49 136.22 181.74 166.22 165.49 196.22 132.99 196.22"/><polygon class="cls-2" points="132.99 256.22 116.74 226.22 132.99 196.22 165.49 196.22 181.74 226.22 165.49 256.22 132.99 256.22"/></g><g id="Layer_3" data-name="Layer 3"><path class="cls-3" d="M771,425.45a33.58,33.58,0,0,0,1,6.78,11.79,11.79,0,0,0,1.81,4.46,8.55,8.55,0,0,0,3,2.49,10.18,10.18,0,0,0,2.3-2.14,12.37,12.37,0,0,0,2.14-4.46,18.79,18.79,0,0,0,.65-6.78l.66,1.43c.75,1.65,1.05,2.38,1.64,2.5a1.19,1.19,0,0,0,.33,0,3.33,3.33,0,0,0,1,2.5,2.23,2.23,0,0,0,.66.35,8.36,8.36,0,0,0,2,2.5,7.75,7.75,0,0,0,1,.71v.72l.33-1.07.65-.36-1-.36-2.63-2.49a3.66,3.66,0,0,0-.33-1.43,3.22,3.22,0,0,0-1.32-1.43,11.74,11.74,0,0,0-.66-2.5,24.21,24.21,0,0,0-1.64-3.21l-1-1.78-.32-1.79h.32a5.71,5.71,0,0,1,1.65,1.07c.67.64.94,1.22,1.64,1.43a1.82,1.82,0,0,0,1,0,10.1,10.1,0,0,0,.66,2.14,10.27,10.27,0,0,0,1,1.79,11.89,11.89,0,0,0,1.32,1.42,10.63,10.63,0,0,0,2,1.43h.66l-.33-.36.66-1.07h-.66a3.89,3.89,0,0,1-1.31-.35,4.35,4.35,0,0,1-1.65-1.43,14.18,14.18,0,0,0-.66-2.5,15.13,15.13,0,0,0-1-2.14,4.87,4.87,0,0,0-.66-.71,6.27,6.27,0,0,0-2-1.07,13.28,13.28,0,0,1-2-1.07l-2-1.08.33-1.42a26.85,26.85,0,0,0,4.6,2.85,26.17,26.17,0,0,0,3.62,1.43,6.89,6.89,0,0,0,4.28-2.14,8,8,0,0,0,2-3.93,4.57,4.57,0,0,0,2.63-.35c1.71-.81,2.51-2.57,3.29-4.29a15.87,15.87,0,0,0,1-2.85,3.28,3.28,0,0,0-.65-1.07,3.86,3.86,0,0,0-2.63-1.07,6.5,6.5,0,0,0-3,.36,16.92,16.92,0,0,0-5.92,2.14c-2.15,1.28-4.5,2.16-6.58,3.56a1.75,1.75,0,0,1-1.32.36,1.39,1.39,0,0,1-.65-.36l1-1.78a11.27,11.27,0,0,0,1.81-1.61,12.13,12.13,0,0,0,1.48-2,8.19,8.19,0,0,0,.82-2.32,9.19,9.19,0,0,0,.17-1.6l2.3-2.5,1-.36-.66-.35-.33-.36-.33.36-2.63,2.85a11.53,11.53,0,0,0-1,3.57A9.93,9.93,0,0,0,783,406a10.06,10.06,0,0,0-1.48,2l-1.31.36-.66-.72.33-1.07a2.08,2.08,0,0,0,.49-.89,2.37,2.37,0,0,0-.16-1.61l-2.3-1.42a13.33,13.33,0,0,1,1.48-2c1.12-1.23,1.87-1.56,3-2.85a12,12,0,0,0,1.15-1.61,6.57,6.57,0,0,0-1.48.9c-1.09.87-1.07,1.44-2.3,2.49-.53.46-.71.5-1.32,1.07a12.29,12.29,0,0,0-1.15,1.25l-1.65-1.07-.49.54-.49.53-1.32-.71a11.81,11.81,0,0,1-1.81-1.25c-1-.83-1.3-1.4-2.3-2.14a8.38,8.38,0,0,0-1.48-.89,8.12,8.12,0,0,0,.49.89,9.94,9.94,0,0,0,2.64,2.5c.45.33,1.06.77,1.8,1.25l1,1.07-.66.71-1.31.71a2.89,2.89,0,0,0-.17,2,2.4,2.4,0,0,0,.5.89V409l-1.65-.36a10.38,10.38,0,0,0-1.48-1.6,9.13,9.13,0,0,0-1.81-1.25c-.22-1.07-.43-2.14-.65-3.21a10.08,10.08,0,0,1-1.81-1.25,10,10,0,0,1-1.48-1.61l-.66-.71v.71l-.33.72.33.35a11.52,11.52,0,0,1,1.48.9,12.52,12.52,0,0,1,1.48,1.24l1,3.57a9.4,9.4,0,0,0,1.48,2,9.08,9.08,0,0,0,2.13,1.6l1.32,1.07a1.07,1.07,0,0,1-.33.72c-.44.32-1.18-.11-1.64-.36-1.06-.58-2.25-.83-3.29-1.43-2.22-1.28-4.84-1.81-8.22-2.5-4.17-.84-5.47-.47-6.25.36A3.14,3.14,0,0,0,751,409a4.2,4.2,0,0,0-.33,2.14c.13,1.13.75,1.84,2,3.21,1.39,1.56,2.12,2.35,3.29,2.5a3.5,3.5,0,0,0,2-.36,2.48,2.48,0,0,0,0,1.43c.27.86,1,1.28,3.61,2.5l2.31,1.07a8.62,8.62,0,0,0,2.3-.71c2-1,2.64-2.35,4.93-3.57a12.51,12.51,0,0,1,1.64-.72L773,418a3.28,3.28,0,0,1-.65.36c-.52.21-.76.15-1,.36a1.31,1.31,0,0,0-.33,1.07l-1.64.71c-1.34.58-1.89.8-2.31,1.43a2.45,2.45,0,0,0-.32.71,8.73,8.73,0,0,0-1,1.79,9.55,9.55,0,0,0-.66,2.49,18.36,18.36,0,0,1-1.31,1.43,19.43,19.43,0,0,1-1.65,1.43h-1l.66.71v.72l.33-.36a9,9,0,0,0,2.3-1.79,9.73,9.73,0,0,0,1.32-1.78,8.07,8.07,0,0,0,.66-1.07,7.18,7.18,0,0,0,.65-2.14,2.71,2.71,0,0,0,1.32-.36,4.55,4.55,0,0,0,1.31-1.43,12.78,12.78,0,0,1,1.65-1.78v1.43L771,424a7.85,7.85,0,0,0-1.64,2.14,8.67,8.67,0,0,0-1,3.92,6.35,6.35,0,0,0-1,1.79,6.81,6.81,0,0,0-.33,1.43,7.29,7.29,0,0,1-1,1.42,7.56,7.56,0,0,1-1.65,1.43,2.62,2.62,0,0,0-.72.34s0,0,.07,0c.32,0,.65,1.07.65,1.07l.33-.36,2.63-3.21a6.84,6.84,0,0,0,1-1.43,7.38,7.38,0,0,0,.66-1.78,10.71,10.71,0,0,0,1.31-2.5A11.17,11.17,0,0,0,771,425.45Z" transform="translate(-333 -188)"/><path class="cls-4" d="M770.35,434" transform="translate(-333 -188)"/><path class="cls-4" d="M770.88,419.79" transform="translate(-333 -188)"/><path class="cls-5" d="M771.5,420.27a8.66,8.66,0,0,0,9.54,0l.33.72a7.71,7.71,0,0,1-9.87,0Z" transform="translate(-333 -188)"/><path class="cls-5" d="M771,425.63a10.66,10.66,0,0,0,10.68,0l.23,1.42a8.95,8.95,0,0,1-10.76,0Z" transform="translate(-333 -188)"/><path class="cls-5" d="M771.91,431.89a13.34,13.34,0,0,0,9.48,0l-.45,1.57a14.31,14.31,0,0,1-3.85.73,14,14,0,0,1-4.7-.58Z" transform="translate(-333 -188)"/><path class="cls-5" d="M772.77,434.72a13.73,13.73,0,0,0,4,.54,14.16,14.16,0,0,0,3.69-.54l-.49,1a9.38,9.38,0,0,1-6.77,0Z" transform="translate(-333 -188)"/><path class="cls-5" d="M774.16,437.13a10,10,0,0,0,2.61.27,9.74,9.74,0,0,0,2.3-.36l-.6.69a5.07,5.07,0,0,1-2,.38,5,5,0,0,1-1.61-.29Z" transform="translate(-333 -188)"/><polygon class="cls-5" points="442.81 250.61 444.53 250.61 443.76 251.18 442.81 250.61"/><path class="cls-6" d="M782.46,412.21a35.16,35.16,0,0,1,5.59-3.21c.49-.22.93-.41,1.64-.68.94-.37,2.34-.88,4.94-1.82h0" transform="translate(-333 -188)"/><path class="cls-6" d="M784.93,412.74a24.07,24.07,0,0,1,4,.36,23.52,23.52,0,0,1,3.94,1.07" transform="translate(-333 -188)"/><path class="cls-6" d="M791,416.49a6.09,6.09,0,0,0-1-1.78,5.74,5.74,0,0,0-2.51-1.81" transform="translate(-333 -188)"/><path class="cls-6" d="M753.69,407.75a50.78,50.78,0,0,1,7.89,1.78,51.39,51.39,0,0,1,7.23,2.86" transform="translate(-333 -188)"/><path class="cls-6" d="M753.52,410.42a4.88,4.88,0,0,1,1.65-1.42,4.44,4.44,0,0,1,2.55-.5" transform="translate(-333 -188)"/><path class="cls-6" d="M751.55,411.14a11.9,11.9,0,0,0,1.64,2.14,10.56,10.56,0,0,0,2.31,1.78" transform="translate(-333 -188)"/><path class="cls-6" d="M760.76,415.06a9.75,9.75,0,0,1,3.29-.71,9.24,9.24,0,0,1,3,.36" transform="translate(-333 -188)"/><path class="cls-6" d="M763.72,418.63a5.67,5.67,0,0,0,1.64-1.78,6.22,6.22,0,0,0,.8-2.34" transform="translate(-333 -188)"/><path class="cls-6" d="M798.19,405.66a3,3,0,0,1,.66.19c.34.13,1.2.47,1.32,1.12a1.41,1.41,0,0,1-.44,1.13,2.58,2.58,0,0,1-.66.56" transform="translate(-333 -188)"/><path class="cls-7" d="M603.29,380.27a167.4,167.4,0,0,0,5.57,35.89c4.13,15.3,8,20.88,10.21,23.62A47.92,47.92,0,0,0,635.79,453a57,57,0,0,0,13-11.34c7.29-8.64,10.06-17.19,12.07-23.61a92.81,92.81,0,0,0,3.71-35.9c1.63,3.27,2.91,5.9,3.72,7.56,4.23,8.72,5.93,12.61,9.28,13.23a5.43,5.43,0,0,0,1.86,0c0,1.25,0,9,5.57,13.22a12.23,12.23,0,0,0,3.72,1.89,44.81,44.81,0,0,0,11.14,13.22,42.28,42.28,0,0,0,5.57,3.78v3.78l1.86-5.67,3.71-1.89-5.57-1.89-14.86-13.22a17.32,17.32,0,0,0-9.28-15.11,62.91,62.91,0,0,0-3.72-13.23c-1.33-3.29-2.64-5.69-9.28-17l-5.57-9.45-1.86-9.44h1.86a31.45,31.45,0,0,1,9.28,5.66c3.77,3.36,5.32,6.47,9.29,7.56a11,11,0,0,0,5.57,0,52.88,52.88,0,0,0,9.28,20.78,62,62,0,0,0,7.43,7.56,61.19,61.19,0,0,0,11.14,7.56h3.72l-1.86-1.89,3.72-5.67h-3.72a22.71,22.71,0,0,1-7.43-1.89,23.46,23.46,0,0,1-9.28-7.56,72.43,72.43,0,0,0-9.29-24.56,25.32,25.32,0,0,0-3.71-3.77c-3.77-3.11-7.18-4.07-11.14-5.67a73.65,73.65,0,0,1-11.15-5.67l-11.14-5.67,1.86-7.55a150.92,150.92,0,0,0,46.43,22.67,40.13,40.13,0,0,0,24.14-11.34A41.13,41.13,0,0,0,737,321.7a27.49,27.49,0,0,0,14.86-1.89c9.64-4.24,14.17-13.59,18.57-22.67A83.19,83.19,0,0,0,776,282a17.71,17.71,0,0,0-3.71-5.67c-4.49-4.56-10.24-5.18-14.86-5.67a39.5,39.5,0,0,0-16.72,1.89,99.86,99.86,0,0,0-33.42,11.34c-12.13,6.78-25.4,11.43-37.15,18.89-1,.61-4,2.59-7.42,1.89a8.35,8.35,0,0,1-3.72-1.89q2.79-4.72,5.57-9.45a66.14,66.14,0,0,0,10.22-8.5,66.82,66.82,0,0,0,8.35-10.39,43.15,43.15,0,0,0,4.65-12.28,44.14,44.14,0,0,0,.93-8.5l13-13.23,5.57-1.89-3.72-1.88-1.85-1.89-1.86,1.89L685,251.8a55.79,55.79,0,0,0-2.78,6.61,56.41,56.41,0,0,0-2.79,12.28,53.47,53.47,0,0,0-16.71,17l-7.43,1.89-3.72-3.78,1.86-5.66a11.23,11.23,0,0,0,2.79-4.73,11.85,11.85,0,0,0-.93-8.5l-13-7.55a71.93,71.93,0,0,1,8.35-10.4c6.36-6.53,10.57-8.3,16.72-15.11a66.18,66.18,0,0,0,6.5-8.5,37.62,37.62,0,0,0-8.36,4.72c-6.13,4.63-6,7.64-13,13.23-3,2.39-4,2.65-7.43,5.66a66.11,66.11,0,0,0-6.5,6.62l-9.28-5.67-2.79,2.83-2.78,2.84-7.43-3.78a63.71,63.71,0,0,1-10.22-6.61c-5.5-4.39-7.35-7.4-13-11.34a50.42,50.42,0,0,0-8.35-4.72,37,37,0,0,0,2.78,4.72c1.67,2.41,4.67,6.11,14.86,13.23,2.55,1.77,6,4.08,10.21,6.61l5.57,5.67-3.71,3.77L607,266.91a14.16,14.16,0,0,0-.93,10.39,12.88,12.88,0,0,0,2.79,4.73v11.33l-9.29-1.89a55.08,55.08,0,0,0-8.35-8.5A54.32,54.32,0,0,0,581,276.36q-1.86-8.5-3.71-17a55,55,0,0,1-18.57-15.12L555,240.46v3.78L553.15,248l1.85,1.89a65.14,65.14,0,0,1,8.36,4.72,66.86,66.86,0,0,1,8.36,6.61q2.78,9.45,5.57,18.9a50.6,50.6,0,0,0,8.36,10.39,49.8,49.8,0,0,0,12.07,8.5l7.42,5.67a5.3,5.3,0,0,1-1.85,3.78c-2.5,1.73-6.66-.54-9.29-1.89-6-3.06-12.68-4.37-18.57-7.56-12.54-6.79-27.32-9.6-46.43-13.23-23.51-4.46-30.86-2.48-35.28,1.89a17.13,17.13,0,0,0-3.72,5.67,21.48,21.48,0,0,0-1.85,11.34c.74,6,4.22,9.73,11.14,17,7.85,8.25,11.94,12.41,18.57,13.22A20.74,20.74,0,0,0,529,333a12.86,12.86,0,0,0,0,7.56c1.56,4.55,5.85,6.78,20.43,13.23q7,3.07,13,5.66a48.51,48.51,0,0,0,13-3.77c11.54-5.24,15-12.43,27.86-18.9a64.86,64.86,0,0,1,9.28-3.78l1.86,7.56a19.78,19.78,0,0,1-3.71,1.89c-2.94,1.12-4.29.83-5.58,1.89-.92.76-1.89,2.29-1.85,5.67L594,353.82c-7.56,3-10.67,4.23-13,7.55a13.63,13.63,0,0,0-1.85,3.78,47.69,47.69,0,0,0-9.29,22.67,102.22,102.22,0,0,1-16.71,15.12h-5.58l3.72,3.77v3.78l1.86-1.89a50.89,50.89,0,0,0,13-9.44,51.93,51.93,0,0,0,7.42-9.45,34.82,34.82,0,0,0,3.72-5.67A35.92,35.92,0,0,0,581,372.71a16.07,16.07,0,0,0,7.43-1.89c3.33-1.82,4.83-4.32,7.43-7.56a67.65,67.65,0,0,1,9.28-9.44v7.55l-1.85,11.34A42.54,42.54,0,0,0,594,384a44,44,0,0,0-5.57,20.79,32.24,32.24,0,0,0-5.57,9.44,32.57,32.57,0,0,0-1.86,7.56,42.55,42.55,0,0,1-14.85,15.11c-1.91.67-4.17,1.52-4.1,1.8,0,.06.13.09.38.09,1.86,0,3.72,5.67,3.72,5.67l1.85-1.89,14.86-17a37.18,37.18,0,0,0,5.57-7.56,37.66,37.66,0,0,0,3.71-9.45,56.12,56.12,0,0,0,7.43-13.22A57.28,57.28,0,0,0,603.29,380.27Z" transform="translate(-333 -188)"/><path class="cls-8" d="M599.57,425.61" transform="translate(-333 -188)"/><path class="cls-8" d="M602.54,350.34" transform="translate(-333 -188)"/><path class="cls-9" d="M606.07,352.87a51.7,51.7,0,0,0,53.86,0l1.86,3.78a45.65,45.65,0,0,1-55.72,0Z" transform="translate(-333 -188)"/><path class="cls-9" d="M603.34,381.23a63.66,63.66,0,0,0,60.3,0l1.29,7.49a53.29,53.29,0,0,1-60.71.07Z" transform="translate(-333 -188)"/><path class="cls-9" d="M608.39,414.37a79.8,79.8,0,0,0,53.53,0l-2.58,8.33a84.51,84.51,0,0,1-48.29.8Q609.71,418.92,608.39,414.37Z" transform="translate(-333 -188)"/><path class="cls-9" d="M613.23,429.38a84.24,84.24,0,0,0,43.41,0l-2.78,5.2a56.58,56.58,0,0,1-38.19,0C614.86,432.85,614,431.12,613.23,429.38Z" transform="translate(-333 -188)"/><path class="cls-9" d="M621.06,442.11a57.91,57.91,0,0,0,27.73-.45l-3.37,3.66a30.9,30.9,0,0,1-20.59.48Z" transform="translate(-333 -188)"/><polygon class="cls-9" points="297.39 261.98 307.1 261.98 302.79 265 297.39 261.98"/><path class="cls-10" d="M668,310.19a200.37,200.37,0,0,1,31.57-17c2.74-1.17,5.24-2.16,9.23-3.6,5.3-1.92,13.25-4.63,27.91-9.62h0" transform="translate(-333 -188)"/><path class="cls-10" d="M681.89,313a138.06,138.06,0,0,1,44.57,7.56" transform="translate(-333 -188)"/><path class="cls-10" d="M716.25,332.86a31.93,31.93,0,0,0-19.71-19" transform="translate(-333 -188)"/><path class="cls-10" d="M505.46,286.57a307,307,0,0,1,85.43,24.56" transform="translate(-333 -188)"/><path class="cls-10" d="M504.53,300.74a27.39,27.39,0,0,1,9.29-7.56,27.09,27.09,0,0,1,14.43-2.65" transform="translate(-333 -188)"/><path class="cls-10" d="M493.39,304.52a60.55,60.55,0,0,0,9.29,11.33,59.55,59.55,0,0,0,13,9.45" transform="translate(-333 -188)"/><path class="cls-10" d="M545.39,325.3a57.32,57.32,0,0,1,35.29-1.89" transform="translate(-333 -188)"/><path class="cls-10" d="M562.1,344.19a30.84,30.84,0,0,0,9.29-9.44,31.37,31.37,0,0,0,4.5-12.39" transform="translate(-333 -188)"/><path class="cls-10" d="M756.77,275.51a20.1,20.1,0,0,1,3.73,1c1.92.71,6.76,2.52,7.47,5.95.53,2.49-1.37,4.68-2.49,6a14.15,14.15,0,0,1-3.73,3" transform="translate(-333 -188)"/><path class="cls-3" d="M477.4,423a33.47,33.47,0,0,0,1,6.78,12,12,0,0,0,1.8,4.46,8.58,8.58,0,0,0,3,2.5,10.45,10.45,0,0,0,2.31-2.14,12.16,12.16,0,0,0,2.13-4.46,18.62,18.62,0,0,0,.66-6.78c.29.62.52,1.11.66,1.43.75,1.64,1,2.38,1.64,2.49a.72.72,0,0,0,.33,0,3.31,3.31,0,0,0,1,2.5,2,2,0,0,0,.66.36,8.32,8.32,0,0,0,2,2.5,7.11,7.11,0,0,0,1,.71V434l.33-1.07.65-.35-1-.36-2.63-2.5a3.66,3.66,0,0,0-.33-1.43,3.18,3.18,0,0,0-1.32-1.42,11.74,11.74,0,0,0-.66-2.5,23.56,23.56,0,0,0-1.64-3.21l-1-1.79-.33-1.78h.33a5.51,5.51,0,0,1,1.65,1.07c.66.63.94,1.22,1.64,1.43a1.93,1.93,0,0,0,1,0,10.48,10.48,0,0,0,1.64,3.92,11.11,11.11,0,0,0,3.29,2.86h.66l-.33-.36.66-1.07h-.66a3.81,3.81,0,0,1-1.32-.36,4.21,4.21,0,0,1-1.64-1.42,14.18,14.18,0,0,0-.66-2.5,14.62,14.62,0,0,0-1-2.14,5.48,5.48,0,0,0-.66-.72,6.41,6.41,0,0,0-2-1.07,13.27,13.27,0,0,1-2-1.07l-2-1.07.33-1.43a25.86,25.86,0,0,0,4.6,2.86,26.17,26.17,0,0,0,3.62,1.43,6.94,6.94,0,0,0,4.27-2.15,7.88,7.88,0,0,0,2-3.92,4.57,4.57,0,0,0,2.63-.36c1.71-.8,2.51-2.57,3.29-4.28a16.14,16.14,0,0,0,1-2.85,3.36,3.36,0,0,0-.65-1.07,3.88,3.88,0,0,0-2.64-1.08,6.62,6.62,0,0,0-2.95.36,16.84,16.84,0,0,0-5.92,2.14c-2.15,1.28-4.5,2.16-6.58,3.57a1.75,1.75,0,0,1-1.32.36,1.48,1.48,0,0,1-.65-.36l1-1.78a11.79,11.79,0,0,0,1.81-1.61,12.58,12.58,0,0,0,1.48-2,8.31,8.31,0,0,0,.82-2.32,9.3,9.3,0,0,0,.17-1.61l2.3-2.49,1-.36-.66-.36-.33-.36-.33.36-2.63,2.86a10.21,10.21,0,0,0-.49,1.25,10.88,10.88,0,0,0-.5,2.31,10.58,10.58,0,0,0-1.48,1.25,10.39,10.39,0,0,0-1.48,2l-1.31.35-.66-.71.33-1.07a2.15,2.15,0,0,0,.49-.89,2.44,2.44,0,0,0-.16-1.61l-2.3-1.43a13.13,13.13,0,0,1,1.48-2c1.12-1.23,1.87-1.57,2.95-2.85a12,12,0,0,0,1.16-1.61,6.38,6.38,0,0,0-1.48.89c-1.09.88-1.07,1.45-2.31,2.5-.52.45-.71.5-1.31,1.07a12.29,12.29,0,0,0-1.15,1.25L482,398.33l-.49.53-.49.54-1.32-.71a12,12,0,0,1-1.81-1.25c-1-.83-1.3-1.4-2.3-2.14a9,9,0,0,0-1.48-.9,7.28,7.28,0,0,0,.49.9,10,10,0,0,0,2.63,2.49c.46.34,1.07.78,1.81,1.25l1,1.07-.66.72-1.31.71a2.8,2.8,0,0,0-.17,2,2.45,2.45,0,0,0,.5.9v2.14l-1.65-.36a10,10,0,0,0-1.48-1.61,9.47,9.47,0,0,0-1.81-1.24l-.66-3.22a9.4,9.4,0,0,1-1.8-1.25,9.5,9.5,0,0,1-1.48-1.6l-.66-.71v.71l-.33.71.33.36a11.36,11.36,0,0,1,1.48.89,12.52,12.52,0,0,1,1.48,1.25l1,3.57a10.14,10.14,0,0,0,1.48,2,8.91,8.91,0,0,0,2.14,1.61l1.32,1.07a1.05,1.05,0,0,1-.33.71c-.44.33-1.18-.1-1.65-.36-1.05-.57-2.24-.82-3.28-1.42-2.22-1.29-4.84-1.82-8.23-2.5-4.16-.84-5.46-.47-6.24.36a3,3,0,0,0-.66,1.07,4.16,4.16,0,0,0-.33,2.14c.13,1.13.75,1.84,2,3.21,1.39,1.56,2.12,2.34,3.29,2.5a3.52,3.52,0,0,0,2-.36,2.66,2.66,0,0,0,0,1.43c.28.86,1,1.28,3.62,2.5l2.3,1.07a8.19,8.19,0,0,0,2.31-.72c2-1,2.64-2.34,4.93-3.57A11,11,0,0,1,479,414l.33,1.43a3,3,0,0,1-.66.35c-.51.22-.75.16-1,.36a1.29,1.29,0,0,0-.33,1.07l-1.65.72c-1.33.57-1.88.8-2.3,1.42a3.06,3.06,0,0,0-.33.72,9.14,9.14,0,0,0-1,1.78,9.31,9.31,0,0,0-.66,2.5c-.38.45-.82.94-1.32,1.43a16.35,16.35,0,0,1-1.64,1.42h-1l.66.72v.71l.33-.36a8.71,8.71,0,0,0,2.3-1.78,9.73,9.73,0,0,0,1.32-1.78,7.72,7.72,0,0,0,.65-1.07,7,7,0,0,0,.66-2.15,2.68,2.68,0,0,0,1.32-.35,4.66,4.66,0,0,0,1.31-1.43,12.19,12.19,0,0,1,1.65-1.78v1.42l-.33,2.14a8.3,8.3,0,0,0-1.65,2.15,8.76,8.76,0,0,0-1,3.92,6.27,6.27,0,0,0-1,1.78,7.1,7.1,0,0,0-.33,1.43,8.15,8.15,0,0,1-1,1.43,7.79,7.79,0,0,1-1.65,1.43c-.34.12-.74.28-.72.34h.06c.33,0,.66,1.07.66,1.07l.33-.35,2.63-3.21a7.43,7.43,0,0,0,1-1.43,7.72,7.72,0,0,0,.66-1.79,11,11,0,0,0,1.31-2.49A11.14,11.14,0,0,0,477.4,423Z" transform="translate(-333 -188)"/><path class="cls-4" d="M476.74,431.52" transform="translate(-333 -188)"/><path class="cls-4" d="M477.27,417.3" transform="translate(-333 -188)"/><path class="cls-5" d="M477.89,417.78a8.71,8.71,0,0,0,9.54,0l.33.71a7.68,7.68,0,0,1-9.87,0Z" transform="translate(-333 -188)"/><path class="cls-5" d="M477.41,423.13a10.81,10.81,0,0,0,5.74,1.43,10.92,10.92,0,0,0,4.94-1.43l.23,1.41a9.13,9.13,0,0,1-5.17,1.8,9.25,9.25,0,0,1-5.59-1.78Z" transform="translate(-333 -188)"/><path class="cls-5" d="M478.3,429.39a13.45,13.45,0,0,0,4.85.88,13.3,13.3,0,0,0,4.63-.88l-.46,1.58a13.89,13.89,0,0,1-3.84.72,14.1,14.1,0,0,1-4.71-.57Z" transform="translate(-333 -188)"/><path class="cls-5" d="M479.16,432.23a14.1,14.1,0,0,0,4,.53,13.87,13.87,0,0,0,3.7-.53l-.49,1a9.63,9.63,0,0,1-3.21.63,9.42,9.42,0,0,1-3.56-.63Z" transform="translate(-333 -188)"/><path class="cls-5" d="M480.55,434.63a9.42,9.42,0,0,0,2.6.28,9.75,9.75,0,0,0,2.31-.36l-.6.69a5.15,5.15,0,0,1-3.65.09Z" transform="translate(-333 -188)"/><polygon class="cls-5" points="149.2 248.12 150.92 248.12 150.15 248.69 149.2 248.12"/><path class="cls-6" d="M488.85,409.71a36,36,0,0,1,5.59-3.21c.49-.22.93-.41,1.64-.68.94-.36,2.34-.87,4.94-1.81h0" transform="translate(-333 -188)"/><path class="cls-6" d="M491.32,410.25a21.87,21.87,0,0,1,3.94.36,22.49,22.49,0,0,1,3.95,1.07" transform="translate(-333 -188)"/><path class="cls-6" d="M497.4,414a6.12,6.12,0,0,0-1-1.79,5.67,5.67,0,0,0-2.51-1.8" transform="translate(-333 -188)"/><path class="cls-6" d="M460.08,405.25a52.09,52.09,0,0,1,15.12,4.64" transform="translate(-333 -188)"/><path class="cls-6" d="M459.91,407.93a4.9,4.9,0,0,1,1.65-1.43,4.52,4.52,0,0,1,2.55-.5" transform="translate(-333 -188)"/><path class="cls-6" d="M457.94,408.64a11.47,11.47,0,0,0,1.64,2.15,11.12,11.12,0,0,0,2.3,1.78" transform="translate(-333 -188)"/><path class="cls-6" d="M467.15,412.57a9.62,9.62,0,0,1,6.24-.36" transform="translate(-333 -188)"/><path class="cls-6" d="M470.11,416.14a5.74,5.74,0,0,0,1.64-1.79,6.16,6.16,0,0,0,.8-2.34" transform="translate(-333 -188)"/><path class="cls-6" d="M504.58,403.17a3.52,3.52,0,0,1,.66.18c.34.14,1.2.48,1.32,1.13a1.42,1.42,0,0,1-.44,1.12,2.46,2.46,0,0,1-.66.57" transform="translate(-333 -188)"/><path class="cls-3" d="M771.29,245.82a33.35,33.35,0,0,0,1,6.78,11.7,11.7,0,0,0,1.81,4.46,8.49,8.49,0,0,0,3,2.5,10.18,10.18,0,0,0,2.3-2.14,12.37,12.37,0,0,0,2.14-4.46,18.6,18.6,0,0,0,.66-6.78c.28.62.51,1.11.65,1.43.75,1.64,1.05,2.38,1.65,2.5a1.2,1.2,0,0,0,.33,0,3.24,3.24,0,0,0,1,2.49,2.06,2.06,0,0,0,.66.36,8.48,8.48,0,0,0,2,2.5,7.75,7.75,0,0,0,1,.71v.72l.33-1.07.66-.36-1-.36-2.63-2.5a3.66,3.66,0,0,0-.33-1.42,3.21,3.21,0,0,0-1.31-1.43,13.09,13.09,0,0,0-.66-2.5A26.58,26.58,0,0,0,782.8,244l-1-1.78-.33-1.79h.33a5.64,5.64,0,0,1,1.64,1.07c.67.64.94,1.22,1.65,1.43a1.89,1.89,0,0,0,1,0,10.73,10.73,0,0,0,.66,2.14,9.75,9.75,0,0,0,1,1.78,10.39,10.39,0,0,0,1.31,1.43,10.63,10.63,0,0,0,2,1.43h.66l-.33-.36.66-1.07h-.66A3.89,3.89,0,0,1,790,248a4.35,4.35,0,0,1-1.65-1.43,15,15,0,0,0-.65-2.5,13.6,13.6,0,0,0-1-2.14,4,4,0,0,0-.66-.71,6.51,6.51,0,0,0-2-1.08,12,12,0,0,1-2-1.07l-2-1.07.33-1.42a26.58,26.58,0,0,0,4.61,2.85,26.08,26.08,0,0,0,3.61,1.43,6.89,6.89,0,0,0,4.28-2.14,8,8,0,0,0,2-3.93,4.47,4.47,0,0,0,2.63-.36c1.71-.8,2.51-2.56,3.29-4.28a16,16,0,0,0,1-2.85,3.34,3.34,0,0,0-.66-1.07,3.83,3.83,0,0,0-2.63-1.07,6.54,6.54,0,0,0-3,.35,17.33,17.33,0,0,0-5.92,2.14c-2.15,1.29-4.5,2.17-6.58,3.57a1.74,1.74,0,0,1-1.31.36,1.38,1.38,0,0,1-.66-.36l1-1.78a12.26,12.26,0,0,0,1.8-1.61,11.57,11.57,0,0,0,1.48-2,8.49,8.49,0,0,0,.83-2.32,8.22,8.22,0,0,0,.16-1.6l2.3-2.5,1-.36-.66-.36-.33-.35-.33.35-2.63,2.86a10.21,10.21,0,0,0-.49,1.25,11.38,11.38,0,0,0-.49,2.32,8.55,8.55,0,0,0-1.48,1.25,9.67,9.67,0,0,0-1.48,2l-1.32.36-.66-.72.33-1.07a2.18,2.18,0,0,0,.5-.89,2.35,2.35,0,0,0-.17-1.61L778.2,223a14.08,14.08,0,0,1,1.48-2c1.12-1.23,1.87-1.57,3-2.85a12,12,0,0,0,1.15-1.61,6.6,6.6,0,0,0-1.48.89c-1.09.88-1.07,1.45-2.3,2.5-.53.45-.71.5-1.32,1.07a12.29,12.29,0,0,0-1.15,1.25l-1.64-1.07-.5.54-.49.53-1.32-.71a11.83,11.83,0,0,1-1.8-1.25c-1-.83-1.31-1.4-2.31-2.14a7.8,7.8,0,0,0-1.48-.89,7,7,0,0,0,.5.89,9.8,9.8,0,0,0,2.63,2.5c.45.33,1.06.77,1.81,1.25l1,1.07-.65.71-1.32.71a2.85,2.85,0,0,0-.16,2,2.49,2.49,0,0,0,.49.89v2.14l-1.65-.36a10.25,10.25,0,0,0-1.47-1.6,9.43,9.43,0,0,0-1.81-1.25l-.66-3.21a10.08,10.08,0,0,1-1.81-1.25,10,10,0,0,1-1.48-1.61l-.66-.71v.71l-.33.71.33.36a12.59,12.59,0,0,1,1.48.89,11.75,11.75,0,0,1,1.48,1.25l1,3.57a9.13,9.13,0,0,0,1.48,2,8.72,8.72,0,0,0,2.14,1.61l1.31,1.07a1,1,0,0,1-.33.71c-.44.33-1.18-.1-1.64-.35-1.06-.58-2.25-.83-3.29-1.43-2.22-1.28-4.84-1.81-8.22-2.5-4.17-.84-5.47-.47-6.25.36a3.31,3.31,0,0,0-.66,1.07,4.41,4.41,0,0,0-.33,2.14c.13,1.13.75,1.84,2,3.21,1.39,1.56,2.11,2.35,3.28,2.5a3.46,3.46,0,0,0,2-.36,2.48,2.48,0,0,0,0,1.43c.27.86,1,1.28,3.62,2.5l2.3,1.07a8.5,8.5,0,0,0,2.3-.71c2-1,2.65-2.35,4.93-3.57a11.27,11.27,0,0,1,1.65-.72l.33,1.43a3.75,3.75,0,0,1-.66.36c-.52.21-.76.15-1,.35a1.38,1.38,0,0,0-.33,1.07l-1.64.72c-1.34.57-1.89.8-2.3,1.43a2.53,2.53,0,0,0-.33.71,8.9,8.9,0,0,0-1,1.78,9.7,9.7,0,0,0-.66,2.5,18.36,18.36,0,0,1-1.31,1.43,18,18,0,0,1-1.65,1.43h-1l.65.71v.71l.33-.35a9.2,9.2,0,0,0,2.31-1.79,10.11,10.11,0,0,0,1.31-1.78,6.41,6.41,0,0,0,.66-1.07,7.33,7.33,0,0,0,.66-2.14,2.7,2.7,0,0,0,1.31-.36,4.57,4.57,0,0,0,1.32-1.43,12.6,12.6,0,0,1,1.64-1.78v1.43l-.33,2.14a7.85,7.85,0,0,0-1.64,2.14,8.67,8.67,0,0,0-1,3.92,6,6,0,0,0-1,1.79,5.78,5.78,0,0,0-.33,1.42,8.27,8.27,0,0,1-1,1.43,7.78,7.78,0,0,1-1.64,1.43,2.58,2.58,0,0,0-.73.34s0,0,.07,0c.33,0,.66,1.07.66,1.07l.32-.36,2.64-3.21a7.14,7.14,0,0,0,1-1.43,7.38,7.38,0,0,0,.66-1.78,10.71,10.71,0,0,0,1.31-2.5A11.14,11.14,0,0,0,771.29,245.82Z" transform="translate(-333 -188)"/><path class="cls-4" d="M770.63,254.39" transform="translate(-333 -188)"/><path class="cls-4" d="M771.16,240.17" transform="translate(-333 -188)"/><path class="cls-5" d="M771.79,240.65a8.65,8.65,0,0,0,9.53,0l.33.71a7.94,7.94,0,0,1-5.26,1.79,7.83,7.83,0,0,1-4.6-1.79Z" transform="translate(-333 -188)"/><path class="cls-5" d="M771.3,246A10.66,10.66,0,0,0,782,246l.23,1.42a9,9,0,0,1-10.75,0Z" transform="translate(-333 -188)"/><path class="cls-5" d="M772.2,252.27a13.43,13.43,0,0,0,4.85.87,13.67,13.67,0,0,0,4.63-.87l-.46,1.57a14,14,0,0,1-8.55.15Z" transform="translate(-333 -188)"/><path class="cls-5" d="M773.05,255.1a14.51,14.51,0,0,0,4,.54,14.09,14.09,0,0,0,3.69-.54l-.49,1a9.62,9.62,0,0,1-3.2.63,9.42,9.42,0,0,1-3.56-.63Z" transform="translate(-333 -188)"/><path class="cls-5" d="M774.44,257.51a10,10,0,0,0,2.61.27,9.74,9.74,0,0,0,2.3-.36l-.6.69a5.07,5.07,0,0,1-2,.38,5,5,0,0,1-1.61-.29Z" transform="translate(-333 -188)"/><polygon class="cls-5" points="443.09 70.99 444.81 70.99 444.05 71.56 443.09 70.99"/><path class="cls-6" d="M782.75,232.59a34.3,34.3,0,0,1,5.59-3.21c.48-.23.92-.41,1.63-.69.94-.36,2.35-.87,4.94-1.81h0" transform="translate(-333 -188)"/><path class="cls-6" d="M785.21,233.12a24,24,0,0,1,3.95.36,23.26,23.26,0,0,1,3.94,1.07" transform="translate(-333 -188)"/><path class="cls-6" d="M791.3,236.87a6.31,6.31,0,0,0-1-1.79,5.82,5.82,0,0,0-2.5-1.8" transform="translate(-333 -188)"/><path class="cls-6" d="M754,228.13a50.78,50.78,0,0,1,7.89,1.78,52,52,0,0,1,7.24,2.86" transform="translate(-333 -188)"/><path class="cls-6" d="M753.8,230.8a5,5,0,0,1,1.65-1.42,4.45,4.45,0,0,1,2.55-.5" transform="translate(-333 -188)"/><path class="cls-6" d="M751.83,231.52a11.56,11.56,0,0,0,1.65,2.14,10.62,10.62,0,0,0,2.3,1.78" transform="translate(-333 -188)"/><path class="cls-6" d="M761,235.44a9.75,9.75,0,0,1,3.29-.71,9.57,9.57,0,0,1,3,.35" transform="translate(-333 -188)"/><path class="cls-6" d="M764,239a5.56,5.56,0,0,0,1.64-1.78,6.09,6.09,0,0,0,.8-2.34" transform="translate(-333 -188)"/><path class="cls-6" d="M798.47,226a3,3,0,0,1,.66.19c.34.13,1.2.47,1.33,1.12a1.5,1.5,0,0,1-.44,1.13,2.78,2.78,0,0,1-.67.56" transform="translate(-333 -188)"/><path class="cls-3" d="M477.29,242.82a33.35,33.35,0,0,0,1,6.78,11.7,11.7,0,0,0,1.81,4.46,8.49,8.49,0,0,0,3,2.5,10.18,10.18,0,0,0,2.3-2.14,12.37,12.37,0,0,0,2.14-4.46,18.6,18.6,0,0,0,.66-6.78c.28.62.51,1.11.65,1.43.75,1.64,1.05,2.38,1.65,2.5a1.2,1.2,0,0,0,.33,0,3.24,3.24,0,0,0,1,2.49,2.06,2.06,0,0,0,.66.36,8.48,8.48,0,0,0,2,2.5,7.75,7.75,0,0,0,1,.71v.72l.33-1.07.66-.36-1-.36-2.63-2.5a3.66,3.66,0,0,0-.33-1.42,3.21,3.21,0,0,0-1.31-1.43,13.09,13.09,0,0,0-.66-2.5A26.58,26.58,0,0,0,488.8,241l-1-1.78-.33-1.79h.33a5.64,5.64,0,0,1,1.64,1.07c.67.64.94,1.22,1.65,1.43a1.89,1.89,0,0,0,1,0,10.73,10.73,0,0,0,.66,2.14,9.75,9.75,0,0,0,1,1.78,10.39,10.39,0,0,0,1.31,1.43,10.63,10.63,0,0,0,2,1.43h.66l-.33-.36.66-1.07h-.66A3.89,3.89,0,0,1,496,245a4.35,4.35,0,0,1-1.65-1.43,15,15,0,0,0-.65-2.5,13.6,13.6,0,0,0-1-2.14,4,4,0,0,0-.66-.71,6.51,6.51,0,0,0-2-1.08,12,12,0,0,1-2-1.07l-2-1.07.33-1.42a26.58,26.58,0,0,0,4.61,2.85,26.08,26.08,0,0,0,3.61,1.43,6.89,6.89,0,0,0,4.28-2.14,8,8,0,0,0,2-3.93,4.47,4.47,0,0,0,2.63-.36c1.71-.8,2.51-2.56,3.29-4.28a16,16,0,0,0,1-2.85,3.34,3.34,0,0,0-.66-1.07,3.83,3.83,0,0,0-2.63-1.07,6.54,6.54,0,0,0-3,.35,17.33,17.33,0,0,0-5.92,2.14c-2.15,1.29-4.5,2.17-6.58,3.57a1.74,1.74,0,0,1-1.31.36,1.38,1.38,0,0,1-.66-.36l1-1.78a12.26,12.26,0,0,0,1.8-1.61,11.57,11.57,0,0,0,1.48-2,8.49,8.49,0,0,0,.83-2.32,8.22,8.22,0,0,0,.16-1.6l2.3-2.5,1-.36-.66-.36-.33-.35-.33.35-2.63,2.86a10.21,10.21,0,0,0-.49,1.25,11.38,11.38,0,0,0-.49,2.32,8.55,8.55,0,0,0-1.48,1.25,9.67,9.67,0,0,0-1.48,2l-1.32.36-.66-.72.33-1.07a2.18,2.18,0,0,0,.5-.89,2.35,2.35,0,0,0-.17-1.61L484.2,220a14.08,14.08,0,0,1,1.48-2c1.12-1.23,1.87-1.57,3-2.85a12,12,0,0,0,1.15-1.61,6.6,6.6,0,0,0-1.48.89c-1.09.88-1.07,1.45-2.3,2.5-.53.45-.71.5-1.32,1.07a12.29,12.29,0,0,0-1.15,1.25l-1.64-1.07-.5.54-.49.53-1.32-.71a11.83,11.83,0,0,1-1.8-1.25c-1-.83-1.31-1.4-2.31-2.14a7.8,7.8,0,0,0-1.48-.89,7,7,0,0,0,.5.89,9.8,9.8,0,0,0,2.63,2.5c.45.33,1.06.77,1.81,1.25l1,1.07-.65.71-1.32.71a2.85,2.85,0,0,0-.16,2,2.49,2.49,0,0,0,.49.89v2.14l-1.65-.36a10.25,10.25,0,0,0-1.47-1.6,9.43,9.43,0,0,0-1.81-1.25l-.66-3.21a10.08,10.08,0,0,1-1.81-1.25,10,10,0,0,1-1.48-1.61l-.66-.71v.71l-.33.71.33.36a12.59,12.59,0,0,1,1.48.89,11.75,11.75,0,0,1,1.48,1.25l1,3.57a9.13,9.13,0,0,0,1.48,2,8.72,8.72,0,0,0,2.14,1.61l1.31,1.07a1,1,0,0,1-.33.71c-.44.33-1.18-.1-1.64-.35-1.06-.58-2.25-.83-3.29-1.43-2.22-1.28-4.84-1.81-8.22-2.5-4.17-.84-5.47-.47-6.25.36a3.31,3.31,0,0,0-.66,1.07,4.41,4.41,0,0,0-.33,2.14c.13,1.13.75,1.84,2,3.21,1.39,1.56,2.11,2.35,3.28,2.5a3.46,3.46,0,0,0,2-.36,2.48,2.48,0,0,0,0,1.43c.27.86,1,1.28,3.62,2.5l2.3,1.07a8.5,8.5,0,0,0,2.3-.71c2-1,2.65-2.35,4.93-3.57a11.27,11.27,0,0,1,1.65-.72l.33,1.43a3.75,3.75,0,0,1-.66.36c-.52.21-.76.15-1,.35a1.38,1.38,0,0,0-.33,1.07l-1.64.72c-1.34.57-1.89.8-2.3,1.43a2.53,2.53,0,0,0-.33.71,8.9,8.9,0,0,0-1,1.78,9.7,9.7,0,0,0-.66,2.5,18.36,18.36,0,0,1-1.31,1.43,18,18,0,0,1-1.65,1.43h-1l.65.71v.71l.33-.35a9.2,9.2,0,0,0,2.31-1.79,10.11,10.11,0,0,0,1.31-1.78,6.41,6.41,0,0,0,.66-1.07,7.33,7.33,0,0,0,.66-2.14,2.7,2.7,0,0,0,1.31-.36,4.57,4.57,0,0,0,1.32-1.43,12.6,12.6,0,0,1,1.64-1.78v1.43l-.33,2.14a7.85,7.85,0,0,0-1.64,2.14,8.67,8.67,0,0,0-1,3.92,6,6,0,0,0-1,1.79,5.78,5.78,0,0,0-.33,1.42,8.27,8.27,0,0,1-1,1.43,7.78,7.78,0,0,1-1.64,1.43,2.58,2.58,0,0,0-.73.34s0,0,.07,0c.33,0,.66,1.07.66,1.07l.32-.36,2.64-3.21a7.14,7.14,0,0,0,1-1.43,7.38,7.38,0,0,0,.66-1.78,10.71,10.71,0,0,0,1.31-2.5A11.14,11.14,0,0,0,477.29,242.82Z" transform="translate(-333 -188)"/><path class="cls-4" d="M476.63,251.39" transform="translate(-333 -188)"/><path class="cls-4" d="M477.16,237.17" transform="translate(-333 -188)"/><path class="cls-5" d="M477.79,237.65a8.65,8.65,0,0,0,9.53,0l.33.71a7.94,7.94,0,0,1-5.26,1.79,7.83,7.83,0,0,1-4.6-1.79Z" transform="translate(-333 -188)"/><path class="cls-5" d="M477.3,243A10.66,10.66,0,0,0,488,243l.23,1.42a9,9,0,0,1-10.75,0Z" transform="translate(-333 -188)"/><path class="cls-5" d="M478.2,249.27a13.43,13.43,0,0,0,4.85.87,13.67,13.67,0,0,0,4.63-.87l-.46,1.57a14,14,0,0,1-8.55.15Z" transform="translate(-333 -188)"/><path class="cls-5" d="M479.05,252.1a14.51,14.51,0,0,0,4,.54,14.09,14.09,0,0,0,3.69-.54l-.49,1a9.62,9.62,0,0,1-3.2.63,9.42,9.42,0,0,1-3.56-.63Z" transform="translate(-333 -188)"/><path class="cls-5" d="M480.44,254.51a10,10,0,0,0,2.61.27,9.74,9.74,0,0,0,2.3-.36l-.6.69a5.07,5.07,0,0,1-2,.38,5,5,0,0,1-1.61-.29Z" transform="translate(-333 -188)"/><polygon class="cls-5" points="149.09 67.99 150.81 67.99 150.05 68.56 149.09 67.99"/><path class="cls-6" d="M488.75,229.59a34.3,34.3,0,0,1,5.59-3.21c.48-.23.92-.41,1.63-.69.94-.36,2.35-.87,4.94-1.81h0" transform="translate(-333 -188)"/><path class="cls-6" d="M491.21,230.12a24,24,0,0,1,4,.36,23.26,23.26,0,0,1,3.94,1.07" transform="translate(-333 -188)"/><path class="cls-6" d="M497.3,233.87a6.31,6.31,0,0,0-1-1.79,5.82,5.82,0,0,0-2.5-1.8" transform="translate(-333 -188)"/><path class="cls-6" d="M460,225.13a50.78,50.78,0,0,1,7.89,1.78,52,52,0,0,1,7.24,2.86" transform="translate(-333 -188)"/><path class="cls-6" d="M459.8,227.8a5,5,0,0,1,1.65-1.42,4.45,4.45,0,0,1,2.55-.5" transform="translate(-333 -188)"/><path class="cls-6" d="M457.83,228.52a11.56,11.56,0,0,0,1.65,2.14,10.62,10.62,0,0,0,2.3,1.78" transform="translate(-333 -188)"/><path class="cls-6" d="M467,232.44a9.75,9.75,0,0,1,3.29-.71,9.57,9.57,0,0,1,3,.35" transform="translate(-333 -188)"/><path class="cls-6" d="M470,236a5.56,5.56,0,0,0,1.64-1.78,6.09,6.09,0,0,0,.8-2.34" transform="translate(-333 -188)"/><path class="cls-6" d="M504.47,223a3,3,0,0,1,.66.19c.34.13,1.2.47,1.33,1.12a1.5,1.5,0,0,1-.44,1.13,2.78,2.78,0,0,1-.67.56" transform="translate(-333 -188)"/></g></svg>