<svg id="Layer_1" data-name="Layer 1" xmlns="http://www.w3.org/2000/svg" viewBox="0 0 600 300"><defs><style>.cls-1,.cls-4{fill:#333;}.cls-2,.cls-3{fill:#f2f2f2;}.cls-3,.cls-4{stroke:#333;stroke-miterlimit:10;}.cls-3{stroke-width:3px;}.cls-5{fill:#f15a24;}.cls-6{fill:#b3b3b3;}</style></defs><title>pdf-icon</title><rect class="cls-1" width="600" height="300"/><rect class="cls-2" x="113.5" y="32.5" width="372" height="254"/><path class="cls-3" d="M412,275.38,471.23,218q3.39,21,6.77,42c.2.7,2,7.25-2,12-.44.52-3.22,3.7-7,4-.42,0-.57,0-4,0h-4Z" transform="translate(-298.5 -185.5)"/><polygon class="cls-4" points="113.5 32.5 114.01 32.5 171.97 32.5 113.5 88.99 113.5 32.5"/><path class="cls-5" d="M558.53,283.28h16.6c8.08,0,13.51,4.5,13.51,11.49,0,8.05-6.17,11.75-13.76,11.75h-6V319.1H558.53Zm10.36,15.85h4.28c3,0,5.08-1.23,5.08-4.22s-2.13-4.26-5-4.26h-4.31Z" transform="translate(-298.5 -185.5)"/><path class="cls-5" d="M593.63,283.28H609c11.4,0,18,7.21,18,17.51s-6.44,18.31-18.17,18.31H593.63Zm10.51,28.22h4c5.7,0,8-4,8-10.71,0-5.93-2.18-9.91-7.91-9.91h-4.14Z" transform="translate(-298.5 -185.5)"/><path class="cls-5" d="M632.84,283.28h26.78v7.78h-16.5v7h15.45v7.81H643.12V319.1H632.84Z" transform="translate(-298.5 -185.5)"/><rect class="cls-6" x="146.5" y="174.5" width="307" height="10"/><rect class="cls-6" x="146.5" y="197.5" width="307" height="10"/><rect class="cls-6" x="145.5" y="221.5" width="307" height="10"/><rect class="cls-6" x="145.5" y="243.5" width="307" height="10"/></svg>