<svg xmlns="http://www.w3.org/2000/svg" viewBox="0 0 949.85 361.69"><defs><style>.cls-1{fill:#646469;}.cls-2{fill:#f05023;}.cls-3,.cls-4{fill:none;stroke-miterlimit:10;stroke-width:6px;}.cls-3{stroke:#f05023;}.cls-4{stroke:#646469;}</style></defs><title>main-logo</title><g id="Layer_2" data-name="Layer 2"><path class="cls-1" d="M392.32,354.61c0-8.24.13-17.47.34-22.93h-.33c-2.27,9.85-7.1,25.93-11.72,41h-8.89c-3.52-13.2-8.51-31.52-10.63-41.16h-.32c.41,5.66.61,15.6.61,23.87v17.29h-9.51V324.45H367.4c3.76,12.61,8,28.43,9.43,35.62h.08c1.18-6.34,6.48-23.26,10.51-35.62h15v48.26H392.32Z" transform="translate(-210.15 -82.02)"/><path class="cls-1" d="M441.37,363.35a82.11,82.11,0,0,0,.48,9.36h-9.58a15,15,0,0,1-.51-3.54c-1.31,2-3.77,4.38-10.18,4.38-8.74,0-12.43-5.74-12.43-11.36,0-8.26,6.63-12.07,17.26-12.07h5.17v-2.21c0-2.58-.93-5.11-5.58-5.11-4.24,0-5.16,1.8-5.63,4.42h-9.54c.55-6.44,4.53-11.65,15.55-11.58,9.7.06,15,3.85,15,12.47Zm-9.78-7.13H427.5c-6.05,0-8.29,1.84-8.29,5.33,0,2.63,1.61,4.84,5.22,4.84,6.37,0,7.16-4.43,7.16-9.22Z" transform="translate(-210.15 -82.02)"/><path class="cls-1" d="M481.6,361c-1.25,6-5.49,12.55-16.29,12.55-11.28,0-17.08-7.8-17.08-18.69,0-10.7,6.53-19.22,17.56-19.22,12.22,0,15.62,8.76,15.81,12.86h-9.79c-.62-2.95-2.29-5-6.21-5-4.59,0-7.18,4-7.18,11,0,7.72,2.74,11.23,7.14,11.23,3.44,0,5.29-2,6.19-4.76Z" transform="translate(-210.15 -82.02)"/><path class="cls-1" d="M497.79,321.61v19.14c1.59-2.34,4.52-5.11,10.38-5.11,6.75,0,12.14,4,12.14,13.82v23.25h-10V351c0-4.71-1.67-7.21-5.87-7.21-5.58,0-6.67,4.15-6.67,9.74v19.22h-10v-51.1Z" transform="translate(-210.15 -82.02)"/><path class="cls-1" d="M529.33,321.61h10v8.95h-10Zm0,14.87h10v36.23h-10Z" transform="translate(-210.15 -82.02)"/><path class="cls-1" d="M548.43,345.6c0-3.08,0-6.45-.07-9.12h9.72a44.88,44.88,0,0,1,.39,4.61c1.23-2.27,4.16-5.45,10.51-5.45,7.28,0,12,4.91,12,14v23H571V350.77c0-4.07-1.36-7-5.78-7-4.26,0-6.7,2.37-6.7,8.77v20.19h-10Z" transform="translate(-210.15 -82.02)"/><path class="cls-1" d="M597.86,356.74c0,4.53,2.28,9,7.27,9,4.18,0,5.37-1.68,6.33-3.87h10c-1.29,4.44-5.24,11.72-16.63,11.72-11.93,0-17.11-8.92-17.11-18.43,0-11.37,5.83-19.48,17.47-19.48,12.44,0,16.68,9,16.68,18a21,21,0,0,1-.14,3.06Zm14-6.16c-.07-4.22-1.76-7.77-6.65-7.77s-6.74,3.31-7.14,7.77Z" transform="translate(-210.15 -82.02)"/><path class="cls-1" d="M656.72,324.45v48.26H646.28V324.45Z" transform="translate(-210.15 -82.02)"/><path class="cls-1" d="M666,345.6c0-3.08,0-6.45-.07-9.12h9.72a42.33,42.33,0,0,1,.38,4.61c1.24-2.27,4.17-5.45,10.51-5.45,7.28,0,12,4.91,12,14v23h-10V350.77c0-4.07-1.36-7-5.78-7s-6.71,2.37-6.71,8.77v20.19H666Z" transform="translate(-210.15 -82.02)"/><path class="cls-1" d="M703.18,336.48h5.59v-9.82h10v9.82h7.1V344h-7.1V361.9c0,2.75.84,3.82,3.83,3.82a19.24,19.24,0,0,0,2.29-.11v6.9a23,23,0,0,1-6.75.69c-7.07,0-9.4-3.78-9.4-10.12V344h-5.59Z" transform="translate(-210.15 -82.02)"/><path class="cls-1" d="M739.4,356.74c0,4.53,2.28,9,7.27,9,4.18,0,5.37-1.68,6.32-3.87h10c-1.29,4.44-5.25,11.72-16.63,11.72-11.94,0-17.12-8.92-17.12-18.43,0-11.37,5.84-19.48,17.48-19.48,12.44,0,16.67,9,16.67,18a22.57,22.57,0,0,1-.13,3.06Zm14-6.16c-.07-4.22-1.75-7.77-6.64-7.77s-6.74,3.31-7.14,7.77Z" transform="translate(-210.15 -82.02)"/><path class="cls-1" d="M770.27,372.71v-51.1h10v51.1Z" transform="translate(-210.15 -82.02)"/><path class="cls-1" d="M789.31,372.71v-51.1h10v51.1Z" transform="translate(-210.15 -82.02)"/><path class="cls-1" d="M808.34,321.61h10v8.95h-10Zm0,14.87h10v36.23h-10Z" transform="translate(-210.15 -82.02)"/><path class="cls-1" d="M860.35,368.3c0,11.63-4.29,19-18,19-13.23,0-15.84-7.39-16.18-11.48h10.22c.71,2.49,2.54,4.18,6.41,4.18,6.51,0,7.74-4,7.74-11.07v-1.73c-1.89,3.13-4.89,5.09-10.21,5.09-9.55,0-15-7.82-15-17.56,0-11.33,6.79-19.08,15.85-19.08,6.21,0,8.8,2.92,9.35,4.61.07-1,.32-3.18.4-3.77h9.51c-.06,3.23-.08,6.91-.08,10.39Zm-24.72-14c0,6.23,3.11,9.91,7.55,9.91,6,0,7.66-4.14,7.66-10.22s-1.08-10.29-7.45-10.29C839,343.67,835.63,347,835.63,354.27Z" transform="translate(-210.15 -82.02)"/><path class="cls-1" d="M877.5,356.74c0,4.53,2.28,9,7.28,9,4.18,0,5.37-1.68,6.32-3.87h10c-1.28,4.44-5.24,11.72-16.63,11.72-11.93,0-17.11-8.92-17.11-18.43,0-11.37,5.83-19.48,17.47-19.48,12.45,0,16.68,9,16.68,18a22.57,22.57,0,0,1-.13,3.06Zm14-6.16c-.07-4.22-1.75-7.77-6.64-7.77s-6.75,3.31-7.15,7.77Z" transform="translate(-210.15 -82.02)"/><path class="cls-1" d="M908.64,345.6c0-3.08,0-6.45-.07-9.12h9.72a44.88,44.88,0,0,1,.39,4.61c1.23-2.27,4.16-5.45,10.51-5.45,7.28,0,12,4.91,12,14v23h-10V350.77c0-4.07-1.35-7-5.78-7-4.26,0-6.7,2.37-6.7,8.77v20.19h-10Z" transform="translate(-210.15 -82.02)"/><path class="cls-1" d="M981.46,361c-1.25,6-5.49,12.55-16.29,12.55-11.28,0-17.08-7.8-17.08-18.69,0-10.7,6.53-19.22,17.56-19.22,12.22,0,15.61,8.76,15.81,12.86h-9.79c-.62-2.95-2.3-5-6.21-5-4.59,0-7.19,4-7.19,11,0,7.72,2.75,11.23,7.15,11.23,3.44,0,5.29-2,6.19-4.76Z" transform="translate(-210.15 -82.02)"/><path class="cls-1" d="M996.15,356.74c0,4.53,2.28,9,7.27,9,4.18,0,5.37-1.68,6.33-3.87h10c-1.29,4.44-5.24,11.72-16.63,11.72-11.93,0-17.11-8.92-17.11-18.43,0-11.37,5.83-19.48,17.47-19.48,12.44,0,16.68,9,16.68,18a21,21,0,0,1-.14,3.06Zm14-6.16c-.07-4.22-1.76-7.77-6.65-7.77s-6.74,3.31-7.14,7.77Z" transform="translate(-210.15 -82.02)"/><path class="cls-2" d="M220.2,406.48h-10v-5.86h27.23v5.86h-10v27.23H220.2Z" transform="translate(-210.15 -82.02)"/><path class="cls-2" d="M247.94,398.67V411.8a8,8,0,0,1,7.12-3.51c4.63,0,8.32,2.74,8.32,9.48v15.94h-6.84V418.8c0-3.23-1.14-4.95-4-4.95-3.82,0-4.57,2.85-4.57,6.68v13.18h-6.88v-35Z" transform="translate(-210.15 -82.02)"/><path class="cls-2" d="M275,422.76c0,3.11,1.57,6.14,5,6.14,2.87,0,3.68-1.15,4.34-2.65h6.88c-.88,3-3.59,8-11.4,8-8.18,0-11.73-6.12-11.73-12.64,0-7.8,4-13.36,12-13.36,8.53,0,11.43,6.17,11.43,12.37a15.34,15.34,0,0,1-.09,2.1Zm9.6-4.23c-.05-2.89-1.2-5.32-4.56-5.32s-4.62,2.27-4.89,5.32Z" transform="translate(-210.15 -82.02)"/><path class="cls-2" d="M315,400.62v19.72c0,6.35,3.26,8.23,6.83,8.23,4.1,0,6.67-2.23,6.67-8.23V400.62h7.16V420c0,11.32-6.62,14.2-13.92,14.2-7.47,0-13.91-3-13.91-14.06v-19.5Z" transform="translate(-210.15 -82.02)"/><path class="cls-2" d="M341.37,415.12c0-2.11,0-4.42-.05-6.26H348a27.66,27.66,0,0,1,.26,3.17c.85-1.56,2.86-3.74,7.21-3.74,5,0,8.23,3.37,8.23,9.61v15.81h-6.88v-15c0-2.79-.93-4.82-4-4.82s-4.6,1.63-4.6,6v13.84h-6.88Z" transform="translate(-210.15 -82.02)"/><path class="cls-2" d="M369.79,398.67h6.88v6.14h-6.88Zm0,10.19h6.88v24.85h-6.88Z" transform="translate(-210.15 -82.02)"/><path class="cls-2" d="M387.61,408.86c2.37,8.42,4.34,15.78,4.82,18.77h.05c.7-4.1,3.13-11.59,5.3-18.77h6.85l-8.77,24.85h-7.24l-8.42-24.85Z" transform="translate(-210.15 -82.02)"/><path class="cls-2" d="M413.09,422.76c0,3.11,1.56,6.14,5,6.14,2.86,0,3.68-1.15,4.33-2.65h6.89c-.88,3-3.6,8-11.4,8-8.19,0-11.74-6.12-11.74-12.64,0-7.8,4-13.36,12-13.36,8.54,0,11.44,6.17,11.44,12.37a15.34,15.34,0,0,1-.09,2.1Zm9.6-4.23c-.05-2.89-1.21-5.32-4.56-5.32s-4.62,2.27-4.9,5.32Z" transform="translate(-210.15 -82.02)"/><path class="cls-2" d="M434.4,415.6c0-2.46,0-4.66,0-6.74h6.75c.09.56.18,3,.18,4.37,1.1-2.84,3.75-4.92,8-4.94v6.56c-5-.13-8,1.22-8,8v10.83H434.4Z" transform="translate(-210.15 -82.02)"/><path class="cls-2" d="M458.38,426.24c.52,2,2.14,3.09,4.71,3.09s3.46-.91,3.46-2.41-1.07-2.22-4.63-3.1c-8.09-2-9.41-4.5-9.41-8s2.58-7.52,10.07-7.52,10.09,4.11,10.3,7.48h-6.54c-.22-.92-.83-2.65-4.07-2.65-2.27,0-3,1-3,2.12s.78,1.84,4.81,2.78c8.29,1.92,9.46,4.77,9.46,8.41,0,4.11-3.13,7.86-10.7,7.86s-10.66-3.64-11.21-8.05Z" transform="translate(-210.15 -82.02)"/><path class="cls-2" d="M478.08,398.67H485v6.14h-6.88Zm0,10.19H485v24.85h-6.88Z" transform="translate(-210.15 -82.02)"/><path class="cls-2" d="M488.77,408.86h3.83v-6.72h6.88v6.72h4.86V414h-4.86V426.3c0,1.88.57,2.62,2.62,2.62a13.07,13.07,0,0,0,1.57-.08v4.73a15.47,15.47,0,0,1-4.63.48c-4.84,0-6.44-2.59-6.44-6.94V414h-3.83Z" transform="translate(-210.15 -82.02)"/><path class="cls-2" d="M513.91,408.86c2.56,8.58,4.8,16.23,5.19,18.52h0c.54-2.5,2-8.07,5-18.52H531l-8.35,25.57c-2.37,7.14-4.36,9.28-10.32,9.28-.61,0-2,0-3.23-.19V438a16.35,16.35,0,0,0,1.78.11c2.53,0,3.8-.88,4.73-3.63l-9-25.61Z" transform="translate(-210.15 -82.02)"/><path class="cls-2" d="M569,421.24c0,7.52-4.5,13.05-12.37,13.05-7.71,0-12.2-5.5-12.2-12.92,0-7.66,4.63-13.08,12.52-13.08C564.29,408.29,569,413.45,569,421.24Zm-17.59.05c0,4.78,2.06,7.61,5.37,7.61s5.24-2.83,5.24-7.57c0-5.2-1.91-7.66-5.34-7.66C553.51,413.67,551.43,416,551.43,421.29Z" transform="translate(-210.15 -82.02)"/><path class="cls-2" d="M574.71,433.71V414h-3.62v-5.18h3.62v-2.18c0-5.13,2.54-8.49,7.92-8.49a14.42,14.42,0,0,1,3.2.29v5.44a8.38,8.38,0,0,0-1.45-.12c-2,0-2.79.74-2.79,3.4v1.66h4.34V414h-4.34v19.67Z" transform="translate(-210.15 -82.02)"/><path class="cls-2" d="M607.41,406.48h-10v-5.86h27.23v5.86h-10v27.23h-7.16Z" transform="translate(-210.15 -82.02)"/><path class="cls-2" d="M629.37,422.76c0,3.11,1.57,6.14,5,6.14,2.86,0,3.68-1.15,4.34-2.65h6.88c-.88,3-3.59,8-11.4,8-8.18,0-11.73-6.12-11.73-12.64,0-7.8,4-13.36,12-13.36,8.53,0,11.43,6.17,11.43,12.37a15.34,15.34,0,0,1-.09,2.1Zm9.6-4.23c-.05-2.89-1.2-5.32-4.56-5.32s-4.62,2.27-4.89,5.32Z" transform="translate(-210.15 -82.02)"/><path class="cls-2" d="M655,408.86c2.59,4.68,3.64,6.52,4.39,7.79h0c.86-1.5,2.37-4.24,4.39-7.79h7.64l-8.06,11.83,8,13h-7.78c-2.23-4.21-3.63-6.92-4.36-8.35h0c-.65,1.31-2.35,4.53-4.38,8.35h-7.52L655,421.6l-7.64-12.74Z" transform="translate(-210.15 -82.02)"/><path class="cls-2" d="M695.34,427.29a57.24,57.24,0,0,0,.33,6.42H689.1a10.7,10.7,0,0,1-.35-2.43c-.9,1.4-2.59,3-7,3-6,0-8.52-3.94-8.52-7.79,0-5.67,4.55-8.28,11.83-8.28h3.55v-1.51c0-1.77-.64-3.51-3.83-3.51-2.9,0-3.54,1.24-3.85,3H674.4c.38-4.41,3.11-8,10.66-7.94,6.66,0,10.28,2.64,10.28,8.55Zm-6.71-4.89h-2.8c-4.14,0-5.68,1.27-5.68,3.66,0,1.8,1.1,3.32,3.57,3.32,4.38,0,4.91-3,4.91-6.33Z" transform="translate(-210.15 -82.02)"/><path class="cls-2" d="M706.2,426.24c.52,2,2.14,3.09,4.71,3.09s3.46-.91,3.46-2.41-1.07-2.22-4.63-3.1c-8.09-2-9.41-4.5-9.41-8s2.58-7.52,10.07-7.52,10.09,4.11,10.3,7.48h-6.54c-.22-.92-.83-2.65-4.07-2.65-2.27,0-3,1-3,2.12s.78,1.84,4.81,2.78c8.29,1.92,9.46,4.77,9.46,8.41,0,4.11-3.13,7.86-10.7,7.86s-10.66-3.64-11.21-8.05Z" transform="translate(-210.15 -82.02)"/><path class="cls-2" d="M750.37,418.37v6H737v-6Z" transform="translate(-210.15 -82.02)"/><path class="cls-2" d="M775.5,420.47v13.24h-7V400.62h14.54c7.22,0,11.1,4,11.1,9.08,0,4.44-2.41,6.85-4.81,7.83,1.64.61,4.12,2.31,4.12,8.24v1.63a26.15,26.15,0,0,0,.47,6.31h-6.78c-.58-1.44-.69-3.92-.69-7.43v-.48c0-3.62-.92-5.33-6.25-5.33Zm0-5.7h6c3.92,0,5.43-1.49,5.43-4.26s-1.76-4.2-5.26-4.2H775.5Z" transform="translate(-210.15 -82.02)"/><path class="cls-2" d="M799.24,398.67h6.88v6.14h-6.88Zm0,10.19h6.88v24.85h-6.88Z" transform="translate(-210.15 -82.02)"/><path class="cls-2" d="M835.41,421.24c0,7.52-4.5,13.05-12.37,13.05-7.7,0-12.2-5.5-12.2-12.92,0-7.66,4.64-13.08,12.53-13.08C830.68,408.29,835.41,413.45,835.41,421.24Zm-17.59.05c0,4.78,2.06,7.61,5.37,7.61s5.24-2.83,5.24-7.57c0-5.2-1.91-7.66-5.33-7.66C819.91,413.67,817.82,416,817.82,421.29Z" transform="translate(-210.15 -82.02)"/><path class="cls-2" d="M881.4,433.71h-5.25a19,19,0,0,1-.54-3.26c-1.84,2.47-5.07,3.81-9.67,3.81-9.61,0-15-7.26-15-16.68,0-9.95,5.78-17.44,16.22-17.44,8.51,0,13.52,4.8,14.33,10.45h-7.16c-.68-2.22-2.43-4.84-7.27-4.84-6.8,0-8.73,5.68-8.73,11.52s2.21,11.3,8.77,11.3c6.12,0,7.25-4.25,7.25-7.21v-.3h-7.26V415.2H881.4Z" transform="translate(-210.15 -82.02)"/><path class="cls-2" d="M887.61,415.6c0-2.46,0-4.66-.05-6.74h6.74c.1.56.19,3,.19,4.37,1.09-2.84,3.74-4.92,8-4.94v6.56c-5-.13-8,1.22-8,8v10.83h-6.88Z" transform="translate(-210.15 -82.02)"/><path class="cls-2" d="M926.31,427.29a57.24,57.24,0,0,0,.33,6.42h-6.57a10.7,10.7,0,0,1-.35-2.43c-.9,1.4-2.59,3-7,3-6,0-8.52-3.94-8.52-7.79,0-5.67,4.55-8.28,11.83-8.28h3.55v-1.51c0-1.77-.64-3.51-3.83-3.51-2.9,0-3.54,1.24-3.85,3h-6.55c.38-4.41,3.11-8,10.66-7.94,6.66,0,10.28,2.64,10.28,8.55Zm-6.71-4.89h-2.8c-4.14,0-5.68,1.27-5.68,3.66,0,1.8,1.1,3.32,3.57,3.32,4.38,0,4.91-3,4.91-6.33Z" transform="translate(-210.15 -82.02)"/><path class="cls-2" d="M932.58,415.12c0-2.11,0-4.42-.05-6.26h6.66a27.66,27.66,0,0,1,.26,3.17c.85-1.56,2.86-3.74,7.21-3.74,5,0,8.24,3.37,8.24,9.61v15.81H948v-15c0-2.79-.93-4.82-4-4.82s-4.6,1.63-4.6,6v13.84h-6.87Z" transform="translate(-210.15 -82.02)"/><path class="cls-2" d="M983.79,398.67v28.21c0,2.27,0,4.56.05,6.83h-6.61c-.14-.74-.27-2-.32-2.59-1.2,1.95-3.34,3.17-7,3.17-6.28,0-10.28-5.05-10.28-12.8s4.25-13.2,11.29-13.2c3.57,0,5.49,1.26,6,2.37v-12Zm-17.14,22.64c0,4.85,1.89,7.47,5.25,7.47,4.73,0,5.28-3.95,5.28-7.52,0-4.25-.6-7.46-5.1-7.46C968.47,413.8,966.65,416.62,966.65,421.31Z" transform="translate(-210.15 -82.02)"/><path class="cls-2" d="M995.36,422.76c0,3.11,1.57,6.14,5,6.14,2.86,0,3.68-1.15,4.34-2.65h6.88c-.88,3-3.59,8-11.4,8-8.18,0-11.73-6.12-11.73-12.64,0-7.8,4-13.36,12-13.36,8.53,0,11.43,6.17,11.43,12.37a15.34,15.34,0,0,1-.09,2.1Zm9.6-4.23c-.05-2.89-1.2-5.32-4.56-5.32s-4.62,2.27-4.89,5.32Z" transform="translate(-210.15 -82.02)"/><path class="cls-2" d="M1036.34,433.71l-11.68-33.09h7.69l4.92,15.28c1.49,4.63,2.63,8.55,3.4,11.93h.09c.68-3.08,2-7.13,3.54-11.82l5.17-15.39h7.3l-12,33.09Z" transform="translate(-210.15 -82.02)"/><path class="cls-2" d="M1077.46,427.29a57.24,57.24,0,0,0,.33,6.42h-6.57a10.7,10.7,0,0,1-.35-2.43c-.9,1.4-2.59,3-7,3-6,0-8.52-3.94-8.52-7.79,0-5.67,4.55-8.28,11.83-8.28h3.55v-1.51c0-1.77-.64-3.51-3.83-3.51-2.9,0-3.54,1.24-3.86,3h-6.54c.38-4.41,3.11-8,10.66-7.94,6.66,0,10.28,2.64,10.28,8.55Zm-6.71-4.89H1068c-4.15,0-5.68,1.27-5.68,3.66,0,1.8,1.1,3.32,3.57,3.32,4.38,0,4.91-3,4.91-6.33Z" transform="translate(-210.15 -82.02)"/><path class="cls-2" d="M1083.68,433.71v-35h6.88v35Z" transform="translate(-210.15 -82.02)"/><path class="cls-2" d="M1096.74,433.71v-35h6.88v35Z" transform="translate(-210.15 -82.02)"/><path class="cls-2" d="M1115.27,422.76c0,3.11,1.56,6.14,5,6.14,2.87,0,3.69-1.15,4.34-2.65h6.88c-.88,3-3.59,8-11.4,8-8.18,0-11.73-6.12-11.73-12.64,0-7.8,4-13.36,12-13.36,8.53,0,11.43,6.17,11.43,12.37a15.34,15.34,0,0,1-.09,2.1Zm9.59-4.23c0-2.89-1.2-5.32-4.55-5.32s-4.62,2.27-4.9,5.32Z" transform="translate(-210.15 -82.02)"/><path class="cls-2" d="M1141.06,408.86c2.57,8.58,4.81,16.23,5.2,18.52h0c.54-2.5,2-8.07,5-18.52h6.85l-8.35,25.57c-2.38,7.14-4.36,9.28-10.33,9.28a32.25,32.25,0,0,1-3.22-.19V438a16.19,16.19,0,0,0,1.78.11c2.53,0,3.8-.88,4.73-3.63l-9-25.61Z" transform="translate(-210.15 -82.02)"/></g><g id="Layer_3" data-name="Layer 3"><path class="cls-3" d="M677.53,88.75V269.81A27.23,27.23,0,0,1,656,276.6c-1.25-.17-12.67-1.91-18.64-12.22a31.45,31.45,0,0,1-20.56-5.89,28.22,28.22,0,0,1-11-17.65,30.36,30.36,0,0,1-11-15.84,28.58,28.58,0,0,1,.47-16.75,23.88,23.88,0,0,1,0-29.88c-.69-1-5-7.78-2.39-15.84a19.07,19.07,0,0,1,7.18-9.5,20.52,20.52,0,0,1,2.39-15.85,21,21,0,0,1,7.17-6.79A21.87,21.87,0,0,1,613,118.17a24,24,0,0,1,12-9.5C631.08,97,636,94.28,638.8,92.83s5.13-.86,12.91-3.17c6.24-1.86,6.95-2.64,10-3.17C665.33,85.87,670.57,85.85,677.53,88.75Z" transform="translate(-210.15 -82.02)"/><path class="cls-3" d="M637,264.14a20.87,20.87,0,0,1,0-13.83,20.42,20.42,0,0,1,6-8.64" transform="translate(-210.15 -82.02)"/><path class="cls-3" d="M595.57,208a29,29,0,0,1,8.62-9.51,28.59,28.59,0,0,1,9.48-4.32" transform="translate(-210.15 -82.02)"/><path class="cls-3" d="M599,153.52a19.61,19.61,0,0,1,20.69-2.6" transform="translate(-210.15 -82.02)"/><path class="cls-3" d="M620.57,110.85a21.63,21.63,0,0,1,25,2.59" transform="translate(-210.15 -82.02)"/><path class="cls-3" d="M619.71,227.84a40.08,40.08,0,0,1,36.2-25.06" transform="translate(-210.15 -82.02)"/><path class="cls-3" d="M636.9,208.1a24.89,24.89,0,0,1-3.4-14.83A24.27,24.27,0,0,1,637,182.9" transform="translate(-210.15 -82.02)"/><path class="cls-3" d="M677.46,165.62c-2.78-4.66-8.4-12.3-18.1-16.42a34.1,34.1,0,0,0-5.17-1.73" transform="translate(-210.15 -82.02)"/><path class="cls-3" d="M632.64,145.74a19.48,19.48,0,0,0-12.93,6.91c-6,7.43-3.7,16.38-3.45,17.29" transform="translate(-210.15 -82.02)"/><circle class="cls-3" cx="406.11" cy="87.49" r="0.09"/><circle class="cls-3" cx="444.54" cy="65.55" r="0.09"/><circle class="cls-3" cx="445.4" cy="120.86" r="0.09"/><path class="cls-3" d="M636.93,183a.09.09,0,0,0,.18,0,.09.09,0,0,0-.18,0Z" transform="translate(-210.15 -82.02)"/><circle class="cls-3" cx="432.91" cy="159.75" r="0.09"/><circle class="cls-3" cx="409.63" cy="145.93" r="0.09"/><circle class="cls-3" cx="403.17" cy="112.22" r="0.09"/><circle class="cls-3" cx="435.06" cy="31.05" r="0.09"/><circle class="cls-3" cx="422.13" cy="63.82" r="0.09"/><path class="cls-3" d="M677.46,128.45a17.32,17.32,0,0,1-19-6" transform="translate(-210.15 -82.02)"/><circle class="cls-3" cx="448.27" cy="40.41" r="0.09"/><path class="cls-3" d="M678.9,223a17.33,17.33,0,0,0-19,6.05" transform="translate(-210.15 -82.02)"/><circle class="cls-3" cx="449.7" cy="146.95" r="0.09"/><polyline class="cls-4" points="512.25 159.52 518.22 181.99 499.47 194.09 478.16 187.17 478.16 6.54 492.65 3.09 517.37 9.14 531.01 24.69 510.55 30.74"/><polyline class="cls-4" points="531.01 181.12 551.46 159.52 561.69 124.95 542.09 111.98"/><polyline class="cls-4" points="565.1 111.12 565.1 80.87 548.91 66.18 535.27 67.91 522.48 63.58"/><polyline class="cls-4" points="478.55 82.6 487.53 66.18 501.17 65.31"/><polyline class="cls-4" points="478.55 140 493.5 139.64 496.06 146.55"/><polyline class="cls-4" points="478.16 46.3 490.94 46.3 496.91 40.25"/><line class="cls-4" x1="535.27" y1="67.91" x2="539.53" y2="87.78"/><path class="cls-4" d="M709.61,202.64c.86,0,18.76,1.73,18.76,1.73l17,23.34" transform="translate(-210.15 -82.02)"/><polyline class="cls-4" points="518.22 122.35 522.48 111.98 518.22 100.75"/><path class="cls-4" d="M750.53,115.35c.85,0,15.34,13.83,15.34,13.83l3.41,13" transform="translate(-210.15 -82.02)"/><ellipse class="cls-4" cx="496.06" cy="40.25" rx="1.7" ry="1.73"/><ellipse class="cls-4" cx="501.17" cy="65.31" rx="1.7" ry="1.73"/><ellipse class="cls-4" cx="512.25" cy="159.52" rx="1.7" ry="1.73"/><ellipse class="cls-4" cx="496.06" cy="146.55" rx="1.7" ry="1.73"/><ellipse class="cls-4" cx="511.4" cy="30.74" rx="1.7" ry="1.73"/><ellipse class="cls-4" cx="522.48" cy="63.58" rx="1.7" ry="1.73"/><ellipse class="cls-4" cx="518.22" cy="100.75" rx="1.7" ry="1.73"/><ellipse class="cls-4" cx="499.47" cy="120.62" rx="1.7" ry="1.73"/><ellipse class="cls-4" cx="539.53" cy="87.78" rx="1.7" ry="1.73"/><ellipse class="cls-4" cx="542.09" cy="111.98" rx="1.7" ry="1.73"/><ellipse class="cls-4" cx="532.71" cy="179.39" rx="1.7" ry="1.73"/><ellipse class="cls-4" cx="535.27" cy="145.69" rx="1.7" ry="1.73"/><ellipse class="cls-4" cx="559.13" cy="58.4" rx="1.7" ry="1.73"/><ellipse class="cls-4" cx="565.1" cy="108.53" rx="1.7" ry="1.73"/><ellipse class="cls-4" cx="541.23" cy="34.2" rx="1.7" ry="1.73"/></g><g id="Layer_4" data-name="Layer 4"><rect class="cls-2" x="7.42" y="347.74" width="12" height="4"/><rect class="cls-2" x="28.41" y="347.74" width="12" height="4"/><rect class="cls-2" x="43.91" y="347.74" width="12" height="4"/><rect class="cls-2" x="95.25" y="318.36" width="12" height="4"/><rect class="cls-2" x="115.73" y="318.36" width="12" height="4"/><rect class="cls-2" x="394.68" y="347.74" width="12" height="4"/><rect class="cls-2" x="362.13" y="347.74" width="12" height="4"/><rect class="cls-2" x="221.68" y="347.74" width="12" height="4"/><rect class="cls-2" x="265.38" y="347.74" width="12" height="4"/><rect class="cls-2" x="144.28" y="347.74" width="12" height="4"/><rect class="cls-2" x="128.38" y="347.74" width="12" height="4"/><rect class="cls-2" x="157.41" y="347.74" width="12" height="4"/><rect class="cls-2" x="207.58" y="403.38" width="9.25" height="4" transform="translate(-403.32 535.56) rotate(-90)"/><rect class="cls-2" x="230.72" y="403.43" width="9.25" height="4" transform="translate(-380.22 558.76) rotate(-90)"/><rect class="cls-2" x="594.67" y="403.37" width="9.25" height="4" transform="translate(-16.22 922.65) rotate(-90)"/><rect class="cls-2" x="617.97" y="403.37" width="9.25" height="4" transform="translate(7.08 945.95) rotate(-90)"/><rect class="cls-2" x="28.41" y="316.58" width="9.44" height="4"/><rect class="cls-2" x="128.38" y="326.8" width="8.47" height="4"/><rect class="cls-2" x="221.68" y="326.78" width="8.17" height="4"/><rect class="cls-2" x="265.38" y="326.78" width="9.47" height="4"/><rect class="cls-2" x="157.02" y="326.78" width="9.47" height="4"/><rect class="cls-2" x="168.85" y="326.78" width="12" height="4"/><rect class="cls-2" x="183.85" y="326.78" width="12" height="4"/><rect class="cls-2" x="436.92" y="347.69" width="12" height="4"/><rect class="cls-2" x="449.92" y="347.69" width="12" height="4"/><rect class="cls-2" x="436.92" y="326.78" width="12" height="4"/><rect class="cls-2" x="449.92" y="326.78" width="12" height="4"/><rect class="cls-2" x="479.85" y="347.74" width="8" height="4"/><rect class="cls-2" x="555.85" y="347.74" width="12" height="4"/><rect class="cls-2" x="586.35" y="347.74" width="12" height="4"/><rect class="cls-2" x="586.35" y="326.83" width="9.5" height="4"/><rect class="cls-2" x="555.85" y="318.57" width="12" height="4"/><rect class="cls-2" x="674.85" y="347.74" width="12" height="4"/><rect class="cls-2" x="719.85" y="347.74" width="12" height="4"/><rect class="cls-2" x="735.85" y="347.74" width="12" height="4"/><rect class="cls-2" x="719.85" y="326.83" width="9" height="4"/><rect class="cls-2" x="710.85" y="347.74" width="8" height="4"/><rect class="cls-2" x="767.85" y="347.74" width="9" height="4"/><rect class="cls-2" x="763.85" y="316.63" width="9" height="4"/><rect class="cls-2" x="813.35" y="318.53" width="12" height="4"/><rect class="cls-2" x="835.85" y="318.53" width="12" height="4"/><rect class="cls-2" x="862.85" y="347.74" width="7.2" height="4"/><rect class="cls-2" x="921.85" y="326.63" width="12" height="4"/><rect class="cls-2" x="937.85" y="326.63" width="12" height="4"/><rect class="cls-2" x="883.85" y="347.74" width="12" height="4"/><rect class="cls-2" x="870.85" y="347.74" width="12" height="4"/><rect class="cls-2" x="870.85" y="316.58" width="9" height="4"/><rect class="cls-2" x="883.85" y="316.58" width="9" height="4"/><rect class="cls-2" x="674.85" y="326.83" width="9" height="4"/><rect class="cls-1" x="137.55" y="284.78" width="18" height="6"/><rect class="cls-1" x="178.05" y="284.78" width="18" height="6"/><rect class="cls-1" x="273.85" y="284.78" width="18" height="6"/><rect class="cls-1" x="296.35" y="284.78" width="18" height="6"/><rect class="cls-1" x="315.85" y="284.78" width="18" height="6"/><rect class="cls-1" x="356.85" y="284.78" width="18" height="6"/><rect class="cls-1" x="334.85" y="284.78" width="18" height="6"/><rect class="cls-1" x="716.85" y="284.78" width="18" height="6"/><rect class="cls-1" x="693.85" y="284.78" width="18" height="6"/><rect class="cls-1" x="693.85" y="254.38" width="14" height="6"/><rect class="cls-1" x="594.85" y="284.78" width="18" height="6"/><rect class="cls-1" x="593.85" y="254.38" width="14" height="6"/><rect class="cls-1" x="555.85" y="284.78" width="18" height="6"/><rect class="cls-1" x="575.05" y="284.78" width="18" height="6"/><rect class="cls-1" x="555.95" y="239.58" width="13.9" height="6"/><rect class="cls-1" x="575.65" y="239.58" width="13.2" height="6"/><rect class="cls-1" x="451.85" y="284.78" width="18" height="6"/><rect class="cls-1" x="474.85" y="284.78" width="18" height="6"/><rect class="cls-1" x="451.85" y="254.38" width="13" height="6"/><rect class="cls-1" x="431.85" y="284.78" width="18" height="6"/><rect class="cls-1" x="431.85" y="242.48" width="18" height="6"/><rect class="cls-1" x="314.85" y="254.48" width="14" height="6"/><rect class="cls-1" x="333.85" y="254.38" width="13" height="6"/><rect class="cls-1" x="273.85" y="239.48" width="13" height="6"/><rect class="cls-1" x="222.85" y="284.78" width="13" height="6"/><rect class="cls-1" x="136.85" y="242.48" width="18" height="6"/><rect class="cls-1" x="178.85" y="242.48" width="18" height="6"/><path class="cls-2" d="M793,428a20.06,20.06,0,0,0,7,8c9.53,6.11,24.84,3,38-8v2a39,39,0,0,1-19,12c-10.59,2.79-26.68,1.79-31-7a12.32,12.32,0,0,1-1-7Z" transform="translate(-210.15 -82.02)"/></g></svg>