<svg width="933" height="308" viewBox="0 0 933 308" fill="none" xmlns="http://www.w3.org/2000/svg">
<g clip-path="url(#clip0_0_1)">
<path d="M169.166 217.407C169.166 209.172 169.297 199.94 169.507 194.485H169.174C166.905 204.331 162.08 220.41 157.451 235.512H148.564C145.045 222.312 140.054 203.992 137.937 194.353H137.612C138.023 200.015 138.225 209.947 138.225 218.225V235.512H128.713V187.247H144.245C148.007 199.858 152.226 215.677 153.676 222.872H153.754C154.936 216.528 160.238 199.614 164.264 187.247H179.232V235.512H169.166V217.407Z" fill="#646469"/>
<path d="M218.701 226.15C218.684 229.277 218.848 232.403 219.19 235.512H209.606C209.295 234.357 209.125 233.167 209.1 231.971C207.786 234.007 205.321 236.353 198.912 236.353C190.175 236.353 186.49 230.609 186.49 224.989C186.49 216.733 193.118 212.925 203.742 212.925H208.914V210.71C208.914 208.134 207.987 205.601 203.335 205.601C199.099 205.601 198.172 207.401 197.71 210.024H188.17C188.713 203.586 192.696 198.374 203.713 198.436C213.419 198.498 218.701 202.289 218.701 210.915V226.15ZM208.923 219.016H204.835C198.79 219.016 196.548 220.862 196.548 224.356C196.548 226.979 198.157 229.188 201.764 229.188C208.139 229.188 208.923 224.756 208.923 219.968V219.016Z" fill="#646469"/>
<path d="M259.431 223.801C258.182 229.838 253.937 236.35 243.138 236.35C231.86 236.35 226.061 228.545 226.061 217.65C226.061 206.95 232.589 198.429 243.619 198.429C255.838 198.429 259.232 207.195 259.431 211.294H249.631C249.013 208.343 247.338 206.28 243.421 206.28C238.835 206.28 236.237 210.3 236.237 217.326C236.237 225.04 238.986 228.556 243.379 228.556C246.826 228.556 248.679 226.521 249.569 223.797L259.431 223.801Z" fill="#646469"/>
<path d="M276.101 184.41V203.554C277.691 201.208 280.628 198.436 286.48 198.436C293.238 198.436 298.62 202.436 298.62 212.264V235.512H288.648V213.765C288.648 209.053 286.978 206.55 282.77 206.55C277.194 206.55 276.101 210.697 276.101 216.288V235.512H266.069V184.412L276.101 184.41Z" fill="#646469"/>
<path d="M308.139 184.41H318.172V193.358H308.139V184.41ZM308.139 199.276H318.172V235.512H308.139V199.276Z" fill="#646469"/>
<path d="M327.73 208.401C327.73 205.321 327.73 201.949 327.66 199.272H337.376C337.588 200.803 337.718 202.344 337.763 203.889C338.995 201.613 341.927 198.432 348.274 198.432C355.553 198.432 360.282 203.35 360.282 212.456V235.508H350.249V213.575C350.249 209.501 348.892 206.55 344.465 206.55C340.202 206.55 337.765 208.921 337.765 215.319V235.512H327.73V208.401Z" fill="#646469"/>
<path d="M377.647 219.54C377.656 224.072 379.927 228.502 384.922 228.502C389.099 228.502 390.291 226.825 391.243 224.633H401.284C399.999 229.068 396.043 236.353 384.658 236.353C372.723 236.353 367.545 227.428 367.545 217.921C367.545 206.554 373.378 198.436 385.017 198.436C397.462 198.436 401.693 207.436 401.693 216.485C401.719 217.505 401.675 218.526 401.562 219.54H377.647ZM391.647 213.378C391.576 209.159 389.892 205.609 385.003 205.609C380.195 205.609 378.261 208.924 377.861 213.378H391.647Z" fill="#646469"/>
<path d="M437.485 187.247V235.512H427.049V187.247H437.485Z" fill="#646469"/>
<path d="M447.217 208.401C447.217 205.321 447.217 201.949 447.147 199.272H456.863C457.075 200.803 457.205 202.344 457.25 203.889C458.482 201.613 461.414 198.432 467.762 198.432C475.04 198.432 479.77 203.35 479.77 212.456V235.508H469.736V213.575C469.736 209.501 468.379 206.55 463.952 206.55C459.689 206.55 457.252 208.921 457.252 215.319V235.512H447.217V208.401Z" fill="#646469"/>
<path d="M484.931 199.276H490.517V189.465H500.55V199.276H507.65V206.819H500.55V224.701C500.55 227.451 501.39 228.52 504.38 228.52C505.143 228.53 505.906 228.493 506.665 228.408V235.308C504.464 235.873 502.191 236.106 499.921 236C492.852 236 490.521 232.218 490.521 225.879V206.819H484.931V199.276Z" fill="#646469"/>
<path d="M521.634 219.54C521.643 224.072 523.913 228.502 528.908 228.502C533.085 228.502 534.277 226.825 535.23 224.633H545.271C543.985 229.068 540.029 236.353 528.645 236.353C516.709 236.353 511.531 227.428 511.531 217.921C511.531 206.554 517.364 198.436 529.003 198.436C541.448 198.436 545.68 207.436 545.68 216.485C545.706 217.505 545.662 218.526 545.548 219.54H521.634ZM535.634 213.378C535.564 209.159 533.879 205.609 528.99 205.609C524.183 205.609 522.248 208.924 521.849 213.378H535.634Z" fill="#646469"/>
<path d="M552.993 235.512V184.412H563.026V235.512H552.993Z" fill="#646469"/>
<path d="M572.522 235.512V184.412H582.556V235.512H572.522Z" fill="#646469"/>
<path d="M592.052 184.41H602.085V193.358H592.052V184.41ZM592.052 199.276H602.085V235.512H592.052V199.276Z" fill="#646469"/>
<path d="M644.548 231.101C644.548 242.734 640.255 250.094 626.529 250.094C613.3 250.094 610.689 242.703 610.343 238.615H620.569C621.274 241.103 623.108 242.798 626.978 242.798C633.49 242.798 634.716 238.827 634.716 231.723V229.991C632.826 233.124 629.827 235.081 624.504 235.081C614.957 235.081 609.52 227.259 609.52 217.518C609.52 206.188 616.302 198.436 625.364 198.436C631.58 198.436 634.164 201.365 634.716 203.056C634.786 202.073 635.041 199.87 635.111 199.276H644.626C644.564 202.509 644.548 206.19 644.548 209.676V231.101ZM619.824 217.073C619.824 223.308 622.94 226.987 627.381 226.987C633.42 226.987 635.033 222.84 635.033 216.759C635.033 210.659 633.958 206.475 627.591 206.475C623.238 206.472 619.824 209.828 619.824 217.07V217.073Z" fill="#646469"/>
<path d="M662.19 219.54C662.199 224.072 664.47 228.502 669.465 228.502C673.642 228.502 674.834 226.825 675.786 224.633H685.827C684.542 229.068 680.586 236.353 669.201 236.353C657.266 236.353 652.088 227.428 652.088 217.921C652.088 206.554 657.921 198.436 669.56 198.436C682.005 198.436 686.236 207.436 686.236 216.485C686.262 217.505 686.218 218.526 686.105 219.54H662.19ZM676.19 213.378C676.119 209.159 674.435 205.609 669.546 205.609C664.738 205.609 662.804 208.924 662.404 213.378H676.19Z" fill="#646469"/>
<path d="M693.82 208.401C693.82 205.321 693.82 201.949 693.751 199.272H703.467C703.679 200.803 703.809 202.344 703.854 203.889C705.086 201.613 708.018 198.432 714.365 198.432C721.644 198.432 726.373 203.35 726.373 212.456V235.508H716.34V213.575C716.34 209.501 714.982 206.55 710.556 206.55C706.293 206.55 703.856 208.921 703.856 215.319V235.512H693.82V208.401Z" fill="#646469"/>
<path d="M767.129 223.801C765.88 229.838 761.635 236.35 750.836 236.35C739.559 236.35 733.759 228.545 733.759 217.65C733.759 206.95 740.287 198.429 751.317 198.429C763.536 198.429 766.931 207.195 767.129 211.294H757.329C756.711 208.343 755.036 206.28 751.119 206.28C746.533 206.28 743.935 210.3 743.935 217.326C743.935 225.04 746.684 228.556 751.077 228.556C754.524 228.556 756.372 226.521 757.267 223.797L767.129 223.801Z" fill="#646469"/>
<path d="M782.307 219.54C782.315 224.072 784.586 228.502 789.581 228.502C793.758 228.502 794.95 226.825 795.902 224.633H805.944C804.658 229.068 800.702 236.353 789.317 236.353C777.382 236.353 772.204 227.428 772.204 217.921C772.204 206.554 778.037 198.436 789.676 198.436C802.121 198.436 806.353 207.436 806.353 216.485C806.379 217.505 806.335 218.526 806.221 219.54H782.307ZM796.307 213.378C796.236 209.159 794.552 205.609 789.663 205.609C784.856 205.609 782.921 208.924 782.521 213.378H796.307Z" fill="#646469"/>
<path d="M10.055 269.282H0.000976562V263.417H27.237V269.282H17.217V296.513H10.055V269.282Z" fill="#F05023"/>
<path d="M38.127 261.472V274.601C38.9035 273.445 39.9692 272.513 41.2181 271.897C42.4669 271.281 43.8553 271.003 45.245 271.091C49.879 271.091 53.569 273.833 53.569 280.574V296.515H46.731V281.601C46.731 278.369 45.585 276.654 42.7 276.654C38.877 276.654 38.127 279.497 38.127 283.331V296.513H31.248V261.472H38.127Z" fill="#F05023"/>
<path d="M65.567 285.561C65.573 288.668 67.13 291.705 70.555 291.705C73.419 291.705 74.237 290.556 74.89 289.052H81.775C80.894 292.094 78.181 297.089 70.375 297.089C62.19 297.089 58.64 290.969 58.64 284.45C58.64 276.65 62.64 271.089 70.62 271.089C79.154 271.089 82.056 277.263 82.056 283.465C82.0743 284.166 82.0439 284.868 81.965 285.565L65.567 285.561ZM75.167 281.335C75.119 278.443 73.967 276.008 70.612 276.008C67.312 276.008 65.989 278.28 65.712 281.335H75.167Z" fill="#F05023"/>
<path d="M106.166 263.417V283.137C106.166 289.488 109.432 291.369 113.001 291.369C117.101 291.369 119.666 289.144 119.666 283.137V263.417H126.828V282.781C126.828 294.097 120.203 296.981 112.905 296.981C105.435 296.981 98.998 293.972 98.998 282.916V263.416L106.166 263.417Z" fill="#F05023"/>
<path d="M132.901 277.925C132.901 275.813 132.901 273.501 132.853 271.665H139.516C139.662 272.715 139.75 273.772 139.781 274.831C140.626 273.271 142.636 271.089 146.989 271.089C151.98 271.089 155.223 274.461 155.223 280.705V296.513H148.343V281.47C148.343 278.677 147.412 276.654 144.377 276.654C141.454 276.654 139.777 278.279 139.777 282.666V296.513H132.901V277.925Z" fill="#F05023"/>
<path d="M161.662 261.472H168.542V267.608H161.662V261.472ZM161.662 271.665H168.542V296.513H161.662V271.665Z" fill="#F05023"/>
<path d="M179.814 271.665C182.181 280.08 184.15 287.443 184.64 290.43H184.689C185.389 286.33 187.819 278.839 189.982 271.665H196.838L188.061 296.513H180.827L172.409 271.665H179.814Z" fill="#F05023"/>
<path d="M205.632 285.561C205.638 288.668 207.194 291.705 210.619 291.705C213.483 291.705 214.302 290.556 214.954 289.052H221.84C220.958 292.094 218.245 297.089 210.44 297.089C202.256 297.089 198.705 290.969 198.705 284.45C198.705 276.65 202.705 271.089 210.686 271.089C219.22 271.089 222.121 277.263 222.121 283.465C222.139 284.166 222.109 284.868 222.03 285.565L205.632 285.561ZM215.232 281.335C215.184 278.443 214.032 276.008 210.676 276.008C207.376 276.008 206.054 278.28 205.776 281.335H215.232Z" fill="#F05023"/>
<path d="M227.278 278.401C227.278 275.933 227.272 273.739 227.23 271.661H233.978C234.068 272.218 234.158 274.684 234.158 276.024C235.258 273.184 237.904 271.109 242.131 271.085V277.65C237.139 277.522 234.158 278.864 234.158 285.676V296.509H227.278V278.401Z" fill="#F05023"/>
<path d="M251.601 289.043C252.121 291.022 253.737 292.134 256.301 292.134C258.84 292.134 259.766 291.222 259.766 289.717C259.766 288.117 258.698 287.496 255.139 286.622C247.039 284.622 245.72 282.122 245.72 278.614C245.72 274.964 248.3 271.089 255.795 271.089C263.333 271.089 265.883 275.204 266.095 278.571H259.554C259.332 277.654 258.721 275.917 255.485 275.917C253.211 275.917 252.476 276.925 252.476 278.042C252.476 279.279 253.247 279.876 257.281 280.817C265.571 282.744 266.744 285.586 266.744 289.229C266.744 293.344 263.614 297.089 256.038 297.089C248.495 297.089 245.381 293.447 244.838 289.043H251.601Z" fill="#F05023"/>
<path d="M271.63 261.472H278.51V267.608H271.63V261.472ZM271.63 271.665H278.51V296.513H271.63V271.665Z" fill="#F05023"/>
<path d="M282.651 271.665H286.482V264.938H293.362V271.665H298.23V276.837H293.362V289.101C293.362 290.986 293.938 291.719 295.988 291.719C296.511 291.726 297.035 291.7 297.555 291.642V296.374C296.046 296.762 294.487 296.922 292.931 296.849C288.084 296.849 286.482 294.256 286.482 289.908V276.837H282.651V271.665Z" fill="#F05023"/>
<path d="M308.128 271.665C310.694 280.239 312.933 287.89 313.328 290.186H313.376C313.914 287.68 315.369 282.112 318.335 271.665H325.185L316.836 297.229C314.46 304.375 312.479 306.509 306.51 306.509C305.899 306.509 304.479 306.461 303.288 306.322V300.795C303.754 300.849 304.511 300.895 305.067 300.895C307.594 300.895 308.867 300.018 309.798 297.271L300.756 271.663L308.128 271.665Z" fill="#F05023"/>
<path d="M363.913 284.041C363.913 291.559 359.413 297.089 351.543 297.089C343.837 297.089 339.343 291.589 339.343 284.173C339.343 276.506 343.981 271.089 351.871 271.089C359.182 271.089 363.913 276.251 363.913 284.041ZM346.321 284.089C346.321 288.872 348.38 291.705 351.693 291.705C355.061 291.705 356.932 288.869 356.932 284.131C356.932 278.931 355.023 276.473 351.597 276.473C348.406 276.473 346.321 278.835 346.321 284.089Z" fill="#F05023"/>
<path d="M369.939 296.513V276.837H366.317V271.665H369.939V269.483C369.939 264.352 372.485 260.991 377.862 260.991C378.936 260.968 380.01 261.066 381.062 261.285V266.717C380.582 266.638 380.096 266.598 379.61 266.598C377.581 266.598 376.82 267.346 376.82 269.998V271.662H381.165V276.834H376.82V296.51L369.939 296.513Z" fill="#F05023"/>
<path d="M403.314 269.282H393.259V263.417H420.495V269.282H410.477V296.513H403.314V269.282Z" fill="#F05023"/>
<path d="M425.611 285.561C425.617 288.668 427.174 291.705 430.599 291.705C433.463 291.705 434.281 290.556 434.934 289.052H441.819C440.938 292.094 438.225 297.089 430.419 297.089C422.235 297.089 418.685 290.969 418.685 284.45C418.685 276.65 422.685 271.089 430.665 271.089C439.199 271.089 442.101 277.263 442.101 283.465C442.119 284.166 442.089 284.868 442.01 285.565L425.611 285.561ZM435.211 281.335C435.163 278.443 434.011 276.008 430.655 276.008C427.355 276.008 426.033 278.28 425.755 281.335H435.211Z" fill="#F05023"/>
<path d="M451.547 271.665C454.137 276.344 455.189 278.182 455.938 279.452H455.985C456.842 277.952 458.355 275.209 460.374 271.665H468.013L459.955 283.493L467.987 296.513H460.201C457.971 292.306 456.573 289.587 455.844 288.16H455.801C455.143 289.468 453.447 292.691 451.413 296.513H443.896L451.589 284.405L443.941 271.665H451.547Z" fill="#F05023"/>
<path d="M492.249 290.093C492.237 292.238 492.35 294.381 492.585 296.513H486.013C485.799 295.72 485.682 294.905 485.665 294.084C484.765 295.484 483.075 297.084 478.68 297.084C472.689 297.084 470.161 293.146 470.161 289.291C470.161 283.631 474.707 281.02 481.992 281.02H485.538V279.501C485.538 277.734 484.902 276.001 481.712 276.001C478.812 276.001 478.172 277.236 477.855 279.034H471.314C471.687 274.619 474.414 271.046 481.972 271.088C488.627 271.131 492.249 273.731 492.249 279.645V290.093ZM485.544 285.201H482.744C478.599 285.201 477.062 286.467 477.062 288.863C477.062 290.663 478.162 292.176 480.638 292.176C485.01 292.176 485.547 289.137 485.547 285.854L485.544 285.201Z" fill="#F05023"/>
<path d="M503.448 289.043C503.969 291.022 505.585 292.134 508.148 292.134C510.687 292.134 511.613 291.222 511.613 289.717C511.613 288.117 510.546 287.496 506.986 286.622C498.892 284.622 497.567 282.122 497.567 278.614C497.567 274.964 500.147 271.089 507.643 271.089C515.181 271.089 517.73 275.204 517.943 278.571H511.402C511.181 277.654 510.569 275.917 507.334 275.917C505.059 275.917 504.324 276.925 504.324 278.042C504.324 279.279 505.096 279.876 509.13 280.817C517.42 282.744 518.593 285.586 518.593 289.229C518.593 293.344 515.463 297.089 507.887 297.089C500.344 297.089 497.229 293.447 496.687 289.043H503.448Z" fill="#F05023"/>
<path d="M543.278 283.267V296.513H536.285V263.413H550.828C558.044 263.413 561.928 267.388 561.928 272.499C561.928 276.941 559.511 279.345 557.118 280.329C558.758 280.935 561.23 282.641 561.23 288.565V290.201C561.135 292.316 561.294 294.434 561.705 296.511H554.923C554.342 295.07 554.232 292.594 554.232 289.079V288.601C554.232 284.982 553.318 283.27 547.984 283.27L543.278 283.267ZM543.278 277.567H549.278C553.196 277.567 554.707 276.077 554.707 273.309C554.707 270.617 552.948 269.109 549.449 269.109H543.278V277.567Z" fill="#F05023"/>
<path d="M567.352 261.472H574.231V267.608H567.352V261.472ZM567.352 271.665H574.231V296.513H567.352V271.665Z" fill="#F05023"/>
<path d="M603.861 284.041C603.861 291.559 599.361 297.089 591.491 297.089C583.785 297.089 579.291 291.589 579.291 284.173C579.291 276.506 583.929 271.089 591.819 271.089C599.13 271.089 603.861 276.251 603.861 284.041ZM586.27 284.089C586.27 288.872 588.328 291.705 591.642 291.705C595.009 291.705 596.88 288.869 596.88 284.131C596.88 278.931 594.972 276.473 591.545 276.473C588.355 276.473 586.27 278.835 586.27 284.089Z" fill="#F05023"/>
<path d="M657.062 278.401C657.062 275.933 657.056 273.739 657.014 271.661H663.761C663.852 272.218 663.941 274.684 663.941 276.024C665.041 273.184 667.688 271.109 671.914 271.085V277.65C666.922 277.522 663.941 278.864 663.941 285.676V296.509H657.062V278.401Z" fill="#F05023"/>
<path d="M696.101 290.093C696.089 292.238 696.202 294.381 696.437 296.513H689.864C689.65 295.72 689.534 294.905 689.517 294.084C688.617 295.484 686.927 297.084 682.531 297.084C676.54 297.084 674.013 293.146 674.013 289.291C674.013 283.631 678.559 281.02 685.844 281.02H689.39V279.501C689.39 277.734 688.754 276.001 685.564 276.001C682.664 276.001 682.023 277.236 681.707 279.034H675.165C675.538 274.619 678.265 271.046 685.823 271.088C692.479 271.131 696.101 273.731 696.101 279.645V290.093ZM689.401 285.201H686.601C682.455 285.201 680.918 286.467 680.918 288.863C680.918 290.663 682.018 292.176 684.494 292.176C688.866 292.176 689.404 289.137 689.404 285.854L689.401 285.201Z" fill="#F05023"/>
<path d="M702.701 277.925C702.701 275.813 702.701 273.501 702.652 271.665H709.315C709.461 272.715 709.549 273.772 709.58 274.831C710.425 273.271 712.436 271.089 716.788 271.089C721.779 271.089 725.022 274.461 725.022 280.705V296.513H718.143V281.47C718.143 278.677 717.212 276.654 714.176 276.654C711.253 276.654 709.576 278.279 709.576 282.666V296.513H702.701V277.925Z" fill="#F05023"/>
<path d="M754.257 261.472V289.685C754.257 291.947 754.257 294.239 754.305 296.513H747.69C747.552 295.768 747.42 294.484 747.377 293.913C746.177 295.869 744.038 297.085 740.327 297.085C734.044 297.085 730.046 292.038 730.046 284.285C730.046 276.64 734.296 271.085 741.331 271.085C744.906 271.085 746.831 272.347 747.377 273.46V261.472H754.257ZM737.112 284.112C737.112 288.956 738.999 291.578 742.367 291.578C747.098 291.578 747.643 287.633 747.643 284.063C747.643 279.814 747.043 276.6 742.543 276.6C738.934 276.601 737.112 279.42 737.112 284.112Z" fill="#F05023"/>
<path d="M766.163 285.561C766.169 288.668 767.726 291.705 771.15 291.705C774.015 291.705 774.833 290.556 775.485 289.052H782.371C781.489 292.094 778.771 297.089 770.971 297.089C762.787 297.089 759.236 290.969 759.236 284.45C759.236 276.65 763.236 271.089 771.217 271.089C779.751 271.089 782.652 277.263 782.652 283.465C782.67 284.166 782.64 284.868 782.562 285.565L766.163 285.561ZM775.763 281.335C775.715 278.443 774.563 276.008 771.207 276.008C767.907 276.008 766.585 278.28 766.307 281.335H775.763Z" fill="#F05023"/>
<path d="M807.812 296.513L796.133 263.413H803.819L808.742 278.7C810.233 283.324 811.374 287.25 812.137 290.632H812.237C812.915 287.544 814.205 283.499 815.781 278.808L820.944 263.408H828.244L816.255 296.508L807.812 296.513Z" fill="#F05023"/>
<path d="M849.266 290.093C849.254 292.238 849.366 294.381 849.602 296.513H843.029C842.815 295.72 842.699 294.905 842.682 294.084C841.782 295.484 840.091 297.084 835.696 297.084C829.705 297.084 827.178 293.146 827.178 289.291C827.178 283.631 831.724 281.02 839.009 281.02H842.555V279.501C842.555 277.734 841.919 276.001 838.729 276.001C835.829 276.001 835.189 277.236 834.872 279.034H828.33C828.703 274.619 831.43 271.046 838.988 271.088C845.644 271.131 849.266 273.731 849.266 279.645V290.093ZM842.561 285.201H839.761C835.615 285.201 834.078 286.467 834.078 288.863C834.078 290.663 835.178 292.176 837.654 292.176C842.026 292.176 842.564 289.137 842.564 285.854L842.561 285.201Z" fill="#F05023"/>
<path d="M855.826 296.513V261.472H862.706V296.513H855.826Z" fill="#F05023"/>
<path d="M869.219 296.513V261.472H876.099V296.513H869.219Z" fill="#F05023"/>
<path d="M888.083 285.561C888.089 288.668 889.646 291.705 893.07 291.705C895.935 291.705 896.753 290.556 897.405 289.052H904.291C903.409 292.094 900.691 297.089 892.891 297.089C884.707 297.089 881.156 290.969 881.156 284.45C881.156 276.65 885.156 271.089 893.137 271.089C901.671 271.089 904.572 277.263 904.572 283.465C904.59 284.166 904.56 284.868 904.481 285.565L888.083 285.561ZM897.683 281.335C897.635 278.443 896.483 276.008 893.127 276.008C889.827 276.008 888.505 278.28 888.227 281.335H897.683Z" fill="#F05023"/>
<path d="M914.215 271.665C916.781 280.239 919.02 287.89 919.415 290.186H919.463C920.001 287.68 921.456 282.112 924.422 271.665H931.272L922.923 297.229C920.547 304.375 918.566 306.509 912.597 306.509C911.986 306.509 910.566 306.461 909.375 306.322V300.795C909.841 300.849 910.598 300.895 911.154 300.895C913.681 300.895 914.954 300.018 915.885 297.271L906.843 271.663L914.215 271.665Z" fill="#F05023"/>
<path d="M642.272 268.635V273.454H646.653V265.568C645.438 265.117 644.194 264.752 642.929 264.473C640.849 263.98 638.714 263.759 636.577 263.816C632.618 263.829 628.771 265.137 625.624 267.54C624.238 268.642 623.053 269.976 622.124 271.483C620.527 274.35 619.839 277.635 620.153 280.902C620.151 283.487 620.751 286.037 621.905 288.35C622.887 290.327 624.311 292.051 626.067 293.389C629.235 295.759 632.55 296.021 635.267 296.236C638.986 296.515 642.721 295.992 646.22 294.703V284.845H649.501V281.121H638.11V284.845H641.61V291.855C636.541 293.255 631.387 292.264 628.467 289.007C626.073 286.339 625.767 282.796 625.619 281.121C625.338 278.657 625.716 276.163 626.714 273.893C627.36 272.264 628.417 270.831 629.781 269.731C631.768 268.348 634.153 267.655 636.572 267.759C638.51 267.698 640.442 267.995 642.272 268.635V268.635Z" fill="#F05023" stroke="#F05023" stroke-width="2" stroke-miterlimit="10"/>
<path d="M458.856 5.04502V145.101C456.611 147.118 453.961 148.63 451.082 149.536C448.204 150.442 445.165 150.72 442.17 150.353C441.2 150.222 432.342 148.877 427.709 140.899C422.026 141.287 416.386 139.677 411.764 136.347C407.283 133.05 404.232 128.165 403.236 122.692C399.136 119.644 396.141 115.341 394.708 110.437C393.531 106.179 393.66 101.666 395.078 97.482C392.439 94.2092 391 90.1317 391 85.9275C391 81.7233 392.439 77.6458 395.078 74.373C394.54 73.565 391.191 68.35 393.224 62.118C394.247 59.1374 396.196 56.5615 398.786 54.766C398.258 52.7033 398.15 50.5555 398.468 48.4502C398.787 46.3449 399.525 44.3251 400.64 42.511C402.05 40.3431 403.957 38.5426 406.202 37.259C406.111 33.9195 407.016 30.6283 408.802 27.805C411.013 24.4136 414.266 21.833 418.072 20.452C422.839 11.385 426.611 9.31901 428.825 8.19701C431.085 7.05301 432.804 7.53702 438.836 5.74602C443.673 4.31102 444.227 3.70701 446.623 3.29601C449.392 2.81901 453.456 2.80102 458.856 5.04502Z" stroke="#F05023" stroke-width="4" stroke-miterlimit="10"/>
<path d="M427.381 140.717C426.165 137.254 426.165 133.48 427.381 130.017C428.33 127.418 429.943 125.113 432.06 123.331" stroke="#F05023" stroke-width="4" stroke-miterlimit="10" stroke-linecap="round"/>
<path d="M395.291 97.263C396.781 94.6192 398.795 92.3068 401.209 90.4671C403.622 88.6274 406.386 87.299 409.33 86.563" stroke="#F05023" stroke-width="4" stroke-miterlimit="10" stroke-linecap="round"/>
<path d="M397.965 55.145C400.181 53.3371 402.861 52.1901 405.699 51.8353C408.537 51.4806 411.417 51.9324 414.01 53.139" stroke="#F05023" stroke-width="4" stroke-miterlimit="10"/>
<path d="M414.679 22.138C417.719 20.4192 421.219 19.6889 424.693 20.0483C428.166 20.4078 431.442 21.8392 434.066 24.144" stroke="#F05023" stroke-width="4" stroke-miterlimit="10" stroke-linecap="round"/>
<path d="M414.01 112.639C416.292 107.023 420.165 102.196 425.153 98.7515C430.142 95.3071 436.028 93.3952 442.088 93.251" stroke="#F05023" stroke-width="4" stroke-miterlimit="10" stroke-linecap="round"/>
<path d="M427.346 97.369C425.287 93.9159 424.364 89.9037 424.707 85.898C424.978 83.0554 425.892 80.3117 427.381 77.875" stroke="#F05023" stroke-width="4" stroke-miterlimit="10" stroke-linecap="round"/>
<path d="M444.763 51.805L445.582 49.9802L445.562 49.9713L445.542 49.9628L444.763 51.805ZM441.233 48.527C440.161 48.2607 439.076 48.9139 438.81 49.9859C438.544 51.0579 439.197 52.1428 440.269 52.409L441.233 48.527ZM460.536 63.5082C457.102 57.5351 451.868 52.8002 445.582 49.9802L443.944 53.6298C449.461 56.1046 454.055 60.2599 457.068 65.5018L460.536 63.5082ZM445.542 49.9628C444.145 49.3725 442.705 48.8925 441.233 48.527L440.269 52.409C441.538 52.7242 442.78 53.1382 443.984 53.6472L445.542 49.9628Z" fill="#F05023"/>
<path d="M424.038 49.128C420.127 49.5405 416.531 51.4589 414.01 54.477C409.358 60.223 411.143 67.148 411.336 67.847" stroke="#F05023" stroke-width="4" stroke-miterlimit="10" stroke-linecap="round"/>
<path d="M458.802 35.758C456.166 36.5812 453.341 36.5737 450.71 35.7365C448.079 34.8992 445.769 33.2729 444.094 31.078" stroke="#F05023" stroke-width="4" stroke-miterlimit="10" stroke-linecap="round"/>
<path d="M458.719 108.638C456.21 107.704 453.521 107.713 451.017 108.662C448.513 109.611 446.314 111.455 444.719 113.944" stroke="#F05023" stroke-width="4" stroke-miterlimit="10" stroke-linecap="round"/>
<path d="M498.057 124.004L502.737 141.386L488.029 150.745L471.316 145.397V5.674L482.681 3L502.068 7.68L512.764 19.713L496.72 24.393" stroke="#646469" stroke-width="4" stroke-miterlimit="10"/>
<path d="M512.764 140.717L528.809 124.004L536.832 97.263L521.455 87.235" stroke="#646469" stroke-width="4" stroke-miterlimit="10"/>
<path d="M539.506 86.566V63.168L526.804 51.803L516.107 53.14L506.079 49.797" stroke="#646469" stroke-width="4" stroke-miterlimit="10"/>
<path d="M471.626 64.505L478.669 51.803L489.366 51.134" stroke="#646469" stroke-width="4" stroke-miterlimit="10"/>
<path d="M471.626 108.907L483.349 108.628L485.355 113.976" stroke="#646469" stroke-width="4" stroke-miterlimit="10"/>
<path d="M471.316 36.427H481.344L486.023 31.747" stroke="#646469" stroke-width="4" stroke-miterlimit="10"/>
<path d="M516.107 53.14L519.45 68.516" stroke="#646469" stroke-width="4" stroke-miterlimit="10"/>
<path d="M488.029 93.92C488.697 93.92 502.737 95.257 502.737 95.257L516.107 113.307" stroke="#646469" stroke-width="4" stroke-miterlimit="10"/>
<path d="M502.737 95.257L506.079 87.235L502.737 78.544" stroke="#646469" stroke-width="4" stroke-miterlimit="10"/>
<path d="M520.12 26.398C520.789 26.398 532.154 37.098 532.154 37.098L534.828 47.126" stroke="#646469" stroke-width="4" stroke-miterlimit="10"/>
<path d="M19.399 292.563H7.39899V296.563H19.399V292.563Z" fill="#F05023"/>
<path d="M40.394 292.563H28.394V296.563H40.394V292.563Z" fill="#F05023"/>
<path d="M55.895 292.563H43.895V296.563H55.895V292.563Z" fill="#F05023"/>
<path d="M108.864 263.184H96.864V267.184H108.864V263.184Z" fill="#F05023"/>
<path d="M129.338 263.184H117.338V267.184H129.338V263.184Z" fill="#F05023"/>
<path d="M412.331 292.563H400.331V296.563H412.331V292.563Z" fill="#F05023"/>
<path d="M379.501 292.563H367.501V296.563H379.501V292.563Z" fill="#F05023"/>
<path d="M236.666 292.563H224.666V296.563H236.666V292.563Z" fill="#F05023"/>
<path d="M280.701 292.563H268.701V296.563H280.701V292.563Z" fill="#F05023"/>
<path d="M158.262 292.563H146.262V296.563H158.262V292.563Z" fill="#F05023"/>
<path d="M142.362 292.563H130.362V296.563H142.362V292.563Z" fill="#F05023"/>
<path d="M171.389 292.563H159.389V296.563H171.389V292.563Z" fill="#F05023"/>
<path d="M0.0360107 263.551L0.0360107 272.801H4.03601L4.03601 263.551H0.0360107Z" fill="#F05023"/>
<path d="M23.186 263.602V272.852H27.186V263.602H23.186Z" fill="#F05023"/>
<path d="M393.051 263.551V272.801H397.051V263.551H393.051Z" fill="#F05023"/>
<path d="M416.351 263.551V272.801H420.351V263.551H416.351Z" fill="#F05023"/>
<path d="M37.836 261.401H28.395V265.401H37.836V261.401Z" fill="#F05023"/>
<path d="M138.836 271.616H130.362V275.616H138.836V271.616Z" fill="#F05023"/>
<path d="M232.836 271.601H224.666V275.601H232.836V271.601Z" fill="#F05023"/>
<path d="M277.836 271.601H268.366V275.601H277.836V271.601Z" fill="#F05023"/>
<path d="M168.473 271.601H159.003V275.601H168.473V271.601Z" fill="#F05023"/>
<path d="M182.836 271.601H170.836V275.601H182.836V271.601Z" fill="#F05023"/>
<path d="M197.836 271.601H185.836V275.601H197.836V271.601Z" fill="#F05023"/>
<path d="M455.565 292.511H443.565V296.511H455.565V292.511Z" fill="#F05023"/>
<path d="M468.565 292.511H456.565V296.511H468.565V292.511Z" fill="#F05023"/>
<path d="M454.565 271.601H442.565V275.601H454.565V271.601Z" fill="#F05023"/>
<path d="M468.565 271.601H456.565V275.601H468.565V271.601Z" fill="#F05023"/>
<path d="M494.501 292.563H486.501V296.563H494.501V292.563Z" fill="#F05023"/>
<path d="M545.501 292.563H533.501V296.563H545.501V292.563Z" fill="#F05023"/>
<path d="M576.001 292.563H564.001V296.563H576.001V292.563Z" fill="#F05023"/>
<path d="M573.501 271.651H564.001V275.651H573.501V271.651Z" fill="#F05023"/>
<path d="M544.501 263.391H532.501V267.391H544.501V263.391Z" fill="#F05023"/>
<path d="M666.501 292.563H654.501V296.563H666.501V292.563Z" fill="#F05023"/>
<path d="M712.501 292.563H700.501V296.563H712.501V292.563Z" fill="#F05023"/>
<path d="M728.501 292.563H716.501V296.563H728.501V292.563Z" fill="#F05023"/>
<path d="M709.501 271.651H700.501V275.651H709.501V271.651Z" fill="#F05023"/>
<path d="M698.501 292.563H690.501V296.563H698.501V292.563Z" fill="#F05023"/>
<path d="M757.501 292.563H748.501V296.563H757.501V292.563Z" fill="#F05023"/>
<path d="M753.501 261.451H744.501V265.451H753.501V261.451Z" fill="#F05023"/>
<path d="M807.001 263.351H795.001V267.351H807.001V263.351Z" fill="#F05023"/>
<path d="M829.501 263.351H817.501V267.351H829.501V263.351Z" fill="#F05023"/>
<path d="M851.701 292.563H844.501V296.563H851.701V292.563Z" fill="#F05023"/>
<path d="M916.501 271.451H904.501V275.451H916.501V271.451Z" fill="#F05023"/>
<path d="M932.501 271.451H920.501V275.451H932.501V271.451Z" fill="#F05023"/>
<path d="M878.501 292.563H866.501V296.563H878.501V292.563Z" fill="#F05023"/>
<path d="M862.501 261.401H853.501V265.401H862.501V261.401Z" fill="#F05023"/>
<path d="M875.501 261.401H866.501V265.401H875.501V261.401Z" fill="#F05023"/>
<path d="M663.501 271.651H654.501V275.651H663.501V271.651Z" fill="#F05023"/>
<path d="M142.201 229.601H124.201V235.601H142.201V229.601Z" fill="#646469"/>
<path d="M182.701 229.601H164.701V235.601H182.701V229.601Z" fill="#646469"/>
<path d="M279.501 229.601H261.501V235.601H279.501V229.601Z" fill="#646469"/>
<path d="M302.001 229.601H284.001V235.601H302.001V229.601Z" fill="#646469"/>
<path d="M322.501 229.601H304.501V235.601H322.501V229.601Z" fill="#646469"/>
<path d="M363.501 229.601H345.501V235.601H363.501V229.601Z" fill="#646469"/>
<path d="M341.501 229.601H323.501V235.601H341.501V229.601Z" fill="#646469"/>
<path d="M730.501 229.601H712.501V235.601H730.501V229.601Z" fill="#646469"/>
<path d="M707.501 229.601H689.501V235.601H707.501V229.601Z" fill="#646469"/>
<path d="M701.501 199.201H687.501V205.201H701.501V199.201Z" fill="#646469"/>
<path d="M606.501 229.601H588.501V235.601H606.501V229.601Z" fill="#646469"/>
<path d="M602.201 199.201H588.201V205.201H602.201V199.201Z" fill="#646469"/>
<path d="M566.501 229.601H548.501V235.601H566.501V229.601Z" fill="#646469"/>
<path d="M586.701 229.601H568.701V235.601H586.701V229.601Z" fill="#646469"/>
<path d="M562.501 184.401H548.601V190.401H562.501V184.401Z" fill="#646469"/>
<path d="M581.501 184.401H568.301V190.401H581.501V184.401Z" fill="#646469"/>
<path d="M461.501 229.601H443.501V235.601H461.501V229.601Z" fill="#646469"/>
<path d="M483.501 229.601H465.501V235.601H483.501V229.601Z" fill="#646469"/>
<path d="M456.501 199.201H443.501V205.201H456.501V199.201Z" fill="#646469"/>
<path d="M440.501 229.601H422.501V235.601H440.501V229.601Z" fill="#646469"/>
<path d="M440.501 187.301H422.501V193.301H440.501V187.301Z" fill="#646469"/>
<path d="M317.501 199.301H303.501V205.301H317.501V199.301Z" fill="#646469"/>
<path d="M335.501 199.201H322.501V205.201H335.501V199.201Z" fill="#646469"/>
<path d="M274.501 184.401H261.501V190.401H274.501V184.401Z" fill="#646469"/>
<path d="M222.501 229.601H209.501V235.601H222.501V229.601Z" fill="#646469"/>
<path d="M142.501 187.301H124.501V193.301H142.501V187.301Z" fill="#646469"/>
<path d="M183.501 187.301H165.501V193.301H183.501V187.301Z" fill="#646469"/>
<path d="M865.501 292.801H853.501V296.801H865.501V292.801Z" fill="#F05023"/>
<circle cx="522.5" cy="28.5" r="4.5" fill="#646469"/>
<circle cx="498.5" cy="24.5" r="4.5" fill="#646469"/>
<circle cx="506.5" cy="49.5" r="4.5" fill="#646469"/>
<circle cx="488.5" cy="51.5" r="4.5" fill="#646469"/>
<circle cx="534.5" cy="44.5" r="4.5" fill="#646469"/>
<circle cx="519.5" cy="67.5" r="4.5" fill="#646469"/>
<circle cx="539.5" cy="84.5" r="4.5" fill="#646469"/>
<circle cx="523.5" cy="88.5" r="4.5" fill="#646469"/>
<circle cx="503.5" cy="79.5" r="4.5" fill="#646469"/>
<circle cx="488.5" cy="93.5" r="4.5" fill="#646469"/>
<circle cx="486.5" cy="115.5" r="4.5" fill="#646469"/>
<circle cx="516.5" cy="113.5" r="4.5" fill="#646469"/>
<circle cx="497.5" cy="124.5" r="4.5" fill="#646469"/>
<circle cx="514.5" cy="138.5" r="4.5" fill="#646469"/>
<circle cx="486.5" cy="30.5" r="4.5" fill="#646469"/>
</g>
<path d="M561.137 292C562.708 295.248 565.127 298.011 568.137 300C577.667 306.11 592.977 303 606.137 292V294C601.118 299.778 594.51 303.951 587.137 306C576.547 308.79 560.457 307.79 556.137 299C555.127 296.815 554.779 294.381 555.137 292H561.137Z" fill="#F05023"/>
<defs>
<clipPath id="clip0_0_1">
<rect width="932.501" height="306.509" fill="white"/>
</clipPath>
</defs>
</svg>
