<svg xmlns="http://www.w3.org/2000/svg" viewBox="0 0 932.501 306.509"><defs><style>.cls-1,.cls-8{fill:#646469;}.cls-2,.cls-4,.cls-6{fill:#f05023;}.cls-3,.cls-5,.cls-7{fill:none;}.cls-4,.cls-5,.cls-6{stroke:#f05023;}.cls-4,.cls-5,.cls-6,.cls-7,.cls-8{stroke-miterlimit:10;}.cls-4{stroke-width:2px;}.cls-5,.cls-7{stroke-width:4px;}.cls-6{stroke-width:3px;}.cls-7,.cls-8{stroke:#646469;}.cls-8{stroke-width:6px;}</style></defs><title>miutrgv_home</title><g id="Layer_2" data-name="Layer 2"><path class="cls-1" d="M387.665,354.606c0-8.235.131-17.467.341-22.922h-.333c-2.269,9.846-7.094,25.925-11.723,41.027h-8.887c-3.519-13.2-8.51-31.52-10.627-41.159h-.325c.411,5.662.613,15.594.613,23.872v17.287h-9.512V324.446h15.532c3.762,12.611,7.981,28.43,9.431,35.625h.078c1.182-6.344,6.484-23.258,10.51-35.625h14.968v48.265H387.665Z" transform="translate(-218.499 -137.199)"/><path class="cls-1" d="M437.2,363.349a81.62,81.62,0,0,0,.489,9.362h-9.584a14.777,14.777,0,0,1-.506-3.541c-1.314,2.036-3.779,4.382-10.188,4.382-8.737,0-12.422-5.744-12.422-11.364,0-8.256,6.628-12.064,17.252-12.064h5.172v-2.215c0-2.576-.927-5.109-5.579-5.109-4.236,0-5.163,1.8-5.625,4.423h-9.54c.543-6.438,4.526-11.65,15.543-11.588,9.706.062,14.988,3.853,14.988,12.479Zm-9.778-7.134h-4.088c-6.045,0-8.287,1.846-8.287,5.34,0,2.623,1.609,4.832,5.216,4.832,6.375,0,7.159-4.432,7.159-9.22Z" transform="translate(-218.499 -137.199)"/><path class="cls-1" d="M477.93,361c-1.249,6.037-5.494,12.549-16.293,12.549-11.278,0-17.077-7.805-17.077-18.7,0-10.7,6.528-19.221,17.558-19.221,12.219,0,15.613,8.766,15.812,12.865h-9.8c-.618-2.951-2.293-5.014-6.21-5.014-4.586,0-7.184,4.02-7.184,11.046,0,7.714,2.749,11.23,7.142,11.23,3.447,0,5.3-2.035,6.19-4.759Z" transform="translate(-218.499 -137.199)"/><path class="cls-1" d="M494.6,321.609v19.144c1.59-2.346,4.527-5.118,10.379-5.118,6.758,0,12.14,4,12.14,13.828v23.248h-9.972V350.964c0-4.712-1.67-7.215-5.878-7.215-5.576,0-6.669,4.147-6.669,9.738v19.224H484.568v-51.1Z" transform="translate(-218.499 -137.199)"/><path class="cls-1" d="M526.638,321.609h10.033v8.948H526.638Zm0,14.866h10.033v36.236H526.638Z" transform="translate(-218.499 -137.199)"/><path class="cls-1" d="M546.229,345.6c0-3.08,0-6.452-.07-9.129h9.716a42.671,42.671,0,0,1,.387,4.617c1.232-2.276,4.164-5.457,10.511-5.457,7.279,0,12.008,4.918,12.008,14.024v23.052H568.748V350.774c0-4.074-1.357-7.025-5.784-7.025-4.263,0-6.7,2.371-6.7,8.769v20.193H546.229Z" transform="translate(-218.499 -137.199)"/><path class="cls-1" d="M596.146,356.739c.009,4.532,2.28,8.962,7.275,8.962,4.177,0,5.369-1.677,6.321-3.869h10.041c-1.285,4.435-5.241,11.72-16.626,11.72-11.935,0-17.113-8.925-17.113-18.432,0-11.367,5.833-19.485,17.472-19.485,12.445,0,16.676,9,16.676,18.049a22.378,22.378,0,0,1-.131,3.055Zm14-6.162c-.071-4.219-1.755-7.769-6.644-7.769-4.808,0-6.742,3.315-7.142,7.769Z" transform="translate(-218.499 -137.199)"/><path class="cls-1" d="M655.984,324.446v48.265H645.548V324.446Z" transform="translate(-218.499 -137.199)"/><path class="cls-1" d="M665.716,345.6c0-3.08,0-6.452-.07-9.129h9.716a42.671,42.671,0,0,1,.387,4.617c1.232-2.276,4.164-5.457,10.512-5.457,7.278,0,12.008,4.918,12.008,14.024v23.052H688.235V350.774c0-4.074-1.357-7.025-5.784-7.025-4.263,0-6.7,2.371-6.7,8.769v20.193H665.716Z" transform="translate(-218.499 -137.199)"/><path class="cls-1" d="M703.43,336.475h5.586v-9.811h10.033v9.811h7.1v7.543h-7.1V361.9c0,2.75.84,3.819,3.83,3.819a18.416,18.416,0,0,0,2.285-.112v6.9a22.828,22.828,0,0,1-6.744.692c-7.069,0-9.4-3.782-9.4-10.121V344.018H703.43Z" transform="translate(-218.499 -137.199)"/><path class="cls-1" d="M740.133,356.739c.009,4.532,2.279,8.962,7.274,8.962,4.177,0,5.369-1.677,6.322-3.869H763.77c-1.286,4.435-5.242,11.72-16.626,11.72-11.936,0-17.114-8.925-17.114-18.432,0-11.367,5.833-19.485,17.472-19.485,12.445,0,16.677,9,16.677,18.049a22.209,22.209,0,0,1-.132,3.055Zm14-6.162c-.07-4.219-1.755-7.769-6.644-7.769-4.807,0-6.742,3.315-7.141,7.769Z" transform="translate(-218.499 -137.199)"/><path class="cls-1" d="M771.492,372.711v-51.1h10.033v51.1Z" transform="translate(-218.499 -137.199)"/><path class="cls-1" d="M791.021,372.711v-51.1h10.034v51.1Z" transform="translate(-218.499 -137.199)"/><path class="cls-1" d="M810.551,321.609h10.033v8.948H810.551Zm0,14.866h10.033v36.236H810.551Z" transform="translate(-218.499 -137.199)"/><path class="cls-1" d="M863.047,368.3c0,11.633-4.293,18.993-18.019,18.993-13.229,0-15.84-7.391-16.186-11.479h10.226c.705,2.488,2.539,4.183,6.409,4.183,6.512,0,7.738-3.971,7.738-11.075V367.19c-1.89,3.133-4.889,5.09-10.212,5.09-9.547,0-14.984-7.822-14.984-17.563,0-11.33,6.782-19.082,15.844-19.082,6.216,0,8.8,2.929,9.352,4.62.07-.983.325-3.186.395-3.78h9.515c-.062,3.233-.078,6.914-.078,10.4Zm-24.724-14.028c0,6.235,3.116,9.914,7.557,9.914,6.039,0,7.652-4.147,7.652-10.228,0-6.1-1.075-10.284-7.442-10.284C841.737,343.671,838.323,347.027,838.323,354.269Z" transform="translate(-218.499 -137.199)"/><path class="cls-1" d="M880.689,356.739c.009,4.532,2.28,8.962,7.275,8.962,4.177,0,5.369-1.677,6.321-3.869h10.041c-1.285,4.435-5.241,11.72-16.626,11.72-11.935,0-17.113-8.925-17.113-18.432,0-11.367,5.833-19.485,17.472-19.485,12.445,0,16.676,9,16.676,18.049a22.378,22.378,0,0,1-.131,3.055Zm14-6.162c-.071-4.219-1.755-7.769-6.644-7.769-4.808,0-6.742,3.315-7.142,7.769Z" transform="translate(-218.499 -137.199)"/><path class="cls-1" d="M912.319,345.6c0-3.08,0-6.452-.069-9.129h9.716a42.671,42.671,0,0,1,.387,4.617c1.232-2.276,4.164-5.457,10.511-5.457,7.279,0,12.008,4.918,12.008,14.024v23.052H934.839V350.774c0-4.074-1.358-7.025-5.784-7.025-4.263,0-6.7,2.371-6.7,8.769v20.193H912.319Z" transform="translate(-218.499 -137.199)"/><path class="cls-1" d="M985.628,361c-1.249,6.037-5.494,12.549-16.293,12.549-11.277,0-17.077-7.805-17.077-18.7,0-10.7,6.528-19.221,17.558-19.221,12.219,0,15.614,8.766,15.812,12.865h-9.8c-.618-2.951-2.293-5.014-6.21-5.014-4.586,0-7.184,4.02-7.184,11.046,0,7.714,2.749,11.23,7.142,11.23,3.447,0,5.295-2.035,6.19-4.759Z" transform="translate(-218.499 -137.199)"/><path class="cls-1" d="M1000.806,356.739c.008,4.532,2.279,8.962,7.274,8.962,4.177,0,5.369-1.677,6.321-3.869h10.042c-1.286,4.435-5.242,11.72-16.627,11.72-11.935,0-17.113-8.925-17.113-18.432,0-11.367,5.833-19.485,17.472-19.485,12.445,0,16.677,9,16.677,18.049a22.209,22.209,0,0,1-.132,3.055Zm14-6.162c-.071-4.219-1.755-7.769-6.644-7.769-4.807,0-6.742,3.315-7.142,7.769Z" transform="translate(-218.499 -137.199)"/><path class="cls-2" d="M228.554,406.481H218.5v-5.865h27.236v5.865H235.716v27.231h-7.162Z" transform="translate(-218.499 -137.199)"/><path class="cls-2" d="M256.626,398.671V411.8a7.971,7.971,0,0,1,7.118-3.51c4.634,0,8.324,2.742,8.324,9.483v15.941H265.23V418.8c0-3.232-1.146-4.947-4.031-4.947-3.823,0-4.573,2.843-4.573,6.677v13.182h-6.879V398.671Z" transform="translate(-218.499 -137.199)"/><path class="cls-2" d="M284.066,422.76c.006,3.107,1.563,6.144,4.988,6.144,2.864,0,3.682-1.149,4.335-2.653h6.885c-.881,3.042-3.594,8.037-11.4,8.037-8.185,0-11.735-6.12-11.735-12.639,0-7.8,4-13.361,11.98-13.361,8.534,0,11.436,6.174,11.436,12.376a15.161,15.161,0,0,1-.091,2.1Zm9.6-4.226c-.048-2.892-1.2-5.327-4.555-5.327-3.3,0-4.623,2.272-4.9,5.327Z" transform="translate(-218.499 -137.199)"/><path class="cls-2" d="M324.665,400.616v19.72c0,6.351,3.266,8.232,6.835,8.232,4.1,0,6.665-2.225,6.665-8.232v-19.72h7.162V419.98c0,11.316-6.625,14.2-13.923,14.2-7.47,0-13.907-3.009-13.907-14.065v-19.5Z" transform="translate(-218.499 -137.199)"/><path class="cls-2" d="M351.4,415.124c0-2.112,0-4.424-.048-6.26h6.663a29.309,29.309,0,0,1,.265,3.166c.845-1.56,2.855-3.742,7.208-3.742,4.991,0,8.234,3.372,8.234,9.616v15.808h-6.88V418.669c0-2.793-.931-4.816-3.966-4.816-2.923,0-4.6,1.625-4.6,6.012v13.847H351.4Z" transform="translate(-218.499 -137.199)"/><path class="cls-2" d="M380.161,398.671h6.88v6.136h-6.88Zm0,10.193h6.88v24.848h-6.88Z" transform="translate(-218.499 -137.199)"/><path class="cls-2" d="M398.313,408.864c2.367,8.415,4.336,15.778,4.826,18.765h.049c.7-4.1,3.13-11.591,5.293-18.765h6.856l-8.777,24.848h-7.234l-8.418-24.848Z" transform="translate(-218.499 -137.199)"/><path class="cls-2" d="M424.131,422.76c.006,3.107,1.562,6.144,4.987,6.144,2.864,0,3.683-1.149,4.335-2.653h6.886c-.882,3.042-3.595,8.037-11.4,8.037-8.184,0-11.735-6.12-11.735-12.639,0-7.8,4-13.361,11.981-13.361,8.534,0,11.435,6.174,11.435,12.376a15.161,15.161,0,0,1-.091,2.1Zm9.6-4.226c-.048-2.892-1.2-5.327-4.556-5.327-3.3,0-4.622,2.272-4.9,5.327Z" transform="translate(-218.499 -137.199)"/><path class="cls-2" d="M445.777,415.6c0-2.468-.006-4.662-.048-6.74h6.748c.09.557.18,3.023.18,4.363,1.1-2.84,3.746-4.915,7.973-4.939v6.565c-4.992-.128-7.973,1.214-7.973,8.026v10.833h-6.88Z" transform="translate(-218.499 -137.199)"/><path class="cls-2" d="M470.1,426.242c.52,1.979,2.136,3.091,4.7,3.091,2.539,0,3.465-.912,3.465-2.417,0-1.6-1.068-2.221-4.627-3.095-8.1-2-9.419-4.5-9.419-8.008,0-3.65,2.58-7.525,10.075-7.525,7.538,0,10.088,4.115,10.3,7.482h-6.541c-.222-.917-.833-2.654-4.069-2.654-2.274,0-3.009,1.008-3.009,2.125,0,1.237.771,1.834,4.805,2.775,8.29,1.927,9.463,4.769,9.463,8.412,0,4.115-3.13,7.86-10.706,7.86-7.543,0-10.657-3.642-11.2-8.046Z" transform="translate(-218.499 -137.199)"/><path class="cls-2" d="M490.129,398.671h6.88v6.136h-6.88Zm0,10.193h6.88v24.848h-6.88Z" transform="translate(-218.499 -137.199)"/><path class="cls-2" d="M501.15,408.864h3.831v-6.727h6.88v6.727h4.868v5.172h-4.868V426.3c0,1.885.576,2.618,2.626,2.618a12.7,12.7,0,0,0,1.567-.077v4.732a15.648,15.648,0,0,1-4.624.475c-4.847,0-6.449-2.593-6.449-6.941V414.036H501.15Z" transform="translate(-218.499 -137.199)"/><path class="cls-2" d="M526.627,408.864c2.566,8.574,4.805,16.225,5.2,18.521h.048c.538-2.506,1.993-8.074,4.959-18.521h6.85l-8.349,25.564c-2.376,7.146-4.357,9.28-10.326,9.28-.611,0-2.031-.048-3.222-.187v-5.527c.466.054,1.223.1,1.779.1,2.527,0,3.8-.877,4.731-3.624l-9.042-25.608Z" transform="translate(-218.499 -137.199)"/><path class="cls-2" d="M582.412,421.24c0,7.518-4.5,13.048-12.37,13.048-7.706,0-12.2-5.5-12.2-12.916,0-7.667,4.638-13.084,12.528-13.084C577.681,408.288,582.412,413.45,582.412,421.24Zm-17.592.048c0,4.783,2.059,7.616,5.372,7.616,3.368,0,5.239-2.836,5.239-7.574,0-5.2-1.909-7.658-5.335-7.658C566.905,413.672,564.82,416.034,564.82,421.288Z" transform="translate(-218.499 -137.199)"/><path class="cls-2" d="M588.438,433.712V414.036h-3.622v-5.172h3.622v-2.182c0-5.131,2.546-8.492,7.923-8.492a14.221,14.221,0,0,1,3.2.294v5.432a8.954,8.954,0,0,0-1.452-.119c-2.029,0-2.79.748-2.79,3.4v1.664h4.345v5.172h-4.345v19.676Z" transform="translate(-218.499 -137.199)"/><path class="cls-2" d="M621.813,406.481H611.758v-5.865h27.236v5.865H628.976v27.231h-7.163Z" transform="translate(-218.499 -137.199)"/><path class="cls-2" d="M644.11,422.76c.006,3.107,1.563,6.144,4.988,6.144,2.864,0,3.682-1.149,4.335-2.653h6.885c-.881,3.042-3.594,8.037-11.4,8.037-8.184,0-11.734-6.12-11.734-12.639,0-7.8,4-13.361,11.98-13.361,8.534,0,11.436,6.174,11.436,12.376a15.161,15.161,0,0,1-.091,2.1Zm9.6-4.226c-.048-2.892-1.2-5.327-4.556-5.327-3.3,0-4.622,2.272-4.9,5.327Z" transform="translate(-218.499 -137.199)"/><path class="cls-2" d="M670.046,408.864c2.59,4.679,3.642,6.517,4.391,7.787h.047c.857-1.5,2.37-4.243,4.389-7.787h7.639l-8.058,11.828,8.032,13.02H678.7c-2.23-4.207-3.628-6.926-4.357-8.353H674.3c-.658,1.308-2.354,4.531-4.388,8.353h-7.517l7.693-12.108-7.648-12.74Z" transform="translate(-218.499 -137.199)"/><path class="cls-2" d="M710.748,427.292a55.728,55.728,0,0,0,.336,6.42h-6.572a10.147,10.147,0,0,1-.348-2.429c-.9,1.4-2.59,3-6.985,3-5.991,0-8.519-3.938-8.519-7.793,0-5.66,4.546-8.271,11.831-8.271h3.546v-1.519c0-1.767-.636-3.5-3.826-3.5-2.9,0-3.54,1.235-3.857,3.033h-6.541c.373-4.415,3.1-7.988,10.658-7.946,6.655.043,10.277,2.643,10.277,8.557Zm-6.705-4.892h-2.8c-4.145,0-5.682,1.266-5.682,3.662,0,1.8,1.1,3.313,3.576,3.313,4.372,0,4.909-3.039,4.909-6.322Z" transform="translate(-218.499 -137.199)"/><path class="cls-2" d="M721.947,426.242c.521,1.979,2.137,3.091,4.7,3.091,2.539,0,3.465-.912,3.465-2.417,0-1.6-1.067-2.221-4.627-3.095-8.094-2-9.419-4.5-9.419-8.008,0-3.65,2.58-7.525,10.076-7.525,7.538,0,10.087,4.115,10.3,7.482h-6.541c-.221-.917-.833-2.654-4.068-2.654-2.275,0-3.01,1.008-3.01,2.125,0,1.237.772,1.834,4.806,2.775,8.29,1.927,9.463,4.769,9.463,8.412,0,4.115-3.13,7.86-10.706,7.86-7.543,0-10.658-3.642-11.2-8.046Z" transform="translate(-218.499 -137.199)"/><path class="cls-2" d="M761.777,420.466v13.246h-6.993v-33.1h14.543c7.216,0,11.1,3.975,11.1,9.086,0,4.442-2.417,6.846-4.81,7.83,1.64.606,4.112,2.312,4.112,8.236V427.4a26.4,26.4,0,0,0,.475,6.31h-6.782c-.581-1.441-.691-3.917-.691-7.432V425.8c0-3.619-.914-5.331-6.248-5.331Zm0-5.7h6c3.918,0,5.429-1.49,5.429-4.258,0-2.692-1.759-4.2-5.258-4.2h-6.171Z" transform="translate(-218.499 -137.199)"/><path class="cls-2" d="M785.851,398.671h6.879v6.136h-6.879Zm0,10.193h6.879v24.848h-6.879Z" transform="translate(-218.499 -137.199)"/><path class="cls-2" d="M822.36,421.24c0,7.518-4.5,13.048-12.37,13.048-7.706,0-12.2-5.5-12.2-12.916,0-7.667,4.638-13.084,12.528-13.084C817.629,408.288,822.36,413.45,822.36,421.24Zm-17.591.048c0,4.783,2.058,7.616,5.372,7.616,3.367,0,5.238-2.836,5.238-7.574,0-5.2-1.908-7.658-5.335-7.658C806.854,413.672,804.769,416.034,804.769,421.288Z" transform="translate(-218.499 -137.199)"/><path class="cls-3" d="M869.017,433.712h-5.246a18.337,18.337,0,0,1-.546-3.264c-1.834,2.474-5.067,3.817-9.666,3.817-9.607,0-14.974-7.26-14.974-16.687,0-9.948,5.788-17.442,16.221-17.442,8.515,0,13.527,4.806,14.33,10.45h-7.157c-.679-2.217-2.427-4.838-7.27-4.838-6.795,0-8.733,5.683-8.733,11.518,0,5.694,2.217,11.3,8.778,11.3,6.118,0,7.245-4.247,7.245-7.208v-.3h-7.257V415.2h14.275Z" transform="translate(-218.499 -137.199)"/><path class="cls-2" d="M875.561,415.6c0-2.468-.006-4.662-.048-6.74h6.747c.091.557.18,3.023.18,4.363,1.1-2.84,3.747-4.915,7.973-4.939v6.565c-4.992-.128-7.973,1.214-7.973,8.026v10.833h-6.879Z" transform="translate(-218.499 -137.199)"/><path class="cls-2" d="M914.6,427.292a55.728,55.728,0,0,0,.336,6.42h-6.573a10.148,10.148,0,0,1-.347-2.429c-.9,1.4-2.59,3-6.986,3-5.991,0-8.518-3.938-8.518-7.793,0-5.66,4.546-8.271,11.831-8.271h3.546v-1.519c0-1.767-.636-3.5-3.826-3.5-2.9,0-3.541,1.235-3.857,3.033h-6.542c.373-4.415,3.1-7.988,10.658-7.946,6.656.043,10.278,2.643,10.278,8.557ZM907.9,422.4h-2.8c-4.146,0-5.683,1.266-5.683,3.662,0,1.8,1.1,3.313,3.576,3.313,4.372,0,4.91-3.039,4.91-6.322Z" transform="translate(-218.499 -137.199)"/><path class="cls-2" d="M921.2,415.124c0-2.112,0-4.424-.049-6.26h6.663a29.057,29.057,0,0,1,.265,3.166c.845-1.56,2.856-3.742,7.208-3.742,4.991,0,8.234,3.372,8.234,9.616v15.808h-6.879V418.669c0-2.793-.931-4.816-3.967-4.816-2.923,0-4.6,1.625-4.6,6.012v13.847H921.2Z" transform="translate(-218.499 -137.199)"/><path class="cls-2" d="M972.756,398.671v28.213c0,2.262,0,4.554.048,6.828h-6.615c-.138-.745-.27-2.029-.313-2.6-1.2,1.956-3.339,3.172-7.05,3.172-6.283,0-10.281-5.047-10.281-12.8,0-7.645,4.25-13.2,11.285-13.2,3.575,0,5.5,1.262,6.046,2.375V398.671Zm-17.145,22.64c0,4.844,1.887,7.466,5.255,7.466,4.731,0,5.276-3.945,5.276-7.515,0-4.249-.6-7.463-5.1-7.463C957.433,413.8,955.611,416.619,955.611,421.311Z" transform="translate(-218.499 -137.199)"/><path class="cls-2" d="M984.662,422.76c.006,3.107,1.563,6.144,4.987,6.144,2.865,0,3.683-1.149,4.335-2.653h6.886c-.882,3.042-3.6,8.037-11.4,8.037-8.184,0-11.735-6.12-11.735-12.639,0-7.8,4-13.361,11.981-13.361,8.534,0,11.435,6.174,11.435,12.376a15.328,15.328,0,0,1-.09,2.1Zm9.6-4.226c-.048-2.892-1.2-5.327-4.556-5.327-3.3,0-4.622,2.272-4.9,5.327Z" transform="translate(-218.499 -137.199)"/><path class="cls-2" d="M1026.311,433.712l-11.679-33.1h7.686l4.923,15.287c1.491,4.624,2.632,8.55,3.395,11.932h.1c.678-3.088,1.968-7.133,3.544-11.824l5.163-15.4h7.3l-11.989,33.1Z" transform="translate(-218.499 -137.199)"/><path class="cls-2" d="M1067.765,427.292a55.728,55.728,0,0,0,.336,6.42h-6.573a10.148,10.148,0,0,1-.347-2.429c-.9,1.4-2.591,3-6.986,3-5.991,0-8.518-3.938-8.518-7.793,0-5.66,4.546-8.271,11.831-8.271h3.546v-1.519c0-1.767-.636-3.5-3.826-3.5-2.9,0-3.54,1.235-3.857,3.033h-6.542c.373-4.415,3.1-7.988,10.658-7.946,6.656.043,10.278,2.643,10.278,8.557Zm-6.705-4.892h-2.8c-4.146,0-5.683,1.266-5.683,3.662,0,1.8,1.1,3.313,3.576,3.313,4.372,0,4.91-3.039,4.91-6.322Z" transform="translate(-218.499 -137.199)"/><path class="cls-2" d="M1074.325,433.712V398.671h6.88v35.041Z" transform="translate(-218.499 -137.199)"/><path class="cls-2" d="M1087.718,433.712V398.671h6.88v35.041Z" transform="translate(-218.499 -137.199)"/><path class="cls-2" d="M1106.582,422.76c.006,3.107,1.563,6.144,4.987,6.144,2.865,0,3.683-1.149,4.335-2.653h6.886c-.882,3.042-3.6,8.037-11.4,8.037-8.184,0-11.735-6.12-11.735-12.639,0-7.8,4-13.361,11.981-13.361,8.534,0,11.435,6.174,11.435,12.376a15.161,15.161,0,0,1-.091,2.1Zm9.6-4.226c-.048-2.892-1.2-5.327-4.556-5.327-3.3,0-4.622,2.272-4.9,5.327Z" transform="translate(-218.499 -137.199)"/><path class="cls-2" d="M1132.714,408.864c2.566,8.574,4.805,16.225,5.2,18.521h.048c.538-2.506,1.993-8.074,4.959-18.521h6.85l-8.349,25.564c-2.376,7.146-4.357,9.28-10.326,9.28-.611,0-2.031-.048-3.222-.187v-5.527c.466.054,1.223.1,1.779.1,2.527,0,3.8-.877,4.731-3.624l-9.042-25.608Z" transform="translate(-218.499 -137.199)"/><rect class="cls-2" x="551.331" y="292.563" width="12" height="4"/><path class="cls-4" d="M860.771,405.834v4.819h4.381v-7.886a28.068,28.068,0,0,0-3.724-1.095,24.665,24.665,0,0,0-6.352-.657,18.151,18.151,0,0,0-10.953,3.724,15.284,15.284,0,0,0-3.5,3.943,16.176,16.176,0,0,0-1.971,9.419,16.646,16.646,0,0,0,1.752,7.448,14.38,14.38,0,0,0,4.162,5.039c3.168,2.37,6.483,2.632,9.2,2.847a26.059,26.059,0,0,0,10.953-1.533v-9.858H868V418.32H856.609v3.724h3.5v7.01c-5.069,1.4-10.223.409-13.143-2.848-2.394-2.668-2.7-6.211-2.848-7.886a14.017,14.017,0,0,1,1.095-7.228,10.158,10.158,0,0,1,3.067-4.162,11.058,11.058,0,0,1,6.791-1.972A15.759,15.759,0,0,1,860.771,405.834Z" transform="translate(-218.499 -137.199)"/></g><g id="Layer_3" data-name="Layer 3"><path class="cls-5" d="M676.636,141.3V281.356a21.121,21.121,0,0,1-16.686,5.252c-.97-.131-9.828-1.476-14.461-9.454a24.435,24.435,0,0,1-15.945-4.552,21.8,21.8,0,0,1-8.528-13.655,23.477,23.477,0,0,1-8.528-12.255,22.06,22.06,0,0,1,.37-12.955,18.408,18.408,0,0,1,0-23.109c-.538-.808-3.887-6.023-1.854-12.255a14.79,14.79,0,0,1,5.562-7.352,15.88,15.88,0,0,1,1.854-12.255,16.265,16.265,0,0,1,5.562-5.252,16.825,16.825,0,0,1,2.6-9.454,18.667,18.667,0,0,1,9.27-7.353c4.767-9.067,8.539-11.133,10.753-12.255,2.26-1.144,3.979-.66,10.011-2.451,4.837-1.435,5.391-2.039,7.787-2.45C667.172,139.074,671.236,139.056,676.636,141.3Z" transform="translate(-218.499 -137.199)"/><path class="cls-5" d="M645.161,276.972a16.143,16.143,0,0,1,0-10.7,15.846,15.846,0,0,1,4.679-6.686" transform="translate(-218.499 -137.199)"/><path class="cls-5" d="M613.071,233.518a22.333,22.333,0,0,1,14.039-10.7" transform="translate(-218.499 -137.199)"/><path class="cls-5" d="M615.745,191.4a15.222,15.222,0,0,1,16.045-2.006" transform="translate(-218.499 -137.199)"/><path class="cls-5" d="M632.459,158.393a16.827,16.827,0,0,1,19.387,2.006" transform="translate(-218.499 -137.199)"/><path class="cls-5" d="M631.79,248.894a31.106,31.106,0,0,1,28.078-19.388" transform="translate(-218.499 -137.199)"/><path class="cls-5" d="M645.126,233.624a19.2,19.2,0,0,1-2.639-11.471,18.812,18.812,0,0,1,2.674-8.023" transform="translate(-218.499 -137.199)"/><path class="cls-5" d="M676.582,200.76a30.677,30.677,0,0,0-14.039-12.7,27.058,27.058,0,0,0-4.012-1.337" transform="translate(-218.499 -137.199)"/><path class="cls-5" d="M641.818,185.383a15.134,15.134,0,0,0-10.028,5.349c-4.652,5.746-2.867,12.671-2.674,13.37" transform="translate(-218.499 -137.199)"/><circle class="cls-6" cx="410.617" cy="66.569" r="0.669"/><circle class="cls-6" cx="440.423" cy="49.6" r="0.669"/><circle class="cls-6" cx="441.092" cy="92.386" r="0.669"/><path class="cls-6" d="M644.549,214.208a.669.669,0,1,0,.669-.668A.668.668,0,0,0,644.549,214.208Z" transform="translate(-218.499 -137.199)"/><circle class="cls-6" cx="431.398" cy="122.47" r="0.669"/><circle class="cls-6" cx="413.348" cy="111.773" r="0.669"/><circle class="cls-6" cx="408.334" cy="85.701" r="0.669"/><circle class="cls-6" cx="433.07" cy="22.914" r="0.669"/><circle class="cls-6" cx="423.042" cy="48.263" r="0.669"/><path class="cls-5" d="M676.582,172.013a13.456,13.456,0,0,1-14.708-4.68" transform="translate(-218.499 -137.199)"/><circle class="cls-6" cx="443.311" cy="30.156" r="0.669"/><path class="cls-5" d="M677.7,245.107a13.457,13.457,0,0,0-14.707,4.679" transform="translate(-218.499 -137.199)"/><circle class="cls-6" cx="444.426" cy="112.566" r="0.669"/><polyline class="cls-7" points="497.338 123.06 502.018 140.442 487.31 149.801 470.597 144.453 470.597 4.73 481.962 2.056 501.349 6.736 512.045 18.769 496.001 23.449"/><polyline class="cls-7" points="512.045 139.773 528.09 123.06 536.113 96.319 520.736 86.291"/><polyline class="cls-7" points="538.787 85.622 538.787 62.224 526.085 50.859 515.388 52.196 505.36 48.853"/><polyline class="cls-7" points="470.907 63.561 477.95 50.859 488.647 50.19"/><polyline class="cls-7" points="470.907 107.963 482.63 107.684 484.636 113.032"/><polyline class="cls-7" points="470.597 35.483 480.625 35.483 485.304 30.803"/><line class="cls-7" x1="515.388" y1="52.196" x2="518.731" y2="67.572"/><path class="cls-7" d="M705.809,230.175c.668,0,14.708,1.337,14.708,1.337l13.37,18.05" transform="translate(-218.499 -137.199)"/><polyline class="cls-7" points="502.018 94.313 505.36 86.291 502.018 77.6"/><path class="cls-7" d="M737.9,162.653c.669,0,12.034,10.7,12.034,10.7l2.674,10.028" transform="translate(-218.499 -137.199)"/><circle class="cls-8" cx="484.636" cy="30.803" r="1.337"/><circle class="cls-8" cx="488.647" cy="50.19" r="1.337"/><circle class="cls-8" cx="497.338" cy="123.06" r="1.337"/><circle class="cls-8" cx="485.636" cy="115.032" r="1.337"/><circle class="cls-8" cx="496.669" cy="23.449" r="1.337"/><circle class="cls-8" cx="505.36" cy="48.853" r="1.337"/><circle class="cls-8" cx="502.018" cy="77.6" r="1.337"/><circle class="cls-8" cx="487.31" cy="92.976" r="1.337"/><circle class="cls-8" cx="518.731" cy="67.572" r="1.337"/><circle class="cls-8" cx="520.736" cy="86.291" r="1.337"/><circle class="cls-8" cx="513.383" cy="138.436" r="1.337"/><circle class="cls-8" cx="515.388" cy="112.364" r="1.337"/><circle class="cls-8" cx="534.107" cy="44.842" r="1.337"/><circle class="cls-8" cx="538.787" cy="83.617" r="1.337"/><circle class="cls-8" cx="520.068" cy="26.123" r="1.337"/></g><g id="Layer_4" data-name="Layer 4"><rect class="cls-2" x="7.399" y="292.563" width="12" height="4"/><rect class="cls-2" x="28.394" y="292.563" width="12" height="4"/><rect class="cls-2" x="43.895" y="292.563" width="12" height="4"/><rect class="cls-2" x="96.864" y="263.184" width="12" height="4"/><rect class="cls-2" x="117.338" y="263.184" width="12" height="4"/><rect class="cls-2" x="400.331" y="292.563" width="12" height="4"/><rect class="cls-2" x="367.501" y="292.563" width="12" height="4"/><rect class="cls-2" x="224.666" y="292.563" width="12" height="4"/><rect class="cls-2" x="268.701" y="292.563" width="12" height="4"/><rect class="cls-2" x="146.262" y="292.563" width="12" height="4"/><rect class="cls-2" x="130.362" y="292.563" width="12" height="4"/><rect class="cls-2" x="159.389" y="292.563" width="12" height="4"/><rect class="cls-2" x="215.91" y="403.375" width="9.25" height="4" transform="translate(-403.339 488.711) rotate(-90)"/><rect class="cls-2" x="239.06" y="403.426" width="9.25" height="4" transform="translate(-380.24 511.912) rotate(-90)"/><rect class="cls-2" x="608.925" y="403.375" width="9.25" height="4" transform="translate(-10.324 881.726) rotate(-90)"/><rect class="cls-2" x="632.225" y="403.375" width="9.25" height="4" transform="translate(12.976 905.026) rotate(-90)"/><rect class="cls-2" x="28.395" y="261.401" width="9.441" height="4"/><rect class="cls-2" x="130.362" y="271.616" width="8.474" height="4"/><rect class="cls-2" x="224.666" y="271.601" width="8.17" height="4"/><rect class="cls-2" x="268.366" y="271.601" width="9.47" height="4"/><rect class="cls-2" x="159.003" y="271.601" width="9.47" height="4"/><rect class="cls-2" x="170.836" y="271.601" width="12" height="4"/><rect class="cls-2" x="185.836" y="271.601" width="12" height="4"/><rect class="cls-2" x="443.565" y="292.511" width="12" height="4"/><rect class="cls-2" x="456.565" y="292.511" width="12" height="4"/><rect class="cls-2" x="442.565" y="271.601" width="12" height="4"/><rect class="cls-2" x="456.565" y="271.601" width="12" height="4"/><rect class="cls-2" x="486.501" y="292.563" width="8" height="4"/><rect class="cls-2" x="533.501" y="292.563" width="12" height="4"/><rect class="cls-2" x="564.001" y="292.563" width="12" height="4"/><rect class="cls-2" x="564.001" y="271.651" width="9.5" height="4"/><rect class="cls-2" x="532.501" y="263.391" width="12" height="4"/><rect class="cls-2" x="654.501" y="292.563" width="12" height="4"/><rect class="cls-2" x="700.501" y="292.563" width="12" height="4"/><rect class="cls-2" x="716.501" y="292.563" width="12" height="4"/><rect class="cls-2" x="700.501" y="271.651" width="9" height="4"/><rect class="cls-2" x="690.501" y="292.563" width="8" height="4"/><rect class="cls-2" x="748.501" y="292.563" width="9" height="4"/><rect class="cls-2" x="744.501" y="261.451" width="9" height="4"/><rect class="cls-2" x="795.001" y="263.351" width="12" height="4"/><rect class="cls-2" x="817.501" y="263.351" width="12" height="4"/><rect class="cls-2" x="844.501" y="292.563" width="7.2" height="4"/><rect class="cls-2" x="904.501" y="271.451" width="12" height="4"/><rect class="cls-2" x="920.501" y="271.451" width="12" height="4"/><rect class="cls-2" x="866.501" y="292.563" width="12" height="4"/><rect class="cls-2" x="853.501" y="261.401" width="9" height="4"/><rect class="cls-2" x="866.501" y="261.401" width="9" height="4"/><rect class="cls-2" x="654.501" y="271.651" width="9" height="4"/><rect class="cls-1" x="124.201" y="229.601" width="18" height="6"/><rect class="cls-1" x="164.701" y="229.601" width="18" height="6"/><rect class="cls-1" x="261.501" y="229.601" width="18" height="6"/><rect class="cls-1" x="284.001" y="229.601" width="18" height="6"/><rect class="cls-1" x="304.501" y="229.601" width="18" height="6"/><rect class="cls-1" x="345.501" y="229.601" width="18" height="6"/><rect class="cls-1" x="323.501" y="229.601" width="18" height="6"/><rect class="cls-1" x="712.501" y="229.601" width="18" height="6"/><rect class="cls-1" x="689.501" y="229.601" width="18" height="6"/><rect class="cls-1" x="687.501" y="199.201" width="14" height="6"/><rect class="cls-1" x="588.501" y="229.601" width="18" height="6"/><rect class="cls-1" x="588.201" y="199.201" width="14" height="6"/><rect class="cls-1" x="548.501" y="229.601" width="18" height="6"/><rect class="cls-1" x="568.701" y="229.601" width="18" height="6"/><rect class="cls-1" x="548.601" y="184.401" width="13.9" height="6"/><rect class="cls-1" x="568.301" y="184.401" width="13.2" height="6"/><rect class="cls-1" x="443.501" y="229.601" width="18" height="6"/><rect class="cls-1" x="465.501" y="229.601" width="18" height="6"/><rect class="cls-1" x="443.501" y="199.201" width="13" height="6"/><rect class="cls-1" x="422.501" y="229.601" width="18" height="6"/><rect class="cls-1" x="422.501" y="187.301" width="18" height="6"/><rect class="cls-1" x="303.501" y="199.301" width="14" height="6"/><rect class="cls-1" x="322.501" y="199.201" width="13" height="6"/><rect class="cls-1" x="261.501" y="184.401" width="13" height="6"/><rect class="cls-1" x="209.501" y="229.601" width="13" height="6"/><rect class="cls-1" x="124.501" y="187.301" width="18" height="6"/><rect class="cls-1" x="165.501" y="187.301" width="18" height="6"/><rect class="cls-2" x="853.501" y="292.801" width="12" height="4"/></g></svg>