<svg xmlns="http://www.w3.org/2000/svg" viewBox="0 0 947.97 305.96"><defs><style>.cls-1,.cls-10,.cls-9{fill:#999;}.cls-2{fill:#f05023;}.cls-3,.cls-8{fill:#646469;}.cls-3{stroke:gray;}.cls-10,.cls-3,.cls-4,.cls-5,.cls-6,.cls-7,.cls-8,.cls-9{stroke-miterlimit:10;}.cls-3,.cls-4,.cls-6,.cls-8{stroke-width:3px;}.cls-4,.cls-5,.cls-6{fill:none;}.cls-10,.cls-4,.cls-5,.cls-9{stroke:#999;}.cls-6,.cls-7{stroke:#f05023;}.cls-7{fill:#1a1a1a;stroke-width:2px;}.cls-8{stroke:#c8c8c8;}.cls-9{stroke-width:0.5px;}</style></defs><title>utrgvmain2</title><g id="Layer_2" data-name="Layer 2"><path class="cls-1" d="M392.32,354.61c0-8.24.13-17.47.34-22.93h-.33c-2.27,9.85-7.1,25.93-11.72,41h-8.89c-3.52-13.2-8.51-31.52-10.63-41.16h-.32c.41,5.66.61,15.6.61,23.87v17.29h-9.51V324.45H367.4c3.76,12.61,8,28.43,9.43,35.62h.08c1.18-6.34,6.48-23.26,10.51-35.62h15v48.26H392.32Z" transform="translate(-210.15 -137.75)"/><path class="cls-1" d="M441.37,363.35a82.11,82.11,0,0,0,.48,9.36h-9.58a15,15,0,0,1-.51-3.54c-1.31,2-3.77,4.38-10.18,4.38-8.74,0-12.43-5.74-12.43-11.36,0-8.26,6.63-12.07,17.26-12.07h5.17v-2.21c0-2.58-.93-5.11-5.58-5.11-4.24,0-5.16,1.8-5.63,4.42h-9.54c.55-6.44,4.53-11.65,15.55-11.58,9.7.06,15,3.85,15,12.47Zm-9.78-7.13H427.5c-6.05,0-8.29,1.84-8.29,5.33,0,2.63,1.61,4.84,5.22,4.84,6.37,0,7.16-4.43,7.16-9.22Z" transform="translate(-210.15 -137.75)"/><path class="cls-1" d="M481.6,361c-1.25,6-5.49,12.55-16.29,12.55-11.28,0-17.08-7.8-17.08-18.69,0-10.7,6.53-19.22,17.56-19.22,12.22,0,15.62,8.76,15.81,12.86h-9.79c-.62-2.95-2.29-5-6.21-5-4.59,0-7.18,4-7.18,11,0,7.72,2.74,11.23,7.14,11.23,3.44,0,5.29-2,6.19-4.76Z" transform="translate(-210.15 -137.75)"/><path class="cls-1" d="M497.79,321.61v19.14c1.59-2.34,4.52-5.11,10.38-5.11,6.75,0,12.14,4,12.14,13.82v23.25h-10V351c0-4.71-1.67-7.21-5.87-7.21-5.58,0-6.67,4.15-6.67,9.74v19.22h-10v-51.1Z" transform="translate(-210.15 -137.75)"/><path class="cls-1" d="M529.33,321.61h10v8.95h-10Zm0,14.87h10v36.23h-10Z" transform="translate(-210.15 -137.75)"/><path class="cls-1" d="M548.43,345.6c0-3.08,0-6.45-.07-9.12h9.72a44.88,44.88,0,0,1,.39,4.61c1.23-2.27,4.16-5.45,10.51-5.45,7.28,0,12,4.91,12,14v23H571V350.77c0-4.07-1.36-7-5.78-7-4.26,0-6.7,2.37-6.7,8.77v20.19h-10Z" transform="translate(-210.15 -137.75)"/><path class="cls-1" d="M597.86,356.74c0,4.53,2.28,9,7.27,9,4.18,0,5.37-1.68,6.33-3.87h10c-1.29,4.44-5.24,11.72-16.63,11.72-11.93,0-17.11-8.92-17.11-18.43,0-11.37,5.83-19.48,17.47-19.48,12.44,0,16.68,9,16.68,18a21,21,0,0,1-.14,3.06Zm14-6.16c-.07-4.22-1.76-7.77-6.65-7.77s-6.74,3.31-7.14,7.77Z" transform="translate(-210.15 -137.75)"/><path class="cls-1" d="M656.72,324.45v48.26H646.28V324.45Z" transform="translate(-210.15 -137.75)"/><path class="cls-1" d="M666,345.6c0-3.08,0-6.45-.07-9.12h9.72a42.33,42.33,0,0,1,.38,4.61c1.24-2.27,4.17-5.45,10.51-5.45,7.28,0,12,4.91,12,14v23h-10V350.77c0-4.07-1.36-7-5.78-7s-6.71,2.37-6.71,8.77v20.19H666Z" transform="translate(-210.15 -137.75)"/><path class="cls-1" d="M703.18,336.48h5.59v-9.82h10v9.82h7.1V344h-7.1V361.9c0,2.75.84,3.82,3.83,3.82a19.24,19.24,0,0,0,2.29-.11v6.9a23,23,0,0,1-6.75.69c-7.07,0-9.4-3.78-9.4-10.12V344h-5.59Z" transform="translate(-210.15 -137.75)"/><path class="cls-1" d="M739.4,356.74c0,4.53,2.28,9,7.27,9,4.18,0,5.37-1.68,6.32-3.87h10c-1.29,4.44-5.25,11.72-16.63,11.72-11.94,0-17.12-8.92-17.12-18.43,0-11.37,5.84-19.48,17.48-19.48,12.44,0,16.67,9,16.67,18a22.57,22.57,0,0,1-.13,3.06Zm14-6.16c-.07-4.22-1.75-7.77-6.64-7.77s-6.74,3.31-7.14,7.77Z" transform="translate(-210.15 -137.75)"/><path class="cls-1" d="M770.27,372.71v-51.1h10v51.1Z" transform="translate(-210.15 -137.75)"/><path class="cls-1" d="M789.31,372.71v-51.1h10v51.1Z" transform="translate(-210.15 -137.75)"/><path class="cls-1" d="M808.34,321.61h10v8.95h-10Zm0,14.87h10v36.23h-10Z" transform="translate(-210.15 -137.75)"/><path class="cls-1" d="M860.35,368.3c0,11.63-4.29,19-18,19-13.23,0-15.84-7.39-16.18-11.48h10.22c.71,2.49,2.54,4.18,6.41,4.18,6.51,0,7.74-4,7.74-11.07v-1.73c-1.89,3.13-4.89,5.09-10.21,5.09-9.55,0-15-7.82-15-17.56,0-11.33,6.79-19.08,15.85-19.08,6.21,0,8.8,2.92,9.35,4.61.07-1,.32-3.18.4-3.77h9.51c-.06,3.23-.08,6.91-.08,10.39Zm-24.72-14c0,6.23,3.11,9.91,7.55,9.91,6,0,7.66-4.14,7.66-10.22s-1.08-10.29-7.45-10.29C839,343.67,835.63,347,835.63,354.27Z" transform="translate(-210.15 -137.75)"/><path class="cls-1" d="M877.5,356.74c0,4.53,2.28,9,7.28,9,4.18,0,5.37-1.68,6.32-3.87h10c-1.28,4.44-5.24,11.72-16.63,11.72-11.93,0-17.11-8.92-17.11-18.43,0-11.37,5.83-19.48,17.47-19.48,12.45,0,16.68,9,16.68,18a22.57,22.57,0,0,1-.13,3.06Zm14-6.16c-.07-4.22-1.75-7.77-6.64-7.77s-6.75,3.31-7.15,7.77Z" transform="translate(-210.15 -137.75)"/><path class="cls-1" d="M908.64,345.6c0-3.08,0-6.45-.07-9.12h9.72a44.88,44.88,0,0,1,.39,4.61c1.23-2.27,4.16-5.45,10.51-5.45,7.28,0,12,4.91,12,14v23h-10V350.77c0-4.07-1.35-7-5.78-7-4.26,0-6.7,2.37-6.7,8.77v20.19h-10Z" transform="translate(-210.15 -137.75)"/><path class="cls-1" d="M981.46,361c-1.25,6-5.49,12.55-16.29,12.55-11.28,0-17.08-7.8-17.08-18.69,0-10.7,6.53-19.22,17.56-19.22,12.22,0,15.61,8.76,15.81,12.86h-9.79c-.62-2.95-2.3-5-6.21-5-4.59,0-7.19,4-7.19,11,0,7.72,2.75,11.23,7.15,11.23,3.44,0,5.29-2,6.19-4.76Z" transform="translate(-210.15 -137.75)"/><path class="cls-1" d="M996.15,356.74c0,4.53,2.28,9,7.27,9,4.18,0,5.37-1.68,6.33-3.87h10c-1.29,4.44-5.24,11.72-16.63,11.72-11.93,0-17.11-8.92-17.11-18.43,0-11.37,5.83-19.48,17.47-19.48,12.44,0,16.68,9,16.68,18a21,21,0,0,1-.14,3.06Zm14-6.16c-.07-4.22-1.76-7.77-6.65-7.77s-6.74,3.31-7.14,7.77Z" transform="translate(-210.15 -137.75)"/><path class="cls-2" d="M220.2,406.48h-10v-5.86h27.23v5.86h-10v27.23H220.2Z" transform="translate(-210.15 -137.75)"/><path class="cls-2" d="M247.94,398.67V411.8a8,8,0,0,1,7.12-3.51c4.63,0,8.32,2.74,8.32,9.48v15.94h-6.84V418.8c0-3.23-1.14-4.95-4-4.95-3.82,0-4.57,2.85-4.57,6.68v13.18h-6.88v-35Z" transform="translate(-210.15 -137.75)"/><path class="cls-2" d="M275,422.76c0,3.11,1.57,6.14,5,6.14,2.87,0,3.68-1.15,4.34-2.65h6.88c-.88,3-3.59,8-11.4,8-8.18,0-11.73-6.12-11.73-12.64,0-7.8,4-13.36,12-13.36,8.53,0,11.43,6.17,11.43,12.37a15.34,15.34,0,0,1-.09,2.1Zm9.6-4.23c-.05-2.89-1.2-5.32-4.56-5.32s-4.62,2.27-4.89,5.32Z" transform="translate(-210.15 -137.75)"/><path class="cls-2" d="M315,400.62v19.72c0,6.35,3.26,8.23,6.83,8.23,4.1,0,6.67-2.23,6.67-8.23V400.62h7.16V420c0,11.32-6.62,14.2-13.92,14.2-7.47,0-13.91-3-13.91-14.06v-19.5Z" transform="translate(-210.15 -137.75)"/><path class="cls-2" d="M341.37,415.12c0-2.11,0-4.42-.05-6.26H348a27.66,27.66,0,0,1,.26,3.17c.85-1.56,2.86-3.74,7.21-3.74,5,0,8.23,3.37,8.23,9.61v15.81h-6.88v-15c0-2.79-.93-4.82-4-4.82s-4.6,1.63-4.6,6v13.84h-6.88Z" transform="translate(-210.15 -137.75)"/><path class="cls-2" d="M369.79,398.67h6.88v6.14h-6.88Zm0,10.19h6.88v24.85h-6.88Z" transform="translate(-210.15 -137.75)"/><path class="cls-2" d="M387.61,408.86c2.37,8.42,4.34,15.78,4.82,18.77h.05c.7-4.1,3.13-11.59,5.3-18.77h6.85l-8.77,24.85h-7.24l-8.42-24.85Z" transform="translate(-210.15 -137.75)"/><path class="cls-2" d="M413.09,422.76c0,3.11,1.56,6.14,5,6.14,2.86,0,3.68-1.15,4.33-2.65h6.89c-.88,3-3.6,8-11.4,8-8.19,0-11.74-6.12-11.74-12.64,0-7.8,4-13.36,12-13.36,8.54,0,11.44,6.17,11.44,12.37a15.34,15.34,0,0,1-.09,2.1Zm9.6-4.23c-.05-2.89-1.21-5.32-4.56-5.32s-4.62,2.27-4.9,5.32Z" transform="translate(-210.15 -137.75)"/><path class="cls-2" d="M434.4,415.6c0-2.46,0-4.66,0-6.74h6.75c.09.56.18,3,.18,4.37,1.1-2.84,3.75-4.92,8-4.94v6.56c-5-.13-8,1.22-8,8v10.83H434.4Z" transform="translate(-210.15 -137.75)"/><path class="cls-2" d="M458.38,426.24c.52,2,2.14,3.09,4.71,3.09s3.46-.91,3.46-2.41-1.07-2.22-4.63-3.1c-8.09-2-9.41-4.5-9.41-8s2.58-7.52,10.07-7.52,10.09,4.11,10.3,7.48h-6.54c-.22-.92-.83-2.65-4.07-2.65-2.27,0-3,1-3,2.12s.78,1.84,4.81,2.78c8.29,1.92,9.46,4.77,9.46,8.41,0,4.11-3.13,7.86-10.7,7.86s-10.66-3.64-11.21-8.05Z" transform="translate(-210.15 -137.75)"/><path class="cls-2" d="M478.08,398.67H485v6.14h-6.88Zm0,10.19H485v24.85h-6.88Z" transform="translate(-210.15 -137.75)"/><path class="cls-2" d="M488.77,408.86h3.83v-6.72h6.88v6.72h4.86V414h-4.86V426.3c0,1.88.57,2.62,2.62,2.62a13.07,13.07,0,0,0,1.57-.08v4.73a15.47,15.47,0,0,1-4.63.48c-4.84,0-6.44-2.59-6.44-6.94V414h-3.83Z" transform="translate(-210.15 -137.75)"/><path class="cls-2" d="M513.91,408.86c2.56,8.58,4.8,16.23,5.19,18.52h0c.54-2.5,2-8.07,5-18.52H531l-8.35,25.57c-2.37,7.14-4.36,9.28-10.32,9.28-.61,0-2,0-3.23-.19V438a16.35,16.35,0,0,0,1.78.11c2.53,0,3.8-.88,4.73-3.63l-9-25.61Z" transform="translate(-210.15 -137.75)"/><path class="cls-2" d="M569,421.24c0,7.52-4.5,13.05-12.37,13.05-7.71,0-12.2-5.5-12.2-12.92,0-7.66,4.63-13.08,12.52-13.08C564.29,408.29,569,413.45,569,421.24Zm-17.59.05c0,4.78,2.06,7.61,5.37,7.61s5.24-2.83,5.24-7.57c0-5.2-1.91-7.66-5.34-7.66C553.51,413.67,551.43,416,551.43,421.29Z" transform="translate(-210.15 -137.75)"/><path class="cls-2" d="M574.71,433.71V414h-3.62v-5.18h3.62v-2.18c0-5.13,2.54-8.49,7.92-8.49a14.42,14.42,0,0,1,3.2.29v5.44a8.38,8.38,0,0,0-1.45-.12c-2,0-2.79.74-2.79,3.4v1.66h4.34V414h-4.34v19.67Z" transform="translate(-210.15 -137.75)"/><path class="cls-2" d="M607.41,406.48h-10v-5.86h27.23v5.86h-10v27.23h-7.16Z" transform="translate(-210.15 -137.75)"/><path class="cls-2" d="M629.37,422.76c0,3.11,1.57,6.14,5,6.14,2.86,0,3.68-1.15,4.34-2.65h6.88c-.88,3-3.59,8-11.4,8-8.18,0-11.73-6.12-11.73-12.64,0-7.8,4-13.36,12-13.36,8.53,0,11.43,6.17,11.43,12.37a15.34,15.34,0,0,1-.09,2.1Zm9.6-4.23c-.05-2.89-1.2-5.32-4.56-5.32s-4.62,2.27-4.89,5.32Z" transform="translate(-210.15 -137.75)"/><path class="cls-2" d="M655,408.86c2.59,4.68,3.64,6.52,4.39,7.79h0c.86-1.5,2.37-4.24,4.39-7.79h7.64l-8.06,11.83,8,13h-7.78c-2.23-4.21-3.63-6.92-4.36-8.35h0c-.65,1.31-2.35,4.53-4.38,8.35h-7.52L655,421.6l-7.64-12.74Z" transform="translate(-210.15 -137.75)"/><path class="cls-2" d="M695.34,427.29a57.24,57.24,0,0,0,.33,6.42H689.1a10.7,10.7,0,0,1-.35-2.43c-.9,1.4-2.59,3-7,3-6,0-8.52-3.94-8.52-7.79,0-5.67,4.55-8.28,11.83-8.28h3.55v-1.51c0-1.77-.64-3.51-3.83-3.51-2.9,0-3.54,1.24-3.85,3H674.4c.38-4.41,3.11-8,10.66-7.94,6.66,0,10.28,2.64,10.28,8.55Zm-6.71-4.89h-2.8c-4.14,0-5.68,1.27-5.68,3.66,0,1.8,1.1,3.32,3.57,3.32,4.38,0,4.91-3,4.91-6.33Z" transform="translate(-210.15 -137.75)"/><path class="cls-2" d="M706.2,426.24c.52,2,2.14,3.09,4.71,3.09s3.46-.91,3.46-2.41-1.07-2.22-4.63-3.1c-8.09-2-9.41-4.5-9.41-8s2.58-7.52,10.07-7.52,10.09,4.11,10.3,7.48h-6.54c-.22-.92-.83-2.65-4.07-2.65-2.27,0-3,1-3,2.12s.78,1.84,4.81,2.78c8.29,1.92,9.46,4.77,9.46,8.41,0,4.11-3.13,7.86-10.7,7.86s-10.66-3.64-11.21-8.05Z" transform="translate(-210.15 -137.75)"/><path class="cls-2" d="M750.37,418.37v6H737v-6Z" transform="translate(-210.15 -137.75)"/><path class="cls-2" d="M775.5,420.47v13.24h-7V400.62h14.54c7.22,0,11.1,4,11.1,9.08,0,4.44-2.41,6.85-4.81,7.83,1.64.61,4.12,2.31,4.12,8.24v1.63a26.15,26.15,0,0,0,.47,6.31h-6.78c-.58-1.44-.69-3.92-.69-7.43v-.48c0-3.62-.92-5.33-6.25-5.33Zm0-5.7h6c3.92,0,5.43-1.49,5.43-4.26s-1.76-4.2-5.26-4.2H775.5Z" transform="translate(-210.15 -137.75)"/><path class="cls-2" d="M799.24,398.67h6.88v6.14h-6.88Zm0,10.19h6.88v24.85h-6.88Z" transform="translate(-210.15 -137.75)"/><path class="cls-2" d="M835.41,421.24c0,7.52-4.5,13.05-12.37,13.05-7.7,0-12.2-5.5-12.2-12.92,0-7.66,4.64-13.08,12.53-13.08C830.68,408.29,835.41,413.45,835.41,421.24Zm-17.59.05c0,4.78,2.06,7.61,5.37,7.61s5.24-2.83,5.24-7.57c0-5.2-1.91-7.66-5.33-7.66C819.91,413.67,817.82,416,817.82,421.29Z" transform="translate(-210.15 -137.75)"/><path class="cls-2" d="M881.4,433.71h-5.25a19,19,0,0,1-.54-3.26c-1.84,2.47-5.07,3.81-9.67,3.81-9.61,0-15-7.26-15-16.68,0-9.95,5.78-17.44,16.22-17.44,8.51,0,13.52,4.8,14.33,10.45h-7.16c-.68-2.22-2.43-4.84-7.27-4.84-6.8,0-8.73,5.68-8.73,11.52s2.21,11.3,8.77,11.3c6.12,0,7.25-4.25,7.25-7.21v-.3h-7.26V415.2H881.4Z" transform="translate(-210.15 -137.75)"/><path class="cls-2" d="M887.61,415.6c0-2.46,0-4.66-.05-6.74h6.74c.1.56.19,3,.19,4.37,1.09-2.84,3.74-4.92,8-4.94v6.56c-5-.13-8,1.22-8,8v10.83h-6.88Z" transform="translate(-210.15 -137.75)"/><path class="cls-2" d="M926.31,427.29a57.24,57.24,0,0,0,.33,6.42h-6.57a10.7,10.7,0,0,1-.35-2.43c-.9,1.4-2.59,3-7,3-6,0-8.52-3.94-8.52-7.79,0-5.67,4.55-8.28,11.83-8.28h3.55v-1.51c0-1.77-.64-3.51-3.83-3.51-2.9,0-3.54,1.24-3.85,3h-6.55c.38-4.41,3.11-8,10.66-7.94,6.66,0,10.28,2.64,10.28,8.55Zm-6.71-4.89h-2.8c-4.14,0-5.68,1.27-5.68,3.66,0,1.8,1.1,3.32,3.57,3.32,4.38,0,4.91-3,4.91-6.33Z" transform="translate(-210.15 -137.75)"/><path class="cls-2" d="M932.58,415.12c0-2.11,0-4.42-.05-6.26h6.66a27.66,27.66,0,0,1,.26,3.17c.85-1.56,2.86-3.74,7.21-3.74,5,0,8.24,3.37,8.24,9.61v15.81H948v-15c0-2.79-.93-4.82-4-4.82s-4.6,1.63-4.6,6v13.84h-6.87Z" transform="translate(-210.15 -137.75)"/><path class="cls-2" d="M983.79,398.67v28.21c0,2.27,0,4.56.05,6.83h-6.61c-.14-.74-.27-2-.32-2.59-1.2,1.95-3.34,3.17-7,3.17-6.28,0-10.28-5.05-10.28-12.8s4.25-13.2,11.29-13.2c3.57,0,5.49,1.26,6,2.37v-12Zm-17.14,22.64c0,4.85,1.89,7.47,5.25,7.47,4.73,0,5.28-3.95,5.28-7.52,0-4.25-.6-7.46-5.1-7.46C968.47,413.8,966.65,416.62,966.65,421.31Z" transform="translate(-210.15 -137.75)"/><path class="cls-2" d="M995.36,422.76c0,3.11,1.57,6.14,5,6.14,2.86,0,3.68-1.15,4.34-2.65h6.88c-.88,3-3.59,8-11.4,8-8.18,0-11.73-6.12-11.73-12.64,0-7.8,4-13.36,12-13.36,8.53,0,11.43,6.17,11.43,12.37a15.34,15.34,0,0,1-.09,2.1Zm9.6-4.23c-.05-2.89-1.2-5.32-4.56-5.32s-4.62,2.27-4.89,5.32Z" transform="translate(-210.15 -137.75)"/><path class="cls-2" d="M1036.34,433.71l-11.68-33.09h7.69l4.92,15.28c1.49,4.63,2.63,8.55,3.4,11.93h.09c.68-3.08,2-7.13,3.54-11.82l5.17-15.39h7.3l-12,33.09Z" transform="translate(-210.15 -137.75)"/><path class="cls-2" d="M1077.46,427.29a57.24,57.24,0,0,0,.33,6.42h-6.57a10.7,10.7,0,0,1-.35-2.43c-.9,1.4-2.59,3-7,3-6,0-8.52-3.94-8.52-7.79,0-5.67,4.55-8.28,11.83-8.28h3.55v-1.51c0-1.77-.64-3.51-3.83-3.51-2.9,0-3.54,1.24-3.86,3h-6.54c.38-4.41,3.11-8,10.66-7.94,6.66,0,10.28,2.64,10.28,8.55Zm-6.71-4.89H1068c-4.15,0-5.68,1.27-5.68,3.66,0,1.8,1.1,3.32,3.57,3.32,4.38,0,4.91-3,4.91-6.33Z" transform="translate(-210.15 -137.75)"/><path class="cls-2" d="M1083.68,433.71v-35h6.88v35Z" transform="translate(-210.15 -137.75)"/><path class="cls-2" d="M1096.74,433.71v-35h6.88v35Z" transform="translate(-210.15 -137.75)"/><path class="cls-2" d="M1115.27,422.76c0,3.11,1.56,6.14,5,6.14,2.87,0,3.69-1.15,4.34-2.65h6.88c-.88,3-3.59,8-11.4,8-8.18,0-11.73-6.12-11.73-12.64,0-7.8,4-13.36,12-13.36,8.53,0,11.43,6.17,11.43,12.37a15.34,15.34,0,0,1-.09,2.1Zm9.59-4.23c0-2.89-1.2-5.32-4.55-5.32s-4.62,2.27-4.9,5.32Z" transform="translate(-210.15 -137.75)"/><path class="cls-2" d="M1141.06,408.86c2.57,8.58,4.81,16.23,5.2,18.52h0c.54-2.5,2-8.07,5-18.52h6.85l-8.35,25.57c-2.38,7.14-4.36,9.28-10.33,9.28a32.25,32.25,0,0,1-3.22-.19V438a16.19,16.19,0,0,0,1.78.11c2.53,0,3.8-.88,4.73-3.63l-9-25.61Z" transform="translate(-210.15 -137.75)"/><path class="cls-3" d="M692.79,144.65" transform="translate(-210.15 -137.75)"/><polyline class="cls-4" points="485 19.66 485 4.31 512.52 4.31 525.6 17.74"/><polyline class="cls-4" points="545.44 58.72 526.85 53.84 526.18 40.58"/><polyline class="cls-4" points="537.45 126.39 532.8 111.74 539.44 95"/><polyline class="cls-4" points="512.88 103.37 516.86 113.13 532.8 111.74"/><polyline class="cls-4" points="499.6 122.9 512.22 127.09 516.86 113.13"/><polyline class="cls-4" points="485 83.83 485 105.46 492.96 112.44 501.59 109.65"/><path class="cls-5" d="M708.75,232.4" transform="translate(-210.15 -137.75)"/><polyline class="cls-4" points="525.83 93.34 531.14 75.21 546.41 75.21"/><polyline class="cls-4" points="484.66 21.4 491.3 15.12 501.93 15.12"/><polyline class="cls-4" points="484.66 83.48 496.62 83.48 503.25 78.6"/><polyline class="cls-4" points="485.33 130.92 503.92 138.6 519.19 134.41 525.16 124.64"/><polyline class="cls-4" points="498.61 93.95 513.88 93.95 517.2 82.79"/><path class="cls-5" d="M756.55,215" transform="translate(-210.15 -137.75)"/><path class="cls-5" d="M756.55,215" transform="translate(-210.15 -137.75)"/><polyline class="cls-4" points="484.35 39.53 484.35 65.35 495.08 65.35 503.13 56.98"/><polyline class="cls-4" points="509.17 31.86 513.86 18.61 527.27 19.3 540.35 41.28"/><polyline class="cls-4" points="516.54 69.53 516.54 52.09 511.85 45.12"/><line class="cls-4" x1="540.68" y1="40.93" x2="545.38" y2="58.37"/><polyline class="cls-4" points="484.35 39.53 495.08 39.53 497.1 26.98"/><path class="cls-6" d="M684.31,141.31V284.85a20.89,20.89,0,0,1-16.73,5.38c-1-.13-9.86-1.51-14.51-9.69a24.07,24.07,0,0,1-16-4.66,22.45,22.45,0,0,1-8.56-14A24,24,0,0,1,620,249.32a23.07,23.07,0,0,1,.37-13.27,19.2,19.2,0,0,1,0-23.69,15.25,15.25,0,0,1-1.86-12.56,15.06,15.06,0,0,1,5.58-7.53,15.93,15.93,0,0,1,7.44-18,17.58,17.58,0,0,1,2.6-9.69,18.82,18.82,0,0,1,9.3-7.53c4.78-9.29,8.57-11.41,10.79-12.56s4-.68,10-2.51c4.85-1.47,5.41-2.09,7.81-2.52C674.82,139,678.9,139,684.31,141.31Z" transform="translate(-210.15 -137.75)"/><path class="cls-6" d="M629,261.81l4.7-15.08c.95.25,19.46,4.94,22.13-.68.43-.92.73-2.73-1.35-6.17" transform="translate(-210.15 -137.75)"/><path class="cls-6" d="M628.32,222.07a26.22,26.22,0,0,0-.67,9.68,29,29,0,0,0,8.05,16.35" transform="translate(-210.15 -137.75)"/><path class="cls-6" d="M650.28,248.62c0,8.82,6.11,14.85,11.57,14.56s8.54-6.5,8.72-6.85" transform="translate(-210.15 -137.75)"/><path class="cls-6" d="M623.86,192.35c4.23,2.78,6.54,2.51,7.81,1.94,5.19-2.33,1.52-13.56,8.05-18.5,3.91-3,7.57-.72,11.4-4.8,2.26-2.4,3.81-6.18,2.68-7.53-1.63-2-8.58,1.52-12.07,3.42" transform="translate(-210.15 -137.75)"/><path class="cls-6" d="M663.86,244c3,2.08,7,4.26,9.39,2.74,1-.63,1.13-1.54,2-2.74,1.23-1.66,3.66-3.56,9-4.11" transform="translate(-210.15 -137.75)"/><path class="cls-6" d="M637,259.07c1.05,1.51,9.88,13.8,25.48,14.38a32.53,32.53,0,0,0,21.79-7.68" transform="translate(-210.15 -137.75)"/><path class="cls-6" d="M647.77,218a60.58,60.58,0,0,1,4,6.85c2.35,4.67,2.87,7.19,4.7,7.53s2.61-1.78,5.36-2.74c3.08-1.07,6.3.08,8.72,1.37" transform="translate(-210.15 -137.75)"/><path class="cls-6" d="M620.89,212c1.12-1.33,2.74-3.21,4.75-5.43,4.63-5.12,5.62-5.69,6.09-5.42s.3,1.19,0,4.11-.59,5.31-.74,6.84" transform="translate(-210.15 -137.75)"/><path class="cls-6" d="M665.2,152.18a17.09,17.09,0,0,1,10.06,0,17.44,17.44,0,0,1,9,6.68" transform="translate(-210.15 -137.75)"/><path class="cls-6" d="M661.85,209.05c1.93,5.37,4.28,7,6,7.54,2.9.87,4.88-1.09,8.71-.69a13.21,13.21,0,0,1,7.71,4" transform="translate(-210.15 -137.75)"/><path class="cls-6" d="M641.73,233.34a33,33,0,0,1-4-21.24,31.08,31.08,0,0,1,4-11" transform="translate(-210.15 -137.75)"/><path class="cls-6" d="M641.73,188.12a14.29,14.29,0,0,0-1.34,10.28c1.74,6.12,8.13,10.16,10.06,8.91s-1.68-6.57,0-14.39a23.18,23.18,0,0,1,4.69-9.59" transform="translate(-210.15 -137.75)"/><path class="cls-6" d="M684.31,176.5a11.9,11.9,0,0,0-5-1c-2.8.07-4,1.18-6,.69-1.07-.26-2.55-1-4-3.43" transform="translate(-210.15 -137.75)"/><path class="cls-6" d="M660.51,194c6.35-4.53,7.6-7.91,7.38-10.27-.45-4.74-6.88-6.29-8-12.34-.66-3.42.68-6.63,2-8.9" transform="translate(-210.15 -137.75)"/><path class="cls-6" d="M643.74,157a31.95,31.95,0,0,1,12.75-2.89c2.8,7.72,5.49,9.41,7.37,9.59,3.82.37,6.86-5.19,9.39-4.11,1.6.67,1.94,3.53,2,5.48" transform="translate(-210.15 -137.75)"/><path class="cls-6" d="M684.63,203.34c-2.55-3.21-4.92-4.25-6.69-4.57s-3,.12-4-.68c-1.68-1.33-1.3-4.74-.67-7.54" transform="translate(-210.15 -137.75)"/><ellipse class="cls-7" cx="451.7" cy="71.3" rx="0.67" ry="0.69"/><ellipse class="cls-7" cx="463.1" cy="52.8" rx="0.67" ry="0.69"/><ellipse class="cls-7" cx="450.36" cy="56.22" rx="0.67" ry="0.69"/><ellipse class="cls-7" cx="459.08" cy="34.98" rx="0.67" ry="0.69"/><ellipse class="cls-7" cx="465.11" cy="28.13" rx="0.67" ry="0.69"/><ellipse class="cls-7" cx="455.06" cy="14.43" rx="0.67" ry="0.69"/><ellipse class="cls-7" cx="431.59" cy="29.13" rx="0.67" ry="0.69"/><ellipse class="cls-7" cx="445" cy="45.58" rx="0.67" ry="0.69"/><ellipse class="cls-7" cx="431.59" cy="50.37" rx="0.67" ry="0.69"/><ellipse class="cls-7" cx="437.62" cy="80.2" rx="0.67" ry="0.69"/><ellipse class="cls-7" cx="460.42" cy="93.22" rx="0.67" ry="0.69"/><ellipse class="cls-7" cx="453.71" cy="106.24" rx="0.67" ry="0.69"/><ellipse class="cls-7" cx="444.33" cy="102.13" rx="0.67" ry="0.69"/><ellipse class="cls-7" cx="460.42" cy="118.57" rx="0.67" ry="0.69"/><ellipse class="cls-7" cx="426.89" cy="121.32" rx="0.67" ry="0.69"/><ellipse class="cls-7" cx="431.59" cy="95.59" rx="0.67" ry="0.69"/><ellipse class="cls-7" cx="420.86" cy="74.41" rx="0.67" ry="0.69"/><ellipse class="cls-7" cx="418.05" cy="84.75" rx="0.67" ry="0.69"/><path class="cls-4" d="M756.5,211.58l2.63,25.47q-5.26,14.4-10.52,28.78l-21.92,21.23-20.17.94-11.39-5.66V269.13" transform="translate(-210.15 -137.75)"/></g><g id="Layer_3" data-name="Layer 3"><path class="cls-8" d="M692.71,145.09" transform="translate(-210.15 -137.75)"/><ellipse class="cls-9" cx="484.59" cy="39.98" rx="3.32" ry="3.49"/><ellipse class="cls-9" cx="484.59" cy="64.79" rx="3.32" ry="3.49"/><ellipse class="cls-9" cx="484.59" cy="131.37" rx="3.32" ry="3.49"/><ellipse class="cls-9" cx="484.59" cy="83.93" rx="3.32" ry="3.49"/><ellipse class="cls-9" cx="485.59" cy="145.23" rx="3.32" ry="3.49"/><ellipse class="cls-9" cx="484.59" cy="5.09" rx="3.32" ry="3.49"/><ellipse class="cls-9" cx="485.59" cy="104.55" rx="3.32" ry="3.49"/><ellipse class="cls-9" cx="485.59" cy="19.84" rx="3.32" ry="3.49"/><ellipse class="cls-9" cx="503.18" cy="78.69" rx="3.32" ry="3.49"/><ellipse class="cls-9" cx="736.26" cy="157.49" rx="3.49" ry="3.32" transform="translate(329.24 746.47) rotate(-86.92)"/><ellipse class="cls-9" cx="545.03" cy="58.81" rx="3.32" ry="3.49"/><ellipse class="cls-9" cx="546.33" cy="75.65" rx="3.32" ry="3.49"/><ellipse class="cls-9" cx="538.37" cy="127.17" rx="3.32" ry="3.49"/><ellipse class="cls-9" cx="503.13" cy="57.42" rx="3.32" ry="3.49"/><ellipse class="cls-9" cx="512.47" cy="104.86" rx="3.32" ry="3.49"/><ellipse class="cls-10" cx="525.78" cy="40.67" rx="3.32" ry="3.49"/><ellipse class="cls-9" cx="539.03" cy="95.09" rx="3.32" ry="3.49"/><ellipse class="cls-9" cx="516.46" cy="69.97" rx="3.32" ry="3.49"/><ellipse class="cls-9" cx="498.53" cy="94.39" rx="3.32" ry="3.49"/><ellipse class="cls-9" cx="499.19" cy="122.99" rx="3.32" ry="3.49"/><ellipse class="cls-9" cx="509.17" cy="32.3" rx="3.32" ry="3.49"/><ellipse class="cls-9" cx="525.75" cy="93.79" rx="3.32" ry="3.49"/><path class="cls-10" d="M708.68,232.84" transform="translate(-210.15 -137.75)"/><ellipse class="cls-9" cx="501.85" cy="15.56" rx="3.32" ry="3.49"/><ellipse class="cls-9" cx="525.09" cy="125.09" rx="3.32" ry="3.49"/><ellipse class="cls-10" cx="501.85" cy="109.74" rx="3.32" ry="3.49"/><ellipse class="cls-9" cx="517.12" cy="82.53" rx="3.32" ry="3.49"/><ellipse class="cls-9" cx="540.38" cy="41.37" rx="3.32" ry="3.49"/><path class="cls-10" d="M756.48,215.4" transform="translate(-210.15 -137.75)"/><path class="cls-10" d="M756.48,215.4" transform="translate(-210.15 -137.75)"/><ellipse class="cls-9" cx="511.1" cy="44.86" rx="3.35" ry="3.49"/><ellipse class="cls-9" cx="497.02" cy="27.42" rx="3.35" ry="3.49"/></g></svg>