<svg id="Layer_2" data-name="Layer 2" xmlns="http://www.w3.org/2000/svg" viewBox="0 0 779.46 302.39"><defs><style>.cls-1,.cls-3,.cls-4,.cls-5{fill:#646469;}.cls-2{fill:#f05023;}.cls-3,.cls-4,.cls-5,.cls-6{stroke:#646469;}.cls-3,.cls-4,.cls-5,.cls-6,.cls-7,.cls-8,.cls-9{stroke-miterlimit:10;}.cls-3,.cls-6,.cls-8{stroke-width:3px;}.cls-4{stroke-width:0.5px;}.cls-6,.cls-7,.cls-8{fill:none;}.cls-7,.cls-8,.cls-9{stroke:#f05023;}.cls-7{stroke-width:5px;}.cls-9{fill:#1a1a1a;stroke-width:2px;}</style></defs><title>utrgvmain</title><path class="cls-1" d="M410.87,352.14c0-8.12.13-17.22.34-22.6h-.33c-2.23,9.71-7,25.56-11.55,40.44h-8.76c-3.47-13-8.39-31.07-10.48-40.57h-.32c.41,5.58.61,15.37.61,23.53v17H371V322.41h15.31c3.71,12.43,7.87,28,9.3,35.11h.07c1.17-6.25,6.39-22.92,10.36-35.11H420.8V370h-9.93Z" transform="translate(-310.16 -136.75)"/><path class="cls-1" d="M459.22,360.75a82.32,82.32,0,0,0,.48,9.23h-9.44a14.12,14.12,0,0,1-.5-3.49c-1.3,2-3.73,4.32-10,4.32-8.62,0-12.25-5.66-12.25-11.2,0-8.14,6.54-11.89,17-11.89h5.09v-2.18c0-2.54-.91-5-5.5-5-4.17,0-5.08,1.77-5.54,4.36h-9.4c.53-6.35,4.46-11.48,15.32-11.42,9.56.06,14.77,3.8,14.77,12.3Zm-9.64-7h-4c-5.95,0-8.16,1.82-8.16,5.26,0,2.59,1.58,4.77,5.14,4.77,6.28,0,7.05-4.37,7.05-9.09Z" transform="translate(-310.16 -136.75)"/><path class="cls-1" d="M498.88,358.44c-1.23,5.95-5.41,12.37-16.05,12.37-11.12,0-16.84-7.69-16.84-18.43,0-10.54,6.44-18.94,17.31-18.94,12,0,15.39,8.64,15.58,12.68h-9.65c-.61-2.91-2.26-4.94-6.12-4.94-4.52,0-7.08,4-7.08,10.88,0,7.61,2.71,11.07,7,11.07,3.39,0,5.22-2,6.1-4.69Z" transform="translate(-310.16 -136.75)"/><path class="cls-1" d="M514.84,319.61v18.87c1.56-2.31,4.46-5,10.23-5,6.66,0,12,3.94,12,13.63V370H527.2V348.55c0-4.65-1.64-7.11-5.79-7.11-5.5,0-6.57,4.08-6.57,9.59v19H505V319.61Z" transform="translate(-310.16 -136.75)"/><path class="cls-1" d="M545.93,319.61h9.89v8.82h-9.89Zm0,14.66h9.89V370h-9.89Z" transform="translate(-310.16 -136.75)"/><path class="cls-1" d="M564.76,343.26c0-3,0-6.36-.07-9h9.58a41.19,41.19,0,0,1,.38,4.55c1.22-2.25,4.1-5.38,10.36-5.38,7.17,0,11.84,4.85,11.84,13.82V370H587V348.36c0-4-1.34-6.92-5.7-6.92s-6.61,2.33-6.61,8.64V370h-9.89Z" transform="translate(-310.16 -136.75)"/><path class="cls-1" d="M613.48,354.24c0,4.47,2.25,8.83,7.17,8.83,4.12,0,5.29-1.65,6.23-3.81h9.9c-1.27,4.37-5.17,11.55-16.39,11.55-11.76,0-16.86-8.8-16.86-18.17,0-11.2,5.74-19.2,17.22-19.2,12.26,0,16.43,8.87,16.43,17.79a21.89,21.89,0,0,1-.13,3Zm13.8-6.07c-.07-4.16-1.73-7.66-6.55-7.66s-6.65,3.27-7,7.66Z" transform="translate(-310.16 -136.75)"/><path class="cls-1" d="M671.5,322.41V370H661.21V322.41Z" transform="translate(-310.16 -136.75)"/><path class="cls-1" d="M680.61,343.26c0-3,0-6.36-.07-9h9.58a41.19,41.19,0,0,1,.38,4.55c1.21-2.25,4.1-5.38,10.36-5.38,7.17,0,11.84,4.85,11.84,13.82V370h-9.89V348.36c0-4-1.34-6.92-5.7-6.92s-6.61,2.33-6.61,8.64V370h-9.89Z" transform="translate(-310.16 -136.75)"/><path class="cls-1" d="M717.3,334.27h5.51V324.6h9.89v9.67h7v7.43h-7v17.63c0,2.71.83,3.76,3.77,3.76a18.52,18.52,0,0,0,2.25-.11v6.8a22.3,22.3,0,0,1-6.64.68c-7,0-9.27-3.72-9.27-10V341.7H717.3Z" transform="translate(-310.16 -136.75)"/><path class="cls-1" d="M753,354.24c0,4.47,2.25,8.83,7.17,8.83,4.12,0,5.29-1.65,6.23-3.81h9.9c-1.27,4.37-5.17,11.55-16.39,11.55-11.76,0-16.87-8.8-16.87-18.17,0-11.2,5.75-19.2,17.22-19.2,12.27,0,16.44,8.87,16.44,17.79a21.89,21.89,0,0,1-.13,3Zm13.79-6.07c-.06-4.16-1.72-7.66-6.54-7.66s-6.65,3.27-7,7.66Z" transform="translate(-310.16 -136.75)"/><path class="cls-1" d="M783.43,370V319.61h9.89V370Z" transform="translate(-310.16 -136.75)"/><path class="cls-1" d="M802.2,370V319.61h9.89V370Z" transform="translate(-310.16 -136.75)"/><path class="cls-1" d="M821,319.61h9.89v8.82H821Zm0,14.66h9.89V370H821Z" transform="translate(-310.16 -136.75)"/><path class="cls-1" d="M872.23,365.63c0,11.47-4.24,18.72-17.76,18.72-13,0-15.62-7.28-16-11.31h10.08c.7,2.45,2.5,4.12,6.32,4.12,6.42,0,7.63-3.91,7.63-10.92v-1.7c-1.87,3.09-4.82,5-10.07,5-9.41,0-14.77-7.71-14.77-17.31,0-11.17,6.69-18.81,15.62-18.81,6.12,0,8.67,2.89,9.22,4.55.06-1,.32-3.14.38-3.72h9.38c-.06,3.18-.07,6.81-.07,10.24ZM847.86,351.8c0,6.15,3.07,9.78,7.45,9.78,6,0,7.54-4.09,7.54-10.09s-1.06-10.13-7.34-10.13C851.22,341.36,847.86,344.67,847.86,351.8Z" transform="translate(-310.16 -136.75)"/><path class="cls-1" d="M889.13,354.24c0,4.47,2.25,8.83,7.17,8.83,4.12,0,5.3-1.65,6.24-3.81h9.89c-1.26,4.37-5.16,11.55-16.39,11.55-11.76,0-16.86-8.8-16.86-18.17,0-11.2,5.75-19.2,17.22-19.2,12.26,0,16.43,8.87,16.43,17.79a23.7,23.7,0,0,1-.12,3Zm13.8-6.07c-.07-4.16-1.73-7.66-6.55-7.66s-6.64,3.27-7,7.66Z" transform="translate(-310.16 -136.75)"/><path class="cls-1" d="M919.83,343.26c0-3,0-6.36-.07-9h9.58a41.19,41.19,0,0,1,.38,4.55c1.22-2.25,4.11-5.38,10.36-5.38,7.17,0,11.84,4.85,11.84,13.82V370H942V348.36c0-4-1.34-6.92-5.7-6.92-4.2,0-6.61,2.33-6.61,8.64V370h-9.89Z" transform="translate(-310.16 -136.75)"/><path class="cls-1" d="M991.61,358.44c-1.23,5.95-5.42,12.37-16.06,12.37-11.12,0-16.83-7.69-16.83-18.43,0-10.54,6.43-18.94,17.3-18.94,12.05,0,15.39,8.64,15.59,12.68H982c-.61-2.91-2.26-4.94-6.12-4.94-4.52,0-7.08,4-7.08,10.88,0,7.61,2.71,11.07,7,11.07,3.4,0,5.22-2,6.1-4.69Z" transform="translate(-310.16 -136.75)"/><path class="cls-1" d="M1006.09,354.24c0,4.47,2.24,8.83,7.17,8.83,4.11,0,5.29-1.65,6.23-3.81h9.89c-1.26,4.37-5.16,11.55-16.38,11.55-11.77,0-16.87-8.8-16.87-18.17,0-11.2,5.75-19.2,17.22-19.2,12.27,0,16.44,8.87,16.44,17.79a21.89,21.89,0,0,1-.13,3Zm13.79-6.07c-.07-4.16-1.73-7.66-6.55-7.66s-6.64,3.27-7,7.66Z" transform="translate(-310.16 -136.75)"/><path class="cls-2" d="M316.73,399.64v18.08c0,5.82,3,7.55,6.27,7.55,3.75,0,6.11-2,6.11-7.55V399.64h6.56v17.75c0,10.38-6.07,13-12.76,13-6.85,0-12.75-2.76-12.75-12.89V399.64Z" transform="translate(-310.16 -136.75)"/><path class="cls-2" d="M340.93,412.94c0-1.93,0-4.05,0-5.74H347a27.84,27.84,0,0,1,.24,2.91c.77-1.44,2.62-3.43,6.61-3.43,4.57,0,7.55,3.09,7.55,8.81V430h-6.31V416.19c0-2.56-.85-4.41-3.64-4.41s-4.21,1.49-4.21,5.51V430h-6.31Z" transform="translate(-310.16 -136.75)"/><path class="cls-2" d="M367,397.86h6.3v5.62H367Zm0,9.34h6.3V430H367Z" transform="translate(-310.16 -136.75)"/><path class="cls-2" d="M383.32,407.2c2.17,7.72,4,14.47,4.42,17.21h0c.64-3.76,2.88-10.63,4.86-17.21h6.28l-8,22.78h-6.63l-7.72-22.78Z" transform="translate(-310.16 -136.75)"/><path class="cls-2" d="M406.67,419.94c0,2.85,1.43,5.63,4.57,5.63,2.63,0,3.38-1.05,4-2.43h6.31c-.81,2.79-3.29,7.37-10.45,7.37-7.5,0-10.76-5.61-10.76-11.59,0-7.14,3.67-12.24,11-12.24,7.83,0,10.49,5.65,10.49,11.34a12.88,12.88,0,0,1-.09,1.92Zm8.8-3.87c0-2.65-1.1-4.89-4.18-4.89s-4.23,2.09-4.49,4.89Z" transform="translate(-310.16 -136.75)"/><path class="cls-2" d="M426.21,413.38c0-2.26,0-4.27,0-6.18h6.19c.08.51.16,2.77.16,4,1-2.6,3.44-4.5,7.31-4.52v6c-4.57-.11-7.31,1.12-7.31,7.36V430h-6.3Z" transform="translate(-310.16 -136.75)"/><path class="cls-2" d="M448.19,423.13c.48,1.82,2,2.84,4.31,2.84s3.18-.84,3.18-2.22-1-2-4.24-2.83c-7.42-1.83-8.64-4.13-8.64-7.35s2.37-6.89,9.24-6.89,9.25,3.77,9.45,6.85h-6c-.2-.84-.76-2.43-3.73-2.43-2.09,0-2.76.93-2.76,1.95s.71,1.68,4.41,2.54c7.6,1.77,8.67,4.38,8.67,7.71,0,3.78-2.87,7.21-9.81,7.21s-9.77-3.34-10.27-7.38Z" transform="translate(-310.16 -136.75)"/><path class="cls-2" d="M466.25,397.86h6.3v5.62h-6.3Zm0,9.34h6.3V430h-6.3Z" transform="translate(-310.16 -136.75)"/><path class="cls-2" d="M476,407.2h3.51V401h6.31v6.16h4.46V412h-4.46v11.24c0,1.73.53,2.4,2.41,2.4a12.6,12.6,0,0,0,1.43-.07v4.33a14.11,14.11,0,0,1-4.23.44c-4.45,0-5.92-2.38-5.92-6.36V412H476Z" transform="translate(-310.16 -136.75)"/><path class="cls-2" d="M499.09,407.2c2.35,7.86,4.4,14.88,4.76,17h0c.49-2.3,1.82-7.4,4.54-17h6.28l-7.65,23.44c-2.18,6.55-4,8.51-9.47,8.51a29.33,29.33,0,0,1-3-.18v-5.06c.43,0,1.12.09,1.63.09,2.32,0,3.48-.8,4.34-3.32l-8.29-23.48Z" transform="translate(-310.16 -136.75)"/><path class="cls-2" d="M549.61,418.55c0,6.89-4.12,12-11.34,12-7.06,0-11.19-5-11.19-11.84,0-7,4.25-12,11.49-12C545.27,406.68,549.61,411.41,549.61,418.55Zm-16.13,0c0,4.39,1.89,7,4.93,7s4.8-2.59,4.8-6.94c0-4.76-1.75-7-4.89-7C535.39,411.61,533.48,413.78,533.48,418.59Z" transform="translate(-310.16 -136.75)"/><path class="cls-2" d="M554.82,430V412H551.5V407.2h3.32v-2c0-4.7,2.34-7.78,7.27-7.78a12.85,12.85,0,0,1,2.93.27v5a8.19,8.19,0,0,0-1.33-.11c-1.86,0-2.56.68-2.56,3.12v1.52h4V412h-4v18Z" transform="translate(-310.16 -136.75)"/><path class="cls-2" d="M584.8,405h-9.22v-5.38h25V405h-9.18v25H584.8Z" transform="translate(-310.16 -136.75)"/><path class="cls-2" d="M604.93,419.94c0,2.85,1.44,5.63,4.58,5.63,2.62,0,3.37-1.05,4-2.43h6.31c-.81,2.79-3.29,7.37-10.45,7.37-7.5,0-10.76-5.61-10.76-11.59,0-7.14,3.67-12.24,11-12.24,7.82,0,10.48,5.65,10.48,11.34a14.48,14.48,0,0,1-.08,1.92Zm8.8-3.87c0-2.65-1.1-4.89-4.18-4.89s-4.23,2.09-4.48,4.89Z" transform="translate(-310.16 -136.75)"/><path class="cls-2" d="M628.4,407.2c2.37,4.29,3.34,6,4,7.14h.05c.78-1.38,2.17-3.89,4-7.14h7l-7.38,10.85L643.47,430h-7.13c-2.05-3.85-3.33-6.35-4-7.65h0c-.61,1.19-2.16,4.15-4,7.65h-6.9l7.06-11.1-7-11.68Z" transform="translate(-310.16 -136.75)"/><path class="cls-2" d="M665.4,424.1a51.51,51.51,0,0,0,.31,5.88h-6a9.07,9.07,0,0,1-.32-2.22c-.83,1.28-2.38,2.75-6.41,2.75-5.49,0-7.81-3.61-7.81-7.14,0-5.19,4.17-7.59,10.85-7.59h3.25v-1.39c0-1.62-.58-3.21-3.51-3.21-2.66,0-3.24,1.13-3.53,2.78h-6c.34-4,2.85-7.32,9.77-7.28,6.1,0,9.42,2.42,9.42,7.84Zm-6.14-4.49h-2.57c-3.8,0-5.21,1.16-5.21,3.36a2.92,2.92,0,0,0,3.28,3c4,0,4.5-2.79,4.5-5.8Z" transform="translate(-310.16 -136.75)"/><path class="cls-2" d="M675.36,423.13c.48,1.82,2,2.84,4.31,2.84s3.18-.84,3.18-2.22-1-2-4.24-2.83c-7.42-1.83-8.64-4.13-8.64-7.35s2.37-6.89,9.24-6.89,9.25,3.77,9.44,6.85h-6c-.2-.84-.77-2.43-3.73-2.43-2.09,0-2.76.93-2.76,1.95s.71,1.68,4.41,2.54c7.59,1.77,8.67,4.38,8.67,7.71,0,3.78-2.87,7.21-9.81,7.21s-9.77-3.34-10.27-7.38Z" transform="translate(-310.16 -136.75)"/><path class="cls-2" d="M715.85,415.92v5.48H703.6v-5.48Z" transform="translate(-310.16 -136.75)"/><path class="cls-2" d="M738.89,417.84V430h-6.41V399.64h13.33c6.61,0,10.17,3.65,10.17,8.33,0,4.07-2.21,6.28-4.41,7.18,1.51.55,3.77,2.12,3.77,7.55v1.5a24,24,0,0,0,.44,5.78h-6.22c-.53-1.32-.63-3.59-.63-6.81v-.44c0-3.32-.84-4.89-5.73-4.89Zm0-5.22h5.5c3.59,0,5-1.37,5-3.91s-1.61-3.85-4.82-3.85h-5.65Z" transform="translate(-310.16 -136.75)"/><path class="cls-2" d="M760.65,397.86H767v5.62h-6.3Zm0,9.34H767V430h-6.3Z" transform="translate(-310.16 -136.75)"/><path class="cls-2" d="M793.81,418.55c0,6.89-4.13,12-11.34,12s-11.19-5-11.19-11.84c0-7,4.25-12,11.48-12C789.47,406.68,793.81,411.41,793.81,418.55Zm-16.13,0c0,4.39,1.89,7,4.92,7s4.81-2.59,4.81-6.94c0-4.76-1.75-7-4.89-7C779.59,411.61,777.68,413.78,777.68,418.59Z" transform="translate(-310.16 -136.75)"/><path class="cls-2" d="M836,430h-4.81a16.81,16.81,0,0,1-.5-3c-1.68,2.27-4.65,3.5-8.86,3.5-8.81,0-13.73-6.66-13.73-15.3,0-9.12,5.31-16,14.87-16,7.81,0,12.4,4.41,13.14,9.58h-6.56c-.62-2-2.23-4.43-6.67-4.43-6.23,0-8,5.21-8,10.56s2,10.36,8,10.36c5.61,0,6.65-3.9,6.65-6.61v-.28h-6.66V413H836Z" transform="translate(-310.16 -136.75)"/><path class="cls-2" d="M841.65,413.38c0-2.26,0-4.27,0-6.18h6.19c.08.51.17,2.77.17,4,1-2.6,3.43-4.5,7.3-4.52v6c-4.57-.11-7.3,1.12-7.3,7.36V430h-6.31Z" transform="translate(-310.16 -136.75)"/><path class="cls-2" d="M877.13,424.1a52.16,52.16,0,0,0,.3,5.88h-6a9.07,9.07,0,0,1-.32-2.22c-.82,1.28-2.37,2.75-6.4,2.75-5.49,0-7.81-3.61-7.81-7.14,0-5.19,4.17-7.59,10.84-7.59H871v-1.39c0-1.62-.58-3.21-3.5-3.21-2.67,0-3.25,1.13-3.54,2.78h-6c.34-4,2.84-7.32,9.77-7.28,6.1,0,9.42,2.42,9.42,7.84ZM871,419.61h-2.57c-3.8,0-5.21,1.16-5.21,3.36a2.92,2.92,0,0,0,3.28,3c4,0,4.5-2.79,4.5-5.8Z" transform="translate(-310.16 -136.75)"/><path class="cls-2" d="M882.87,412.94c0-1.93,0-4.05,0-5.74h6.1a27.72,27.72,0,0,1,.25,2.91c.77-1.44,2.61-3.43,6.61-3.43,4.57,0,7.54,3.09,7.54,8.81V430H897V416.19c0-2.56-.86-4.41-3.64-4.41s-4.21,1.49-4.21,5.51V430h-6.31Z" transform="translate(-310.16 -136.75)"/><path class="cls-2" d="M929.82,397.86v25.86c0,2.08,0,4.18,0,6.26H923.8c-.12-.68-.25-1.86-.28-2.38-1.1,1.8-3.06,2.91-6.47,2.91-5.76,0-9.42-4.63-9.42-11.73s3.89-12.1,10.34-12.1c3.28,0,5,1.15,5.55,2.17v-11Zm-15.71,20.75c0,4.44,1.73,6.85,4.81,6.85,4.34,0,4.84-3.62,4.84-6.89,0-3.9-.55-6.84-4.67-6.84C915.78,411.73,914.11,414.31,914.11,418.61Z" transform="translate(-310.16 -136.75)"/><path class="cls-2" d="M940.43,419.94c0,2.85,1.43,5.63,4.57,5.63,2.63,0,3.38-1.05,4-2.43h6.32c-.81,2.79-3.3,7.37-10.46,7.37-7.5,0-10.75-5.61-10.75-11.59,0-7.14,3.66-12.24,11-12.24,7.82,0,10.48,5.65,10.48,11.34a14.48,14.48,0,0,1-.08,1.92Zm8.8-3.87c-.05-2.65-1.11-4.89-4.18-4.89s-4.24,2.09-4.49,4.89Z" transform="translate(-310.16 -136.75)"/><path class="cls-2" d="M978,430l-10.7-30.34h7l4.51,14c1.37,4.24,2.42,7.83,3.12,10.93H982c.63-2.83,1.81-6.53,3.25-10.84L990,399.64h6.69l-11,30.34Z" transform="translate(-310.16 -136.75)"/><path class="cls-2" d="M1015.68,424.1A51.51,51.51,0,0,0,1016,430h-6a9.59,9.59,0,0,1-.31-2.22c-.83,1.28-2.38,2.75-6.41,2.75-5.49,0-7.81-3.61-7.81-7.14,0-5.19,4.17-7.59,10.85-7.59h3.25v-1.39c0-1.62-.58-3.21-3.51-3.21-2.66,0-3.24,1.13-3.53,2.78h-6c.34-4,2.84-7.32,9.77-7.28,6.1,0,9.42,2.42,9.42,7.84Zm-6.14-4.49H1007c-3.8,0-5.21,1.16-5.21,3.36a2.92,2.92,0,0,0,3.28,3c4,0,4.5-2.79,4.5-5.8Z" transform="translate(-310.16 -136.75)"/><path class="cls-2" d="M1021.39,430V397.86h6.3V430Z" transform="translate(-310.16 -136.75)"/><path class="cls-2" d="M1033.36,430V397.86h6.3V430Z" transform="translate(-310.16 -136.75)"/><path class="cls-2" d="M1050.34,419.94c0,2.85,1.43,5.63,4.57,5.63,2.63,0,3.38-1.05,4-2.43h6.32c-.81,2.79-3.3,7.37-10.45,7.37-7.51,0-10.76-5.61-10.76-11.59,0-7.14,3.66-12.24,11-12.24,7.82,0,10.48,5.65,10.48,11.34a14.48,14.48,0,0,1-.08,1.92Zm8.8-3.87c-.05-2.65-1.11-4.89-4.18-4.89s-4.24,2.09-4.49,4.89Z" transform="translate(-310.16 -136.75)"/><path class="cls-2" d="M1074,407.2c2.35,7.86,4.4,14.88,4.76,17h0c.5-2.3,1.83-7.4,4.55-17h6.28L1082,430.64c-2.18,6.55-4,8.51-9.47,8.51a29.33,29.33,0,0,1-3-.18v-5.06a16.17,16.17,0,0,0,1.63.09c2.31,0,3.48-.8,4.33-3.32l-8.28-23.48Z" transform="translate(-310.16 -136.75)"/><path class="cls-3" d="M691.71,141.84" transform="translate(-310.16 -136.75)"/><ellipse class="cls-4" cx="383.53" cy="39.35" rx="3.32" ry="3.46"/><ellipse class="cls-4" cx="383.53" cy="64.94" rx="3.32" ry="3.46"/><ellipse class="cls-4" cx="383.53" cy="129.94" rx="3.32" ry="3.46"/><ellipse class="cls-4" cx="383.53" cy="82.92" rx="3.32" ry="3.46"/><ellipse class="cls-4" cx="383.53" cy="148.6" rx="3.32" ry="3.46"/><ellipse class="cls-4" cx="383.53" cy="4.78" rx="3.32" ry="3.46"/><ellipse class="cls-4" cx="383.53" cy="104.35" rx="3.32" ry="3.46"/><ellipse class="cls-4" cx="383.53" cy="21.38" rx="3.32" ry="3.46"/><ellipse class="cls-4" cx="402.12" cy="77.73" rx="3.32" ry="3.46"/><ellipse class="cls-4" cx="731.21" cy="156.05" rx="3.46" ry="3.32" transform="matrix(0.07, -1, 1, 0.07, 217.34, 738.69)"/><ellipse class="cls-4" cx="443.97" cy="58.02" rx="3.32" ry="3.46"/><ellipse class="cls-4" cx="445.27" cy="76.69" rx="3.32" ry="3.46"/><ellipse class="cls-4" cx="437.3" cy="125.79" rx="3.32" ry="3.46"/><ellipse class="cls-4" cx="402.07" cy="56.64" rx="3.32" ry="3.46"/><ellipse class="cls-4" cx="411.41" cy="103.66" rx="3.32" ry="3.46"/><ellipse class="cls-5" cx="424.72" cy="40.05" rx="3.32" ry="3.46"/><ellipse class="cls-4" cx="437.97" cy="93.98" rx="3.32" ry="3.46"/><ellipse class="cls-4" cx="415.39" cy="69.09" rx="3.32" ry="3.46"/><ellipse class="cls-4" cx="397.47" cy="93.29" rx="3.32" ry="3.46"/><ellipse class="cls-4" cx="398.13" cy="121.64" rx="3.32" ry="3.46"/><polyline class="cls-6" points="383.86 19.65 383.86 4.44 411.38 4.44 424.46 17.75"/><polyline class="cls-6" points="444.3 58.37 425.71 53.53 425.05 40.39"/><polyline class="cls-6" points="436.31 125.44 431.66 110.92 438.3 94.33"/><ellipse class="cls-4" cx="408.1" cy="31.75" rx="3.32" ry="3.46"/><polyline class="cls-6" points="411.74 102.62 415.73 112.3 431.66 110.92"/><polyline class="cls-6" points="398.46 121.98 411.08 126.13 415.73 112.3"/><polyline class="cls-6" points="383.86 83.26 383.86 104.7 391.82 111.61 400.46 108.85"/><ellipse class="cls-4" cx="424.69" cy="94.67" rx="3.32" ry="3.46"/><path class="cls-5" d="M707.63,230.73" transform="translate(-310.16 -136.75)"/><polyline class="cls-6" points="424.69 94.67 430 76.69 445.27 76.69"/><ellipse class="cls-4" cx="400.79" cy="15.15" rx="3.32" ry="3.46"/><polyline class="cls-6" points="383.53 21.38 390.17 15.15 400.79 15.15"/><polyline class="cls-6" points="383.53 82.92 395.48 82.92 402.12 78.08"/><ellipse class="cls-4" cx="424.02" cy="123.71" rx="3.32" ry="3.46"/><polyline class="cls-6" points="384.19 129.94 402.78 137.54 418.05 133.39 424.02 123.71"/><ellipse class="cls-5" cx="400.79" cy="108.5" rx="3.32" ry="3.46"/><ellipse class="cls-4" cx="416.06" cy="81.53" rx="3.32" ry="3.46"/><polyline class="cls-6" points="397.47 93.29 412.74 93.29 416.06 82.22"/><ellipse class="cls-4" cx="439.32" cy="40.74" rx="3.32" ry="3.46"/><path class="cls-5" d="M755.43,213.44" transform="translate(-310.16 -136.75)"/><path class="cls-5" d="M755.43,213.44" transform="translate(-310.16 -136.75)"/><polyline class="cls-6" points="383.86 130.28 383.86 148.95 415.06 147.57 437.63 126.13 448.59 100.2 445.27 76.69"/><polyline class="cls-6" points="383.22 39.35 383.22 64.94 393.94 64.94 401.99 56.64"/><polyline class="cls-6" points="408.03 31.75 412.72 18.61 426.13 19.3 439.21 41.08"/><ellipse class="cls-4" cx="410.04" cy="44.19" rx="3.35" ry="3.46"/><polyline class="cls-6" points="415.4 69.09 415.4 51.8 410.71 44.89"/><line class="cls-3" x1="439.54" y1="40.74" x2="444.24" y2="58.02"/><ellipse class="cls-4" cx="395.96" cy="26.91" rx="3.35" ry="3.46"/><polyline class="cls-6" points="383.22 39.35 393.94 39.35 395.96 26.91"/><path class="cls-7" d="M684.31,141.31V284.85a20.89,20.89,0,0,1-16.73,5.38c-1-.13-9.86-1.51-14.51-9.69a24.07,24.07,0,0,1-16-4.66,22.45,22.45,0,0,1-8.56-14A24,24,0,0,1,620,249.32a23.07,23.07,0,0,1,.37-13.27,19.2,19.2,0,0,1,0-23.69,15.25,15.25,0,0,1-1.86-12.56,15.06,15.06,0,0,1,5.58-7.53,15.93,15.93,0,0,1,7.44-18,17.58,17.58,0,0,1,2.6-9.69,18.82,18.82,0,0,1,9.3-7.53c4.78-9.29,8.57-11.41,10.79-12.56s4-.68,10-2.51c4.85-1.47,5.41-2.09,7.81-2.52C674.82,139,678.9,139,684.31,141.31Z" transform="translate(-310.16 -136.75)"/><path class="cls-8" d="M629,261.81l4.7-15.08c.95.25,19.46,4.94,22.13-.68.43-.92.73-2.73-1.35-6.17" transform="translate(-310.16 -136.75)"/><path class="cls-8" d="M628.32,222.07a26.22,26.22,0,0,0-.67,9.68,29,29,0,0,0,8.05,16.35" transform="translate(-310.16 -136.75)"/><path class="cls-8" d="M650.28,248.62c0,8.82,6.11,14.85,11.57,14.56s8.54-6.5,8.72-6.85" transform="translate(-310.16 -136.75)"/><path class="cls-8" d="M623.86,192.35c4.23,2.78,6.54,2.51,7.81,1.94,5.19-2.33,1.52-13.56,8.05-18.5,3.91-3,7.57-.72,11.4-4.8,2.26-2.4,3.81-6.18,2.68-7.53-1.63-2-8.58,1.52-12.07,3.42" transform="translate(-310.16 -136.75)"/><path class="cls-8" d="M663.86,244c3,2.08,7,4.26,9.39,2.74,1-.63,1.13-1.54,2-2.74,1.23-1.66,3.66-3.56,9-4.11" transform="translate(-310.16 -136.75)"/><path class="cls-8" d="M637,259.07c1.05,1.51,9.88,13.8,25.48,14.38a32.53,32.53,0,0,0,21.79-7.68" transform="translate(-310.16 -136.75)"/><path class="cls-8" d="M647.77,218a60.58,60.58,0,0,1,4,6.85c2.35,4.67,2.87,7.19,4.7,7.53s2.61-1.78,5.36-2.74c3.08-1.07,6.3.08,8.72,1.37" transform="translate(-310.16 -136.75)"/><path class="cls-8" d="M620.89,213c1.12-1.33,2.74-3.21,4.75-5.43,4.63-5.12,5.62-5.69,6.09-5.42s.3,1.19,0,4.11-.59,5.31-.74,6.84" transform="translate(-310.16 -136.75)"/><path class="cls-8" d="M665.2,152.18a17.09,17.09,0,0,1,10.06,0,17.44,17.44,0,0,1,9,6.68" transform="translate(-310.16 -136.75)"/><path class="cls-8" d="M661.85,209.05c1.93,5.37,4.28,7,6,7.54,2.9.87,4.88-1.09,8.71-.69a13.21,13.21,0,0,1,7.71,4" transform="translate(-310.16 -136.75)"/><path class="cls-8" d="M641.73,233.34a33,33,0,0,1-4-21.24,31.08,31.08,0,0,1,4-11" transform="translate(-310.16 -136.75)"/><path class="cls-8" d="M641.73,188.12a14.29,14.29,0,0,0-1.34,10.28c1.74,6.12,8.13,10.16,10.06,8.91s-1.68-6.57,0-14.39a23.18,23.18,0,0,1,4.69-9.59" transform="translate(-310.16 -136.75)"/><path class="cls-8" d="M684.31,176.5a11.9,11.9,0,0,0-5-1c-2.8.07-4,1.18-6,.69-1.07-.26-2.55-1-4-3.43" transform="translate(-310.16 -136.75)"/><path class="cls-8" d="M660.51,194c6.35-4.53,7.6-7.91,7.38-10.27-.45-4.74-6.88-6.29-8-12.34-.66-3.42.68-6.63,2-8.9" transform="translate(-310.16 -136.75)"/><path class="cls-8" d="M643.74,158a31.95,31.95,0,0,1,12.75-2.89c2.8,7.72,5.49,9.41,7.37,9.59,3.82.37,6.86-5.19,9.39-4.11,1.6.67,1.94,3.53,2,5.48" transform="translate(-310.16 -136.75)"/><path class="cls-8" d="M684.63,203.34c-2.55-3.21-4.92-4.25-6.69-4.57s-3,.12-4-.68c-1.68-1.33-1.3-4.74-.67-7.54" transform="translate(-310.16 -136.75)"/><ellipse class="cls-9" cx="351.69" cy="72.3" rx="0.67" ry="0.69"/><ellipse class="cls-9" cx="363.09" cy="53.8" rx="0.67" ry="0.69"/><ellipse class="cls-9" cx="350.35" cy="57.22" rx="0.67" ry="0.69"/><ellipse class="cls-9" cx="359.07" cy="35.98" rx="0.67" ry="0.69"/><ellipse class="cls-9" cx="365.1" cy="29.13" rx="0.67" ry="0.69"/><ellipse class="cls-9" cx="355.04" cy="15.43" rx="0.67" ry="0.69"/><ellipse class="cls-9" cx="331.57" cy="30.13" rx="0.67" ry="0.69"/><ellipse class="cls-9" cx="344.98" cy="46.58" rx="0.67" ry="0.69"/><ellipse class="cls-9" cx="331.57" cy="51.37" rx="0.67" ry="0.69"/><ellipse class="cls-9" cx="337.61" cy="81.2" rx="0.67" ry="0.69"/><ellipse class="cls-9" cx="360.41" cy="94.22" rx="0.67" ry="0.69"/><ellipse class="cls-9" cx="353.7" cy="107.24" rx="0.67" ry="0.69"/><ellipse class="cls-9" cx="344.31" cy="103.13" rx="0.67" ry="0.69"/><ellipse class="cls-9" cx="360.41" cy="119.57" rx="0.67" ry="0.69"/><ellipse class="cls-9" cx="326.88" cy="122.32" rx="0.67" ry="0.69"/><ellipse class="cls-9" cx="331.57" cy="96.59" rx="0.67" ry="0.69"/><ellipse class="cls-9" cx="320.84" cy="76.41" rx="0.67" ry="0.69"/><ellipse class="cls-9" cx="318.04" cy="85.75" rx="0.67" ry="0.69"/></svg>