<svg xmlns="http://www.w3.org/2000/svg" viewBox="0 0 1179 204.19"><defs><style>.cls-1,.cls-4{fill:#f05023;}.cls-2,.cls-6{fill:#f0f0f0;}.cls-3,.cls-5{fill:none;stroke-width:4px;}.cls-3,.cls-4{stroke:#f05023;}.cls-3,.cls-4,.cls-5,.cls-6{stroke-miterlimit:10;}.cls-4{stroke-width:3px;}.cls-5,.cls-6{stroke:#f0f0f0;}.cls-6{stroke-width:6px;}</style></defs><title>miutrgv_navbar</title><g id="Layer_1" data-name="Layer 1"><path class="cls-1" d="M765.424,209.969c.2-1.525.446-3.046.7-4.565-.024-.437-.047-.875-.086-1.313-.2-2.286-.478-4.565-.66-6.851H724.951v12.729h11.981c.02,13.317.013,24.541,0,32.946-.039,24.872-.2,37.43-6.739,43.43-3.235,2.965-8.718,5.835-18.345,5.615a33.847,33.847,0,0,1-10.858-1.123c-2.883-.788-5.532-1.511-8.236-3.744a17.981,17.981,0,0,1-5.242-7.488,23.634,23.634,0,0,1-1.5-9.734c.1-6.988-.174-13.979,0-20.965.161-6.488,0-12.979,0-19.469V209.969H696.5V197.24H656.812v12.729h11.232c.006,4.668.01,11.678,0,20.217-.012,10.1-.038,16.126,0,23.961.131,27.142.8,30.428,3,34.444,1.715,3.14,6.4,10.458,14.976,14.227,4.865,2.138,9.842,2.633,13.478,3a60.634,60.634,0,0,0,11.98,0c4.329.246,22.524.815,33.7-11.981a36.97,36.97,0,0,0,6.739-11.98c2.57-6.818,2.292-10.972,2.247-35.193-.012-6.24,0-12.479,0-18.719,0-3.108,0-14.916,0-17.971Z" transform="translate(-45 -149.11)"/><path class="cls-1" d="M808.993,197.24c-.855,4.243-1.7,8.469-2.308,12.729h17.878v81.617H813.331v12.729h41.183V291.586H841.785l.749-81.617h24.709v15.724h14.976V197.24Z" transform="translate(-45 -149.11)"/><path class="cls-1" d="M1076.825,211.841v16.473H1091.8V201.358a95.872,95.872,0,0,0-12.729-3.744,84.427,84.427,0,0,0-21.715-2.246c-6.049.234-22.673.877-37.439,12.729a52.321,52.321,0,0,0-11.98,13.478c-7.5,12.558-7.017,25.011-6.739,32.2.234,6.037.689,15.206,5.99,25.458a49.165,49.165,0,0,0,14.227,17.222c10.83,8.1,22.159,9,31.449,9.734a89.1,89.1,0,0,0,37.439-5.241v-33.7h11.231v-12.73H1062.6v12.73h11.98v23.961c-17.328,4.769-34.945,1.4-44.926-9.735-8.181-9.122-9.236-21.232-9.735-26.956a47.923,47.923,0,0,1,3.744-24.709c1.66-3.647,4.324-9.5,10.483-14.227,8.114-6.231,17.108-6.534,23.212-6.739A53.831,53.831,0,0,1,1076.825,211.841Z" transform="translate(-45 -149.11)"/><path class="cls-1" d="M1113.181,197.614h38.936V209.6h-10.483q14.227,40.059,28.454,80.119l27.7-80.119h-12.73V197.614H1224V209.6h-9.734l-36.69,94.346h-17.971L1122.166,209.6h-8.985Z" transform="translate(-45 -149.11)"/><path class="cls-1" d="M990.777,298.715a3.905,3.905,0,0,1-.474-3.243,66.869,66.869,0,0,1-11.983-14c-2.651-4.3-5.743-8.333-8.237-12.729-2.785-4.91-4.57-8.817-8.985-11.98a21.64,21.64,0,0,0-5.99-2.995c14.944-1.7,26.029-14.689,25.458-29.2a28.6,28.6,0,0,0-25.458-26.956H900.447V209.6h11.232V291.96H900.447v12.73h40.434V291.96H928.152V259.014h12.729a20.6,20.6,0,0,1,5.241,3.744c1.56,1.542,2.46,2.945,5.242,8.237,3.754,7.142,4,8.18,5.99,11.231a70.417,70.417,0,0,0,4.493,5.99c4.294,5.367,8.216,9.656,9.734,11.232.977,1.014,1.966,1.982,2.959,2.929,5.682-.069,11.362-.209,17.043-.328A8.947,8.947,0,0,0,990.777,298.715Zm-40.911-53.928a24.237,24.237,0,0,1-3.744.749,66.577,66.577,0,0,1-8.44.318s0,0-3.768,0h-5.276V209.726h14.319c2.23,0,2.26,0,2.26,0a17.846,17.846,0,0,1,4.522.753c.9.271,1.671.588,2.075.752.736.3,1.318.576,1.693.753,0,0,.857.406,1.507.753a16.311,16.311,0,0,1,6.783,9.032,21.438,21.438,0,0,1-.754,13.548,16.627,16.627,0,0,1-2.191,3.48,17.863,17.863,0,0,1-5.242,4.493A18.1,18.1,0,0,1,949.866,244.787Z" transform="translate(-45 -149.11)"/><path class="cls-2" d="M928.152,210.343" transform="translate(-45 -149.11)"/><path class="cls-2" d="M632.5,242.541a51.387,51.387,0,0,0-17.971-29.2c-13.792-11.044-28.934-11.177-35.193-11.232-5.845-.052-23.423.055-38.936,12.729-16.48,13.464-23.729,35.472-20.217,55.41.971,5.514,4.824,22.559,20.217,34.444,13,10.04,27.02,10.819,34.444,11.231a73.611,73.611,0,0,0,31.448-5.241V300.2a70.247,70.247,0,0,1-25.458,5.241c-8.046.123-19.38.3-29.951-6.739-15.081-10.034-18.087-27.731-18.72-32.946-.21-1.732-2.937-27.79,16.473-43.429,10.43-8.4,21.8-9.406,26.208-9.734,3.974-.3,23.1-1.721,35.941,11.98a38.09,38.09,0,0,1,8.237,14.227c5.936,16.983.355,34.408-5.991,38.937-1.185.846-4.16,2.968-7.488,2.246a7.009,7.009,0,0,1-3-1.5c-2.246-1.874-3.4-5.286-3-16.473.052-1.433.285-4.45.749-10.483.7-9.088,1.115-13.151,1.5-16.473.29-2.515.559-4.588.748-5.99h-11.98q-.375,4.118-.749,8.236a14.9,14.9,0,0,0-6.739-7.487,16.084,16.084,0,0,0-5.99-1.5,22.27,22.27,0,0,0-8.237.749,23.213,23.213,0,0,0-7.488,3.744,27.505,27.505,0,0,0-5.99,5.99,36.155,36.155,0,0,0-5.241,9.734,40.3,40.3,0,0,0-2.247,13.478c-.139,6.226-.242,10.7,2.247,15.725.971,1.96,4.231,8.54,11.98,11.231a20.932,20.932,0,0,0,16.473-1.5,21.157,21.157,0,0,0,9.735-11.981,14.559,14.559,0,0,0,3.743,10.483,14.227,14.227,0,0,0,6.739,3.744,21.036,21.036,0,0,0,12.73-.749c9.061-3.056,14.054-10.251,15.724-12.729C636.577,262.406,633.285,246.378,632.5,242.541Zm-48.671,29.951a16.015,16.015,0,0,1-4.493,5.242,12.328,12.328,0,0,1-8.236,2.246,11.8,11.8,0,0,1-6.739-3,11.616,11.616,0,0,1-3-4.493,16.62,16.62,0,0,1-.748-5.241c-.048-1.007-.018-1.407,0-3.744.014-1.919.007-3.478,0-4.493a34.108,34.108,0,0,1,3-10.483c1.213-2.576,2.228-4.73,4.493-6.739,1.111-.986,5.054-4.483,10.482-3.744.316.043,5.634.85,8.237,5.242a13.2,13.2,0,0,1,1.5,5.241,27.756,27.756,0,0,1,0,8.237c-.257,1.843-.532,3.375-.749,4.492a38.428,38.428,0,0,1-2.247,8.237A21.8,21.8,0,0,1,583.826,272.492Z" transform="translate(-45 -149.11)"/><rect class="cls-2" x="420.397" y="48.129" width="18.448" height="108.87"/><polygon class="cls-2" points="361.133 156.999 379.581 156.999 379.581 48.129 354.747 48.129 320.689 132.573 286.63 48.129 261.087 48.129 261.087 156.999 278.116 156.999 278.116 65.576 313.593 156.999 326.365 156.999 362.552 65.576 361.133 156.999"/><rect class="cls-2" x="249.734" y="145.135" width="39.025" height="11.864"/><rect class="cls-2" x="351.199" y="145.135" width="39.025" height="11.864"/><rect class="cls-2" x="249.024" y="48.129" width="30.511" height="11.864"/><rect class="cls-2" x="361.133" y="48.129" width="29.091" height="11.864"/><rect class="cls-2" x="410.464" y="145.135" width="39.025" height="11.864"/><rect class="cls-2" x="410.464" y="48.129" width="39.025" height="11.864"/></g><g id="Layer_2" data-name="Layer 2"><rect class="cls-1" x="740.387" y="48.104" width="39.436" height="12.748"/><rect class="cls-1" x="709.105" y="48.142" width="12.787" height="12.688"/><rect class="cls-1" x="740.344" y="48.1" width="15.003" height="28.462"/><rect class="cls-1" x="911.103" y="142.831" width="40.465" height="12.688"/><path class="cls-3" d="M138.829,153.936V343.471a28.572,28.572,0,0,1-22.581,7.108c-1.312-.177-13.3-2-19.57-12.794a33.064,33.064,0,0,1-21.577-6.16,29.5,29.5,0,0,1-11.542-18.479,31.777,31.777,0,0,1-11.541-16.585,29.843,29.843,0,0,1,.5-17.532,24.907,24.907,0,0,1,0-31.273c-.729-1.093-5.262-8.151-2.509-16.584a20.008,20.008,0,0,1,7.527-9.951,21.487,21.487,0,0,1,2.509-16.584,22.013,22.013,0,0,1,7.527-7.108,22.761,22.761,0,0,1,3.512-12.793,25.259,25.259,0,0,1,12.545-9.951c6.452-12.27,11.556-15.066,14.553-16.584,3.058-1.55,5.385-.894,13.548-3.317,6.545-1.944,7.3-2.76,10.538-3.317C126.022,150.922,131.522,150.9,138.829,153.936Z" transform="translate(-45 -149.11)"/><path class="cls-3" d="M96.234,337.539a21.862,21.862,0,0,1,0-14.475,21.452,21.452,0,0,1,6.333-9.048" transform="translate(-45 -149.11)"/><path class="cls-3" d="M52.808,278.732a30.209,30.209,0,0,1,19-14.475" transform="translate(-45 -149.11)"/><path class="cls-3" d="M56.427,221.735a20.6,20.6,0,0,1,21.713-2.714" transform="translate(-45 -149.11)"/><path class="cls-3" d="M79.045,177.067a22.771,22.771,0,0,1,26.237,2.714" transform="translate(-45 -149.11)"/><path class="cls-3" d="M78.14,299.541a42.093,42.093,0,0,1,38-26.237" transform="translate(-45 -149.11)"/><path class="cls-3" d="M96.188,278.876a25.986,25.986,0,0,1-3.572-15.524A25.467,25.467,0,0,1,96.234,252.5" transform="translate(-45 -149.11)"/><path class="cls-3" d="M138.756,234.4c-2.92-4.873-8.812-12.876-19-17.19a36.493,36.493,0,0,0-5.428-1.809" transform="translate(-45 -149.11)"/><path class="cls-3" d="M91.711,213.592A20.473,20.473,0,0,0,78.14,220.83c-6.3,7.777-3.88,17.149-3.619,18.094" transform="translate(-45 -149.11)"/><circle class="cls-4" cx="29.521" cy="89.362" r="0.905"/><circle class="cls-4" cx="69.858" cy="66.397" r="0.905"/><circle class="cls-4" cx="70.763" cy="124.299" r="0.905"/><path class="cls-4" d="M95.407,252.6a.9.9,0,1,0,.9-.905A.9.9,0,0,0,95.407,252.6Z" transform="translate(-45 -149.11)"/><circle class="cls-4" cx="57.644" cy="165.012" r="0.905"/><circle class="cls-4" cx="33.217" cy="150.536" r="0.905"/><circle class="cls-4" cx="26.432" cy="115.252" r="0.905"/><circle class="cls-4" cx="59.906" cy="30.283" r="0.905"/><circle class="cls-4" cx="46.335" cy="64.588" r="0.905"/><path class="cls-3" d="M138.756,195.5a18.213,18.213,0,0,1-19.9-6.333" transform="translate(-45 -149.11)"/><circle class="cls-4" cx="73.766" cy="40.083" r="0.905"/><path class="cls-3" d="M140.265,294.416a18.211,18.211,0,0,0-19.9,6.333" transform="translate(-45 -149.11)"/><circle class="cls-4" cx="75.274" cy="151.609" r="0.905"/><polyline class="cls-5" points="148.098 165.811 154.431 189.333 134.527 201.999 111.909 194.762 111.909 5.675 127.289 2.056 153.526 8.389 168.002 24.674 146.288 31.007"/><polyline class="cls-5" points="168.002 188.429 189.715 165.811 200.572 129.622 179.763 116.051"/><polyline class="cls-5" points="204.191 115.146 204.191 83.481 187.001 68.101 172.525 69.91 158.954 65.387"/><polyline class="cls-5" points="112.329 85.29 121.861 68.101 136.336 67.196"/><polyline class="cls-5" points="112.329 145.379 128.194 145.002 130.908 152.24"/><polyline class="cls-5" points="111.909 47.292 125.48 47.292 131.813 40.959"/><line class="cls-5" x1="172.525" y1="69.91" x2="177.049" y2="90.719"/><path class="cls-5" d="M179.527,274.209c.905,0,19.9,1.809,19.9,1.809l18.094,24.428" transform="translate(-45 -149.11)"/><polyline class="cls-5" points="154.431 126.908 158.954 116.051 154.431 104.29"/><path class="cls-5" d="M222.954,182.832c.9,0,16.285,14.475,16.285,14.475l3.619,13.571" transform="translate(-45 -149.11)"/><circle class="cls-6" cx="130.908" cy="40.959" r="1.809"/><circle class="cls-6" cx="136.336" cy="67.196" r="1.809"/><circle class="cls-6" cx="148.098" cy="165.811" r="1.809"/><circle class="cls-6" cx="132.261" cy="154.946" r="1.809"/><circle class="cls-6" cx="147.193" cy="31.007" r="1.809"/><circle class="cls-6" cx="158.954" cy="65.387" r="1.809"/><circle class="cls-6" cx="154.431" cy="104.29" r="1.809"/><circle class="cls-6" cx="134.527" cy="125.098" r="1.809"/><circle class="cls-6" cx="177.049" cy="90.719" r="1.809"/><circle class="cls-6" cx="179.763" cy="116.051" r="1.809"/><circle class="cls-6" cx="169.811" cy="186.619" r="1.809"/><circle class="cls-6" cx="172.525" cy="151.335" r="1.809"/><circle class="cls-6" cx="197.858" cy="59.958" r="1.809"/><circle class="cls-6" cx="204.191" cy="110.432" r="1.809"/><circle class="cls-6" cx="178.858" cy="34.626" r="1.809"/></g></svg>