<svg id="Layer_1" data-name="Layer 1" xmlns="http://www.w3.org/2000/svg" viewBox="0 0 193.429 190.037"><defs><style>.cls-1,.cls-3,.cls-4{fill:none;}.cls-1,.cls-2{stroke:#f05023;}.cls-1,.cls-2,.cls-3,.cls-4{stroke-miterlimit:10;}.cls-1,.cls-3{stroke-width:4px;}.cls-2{fill:#f05023;stroke-width:3px;}.cls-3,.cls-4{stroke:#646469;}.cls-4{stroke-width:6px;}</style></defs><title>miutrgv_logo</title><path class="cls-1" d="M461.227,274.783V450.9a26.552,26.552,0,0,1-20.983,6.605c-1.219-.165-12.358-1.856-18.185-11.888a30.737,30.737,0,0,1-20.05-5.724,27.412,27.412,0,0,1-10.724-17.172,29.517,29.517,0,0,1-10.725-15.41,27.743,27.743,0,0,1,.467-16.292,23.144,23.144,0,0,1,0-29.059c-.677-1.016-4.889-7.574-2.332-15.411a18.6,18.6,0,0,1,6.994-9.246,19.966,19.966,0,0,1,2.332-15.41,20.45,20.45,0,0,1,6.994-6.6,21.153,21.153,0,0,1,3.264-11.888,23.471,23.471,0,0,1,11.657-9.246c6-11.4,10.738-14,13.522-15.411,2.842-1.439,5-.83,12.59-3.082,6.082-1.806,6.779-2.564,9.792-3.082C449.326,271.982,454.437,271.959,461.227,274.783Z" transform="translate(-373.898 -270.153)"/><path class="cls-1" d="M421.647,445.39a20.306,20.306,0,0,1,0-13.451,19.917,19.917,0,0,1,5.885-8.407" transform="translate(-373.898 -270.153)"/><path class="cls-1" d="M381.294,390.745a28.081,28.081,0,0,1,17.655-13.451" transform="translate(-373.898 -270.153)"/><path class="cls-1" d="M384.657,337.782a19.143,19.143,0,0,1,20.176-2.522" transform="translate(-373.898 -270.153)"/><path class="cls-1" d="M405.674,296.276a21.159,21.159,0,0,1,24.38,2.522" transform="translate(-373.898 -270.153)"/><path class="cls-1" d="M404.833,410.081a39.117,39.117,0,0,1,35.309-24.38" transform="translate(-373.898 -270.153)"/><path class="cls-1" d="M421.6,390.879a24.143,24.143,0,0,1-3.32-14.425,23.671,23.671,0,0,1,3.363-10.088" transform="translate(-373.898 -270.153)"/><path class="cls-1" d="M461.159,349.552c-2.714-4.528-8.189-11.965-17.654-15.973a33.876,33.876,0,0,0-5.044-1.681" transform="translate(-373.898 -270.153)"/><path class="cls-1" d="M417.444,330.216a19.026,19.026,0,0,0-12.611,6.726c-5.85,7.226-3.605,15.934-3.362,16.813" transform="translate(-373.898 -270.153)"/><circle class="cls-2" cx="27.573" cy="83.182" r="0.841"/><circle class="cls-2" cx="65.055" cy="61.843" r="0.841"/><circle class="cls-2" cx="65.896" cy="115.647" r="0.841"/><path class="cls-2" d="M420.878,366.464a.841.841,0,1,0,.841-.841A.841.841,0,0,0,420.878,366.464Z" transform="translate(-373.898 -270.153)"/><circle class="cls-2" cx="53.706" cy="153.477" r="0.841"/><circle class="cls-2" cx="31.007" cy="140.026" r="0.841"/><circle class="cls-2" cx="24.702" cy="107.24" r="0.841"/><circle class="cls-2" cx="55.808" cy="28.285" r="0.841"/><circle class="cls-2" cx="43.197" cy="60.162" r="0.841"/><path class="cls-1" d="M461.159,313.4a16.922,16.922,0,0,1-18.5-5.885" transform="translate(-373.898 -270.153)"/><circle class="cls-2" cx="68.686" cy="37.392" r="0.841"/><path class="cls-1" d="M462.561,405.319a16.924,16.924,0,0,0-18.5,5.884" transform="translate(-373.898 -270.153)"/><circle class="cls-2" cx="70.088" cy="141.024" r="0.841"/><polyline class="cls-3" points="136.625 154.22 142.51 176.077 124.015 187.847 102.998 181.122 102.998 5.419 117.29 2.056 141.669 7.941 155.12 23.073 134.944 28.958"/><polyline class="cls-3" points="155.12 175.237 175.297 154.22 185.385 120.592 166.049 107.982"/><polyline class="cls-3" points="188.748 107.141 188.748 77.717 172.775 63.426 159.324 65.107 146.713 60.904"/><polyline class="cls-3" points="103.388 79.399 112.245 63.426 125.696 62.585"/><polyline class="cls-3" points="103.388 135.235 118.13 134.884 120.652 141.609"/><polyline class="cls-3" points="102.998 44.09 115.608 44.09 121.493 38.205"/><line class="cls-3" x1="159.324" y1="65.107" x2="163.527" y2="84.443"/><path class="cls-3" d="M497.913,386.542c.84,0,18.5,1.681,18.5,1.681l16.813,22.7" transform="translate(-373.898 -270.153)"/><polyline class="cls-3" points="142.51 118.07 146.713 107.982 142.51 97.053"/><path class="cls-3" d="M538.265,301.633c.841,0,15.133,13.451,15.133,13.451l3.362,12.61" transform="translate(-373.898 -270.153)"/><circle class="cls-4" cx="120.652" cy="38.205" r="1.681"/><circle class="cls-4" cx="125.696" cy="62.585" r="1.681"/><circle class="cls-4" cx="136.625" cy="154.22" r="1.681"/><circle class="cls-4" cx="121.91" cy="144.124" r="1.681"/><circle class="cls-4" cx="135.785" cy="28.958" r="1.681"/><circle class="cls-4" cx="146.713" cy="60.904" r="1.681"/><circle class="cls-4" cx="142.51" cy="97.053" r="1.681"/><circle class="cls-4" cx="124.015" cy="116.389" r="1.681"/><circle class="cls-4" cx="163.527" cy="84.443" r="1.681"/><circle class="cls-4" cx="166.049" cy="107.982" r="1.681"/><circle class="cls-4" cx="156.802" cy="173.555" r="1.681"/><circle class="cls-4" cx="159.324" cy="140.769" r="1.681"/><circle class="cls-4" cx="182.863" cy="55.86" r="1.681"/><circle class="cls-4" cx="188.748" cy="104.619" r="1.681"/><circle class="cls-4" cx="165.208" cy="32.321" r="1.681"/></svg>