<svg width="1413" height="260" viewBox="0 0 1413 260" fill="none" xmlns="http://www.w3.org/2000/svg">
<path d="M754.64 58.48H807.64V75.48H793.64V101.48C793.64 110.15 793.86 118.82 793.64 127.48C793.41 136.81 793.77 146.15 793.64 155.48C793.386 159.906 794.068 164.335 795.64 168.48C797.07 172.362 799.482 175.808 802.64 178.48C806.25 181.48 809.79 182.43 813.64 183.48C818.36 184.765 823.257 185.271 828.14 184.98C841 185.28 848.32 181.44 852.64 177.48C861.38 169.48 861.59 152.7 861.64 119.48C861.64 108.26 861.64 93.27 861.64 75.48H845.64V58.48H1010.64V96.48H990.64V75.48H957.64L956.64 184.48H973.64V201.48H918.64V184.48H933.64V75.48H884.64V99.48C884.64 107.82 884.64 116.15 884.64 124.48C884.7 156.83 885.07 162.38 881.64 171.48C879.668 177.33 876.615 182.757 872.64 187.48C857.72 204.57 833.42 203.81 827.64 203.48C822.32 204.012 816.96 204.012 811.64 203.48C806.78 203 800.14 202.34 793.64 199.48C782.19 194.48 775.93 184.68 773.64 180.48C770.71 175.12 769.81 170.73 769.64 134.48C769.59 124.02 769.64 115.97 769.64 102.48C769.64 91.08 769.64 81.72 769.64 75.48H754.64V58.48Z" fill="#F05023"/>
<path d="M1233.1 77.98V99.98H1253.1V63.98C1247.55 61.9295 1241.87 60.259 1236.1 58.98C1226.6 56.7329 1216.86 55.7245 1207.1 55.98C1199.02 56.3 1176.82 57.16 1157.1 72.98C1150.77 78.0121 1145.36 84.1019 1141.1 90.98C1131.1 107.76 1131.73 124.39 1132.1 133.98C1132.41 142.05 1133.02 154.29 1140.1 167.98C1144.58 177.005 1151.08 184.875 1159.1 190.98C1173.56 201.8 1188.69 202.98 1201.1 203.98C1218.08 205.256 1235.13 202.869 1251.1 196.98V151.98H1266.1V134.98H1214.1V151.98H1230.1V183.98C1206.96 190.35 1183.43 185.85 1170.1 170.98C1159.17 158.8 1157.77 142.63 1157.1 134.98C1156.59 129.16 1155.62 116.21 1162.1 101.98C1164.32 97.11 1167.87 89.3 1176.1 82.98C1186.94 74.66 1198.95 74.26 1207.1 73.98C1215.94 73.707 1224.75 75.0629 1233.1 77.98Z" fill="#F05023"/>
<path d="M1264.1 58.98H1316.1V74.98H1302.1C1314.77 110.647 1327.43 146.313 1340.1 181.98C1352.43 146.32 1364.76 110.653 1377.1 74.98H1360.1V58.98H1412.1V74.98H1399.1L1350.1 200.98H1326.1L1276.1 74.98H1264.1V58.98Z" fill="#F05023"/>
<path d="M1290.1 190.98C1272.84 203.288 1253.01 211.496 1232.1 214.98C1219.28 217.07 1185.1 222.64 1154.1 203.98C1151.83 202.62 1130.54 189.56 1119.1 170.98C1115.56 165.24 1111.43 159.85 1108.1 153.98C1104.38 147.43 1102 142.21 1096.1 137.98C1093.66 136.243 1090.96 134.893 1088.1 133.98C1108.1 131.71 1122.86 114.37 1122.1 94.98C1121.38 76.66 1106.93 61.1 1088.1 58.98H1015.1V74.98H1030.1V184.98H1015.1V201.98H1069.1V184.98H1052.1V140.98H1069.1C1071.68 142.272 1074.04 143.959 1076.1 145.98C1078.18 148.04 1079.39 149.92 1083.1 156.98C1088.1 166.52 1088.45 167.91 1091.1 171.98C1092.96 174.752 1094.96 177.423 1097.1 179.98C1102.83 187.15 1108.1 192.88 1110.1 194.98C1139.71 225.73 1176.1 232.98 1176.1 232.98C1184.67 234.588 1193.39 235.258 1202.1 234.98C1241.5 234.06 1274.29 216.47 1295.1 201.98C1293.46 198.32 1291.79 194.653 1290.1 190.98ZM1059.8 123.41H1052.8V75.16H1074.94C1076.97 75.2406 1078.99 75.5766 1080.94 76.16C1082.14 76.53 1083.17 76.95 1083.71 77.16C1084.71 77.56 1085.47 77.93 1085.97 78.16C1085.97 78.16 1087.12 78.71 1087.97 79.16C1092.33 81.9749 1095.53 86.2511 1097.02 91.22C1098.66 97.2023 1098.31 103.554 1096.02 109.32C1095.24 110.98 1094.25 112.539 1093.09 113.96C1091.17 116.399 1088.79 118.438 1086.09 119.96C1084.51 120.817 1082.83 121.488 1081.09 121.96C1079.45 122.433 1077.78 122.767 1076.09 122.96C1072.35 123.346 1068.58 123.489 1064.82 123.39L1059.8 123.41Z" fill="#F05023"/>
<path d="M735.1 118.98C730.43 96.26 715.21 83.28 711.1 79.98C692.68 65.24 672.46 65.06 664.1 64.98C656.29 64.91 632.82 65.06 612.1 81.98C590.1 99.98 580.41 129.36 585.1 155.98C586.4 163.35 591.54 186.11 612.1 201.98C629.47 215.39 648.19 216.43 658.1 216.98C672.444 217.748 686.781 215.359 700.1 209.98V195.98C689.303 200.415 677.771 202.789 666.1 202.98C655.36 203.15 640.22 203.38 626.1 193.98C605.96 180.58 601.95 156.98 601.1 149.98C600.82 147.67 597.18 112.87 623.1 91.98C637.03 80.76 652.21 79.42 658.1 78.98C663.41 78.59 688.96 76.69 706.1 94.98C711.103 100.44 714.856 106.923 717.1 113.98C725.03 136.67 717.58 159.98 709.1 165.98C707.52 167.11 703.54 169.98 699.1 168.98C697.625 168.645 696.253 167.959 695.1 166.98C692.1 164.48 690.56 159.92 691.1 144.98C691.17 143.07 691.48 139.04 692.1 130.98C693.03 118.85 693.59 113.42 694.1 108.98C694.49 105.62 694.85 102.86 695.1 100.98H679.1C678.77 104.65 678.43 108.32 678.1 111.98C676.345 107.707 673.165 104.174 669.1 101.98C666.587 100.804 663.871 100.125 661.1 99.98C657.403 99.6297 653.673 99.9687 650.1 100.98C646.492 102.03 643.105 103.724 640.1 105.98C637.039 108.221 634.341 110.919 632.1 113.98C629.116 117.93 626.755 122.314 625.1 126.98C623.083 132.766 622.069 138.853 622.1 144.98C621.91 153.3 621.78 159.27 625.1 165.98C626.4 168.6 630.75 177.39 641.1 180.98C652.16 184.83 661.63 179.8 663.1 178.98C669.298 175.479 673.942 169.763 676.1 162.98C676.04 164.67 675.96 171.66 681.1 176.98C683.583 179.443 686.697 181.173 690.1 181.98C697.57 184.1 704.04 181.98 707.1 180.98C719.2 176.9 725.87 167.29 728.1 163.98C740.55 145.51 736.15 124.11 735.1 118.98ZM670.1 158.98C668.636 161.724 666.588 164.114 664.1 165.98C660.909 168.261 657.007 169.325 653.1 168.98C649.749 168.644 646.595 167.242 644.1 164.98C642.312 163.324 640.941 161.268 640.1 158.98C639.32 156.84 639.24 154.98 639.1 151.98C639.04 150.64 639.1 150.11 639.1 146.98C639.1 144.42 639.1 142.34 639.1 140.98C639.677 136.13 641.027 131.403 643.1 126.98C644.72 123.54 646.1 120.67 649.1 117.98C650.58 116.67 655.85 111.98 663.1 112.98C663.52 113.04 670.62 114.12 674.1 119.98C675.37 122.12 675.66 124.07 676.1 126.98C676.647 130.626 676.647 134.334 676.1 137.98C675.76 140.45 675.39 142.49 675.1 143.98C674.517 147.748 673.51 151.438 672.1 154.98C671.54 156.364 670.871 157.702 670.1 158.98V158.98Z" fill="#F0F0F0"/>
<path d="M548 65H525V201H548V65Z" fill="#F0F0F0"/>
<path d="M460.867 201H485V59H452.518L407.965 169.143L363.412 59H330V201H352.272V81.7552L398.686 201H415.392L462.728 81.7552L460.867 201Z" fill="#F0F0F0"/>
<path d="M367 186H315V202H367V186Z" fill="#F0F0F0"/>
<path d="M499.58 186.03H445.83V201.87H499.58V186.03Z" fill="#F0F0F0"/>
<path d="M347 59H315V74H347V59Z" fill="#F0F0F0"/>
<path d="M500 59H460V74H500V59Z" fill="#F0F0F0"/>
<path d="M562 59H510V74H562V59Z" fill="#F0F0F0"/>
<path d="M562 187H510V202H562V187Z" fill="#F0F0F0"/>
<path d="M66.4706 239C64.5098 233.225 64.5098 226.929 66.4706 221.154C67.9941 216.816 70.5907 212.969 74 210" stroke="#F05023" stroke-width="7" stroke-miterlimit="10"/>
<path d="M11 164C13.6541 159.552 17.2398 155.661 21.5381 152.567C25.8365 149.472 30.7573 147.237 36 146" stroke="#F05023" stroke-width="7" stroke-miterlimit="10"/>
<path d="M15 92C19.0053 88.835 23.8499 86.8269 28.9789 86.2058C34.1079 85.5848 39.3137 86.3759 44 88.4884" stroke="#F05023" stroke-width="7" stroke-miterlimit="10"/>
<path d="M45 36.1661C50.0179 32.8801 55.7942 31.4838 61.5281 32.1708C67.262 32.8577 72.6692 35.594 77 40" stroke="#F05023" stroke-width="7" stroke-miterlimit="10"/>
<path d="M44 190C47.82 180.731 54.3034 172.764 62.6533 167.079C71.0033 161.393 80.8559 158.238 91 158" stroke="#F05023" stroke-width="7" stroke-miterlimit="10"/>
<path d="M65.9416 164C62.9404 158.326 61.5982 151.734 62.1045 145.155C62.5007 140.494 63.8327 135.996 66 132" stroke="#F05023" stroke-width="7" stroke-miterlimit="10"/>
<path d="M120 109C116.291 102.583 108.817 92.0595 95.8889 86.381C93.6559 85.4026 91.3526 84.6065 89 84" stroke="#F05023" stroke-width="7" stroke-miterlimit="10"/>
<path d="M60 82C53.4846 82.7211 47.492 86.1037 43.2965 91.4286C35.5015 101.564 38.5193 113.821 38.8422 115" stroke="#F05023" stroke-width="7" stroke-miterlimit="10"/>
<path d="M120 58.9597C115.341 60.3594 110.347 60.3464 105.696 58.9225C101.045 57.4986 96.9617 54.7327 94 51" stroke="#F05023" stroke-width="7" stroke-miterlimit="10"/>
<path d="M121 185.04C116.699 183.641 112.09 183.654 107.796 185.078C103.503 186.501 99.7339 189.267 97 193" stroke="#F05023" stroke-width="7" stroke-miterlimit="10"/>
<path d="M183.161 210.389L191.065 240.036L166.226 256L138 246.878V8.56109L157.194 4L189.935 11.9819L208 32.5068L180.903 40.4887" stroke="#F0F0F0" stroke-width="7" stroke-miterlimit="10"/>
<path d="M208 239L236 210.25L250 164.25L223.167 147" stroke="#F0F0F0" stroke-width="7" stroke-miterlimit="10"/>
<path d="M255 146V105.909L232.96 86.4364L214.4 88.7273L197 83" stroke="#F0F0F0" stroke-width="7" stroke-miterlimit="10"/>
<path d="M138 109L150.311 86.2L169 85" stroke="#F0F0F0" stroke-width="7" stroke-miterlimit="10"/>
<path d="M138 184.512L158.495 184L162 194" stroke="#F0F0F0" stroke-width="7" stroke-miterlimit="10"/>
<path d="M138 60H155.045L163 53" stroke="#F0F0F0" stroke-width="7" stroke-miterlimit="10"/>
<path d="M214 89L221 116" stroke="#F0F0F0" stroke-width="7" stroke-miterlimit="10"/>
<path d="M191 161L197 147.56L191 133" stroke="#F0F0F0" stroke-width="7" stroke-miterlimit="10"/>
<path d="M167 159C168.119 159 191.619 161.207 191.619 161.207L214 191" stroke="#F0F0F0" stroke-width="7" stroke-miterlimit="10"/>
<path d="M222 44C223.136 44 242.455 62.0645 242.455 62.0645L247 79" stroke="#F0F0F0" stroke-width="7" stroke-miterlimit="10"/>
<path d="M162 55C163.105 55 164 53.8807 164 52.5C164 51.1193 163.105 50 162 50C160.895 50 160 51.1193 160 52.5C160 53.8807 160.895 55 162 55Z" fill="#F0F0F0" stroke="#F0F0F0" stroke-width="7" stroke-miterlimit="10"/>
<path d="M183.5 213C184.881 213 186 211.881 186 210.5C186 209.119 184.881 208 183.5 208C182.119 208 181 209.119 181 210.5C181 211.881 182.119 213 183.5 213Z" fill="#F0F0F0" stroke="#F0F0F0" stroke-width="7" stroke-miterlimit="10"/>
<path d="M169 88C170.105 88 171 86.8807 171 85.5C171 84.1193 170.105 83 169 83C167.895 83 167 84.1193 167 85.5C167 86.8807 167.895 88 169 88Z" fill="#F0F0F0" stroke="#F0F0F0" stroke-width="7" stroke-miterlimit="10"/>
<path d="M162 196C163.105 196 164 194.657 164 193C164 191.343 163.105 190 162 190C160.895 190 160 191.343 160 193C160 194.657 160.895 196 162 196Z" fill="#F0F0F0" stroke="#F0F0F0" stroke-width="7" stroke-miterlimit="10"/>
<path d="M182.5 42C183.881 42 185 41.1046 185 40C185 38.8954 183.881 38 182.5 38C181.119 38 180 38.8954 180 40C180 41.1046 181.119 42 182.5 42Z" fill="#F0F0F0" stroke="#F0F0F0" stroke-width="7" stroke-miterlimit="10"/>
<path d="M197 85C198.105 85 199 84.1046 199 83C199 81.8954 198.105 81 197 81C195.895 81 195 81.8954 195 83C195 84.1046 195.895 85 197 85Z" fill="#F0F0F0" stroke="#F0F0F0" stroke-width="7" stroke-miterlimit="10"/>
<path d="M191.5 135C192.881 135 194 134.105 194 133C194 131.895 192.881 131 191.5 131C190.119 131 189 131.895 189 133C189 134.105 190.119 135 191.5 135Z" fill="#F0F0F0" stroke="#F0F0F0" stroke-width="7" stroke-miterlimit="10"/>
<path d="M166.5 161C167.881 161 169 159.881 169 158.5C169 157.119 167.881 156 166.5 156C165.119 156 164 157.119 164 158.5C164 159.881 165.119 161 166.5 161Z" fill="#F0F0F0" stroke="#F0F0F0" stroke-width="7" stroke-miterlimit="10"/>
<path d="M221 118C222.105 118 223 117.105 223 116C223 114.895 222.105 114 221 114C219.895 114 219 114.895 219 116C219 117.105 219.895 118 221 118Z" fill="#F0F0F0" stroke="#F0F0F0" stroke-width="7" stroke-miterlimit="10"/>
<path d="M224.5 150C225.881 150 227 148.881 227 147.5C227 146.119 225.881 145 224.5 145C223.119 145 222 146.119 222 147.5C222 148.881 223.119 150 224.5 150Z" fill="#F0F0F0" stroke="#F0F0F0" stroke-width="7" stroke-miterlimit="10"/>
<path d="M210.5 239C211.881 239 213 237.881 213 236.5C213 235.119 211.881 234 210.5 234C209.119 234 208 235.119 208 236.5C208 237.881 209.119 239 210.5 239Z" fill="#F0F0F0" stroke="#F0F0F0" stroke-width="7" stroke-miterlimit="10"/>
<path d="M214.5 195C215.881 195 217 193.657 217 192C217 190.343 215.881 189 214.5 189C213.119 189 212 190.343 212 192C212 193.657 213.119 195 214.5 195Z" fill="#F0F0F0" stroke="#F0F0F0" stroke-width="7" stroke-miterlimit="10"/>
<path d="M120 7.43457V246.718C118.857 247.861 107.778 257.889 91.4173 255.684C89.7595 255.467 74.6106 253.172 66.6875 239.534C56.9677 240.204 47.3201 237.452 39.4195 231.756C31.7547 226.127 26.5352 217.783 24.8309 208.433C17.833 203.22 12.7274 195.87 10.288 187.497C8.28784 180.217 8.52687 172.504 10.974 165.362C6.46105 159.77 4 152.803 4 145.62C4 138.436 6.46105 131.469 10.974 125.877C10.0479 124.495 4.31995 115.598 7.79561 104.941C9.54788 99.8492 12.8801 95.448 17.3079 92.3775C16.4068 88.8531 16.2237 85.1837 16.7697 81.5872C17.3157 77.9908 18.5796 74.5406 20.4863 71.4416C22.8954 67.7373 26.1571 64.663 29.9987 62.4756C29.8386 56.7679 31.3829 51.1418 34.4347 46.3139C38.214 40.5162 43.7806 36.1059 50.2924 33.7501C58.4442 18.2509 64.8925 14.7216 68.6768 12.8142C72.4612 10.9068 75.4795 11.672 85.8265 8.62243C94.0926 6.16677 95.0415 5.19593 99.1346 4.43068C103.811 3.63117 110.762 3.59689 120 7.43457Z" stroke="#F05023" stroke-width="7" stroke-miterlimit="10"/>
<path d="M254.5 145C255.881 145 257 144.105 257 143C257 141.895 255.881 141 254.5 141C253.119 141 252 141.895 252 143C252 144.105 253.119 145 254.5 145Z" fill="#F0F0F0" stroke="#F0F0F0" stroke-width="7" stroke-miterlimit="10"/>
<path d="M247 79C248.105 79 249 77.8807 249 76.5C249 75.1193 248.105 74 247 74C245.895 74 245 75.1193 245 76.5C245 77.8807 245.895 79 247 79Z" fill="#F0F0F0" stroke="#F0F0F0" stroke-width="7" stroke-miterlimit="10"/>
<path d="M223 47C224.105 47 225 45.8807 225 44.5C225 43.1193 224.105 42 223 42C221.895 42 221 43.1193 221 44.5C221 45.8807 221.895 47 223 47Z" fill="#F0F0F0" stroke="#F0F0F0" stroke-width="7" stroke-miterlimit="10"/>
<path d="M65 82.5C65 84.433 63.2091 86 61 86C58.7909 86 57 84.433 57 82.5C57 80.567 58.7909 79 61 79C63.2091 79 65 80.567 65 82.5Z" fill="#F05023"/>
<path d="M82 40C82 42.2091 80.2091 44 78 44C75.7909 44 74 42.2091 74 40C74 37.7909 75.7909 36 78 36C80.2091 36 82 37.7909 82 40Z" fill="#F05023"/>
<path d="M98 51.5C98 53.9853 96.2091 56 94 56C91.7909 56 90 53.9853 90 51.5C90 49.0147 91.7909 47 94 47C96.2091 47 98 49.0147 98 51.5Z" fill="#F05023"/>
<path d="M92 85C92 87.2091 90.2091 89 88 89C85.7909 89 84 87.2091 84 85C84 82.7909 85.7909 81 88 81C90.2091 81 92 82.7909 92 85Z" fill="#F05023"/>
<path d="M70 132C70 134.209 68.2091 136 66 136C63.7909 136 62 134.209 62 132C62 129.791 63.7909 128 66 128C68.2091 128 70 129.791 70 132Z" fill="#F05023"/>
<path d="M94 158C94 160.209 92.2091 162 90 162C87.7909 162 86 160.209 86 158C86 155.791 87.7909 154 90 154C92.2091 154 94 155.791 94 158Z" fill="#F05023"/>
<path d="M40 146C40 148.209 38.2091 150 36 150C33.7909 150 32 148.209 32 146C32 143.791 33.7909 142 36 142C38.2091 142 40 143.791 40 146Z" fill="#F05023"/>
<path d="M100 193C100 195.209 98.2091 197 96 197C93.7909 197 92 195.209 92 193C92 190.791 93.7909 189 96 189C98.2091 189 100 190.791 100 193Z" fill="#F05023"/>
<path d="M48 191C48 193.209 46.2091 195 44 195C41.7909 195 40 193.209 40 191C40 188.791 41.7909 187 44 187C46.2091 187 48 188.791 48 191Z" fill="#F05023"/>
<path d="M77 209C77 211.209 75.433 213 73.5 213C71.567 213 70 211.209 70 209C70 206.791 71.567 205 73.5 205C75.433 205 77 206.791 77 209Z" fill="#F05023"/>
<path d="M44 114C44 116.209 42.2091 118 40 118C37.7909 118 36 116.209 36 114C36 111.791 37.7909 110 40 110C42.2091 110 44 111.791 44 114Z" fill="#F05023"/>
</svg>
