<svg id="Layer_1" data-name="Layer 1" xmlns="http://www.w3.org/2000/svg" viewBox="0 0 1349.1 255.02"><defs><style>.cls-1{fill:#f05023;}.cls-2,.cls-4{fill:#f0f0f0;}.cls-3{fill:none;}.cls-3,.cls-4{stroke:#f0f0f0;stroke-miterlimit:10;stroke-width:7px;}</style></defs><title>nav-logo2</title><path class="cls-1" d="M705,237.91h53v17H744v26c0,8.67.22,17.34,0,26-.23,9.33.13,18.67,0,28a31.56,31.56,0,0,0,2,13,23.94,23.94,0,0,0,7,10c3.61,3,7.15,3.95,11,5a45,45,0,0,0,14.5,1.5c12.86.3,20.18-3.54,24.5-7.5,8.74-8,8.95-24.78,9-58,0-11.22,0-26.21,0-44H796v-17H961v38H941v-21H908l-1,109h17v17H869v-17h15v-109H835v24c0,8.34,0,16.67,0,25,.06,32.35.43,37.9-3,47a49.31,49.31,0,0,1-9,16c-14.92,17.09-39.22,16.33-45,16a80.35,80.35,0,0,1-16,0c-4.86-.48-11.5-1.14-18-4-11.45-5-17.71-14.8-20-19-2.93-5.36-3.83-9.75-4-46-.05-10.46,0-18.51,0-32,0-11.4,0-20.76,0-27H705Z" transform="translate(-13.36 -159.43)"/><path class="cls-1" d="M1183.46,257.41v22h20v-36a130.3,130.3,0,0,0-17-5,113.09,113.09,0,0,0-29-3c-8.08.32-30.28,1.18-50,17a70.1,70.1,0,0,0-16,18c-10,16.78-9.37,33.41-9,43,.31,8.07.92,20.31,8,34a65.56,65.56,0,0,0,19,23c14.46,10.82,29.59,12,42,13a118.79,118.79,0,0,0,50-7v-45h15v-17h-52v17h16v32c-23.14,6.37-46.67,1.87-60-13-10.93-12.18-12.33-28.35-13-36-.51-5.82-1.48-18.77,5-33,2.22-4.87,5.77-12.68,14-19,10.84-8.32,22.85-8.72,31-9A72.07,72.07,0,0,1,1183.46,257.41Z" transform="translate(-13.36 -159.43)"/><path class="cls-1" d="M1214.46,238.41h52v16h-14q19,53.5,38,107,18.49-53.49,37-107h-17v-16h52v16h-13l-49,126h-24l-50-126h-12Z" transform="translate(-13.36 -159.43)"/><path class="cls-1" d="M1240.46,370.41a139.31,139.31,0,0,1-58,24c-12.82,2.09-47,7.66-78-11-2.27-1.36-23.56-14.42-35-33-3.54-5.74-7.67-11.13-11-17-3.72-6.55-6.1-11.77-12-16a29.11,29.11,0,0,0-8-4c20-2.27,34.76-19.61,34-39-.72-18.32-15.17-33.88-34-36h-73v16h15v110h-15v17h54v-17h-17v-44h17a27.68,27.68,0,0,1,7,5c2.08,2.06,3.29,3.94,7,11,5,9.54,5.35,10.93,8,15a93.22,93.22,0,0,0,6,8c5.73,7.17,11,12.9,13,15,29.61,30.75,66,38,66,38a120.17,120.17,0,0,0,26,2c39.4-.92,72.19-18.51,93-33Q1243,375.92,1240.46,370.41Zm-230.3-67.57h-7V254.59h22.14a24.29,24.29,0,0,1,6,1c1.2.37,2.23.79,2.77,1,1,.4,1.76.77,2.26,1,0,0,1.15.55,2,1a21.79,21.79,0,0,1,9.05,12.06,28.62,28.62,0,0,1-1,18.1,22.51,22.51,0,0,1-2.93,4.64,23.7,23.7,0,0,1-7,6,23.35,23.35,0,0,1-5,2,30.41,30.41,0,0,1-5,1,87.39,87.39,0,0,1-11.27.43Z" transform="translate(-13.36 -159.43)"/><path class="cls-2" d="M1002.46,255.41" transform="translate(-13.36 -159.43)"/><path class="cls-2" d="M685.46,298.41c-4.67-22.72-19.89-35.7-24-39-18.42-14.74-38.64-14.92-47-15-7.81-.07-31.28.08-52,17-22,18-31.69,47.38-27,74,1.3,7.37,6.44,30.13,27,46,17.37,13.41,36.09,14.45,46,15a98.14,98.14,0,0,0,42-7v-14a93.52,93.52,0,0,1-34,7c-10.74.17-25.88.4-40-9-20.14-13.4-24.15-37-25-44-.28-2.31-3.92-37.11,22-58,13.93-11.22,29.11-12.56,35-13,5.31-.39,30.86-2.29,48,16a51,51,0,0,1,11,19c7.93,22.69.48,46-8,52-1.58,1.13-5.56,4-10,3a9.39,9.39,0,0,1-4-2c-3-2.5-4.54-7.06-4-22,.07-1.91.38-5.94,1-14,.93-12.13,1.49-17.56,2-22,.39-3.36.75-6.12,1-8h-16c-.33,3.67-.67,7.34-1,11a20,20,0,0,0-9-10,21.53,21.53,0,0,0-8-2,30,30,0,0,0-11,1,31.15,31.15,0,0,0-10,5,37,37,0,0,0-8,8,48.42,48.42,0,0,0-7,13,53.84,53.84,0,0,0-3,18c-.19,8.32-.32,14.29,3,21,1.3,2.62,5.65,11.41,16,15,11.06,3.85,20.53-1.18,22-2a28.19,28.19,0,0,0,13-16c-.06,1.69-.14,8.68,5,14a19,19,0,0,0,9,5c7.47,2.12,13.94,0,17-1,12.1-4.08,18.77-13.69,21-17C690.91,324.94,686.51,303.54,685.46,298.41Zm-65,40a21.26,21.26,0,0,1-6,7,16.43,16.43,0,0,1-11,3,15.73,15.73,0,0,1-9-4,15.44,15.44,0,0,1-4-6c-.78-2.14-.86-4-1-7-.06-1.34,0-1.87,0-5,0-2.56,0-4.64,0-6a45.7,45.7,0,0,1,4-14c1.62-3.44,3-6.31,6-9,1.48-1.31,6.75-6,14-5,.42.06,7.52,1.14,11,7,1.27,2.14,1.56,4.09,2,7a37.09,37.09,0,0,1,0,11c-.34,2.47-.71,4.51-1,6a50.72,50.72,0,0,1-3,11A28.21,28.21,0,0,1,620.46,338.41Z" transform="translate(-13.36 -159.43)"/><rect class="cls-2" x="460.04" y="78.48" width="25.41" height="145.4"/><polygon class="cls-2" points="396.51 223.88 421.92 223.88 421.92 78.48 387.72 78.48 340.81 191.26 293.9 78.48 258.72 78.48 258.72 223.88 282.17 223.88 282.17 101.78 331.04 223.88 348.63 223.88 398.47 101.78 396.51 223.88"/><path class="cls-3" d="M118.36,166.09v209.5c-1,1-10.69,9.78-25,7.85-1.45-.19-14.7-2.2-21.63-14.14a36.47,36.47,0,0,1-23.85-6.81,32.59,32.59,0,0,1-12.76-20.42A35.1,35.1,0,0,1,22.4,323.74,32.93,32.93,0,0,1,23,304.36a27.54,27.54,0,0,1,0-34.57c-.81-1.21-5.82-9-2.78-18.33a22.16,22.16,0,0,1,8.32-11,23.77,23.77,0,0,1,2.78-18.33,24.23,24.23,0,0,1,8.32-7.85,25.18,25.18,0,0,1,3.88-14.15,27.88,27.88,0,0,1,13.87-11c7.13-13.57,12.77-16.66,16.08-18.33s5.95-1,15-3.67c7.23-2.15,8.06-3,11.64-3.67C104.2,162.76,110.28,162.73,118.36,166.09Z" transform="translate(-13.36 -159.43)"/><path class="cls-3" d="M71.28,369a24.09,24.09,0,0,1,0-16,23.61,23.61,0,0,1,7-10" transform="translate(-13.36 -159.43)"/><path class="cls-3" d="M23.28,304a33.4,33.4,0,0,1,21-16" transform="translate(-13.36 -159.43)"/><path class="cls-3" d="M27.28,241a22.77,22.77,0,0,1,24-3" transform="translate(-13.36 -159.43)"/><path class="cls-3" d="M52.28,191.66a25.17,25.17,0,0,1,29,3" transform="translate(-13.36 -159.43)"/><path class="cls-3" d="M51.28,327a46.53,46.53,0,0,1,42-29" transform="translate(-13.36 -159.43)"/><path class="cls-3" d="M71.22,304.19A28.75,28.75,0,0,1,67.28,287a28.18,28.18,0,0,1,4-12" transform="translate(-13.36 -159.43)"/><path class="cls-3" d="M118.28,255c-3.23-5.39-9.74-14.23-21-19a40.56,40.56,0,0,0-6-2" transform="translate(-13.36 -159.43)"/><path class="cls-3" d="M66.28,232a22.59,22.59,0,0,0-15,8c-7,8.6-4.29,19-4,20" transform="translate(-13.36 -159.43)"/><circle class="cls-3" cx="33.92" cy="100.1" r="0.1"/><circle class="cls-4" cx="78.5" cy="74.72" r="0.1"/><circle class="cls-4" cx="79.5" cy="138.72" r="0.1"/><path class="cls-4" d="M71.26,275.15a.11.11,0,0,0,.1.1.1.1,0,0,0,.1-.1.09.09,0,0,0-.1-.1A.1.1,0,0,0,71.26,275.15Z" transform="translate(-13.36 -159.43)"/><circle class="cls-4" cx="65" cy="183.72" r="0.1"/><circle class="cls-4" cx="38" cy="167.72" r="0.1"/><circle class="cls-4" cx="30.5" cy="128.72" r="0.1"/><circle class="cls-4" cx="67.5" cy="34.8" r="0.1"/><circle class="cls-4" cx="52.5" cy="72.72" r="0.1"/><path class="cls-3" d="M118.28,212a20.13,20.13,0,0,1-22-7" transform="translate(-13.36 -159.43)"/><circle class="cls-4" cx="82.82" cy="45.63" r="0.1"/><path class="cls-3" d="M119.94,321.37a20.13,20.13,0,0,0-22,7" transform="translate(-13.36 -159.43)"/><circle class="cls-4" cx="84.49" cy="168.9" r="0.1"/><polyline class="cls-3" points="156.92 184.6 163.92 210.6 141.92 224.6 116.92 216.6 116.92 7.6 133.92 3.6 162.92 10.6 178.92 28.6 154.92 35.6"/><polyline class="cls-3" points="178.92 209.6 202.92 184.6 214.92 144.6 191.92 129.6"/><polyline class="cls-3" points="218.92 128.6 218.92 93.6 199.92 76.6 183.92 78.6 168.92 73.6"/><polyline class="cls-3" points="117.38 95.6 127.92 76.6 143.92 75.6"/><polyline class="cls-3" points="117.38 162.01 134.92 161.6 137.92 169.6"/><polyline class="cls-3" points="116.92 53.6 131.92 53.6 138.92 46.6"/><line class="cls-3" x1="183.92" y1="78.6" x2="188.92" y2="101.6"/><path class="cls-3" d="M155.28,299c1,0,22,2,22,2l20,27" transform="translate(-13.36 -159.43)"/><polyline class="cls-3" points="163.92 141.6 168.92 129.6 163.92 116.6"/><path class="cls-3" d="M203.28,198c1,0,18,16,18,16l4,15" transform="translate(-13.36 -159.43)"/><circle class="cls-4" cx="137.92" cy="46.6" r="2"/><circle class="cls-4" cx="143.92" cy="75.6" r="2"/><circle class="cls-4" cx="156.92" cy="184.6" r="2"/><circle class="cls-4" cx="137.92" cy="169.6" r="2"/><circle class="cls-4" cx="155.92" cy="35.6" r="2"/><circle class="cls-4" cx="168.92" cy="73.6" r="2"/><circle class="cls-4" cx="163.92" cy="116.6" r="2"/><circle class="cls-4" cx="141.92" cy="139.6" r="2"/><circle class="cls-4" cx="188.92" cy="101.6" r="2"/><circle class="cls-4" cx="191.92" cy="129.6" r="2"/><circle class="cls-4" cx="180.92" cy="207.6" r="2"/><circle class="cls-4" cx="183.92" cy="168.6" r="2"/><circle class="cls-4" cx="211.92" cy="67.6" r="2"/><circle class="cls-4" cx="218.92" cy="125.6" r="2"/><circle class="cls-4" cx="190.92" cy="39.6" r="2"/><rect class="cls-2" x="243.08" y="208.03" width="53.75" height="15.84"/><rect class="cls-2" x="382.83" y="208.03" width="53.75" height="15.84"/><rect class="cls-2" x="242.1" y="78.48" width="42.02" height="15.84"/><rect class="cls-2" x="396.51" y="78.48" width="40.07" height="15.84"/><rect class="cls-2" x="446.35" y="208.03" width="53.75" height="15.84"/><rect class="cls-2" x="446.35" y="78.48" width="53.75" height="15.84"/></svg>