<svg id="Layer_2" data-name="Layer 2" xmlns="http://www.w3.org/2000/svg" viewBox="0 0 1238.05 257.4"><defs><style>.cls-1,.cls-2,.cls-3,.cls-6{fill:none;}.cls-1,.cls-2,.cls-3,.cls-4,.cls-5,.cls-6,.cls-7{stroke:#f0f0f0;}.cls-1,.cls-2,.cls-3,.cls-4,.cls-5,.cls-6,.cls-7,.cls-8{stroke-miterlimit:10;}.cls-1{stroke-width:7px;}.cls-2,.cls-7{stroke-width:4px;}.cls-3{stroke-width:2px;}.cls-4,.cls-5,.cls-7,.cls-9{fill:#f0f0f0;}.cls-4{stroke-width:3px;}.cls-6{stroke-width:5px;}.cls-8{fill:#646469;stroke:#646469;stroke-width:1.2px;}.cls-10{fill:#f05023;}</style></defs><title>navtitle</title><path class="cls-1" d="M110.5,121.14V330.63c-1,1-10.69,9.78-25,7.86-1.45-.2-14.7-2.21-21.63-14.14a36.61,36.61,0,0,1-23.85-6.81A32.6,32.6,0,0,1,27.3,297.11a35.1,35.1,0,0,1-12.75-18.33,33,33,0,0,1,.55-19.38,27.53,27.53,0,0,1,0-34.56c-.8-1.21-5.81-9-2.77-18.33a22.06,22.06,0,0,1,8.32-11,23.75,23.75,0,0,1,2.77-18.33,24.38,24.38,0,0,1,8.32-7.86,25.13,25.13,0,0,1,3.88-14.14,28,28,0,0,1,13.87-11c7.13-13.56,12.77-16.65,16.08-18.33s6-1,15-3.67c7.23-2.14,8.06-3.05,11.65-3.66C96.34,117.8,102.42,117.78,110.5,121.14Z" transform="translate(-5.5 -114.63)"/><path class="cls-2" d="M29,297l7-22c1.42.36,29,7.21,33-1,.65-1.34,1.1-4-2-9" transform="translate(-5.5 -114.63)"/><path class="cls-2" d="M27,239a37.44,37.44,0,0,0-1,14.14c1.48,12.14,8.64,20.43,12,23.86" transform="translate(-5.5 -114.63)"/><path class="cls-2" d="M59.75,277.76C59.68,290.62,68.86,299.42,77,299c7.94-.41,12.74-9.49,13-10" transform="translate(-5.5 -114.63)"/><path class="cls-2" d="M20.35,194.17c6.3,4.05,9.75,3.67,11.65,2.83,7.73-3.41,2.25-19.78,12-27,5.83-4.31,11.29-1.06,17-7,3.37-3.51,5.68-9,4-11-2.44-2.85-12.81,2.23-18,5" transform="translate(-5.5 -114.63)"/><path class="cls-2" d="M80,271c4.48,3,10.45,6.22,14,4,1.48-.93,1.69-2.26,3-4,1.83-2.42,5.46-5.2,13.5-6" transform="translate(-5.5 -114.63)"/><path class="cls-2" d="M40,293c1.57,2.21,14.74,20.15,38,21,17.36.64,29.38-8.64,32.5-11.21" transform="translate(-5.5 -114.63)"/><path class="cls-2" d="M56,233a89.35,89.35,0,0,1,6,10c3.51,6.82,4.28,10.5,7,11s3.9-2.6,8-4c4.59-1.57,9.4.11,13,2" transform="translate(-5.5 -114.63)"/><path class="cls-2" d="M16,226c1.65-2,4-4.73,7-8,6.83-7.53,8.3-8.38,9-8s.47,1.74,0,6-.8,7.77-1,10" transform="translate(-5.5 -114.63)"/><path class="cls-2" d="M82,137a25.74,25.74,0,0,1,28.5,9.74" transform="translate(-5.5 -114.63)"/><path class="cls-2" d="M77,220c2.88,7.84,6.39,10.23,9,11,4.33,1.28,7.28-1.58,13-1,5.17.53,9.09,3.51,11.5,5.81" transform="translate(-5.5 -114.63)"/><path class="cls-2" d="M47,254c-2.32-4-8.5-15.92-6-31a44.75,44.75,0,0,1,6-16" transform="translate(-5.5 -114.63)"/><path class="cls-2" d="M47,188c-1,1.8-4,8-2,15,2.59,8.93,12.12,14.82,15,13s-2.5-9.58,0-21a33.33,33.33,0,0,1,7-14" transform="translate(-5.5 -114.63)"/><path class="cls-2" d="M110.5,172.5A18,18,0,0,0,103,171c-4.17.1-6,1.71-9,1-1.6-.38-3.81-1.5-6-5" transform="translate(-5.5 -114.63)"/><path class="cls-2" d="M75,198c9.48-6.62,11.33-11.56,11-15-.66-6.91-10.25-9.17-12-18-1-5,1-9.68,3-13" transform="translate(-5.5 -114.63)"/><path class="cls-2" d="M50,145.23A48.57,48.57,0,0,1,69,141c4.18,11.28,8.19,13.73,11,14,5.7.54,10.22-7.56,14-6,2.38,1,2.89,5.16,3,8" transform="translate(-5.5 -114.63)"/><path class="cls-2" d="M111,211.67c-3.8-4.69-7.34-6.2-10-6.67s-4.48.18-6-1c-2.51-1.94-2-6.9-1-11" transform="translate(-5.5 -114.63)"/><circle class="cls-3" cx="71.5" cy="105.37" r="1"/><circle class="cls-3" cx="88.5" cy="78.37" r="1"/><circle class="cls-3" cx="69.5" cy="83.37" r="1"/><circle class="cls-3" cx="82.5" cy="52.37" r="1"/><circle class="cls-3" cx="91.5" cy="41.37" r="1"/><circle class="cls-3" cx="76.5" cy="22.37" r="1"/><circle class="cls-3" cx="41.5" cy="42.37" r="1"/><circle class="cls-3" cx="61.5" cy="66.37" r="1"/><circle class="cls-3" cx="41.5" cy="73.37" r="1"/><circle class="cls-3" cx="50.5" cy="118.37" r="1"/><circle class="cls-3" cx="84.5" cy="137.37" r="1"/><circle class="cls-3" cx="74.5" cy="156.37" r="1"/><circle class="cls-3" cx="61.5" cy="150.37" r="1"/><circle class="cls-3" cx="84.5" cy="174.37" r="1"/><circle class="cls-3" cx="34.5" cy="178.37" r="1"/><circle class="cls-3" cx="41.5" cy="139.37" r="1"/><circle class="cls-3" cx="25.5" cy="112.37" r="1"/><circle class="cls-3" cx="21.5" cy="124.37" r="1"/><path class="cls-4" d="M121,122" transform="translate(-5.5 -114.63)"/><ellipse class="cls-5" cx="118.46" cy="57.37" rx="4.95" ry="5.05"/><ellipse class="cls-5" cx="118.46" cy="94.71" rx="4.95" ry="5.05"/><ellipse class="cls-5" cx="118.46" cy="189.57" rx="4.95" ry="5.05"/><ellipse class="cls-5" cx="118.46" cy="120.95" rx="4.95" ry="5.05"/><ellipse class="cls-5" cx="118.46" cy="216.82" rx="4.95" ry="5.05"/><ellipse class="cls-5" cx="118.46" cy="6.91" rx="4.95" ry="5.05"/><ellipse class="cls-5" cx="118.46" cy="152.23" rx="4.95" ry="5.05"/><ellipse class="cls-5" cx="118.46" cy="31.13" rx="4.95" ry="5.05"/><ellipse class="cls-5" cx="146.18" cy="113.38" rx="4.95" ry="5.05"/><ellipse class="cls-5" cx="181.88" cy="28.11" rx="4.95" ry="5.05"/><ellipse class="cls-5" cx="208.6" cy="84.62" rx="4.95" ry="5.05"/><ellipse class="cls-5" cx="210.54" cy="111.87" rx="4.95" ry="5.05"/><ellipse class="cls-5" cx="198.66" cy="183.52" rx="4.95" ry="5.05"/><ellipse class="cls-5" cx="146.11" cy="82.6" rx="4.95" ry="5.05"/><ellipse class="cls-5" cx="160.04" cy="151.23" rx="4.95" ry="5.05"/><ellipse class="cls-5" cx="179.89" cy="58.38" rx="4.95" ry="5.05"/><ellipse class="cls-5" cx="199.65" cy="137.1" rx="4.95" ry="5.05"/><ellipse class="cls-5" cx="165.99" cy="100.77" rx="4.95" ry="5.05"/><ellipse class="cls-5" cx="139.25" cy="136.09" rx="4.95" ry="5.05"/><ellipse class="cls-5" cx="140.24" cy="177.46" rx="4.95" ry="5.05"/><polyline class="cls-6" points="118.96 28.62 118.96 6.42 160 6.42 179.5 25.84"/><polyline class="cls-6" points="209.09 85.13 181.37 78.06 180.38 58.89"/><polyline class="cls-6" points="197.17 183.01 190.24 161.82 200.14 137.6"/><ellipse class="cls-5" cx="155.11" cy="46.27" rx="4.95" ry="5.05"/><polyline class="cls-6" points="160.54 149.71 166.48 163.84 190.24 161.82"/><polyline class="cls-6" points="140.74 177.97 159.55 184.02 166.48 163.84"/><polyline class="cls-6" points="118.96 121.45 118.96 152.74 130.84 162.83 143.71 158.79"/><ellipse class="cls-5" cx="179.85" cy="138.11" rx="4.95" ry="5.05"/><path class="cls-5" d="M144.75,251.73" transform="translate(-5.5 -114.63)"/><polyline class="cls-6" points="179.85 138.11 187.77 111.87 210.54 111.87"/><ellipse class="cls-5" cx="144.2" cy="22.05" rx="4.95" ry="5.05"/><polyline class="cls-6" points="118.46 31.13 128.36 22.05 144.2 22.05"/><polyline class="cls-6" points="118.46 120.95 136.28 120.95 146.18 113.89"/><ellipse class="cls-5" cx="178.86" cy="180.49" rx="4.95" ry="5.05"/><polyline class="cls-6" points="119.45 189.57 147.17 200.68 169.94 194.62 178.86 180.49"/><ellipse class="cls-5" cx="144.2" cy="158.29" rx="4.95" ry="5.05"/><ellipse class="cls-5" cx="166.98" cy="118.93" rx="4.95" ry="5.05"/><polyline class="cls-6" points="139.25 136.09 162.03 136.09 166.97 119.94"/><ellipse class="cls-5" cx="201.67" cy="59.39" rx="4.95" ry="5.05"/><path class="cls-5" d="M216,226.5" transform="translate(-5.5 -114.63)"/><path class="cls-5" d="M216,226.5" transform="translate(-5.5 -114.63)"/><polyline class="cls-6" points="118.96 190.08 118.96 217.33 165.49 215.31 199.15 184.02 215.49 146.18 210.54 111.87"/><polyline class="cls-6" points="118 57.37 118 94.71 134 94.71 146 82.6"/><polyline class="cls-6" points="155 46.27 162 27.1 182 28.11 201.5 59.9"/><ellipse class="cls-5" cx="158" cy="64.44" rx="5" ry="5.05"/><polyline class="cls-6" points="166 100.77 166 75.54 159 65.45"/><line class="cls-7" x1="202" y1="59.39" x2="209" y2="84.62"/><ellipse class="cls-5" cx="137" cy="39.21" rx="5" ry="5.05"/><polyline class="cls-6" points="118 57.37 134 57.37 137 39.21"/><path class="cls-8" d="M1216.5,356.5" transform="translate(-5.5 -114.63)"/><path class="cls-9" d="M350.32,267.05c0-28.88.5-61.86,1-81.06h-.69c-5.84,32.12-15.22,89.2-26.29,144H297c-8.2-51-17.92-111.73-23.35-144.43h-.94c1,19.75,1.75,55.2,1.75,84.42v60h-27.7V160.8H292c8.85,46.75,16.61,94,20,118.66h.25c3.44-22.95,14-73.91,22.86-118.66h44.21V330H350.32Z" transform="translate(-5.5 -114.63)"/><path class="cls-9" d="M438.91,160.8V330H408.57V160.8Z" transform="translate(-5.5 -114.63)"/><path class="cls-9" d="M589.42,360c-9.59,6.78-25.57,12-46.88,12-50.67,0-78.27-33.76-78.27-95.38,0-56.48,26.85-105.26,84.84-105.26,48.08,0,77.61,29.62,77.61,81.82,0,44.87-15,74.52-44.18,74.52-9.33,0-19.29-3.05-23.06-14.73-6.54,11.75-16.24,14.73-26.2,14.73-14.88,0-26-9.15-26-38,0-46.91,13.74-74.27,35.3-74.27,11.87,0,17.44,5.68,18.94,11.61l1-9.36H587.1l-8.94,72.56c-1.31,10.47.53,16.25,8,16.25,14,0,19.92-26.74,19.92-50.66,0-44-19.75-64.56-57.24-64.56-44.81,0-61.64,39.3-61.64,85.39,0,40.45,13.63,74.29,57.45,74.29,13.41,0,24.89-2.06,39.14-9.2Zm-56.89-72.05c0,11.44,2.84,16.35,8.85,16.35,7.75,0,11.2-6.38,15-35.87,2.84-21.41,1.63-29.75-7.4-29.75C534.91,238.66,532.53,275,532.53,287.93Z" transform="translate(-5.5 -114.63)"/><path class="cls-10" d="M680.19,160.8V277.18c0,13.86,3.45,30.31,22.06,30.31,18,0,21.88-13.86,21.88-30.12V160.8h30.34v117c0,30.37-11.85,55.05-52.72,55.05-40.21,0-51.93-23.21-51.93-55.06v-117Z" transform="translate(-5.5 -114.63)"/><path class="cls-10" d="M805.34,187.31H769.2V160.8H871.81v26.51H835.67V330H805.34Z" transform="translate(-5.5 -114.63)"/><path class="cls-10" d="M918.43,257.83V330H888.31V160.8h51.8c30.74,0,48.17,16,48.17,46.21,0,24.46-13.1,35-21.93,38.52,13.1,6.13,19.3,17.26,19.3,42.24v6.75c0,19.22.91,26.4,2.28,35.43h-29.3c-2.47-7.75-2.91-21.14-2.91-35.71v-6.16c0-22.61-5.19-30.25-24.3-30.25Zm0-24.53h14.21c18.28,0,25.43-7.87,25.43-25,0-14.56-7-23-22.45-23H918.43Z" transform="translate(-5.5 -114.63)"/><path class="cls-10" d="M1113.11,330H1090a133,133,0,0,1-1.44-14.4c-7.55,13.39-19.3,17.31-33.59,17.31-35.33,0-48.11-31.46-48.11-86.43,0-61.75,20.84-88.32,57.17-88.32,45.83,0,48.37,39.28,48.87,49.31H1083c-.5-6.82-2-23.68-19.85-23.68-19.52,0-25,26-25,62.63,0,39.44,4.64,61.09,23.94,61.09,16.06,0,20.9-12.31,20.9-37.23v-9.48h-22.78V234.9h52.87Z" transform="translate(-5.5 -114.63)"/><path class="cls-10" d="M1165.68,330l-42-169.15h32.63l15.5,71.76c4.9,22.52,9.57,47.56,11.6,65.23h.5c2-17.18,8.23-42.46,13-64.6l15-72.39h31.68L1201,330Z" transform="translate(-5.5 -114.63)"/></svg>